<svg xmlns="http://www.w3.org/2000/svg" version="1.1" xmlns:xlink="http://www.w3.org/1999/xlink" xmlns:svgjs="http://svgjs.com/svgjs" width="1440" height="850" preserveAspectRatio="none" viewBox="0 0 1440 850"><g mask="url(&quot;#SvgjsMask2718&quot;)" fill="none"><rect width="1440" height="850" x="0" y="0" fill="url(#SvgjsLinearGradient2719)"></rect><path d="M1088.2034315389271 430.50759589466116L858.2584388478617 513.9526414995487 1019.6412064430865 654.2405410821559z" fill="rgba(28, 83, 142, 0.4)" class="triangle-float1"></path><path d="M377.7722036211627 53.7836763637721L243.3130018182629-67.28393273261833 256.7045945247723 188.24287816667191z" fill="rgba(28, 83, 142, 0.4)" class="triangle-float2"></path><path d="M54.784590299759614 252.89866383085558L286.05295485473636 314.86683534822816 348.02112637210894 83.59847079325144 116.75276181713221 21.630299275878855z" fill="rgba(28, 83, 142, 0.4)" class="triangle-float1"></path><path d="M204.79132130030825 418.29471483199785L291.2923422090962 546.5377521678712 333.0343586361816 331.79369392320984z" fill="rgba(28, 83, 142, 0.4)" class="triangle-float1"></path><path d="M759.5959695716899 280.9186790236562L846.5734695973408 507.50281321488376 986.1801037629175 193.9411789980053z" fill="rgba(28, 83, 142, 0.4)" class="triangle-float1"></path><path d="M1398.892,772.563C1482.237,775.309,1576.507,774.596,1622.279,704.891C1671.211,630.375,1655.985,530.238,1606.869,455.843C1562.316,388.36,1479.677,362.956,1398.892,366.534C1324.769,369.817,1259.385,409.731,1220.553,472.954C1179.601,539.628,1159.601,623.73,1199.623,690.966C1238.971,757.071,1322.005,770.03,1398.892,772.563" fill="rgba(28, 83, 142, 0.4)" class="triangle-float2"></path><path d="M633.324,745.033C660.546,744.918,680.075,720.938,692.063,696.498C702.529,675.16,702.051,650.343,689.74,630.013C677.871,610.412,656.237,599.766,633.324,599.496C609.889,599.22,586.785,608.661,574.561,628.658C561.826,649.491,562.715,675.201,573.721,696.997C586.048,721.41,605.975,745.148,633.324,745.033" fill="rgba(28, 83, 142, 0.4)" class="triangle-float1"></path><path d="M1255.7696002641362 348.9498195354795L1449.0260013055538 300.76558702716204 1400.8417687972362 107.50918598574455 1207.5853677558189 155.69341849406197z" fill="rgba(28, 83, 142, 0.4)" class="triangle-float1"></path><path d="M634.454,263.66C694.031,265.948,742.877,222.322,773.263,171.025C804.356,118.535,820.113,54.137,789.994,1.082C759.57,-52.509,696.079,-73.335,634.454,-73.483C572.525,-73.632,506.101,-54.657,477.613,0.331C450.572,52.526,482.879,110.524,512.96,161.028C542.036,209.845,577.676,261.479,634.454,263.66" fill="rgba(28, 83, 142, 0.4)" class="triangle-float2"></path><path d="M995.696,352.758C1048.113,349.79,1075.906,296.982,1102.273,251.582C1128.819,205.873,1163.421,154.238,1137.859,107.972C1111.863,60.92,1049.452,58.526,995.696,58.684C942.327,58.841,883.39,63.629,854.974,108.804C825.196,156.144,838,216.517,865.945,264.962C893.912,313.445,939.814,355.922,995.696,352.758" fill="rgba(28, 83, 142, 0.4)" class="triangle-float2"></path></g><defs><mask id="SvgjsMask2718"><rect width="1440" height="850" fill="#ffffff"></rect></mask><linearGradient x1="89.76%" y1="117.35%" x2="10.24%" y2="-17.35%" gradientUnits="userSpaceOnUse" id="SvgjsLinearGradient2719"><stop stop-color="rgba(25, 52, 64, 1)" offset="0.07"></stop><stop stop-color="rgba(0, 0, 0, 1)" offset="0.93"></stop></linearGradient><style>
            @keyframes float1 {
                0%{transform: translate(0, 0)}
                50%{transform: translate(-10px, 0)}
                100%{transform: translate(0, 0)}
            }

            .triangle-float1 {
                animation: float1 5s infinite;
            }

            @keyframes float2 {
                0%{transform: translate(0, 0)}
                50%{transform: translate(-5px, -5px)}
                100%{transform: translate(0, 0)}
            }

            .triangle-float2 {
                animation: float2 4s infinite;
            }

            @keyframes float3 {
                0%{transform: translate(0, 0)}
                50%{transform: translate(0, -10px)}
                100%{transform: translate(0, 0)}
            }

            .triangle-float3 {
                animation: float3 6s infinite;
            }
        </style></defs></svg>