<svg xmlns="http://www.w3.org/2000/svg" xmlns:xlink="http://www.w3.org/1999/xlink" width="400" zoomAndPan="magnify" viewBox="0 0 300 149.999998" height="200" preserveAspectRatio="xMidYMid meet" version="1.0"><defs><g/><clipPath id="a046e26129"><path d="M 117 56 L 279.585938 56 L 279.585938 91.828125 L 117 91.828125 Z M 117 56 " clip-rule="nonzero"/></clipPath></defs><g clip-path="url(#a046e26129)"><path fill="#ffffff" d="M 120.042969 72.019531 L 120.082031 72.0625 C 120.042969 72.027344 120.621094 72.671875 120.910156 72.933594 C 122.09375 73.949219 123.390625 74.792969 124.800781 75.457031 C 129.925781 78.058594 135.851562 79.050781 141.546875 79.195312 C 151.035156 79.441406 160.285156 77.042969 169.503906 75.128906 C 179.140625 73.109375 188.96875 70.816406 198.859375 70.730469 C 201.917969 70.691406 204.964844 70.878906 208 71.292969 C 209.742188 64.46875 215.542969 59.957031 222.367188 58.089844 C 231.464844 55.597656 241.691406 56.011719 250.914062 57.492188 C 260.972656 59.105469 270.824219 62.554688 279.511719 67.910156 C 279.582031 67.953125 279.625 68.011719 279.648438 68.089844 C 279.667969 68.167969 279.65625 68.246094 279.617188 68.316406 C 279.574219 68.386719 279.515625 68.429688 279.4375 68.453125 C 279.359375 68.472656 279.28125 68.460938 279.210938 68.421875 C 264.089844 60.308594 246.882812 56.289062 229.722656 58.324219 C 222.011719 59.238281 213.234375 62.015625 210.53125 70.15625 C 210.367188 70.648438 210.234375 71.148438 210.121094 71.65625 C 215.046875 72.582031 219.820312 74.332031 223.460938 77.40625 C 226.070312 79.605469 227.679688 82.855469 226.890625 86.292969 C 226.101562 89.730469 222.992188 91.628906 219.5625 91.050781 C 211.921875 89.761719 206.824219 81.125 207.570312 73.808594 C 207.566406 73.785156 207.566406 73.761719 207.570312 73.742188 C 200.457031 72.664062 193.117188 73.316406 186.058594 74.507812 C 176.699219 76.089844 167.460938 78.285156 158.15625 80.152344 C 150.894531 81.613281 143.480469 82.402344 136.09375 81.472656 C 131.066406 80.84375 125.980469 79.519531 121.628906 76.871094 C 120.296875 76.054688 116.402344 73.699219 117.25 71.558594 C 117.863281 70 120.316406 70.550781 120.042969 72.019531 Z M 211.648438 81.921875 C 213.445312 85.023438 217.121094 88.683594 220.988281 88.539062 C 225.488281 88.375 225.128906 82.667969 222.886719 80.183594 C 220.246094 77.253906 216 75.765625 212.273438 74.738281 C 211.445312 74.507812 210.609375 74.320312 209.761719 74.144531 C 209.632812 76.921875 210.261719 79.515625 211.648438 81.921875 Z M 119.933594 71.902344 C 119.910156 71.863281 119.902344 71.859375 119.933594 71.902344 Z M 119.933594 71.902344 " fill-opacity="1" fill-rule="nonzero"/></g><g fill="#ffffff" fill-opacity="1"><g transform="translate(22.606841, 89.271383)"><g><path d="M 25.390625 -15.984375 C 25.566406 -15.585938 25.582031 -15.175781 25.4375 -14.75 C 25.289062 -14.320312 25.019531 -13.992188 24.625 -13.765625 C 24.457031 -13.710938 24.242188 -13.671875 23.984375 -13.640625 C 23.722656 -13.609375 23.109375 -13.59375 22.140625 -13.59375 C 21.171875 -13.59375 19.519531 -13.59375 17.1875 -13.59375 C 15.875 -13.59375 14.40625 -13.59375 12.78125 -13.59375 C 11.15625 -13.59375 9.710938 -13.59375 8.453125 -13.59375 C 7.203125 -13.59375 6.410156 -13.566406 6.078125 -13.515625 C 6.015625 -13.515625 5.957031 -13.515625 5.90625 -13.515625 C 4.9375 -13.515625 4.394531 -14 4.28125 -14.96875 C 4.21875 -15.414062 4.328125 -15.828125 4.609375 -16.203125 C 4.898438 -16.578125 5.273438 -16.789062 5.734375 -16.84375 C 6.242188 -16.894531 7.523438 -16.921875 9.578125 -16.921875 C 11.628906 -16.921875 14.191406 -16.894531 17.265625 -16.84375 C 18.640625 -16.84375 19.976562 -16.84375 21.28125 -16.84375 C 22.59375 -16.84375 23.394531 -16.84375 23.6875 -16.84375 C 24.476562 -17.007812 25.046875 -16.722656 25.390625 -15.984375 Z M 25.390625 -15.984375 "/></g></g></g><g fill="#ffffff" fill-opacity="1"><g transform="translate(52.440283, 89.271383)"><g><path d="M 36.078125 -19.15625 C 36.472656 -18.925781 36.726562 -18.582031 36.84375 -18.125 C 36.957031 -17.664062 36.875 -17.265625 36.59375 -16.921875 C 34.195312 -12.992188 31.457031 -9.5625 28.375 -6.625 C 25.300781 -3.6875 22.15625 -1.164062 18.9375 0.9375 C 15.71875 3.050781 12.625 4.804688 9.65625 6.203125 C 6.695312 7.597656 4.101562 8.664062 1.875 9.40625 C 1.082031 9.6875 0.457031 9.457031 0 8.71875 C -0.914062 11 -1.710938 13.25 -2.390625 15.46875 C -2.617188 16.21875 -3.160156 16.59375 -4.015625 16.59375 C -4.078125 16.59375 -4.164062 16.59375 -4.28125 16.59375 C -5.1875 16.414062 -5.640625 15.875 -5.640625 14.96875 C -5.640625 14.445312 -5.441406 13.1875 -5.046875 11.1875 C -4.648438 9.195312 -4.125 6.648438 -3.46875 3.546875 C -2.8125 0.441406 -2.054688 -3.003906 -1.203125 -6.796875 C -0.347656 -10.585938 0.535156 -14.503906 1.453125 -18.546875 C 2.367188 -22.597656 3.265625 -26.578125 4.140625 -30.484375 C 5.023438 -34.390625 5.867188 -37.992188 6.671875 -41.296875 C 6.671875 -41.460938 6.695312 -41.632812 6.75 -41.8125 C 7.71875 -45.914062 8.519531 -49.222656 9.15625 -51.734375 C 10.457031 -56.972656 11.90625 -61.742188 13.5 -66.046875 C 15.101562 -70.347656 16.6875 -73.8125 18.25 -76.4375 C 19.820312 -79.0625 21.207031 -80.488281 22.40625 -80.71875 C 23.375 -80.882812 24.113281 -80.597656 24.625 -79.859375 C 25.425781 -78.710938 25.351562 -76.34375 24.40625 -72.75 C 23.46875 -69.164062 21.757812 -64.625 19.28125 -59.125 C 16.800781 -53.625 13.679688 -47.453125 9.921875 -40.609375 C 9.003906 -36.796875 8.03125 -32.664062 7 -28.21875 C 5.976562 -23.769531 4.96875 -19.289062 3.96875 -14.78125 C 2.976562 -10.28125 2.054688 -6.09375 1.203125 -2.21875 C 2.796875 -5.53125 4.332031 -8.210938 5.8125 -10.265625 C 10.257812 -16.472656 13.796875 -19.175781 16.421875 -18.375 C 16.929688 -18.207031 17.484375 -17.820312 18.078125 -17.21875 C 18.679688 -16.625 19.007812 -15.5 19.0625 -13.84375 C 19.125 -12.132812 18.695312 -9.96875 17.78125 -7.34375 C 16.875 -4.726562 15.476562 -2.140625 13.59375 0.421875 C 17.863281 -2.078125 21.738281 -4.953125 25.21875 -8.203125 C 28.695312 -11.453125 31.578125 -14.929688 33.859375 -18.640625 C 34.085938 -19.035156 34.414062 -19.273438 34.84375 -19.359375 C 35.269531 -19.453125 35.679688 -19.382812 36.078125 -19.15625 Z M 21.796875 -76.015625 C 20.828125 -74.523438 19.53125 -71.96875 17.90625 -68.34375 C 16.28125 -64.726562 14.671875 -59.84375 13.078125 -53.6875 C 15.929688 -59.445312 18.023438 -64.164062 19.359375 -67.84375 C 20.703125 -71.519531 21.515625 -74.242188 21.796875 -76.015625 Z M 0.9375 6.234375 C 3.84375 5.148438 6.320312 3.554688 8.375 1.453125 C 10.425781 -0.648438 12.035156 -2.867188 13.203125 -5.203125 C 14.378906 -7.546875 15.132812 -9.601562 15.46875 -11.375 C 15.757812 -12.625 15.847656 -13.546875 15.734375 -14.140625 C 15.617188 -14.742188 15.53125 -15.101562 15.46875 -15.21875 C 15.351562 -15.21875 15.039062 -15.085938 14.53125 -14.828125 C 14.019531 -14.578125 13.28125 -13.976562 12.3125 -13.03125 C 11.34375 -12.09375 10.085938 -10.539062 8.546875 -8.375 C 7.347656 -6.664062 6.078125 -4.539062 4.734375 -2 C 3.398438 0.53125 2.132812 3.273438 0.9375 6.234375 Z M 0.9375 6.234375 "/></g></g></g><g fill="#ffffff" fill-opacity="1"><g transform="translate(84.581765, 89.271383)"><g><path d="M 34.453125 -19.0625 C 34.859375 -18.832031 35.113281 -18.503906 35.21875 -18.078125 C 35.332031 -17.648438 35.28125 -17.238281 35.0625 -16.84375 C 32.375 -12.113281 29.960938 -8.476562 27.828125 -5.9375 C 25.691406 -3.40625 23.515625 -2.28125 21.296875 -2.5625 C 18.441406 -2.90625 16.1875 -5.984375 14.53125 -11.796875 C 13.96875 -13.679688 13.46875 -15.035156 13.03125 -15.859375 C 12.601562 -16.679688 12.257812 -17.191406 12 -17.390625 C 11.75 -17.597656 11.566406 -17.703125 11.453125 -17.703125 C 11.285156 -17.753906 10.941406 -17.582031 10.421875 -17.1875 C 9.910156 -16.789062 9.171875 -15.90625 8.203125 -14.53125 C 7.234375 -13.164062 6.035156 -11.039062 4.609375 -8.15625 C 3.191406 -5.28125 1.457031 -1.335938 -0.59375 3.671875 C -0.882812 4.359375 -1.367188 4.703125 -2.046875 4.703125 C -2.222656 4.703125 -2.367188 4.671875 -2.484375 4.609375 C -3.453125 4.390625 -3.878906 3.796875 -3.765625 2.828125 C -3.472656 0.484375 -2.957031 -2.222656 -2.21875 -5.296875 C -1.476562 -8.378906 -0.671875 -11.515625 0.203125 -14.703125 C 1.085938 -17.898438 1.90625 -20.75 2.65625 -23.25 C 2.820312 -23.820312 2.972656 -24.347656 3.109375 -24.828125 C 3.253906 -25.316406 3.382812 -25.789062 3.5 -26.25 C 3.675781 -26.707031 3.960938 -27.035156 4.359375 -27.234375 C 4.753906 -27.429688 5.15625 -27.472656 5.5625 -27.359375 C 6.007812 -27.242188 6.347656 -26.984375 6.578125 -26.578125 C 6.804688 -26.179688 6.835938 -25.757812 6.671875 -25.3125 C 6.554688 -24.851562 6.425781 -24.378906 6.28125 -23.890625 C 6.144531 -23.410156 5.988281 -22.882812 5.8125 -22.3125 C 5.414062 -20.832031 4.957031 -19.207031 4.4375 -17.4375 C 3.925781 -15.675781 3.414062 -13.882812 2.90625 -12.0625 C 4.84375 -15.707031 6.492188 -18.128906 7.859375 -19.328125 C 9.234375 -20.523438 10.488281 -21.09375 11.625 -21.03125 C 13.21875 -20.914062 14.472656 -20.03125 15.390625 -18.375 C 16.304688 -16.726562 17.078125 -14.820312 17.703125 -12.65625 C 18.554688 -9.6875 19.351562 -7.800781 20.09375 -7 C 20.832031 -6.207031 21.375 -5.8125 21.71875 -5.8125 C 22.457031 -5.695312 23.328125 -6.109375 24.328125 -7.046875 C 25.328125 -7.992188 26.320312 -9.191406 27.3125 -10.640625 C 28.3125 -12.097656 29.253906 -13.535156 30.140625 -14.953125 C 31.023438 -16.378906 31.691406 -17.550781 32.140625 -18.46875 C 32.367188 -18.863281 32.710938 -19.117188 33.171875 -19.234375 C 33.628906 -19.347656 34.054688 -19.289062 34.453125 -19.0625 Z M 34.453125 -19.0625 "/></g></g></g><g fill="#ffffff" fill-opacity="1"><g transform="translate(83.415123, 112.315146)"><g><path d="M 7.640625 -0.125 L 7.703125 -0.125 C 7.765625 -0.125 7.820312 -0.148438 7.875 -0.203125 C 7.925781 -0.253906 7.96875 -0.316406 8 -0.390625 C 8.039062 -0.460938 8.070312 -0.539062 8.09375 -0.625 C 8.113281 -0.707031 8.125 -0.78125 8.125 -0.84375 L 8.125 -7.734375 L 4.734375 0.140625 L 1.53125 -7.328125 L 1.53125 -0.84375 C 1.53125 -0.78125 1.535156 -0.707031 1.546875 -0.625 C 1.566406 -0.539062 1.597656 -0.460938 1.640625 -0.390625 C 1.679688 -0.316406 1.726562 -0.253906 1.78125 -0.203125 C 1.832031 -0.148438 1.894531 -0.125 1.96875 -0.125 L 2.03125 -0.125 L 2.03125 0 L 0.609375 0 L 0.609375 -0.125 L 0.671875 -0.125 C 0.734375 -0.125 0.789062 -0.148438 0.84375 -0.203125 C 0.894531 -0.253906 0.9375 -0.316406 0.96875 -0.390625 C 1 -0.460938 1.023438 -0.539062 1.046875 -0.625 C 1.066406 -0.707031 1.078125 -0.78125 1.078125 -0.84375 L 1.078125 -7.828125 C 1.078125 -7.890625 1.066406 -7.957031 1.046875 -8.03125 C 1.023438 -8.113281 1 -8.1875 0.96875 -8.25 C 0.9375 -8.320312 0.894531 -8.382812 0.84375 -8.4375 C 0.789062 -8.488281 0.734375 -8.515625 0.671875 -8.515625 L 0.609375 -8.515625 L 0.609375 -8.640625 L 1.9375 -8.640625 L 4.96875 -1.484375 L 8.015625 -8.640625 L 9.5 -8.640625 L 9.5 -8.515625 L 9.421875 -8.515625 C 9.359375 -8.515625 9.300781 -8.488281 9.25 -8.4375 C 9.195312 -8.382812 9.148438 -8.320312 9.109375 -8.25 C 9.066406 -8.1875 9.035156 -8.113281 9.015625 -8.03125 C 9.003906 -7.957031 9 -7.890625 9 -7.828125 L 9 -0.84375 C 9 -0.78125 9.003906 -0.707031 9.015625 -0.625 C 9.035156 -0.539062 9.066406 -0.460938 9.109375 -0.390625 C 9.148438 -0.316406 9.195312 -0.253906 9.25 -0.203125 C 9.300781 -0.148438 9.359375 -0.125 9.421875 -0.125 L 9.5 -0.125 L 9.5 0 L 7.640625 0 Z M 7.640625 -0.125 "/></g></g></g><g fill="#ffffff" fill-opacity="1"><g transform="translate(95.644643, 112.315146)"><g><path d="M 5.59375 -0.125 L 5.65625 -0.125 C 5.863281 -0.125 5.96875 -0.222656 5.96875 -0.421875 C 5.96875 -0.492188 5.957031 -0.566406 5.9375 -0.640625 L 4.75 -3.828125 L 2.46875 -3.828125 L 1.328125 -0.6875 C 1.296875 -0.625 1.28125 -0.5625 1.28125 -0.5 C 1.28125 -0.382812 1.3125 -0.289062 1.375 -0.21875 C 1.4375 -0.15625 1.503906 -0.125 1.578125 -0.125 L 1.640625 -0.125 L 1.640625 0 L 0.1875 0 L 0.1875 -0.125 L 0.25 -0.125 C 0.363281 -0.125 0.472656 -0.191406 0.578125 -0.328125 C 0.691406 -0.460938 0.78125 -0.625 0.84375 -0.8125 L 3.84375 -8.796875 L 6.78125 -0.890625 C 6.84375 -0.710938 6.925781 -0.539062 7.03125 -0.375 C 7.144531 -0.207031 7.289062 -0.125 7.46875 -0.125 L 7.53125 -0.125 L 7.53125 0 L 5.59375 0 Z M 2.59375 -4.265625 L 4.609375 -4.265625 L 3.59375 -7 Z M 2.59375 -4.265625 "/></g></g></g><g fill="#ffffff" fill-opacity="1"><g transform="translate(105.426008, 112.315146)"><g><path d="M 0.578125 -0.125 L 0.640625 -0.125 C 0.703125 -0.125 0.757812 -0.148438 0.8125 -0.203125 C 0.863281 -0.253906 0.910156 -0.316406 0.953125 -0.390625 C 0.992188 -0.460938 1.019531 -0.539062 1.03125 -0.625 C 1.050781 -0.707031 1.0625 -0.78125 1.0625 -0.84375 L 1.0625 -7.828125 C 1.0625 -7.890625 1.050781 -7.957031 1.03125 -8.03125 C 1.019531 -8.113281 0.992188 -8.1875 0.953125 -8.25 C 0.921875 -8.320312 0.878906 -8.382812 0.828125 -8.4375 C 0.773438 -8.488281 0.710938 -8.515625 0.640625 -8.515625 L 0.578125 -8.515625 L 0.578125 -8.640625 L 3.109375 -8.640625 C 3.796875 -8.640625 4.410156 -8.519531 4.953125 -8.28125 C 5.503906 -8.039062 5.96875 -7.71875 6.34375 -7.3125 C 6.726562 -6.90625 7.019531 -6.4375 7.21875 -5.90625 C 7.425781 -5.382812 7.53125 -4.84375 7.53125 -4.28125 C 7.53125 -3.75 7.429688 -3.226562 7.234375 -2.71875 C 7.046875 -2.207031 6.757812 -1.75 6.375 -1.34375 C 5.988281 -0.945312 5.507812 -0.625 4.9375 -0.375 C 4.363281 -0.125 3.695312 0 2.9375 0 L 0.578125 0 Z M 6.640625 -4.078125 C 6.640625 -4.640625 6.535156 -5.171875 6.328125 -5.671875 C 6.128906 -6.171875 5.847656 -6.601562 5.484375 -6.96875 C 5.128906 -7.34375 4.703125 -7.640625 4.203125 -7.859375 C 3.710938 -8.078125 3.179688 -8.1875 2.609375 -8.1875 L 1.9375 -8.1875 L 1.9375 -0.453125 L 2.625 -0.453125 C 3.101562 -0.453125 3.578125 -0.523438 4.046875 -0.671875 C 4.523438 -0.816406 4.957031 -1.039062 5.34375 -1.34375 C 5.726562 -1.644531 6.039062 -2.019531 6.28125 -2.46875 C 6.519531 -2.925781 6.640625 -3.460938 6.640625 -4.078125 Z M 6.640625 -4.078125 "/></g></g></g><g fill="#ffffff" fill-opacity="1"><g transform="translate(115.547761, 112.315146)"><g><path d="M 0.59375 -0.125 L 0.65625 -0.125 C 0.726562 -0.125 0.789062 -0.148438 0.84375 -0.203125 C 0.894531 -0.253906 0.9375 -0.3125 0.96875 -0.375 C 1.007812 -0.445312 1.039062 -0.519531 1.0625 -0.59375 C 1.082031 -0.675781 1.09375 -0.753906 1.09375 -0.828125 L 1.09375 -7.828125 C 1.09375 -7.890625 1.082031 -7.957031 1.0625 -8.03125 C 1.039062 -8.113281 1.007812 -8.1875 0.96875 -8.25 C 0.9375 -8.320312 0.894531 -8.382812 0.84375 -8.4375 C 0.789062 -8.488281 0.726562 -8.515625 0.65625 -8.515625 L 0.59375 -8.515625 L 0.59375 -8.640625 L 5.625 -8.640625 L 5.625 -7.421875 L 5.5 -7.421875 C 5.476562 -7.617188 5.394531 -7.796875 5.25 -7.953125 C 5.113281 -8.109375 4.898438 -8.1875 4.609375 -8.1875 L 1.984375 -8.1875 L 1.984375 -4.875 L 4.15625 -4.875 C 4.351562 -4.875 4.519531 -4.929688 4.65625 -5.046875 C 4.789062 -5.171875 4.859375 -5.316406 4.859375 -5.484375 L 4.984375 -5.484375 L 4.984375 -3.84375 L 4.859375 -3.84375 C 4.859375 -4 4.789062 -4.132812 4.65625 -4.25 C 4.53125 -4.363281 4.363281 -4.421875 4.15625 -4.421875 L 1.984375 -4.421875 L 1.984375 -0.453125 L 4.84375 -0.453125 C 5.007812 -0.453125 5.148438 -0.488281 5.265625 -0.5625 C 5.390625 -0.644531 5.492188 -0.738281 5.578125 -0.84375 C 5.660156 -0.957031 5.722656 -1.078125 5.765625 -1.203125 C 5.804688 -1.335938 5.828125 -1.445312 5.828125 -1.53125 L 5.953125 -1.53125 L 5.953125 0 L 0.59375 0 Z M 0.59375 -0.125 "/></g></g></g><g fill="#ffffff" fill-opacity="1"><g transform="translate(123.954491, 112.315146)"><g/></g></g><g fill="#ffffff" fill-opacity="1"><g transform="translate(129.41558, 112.315146)"><g><path d="M 3.90625 -0.125 L 3.96875 -0.125 L 3.96875 0 L 2.109375 0 L 2.109375 -0.125 L 2.171875 -0.125 C 2.242188 -0.125 2.304688 -0.148438 2.359375 -0.203125 C 2.410156 -0.253906 2.453125 -0.316406 2.484375 -0.390625 C 2.523438 -0.460938 2.554688 -0.539062 2.578125 -0.625 C 2.597656 -0.707031 2.609375 -0.78125 2.609375 -0.84375 L 2.609375 -8.15625 L 1.09375 -8.15625 C 0.945312 -8.15625 0.820312 -8.125 0.71875 -8.0625 C 0.613281 -8 0.523438 -7.921875 0.453125 -7.828125 C 0.390625 -7.742188 0.335938 -7.644531 0.296875 -7.53125 C 0.265625 -7.425781 0.25 -7.320312 0.25 -7.21875 L 0.125 -7.21875 L 0.125 -8.640625 L 6 -8.640625 L 6 -7.21875 L 5.859375 -7.21875 C 5.859375 -7.320312 5.84375 -7.425781 5.8125 -7.53125 C 5.78125 -7.644531 5.726562 -7.742188 5.65625 -7.828125 C 5.582031 -7.921875 5.492188 -8 5.390625 -8.0625 C 5.285156 -8.125 5.164062 -8.15625 5.03125 -8.15625 L 3.484375 -8.15625 L 3.484375 -0.84375 C 3.484375 -0.78125 3.488281 -0.707031 3.5 -0.625 C 3.519531 -0.539062 3.550781 -0.460938 3.59375 -0.390625 C 3.632812 -0.316406 3.675781 -0.253906 3.71875 -0.203125 C 3.769531 -0.148438 3.832031 -0.125 3.90625 -0.125 Z M 3.90625 -0.125 "/></g></g></g><g fill="#ffffff" fill-opacity="1"><g transform="translate(137.599749, 112.315146)"><g><path d="M 5 -8.765625 C 5.675781 -8.765625 6.285156 -8.644531 6.828125 -8.40625 C 7.367188 -8.164062 7.828125 -7.84375 8.203125 -7.4375 C 8.585938 -7.03125 8.882812 -6.554688 9.09375 -6.015625 C 9.300781 -5.484375 9.40625 -4.925781 9.40625 -4.34375 C 9.40625 -3.6875 9.285156 -3.082031 9.046875 -2.53125 C 8.804688 -1.988281 8.472656 -1.519531 8.046875 -1.125 C 7.628906 -0.726562 7.144531 -0.421875 6.59375 -0.203125 C 6.039062 0.015625 5.445312 0.125 4.8125 0.125 C 4.144531 0.125 3.539062 0.00390625 3 -0.234375 C 2.46875 -0.484375 2.015625 -0.804688 1.640625 -1.203125 C 1.273438 -1.609375 0.988281 -2.070312 0.78125 -2.59375 C 0.582031 -3.113281 0.484375 -3.660156 0.484375 -4.234375 C 0.484375 -4.785156 0.582031 -5.332031 0.78125 -5.875 C 0.988281 -6.425781 1.285156 -6.914062 1.671875 -7.34375 C 2.054688 -7.769531 2.523438 -8.113281 3.078125 -8.375 C 3.640625 -8.632812 4.28125 -8.765625 5 -8.765625 Z M 4.984375 -0.328125 C 5.566406 -0.347656 6.078125 -0.476562 6.515625 -0.71875 C 6.960938 -0.96875 7.332031 -1.273438 7.625 -1.640625 C 7.925781 -2.015625 8.148438 -2.421875 8.296875 -2.859375 C 8.441406 -3.304688 8.515625 -3.75 8.515625 -4.1875 C 8.515625 -4.664062 8.425781 -5.148438 8.25 -5.640625 C 8.070312 -6.128906 7.820312 -6.570312 7.5 -6.96875 C 7.175781 -7.363281 6.789062 -7.6875 6.34375 -7.9375 C 5.894531 -8.1875 5.390625 -8.3125 4.828125 -8.3125 C 4.285156 -8.3125 3.800781 -8.191406 3.375 -7.953125 C 2.945312 -7.710938 2.582031 -7.40625 2.28125 -7.03125 C 1.976562 -6.65625 1.75 -6.234375 1.59375 -5.765625 C 1.4375 -5.304688 1.359375 -4.851562 1.359375 -4.40625 C 1.359375 -3.925781 1.445312 -3.441406 1.625 -2.953125 C 1.8125 -2.472656 2.066406 -2.035156 2.390625 -1.640625 C 2.710938 -1.253906 3.09375 -0.9375 3.53125 -0.6875 C 3.976562 -0.445312 4.460938 -0.328125 4.984375 -0.328125 Z M 4.984375 -0.328125 "/></g></g></g><g fill="#ffffff" fill-opacity="1"><g transform="translate(149.619803, 112.315146)"><g/></g></g><g fill="#ffffff" fill-opacity="1"><g transform="translate(155.080892, 112.315146)"><g><path d="M 7.640625 -0.125 L 7.703125 -0.125 C 7.765625 -0.125 7.820312 -0.148438 7.875 -0.203125 C 7.925781 -0.253906 7.96875 -0.316406 8 -0.390625 C 8.039062 -0.460938 8.070312 -0.539062 8.09375 -0.625 C 8.113281 -0.707031 8.125 -0.78125 8.125 -0.84375 L 8.125 -7.734375 L 4.734375 0.140625 L 1.53125 -7.328125 L 1.53125 -0.84375 C 1.53125 -0.78125 1.535156 -0.707031 1.546875 -0.625 C 1.566406 -0.539062 1.597656 -0.460938 1.640625 -0.390625 C 1.679688 -0.316406 1.726562 -0.253906 1.78125 -0.203125 C 1.832031 -0.148438 1.894531 -0.125 1.96875 -0.125 L 2.03125 -0.125 L 2.03125 0 L 0.609375 0 L 0.609375 -0.125 L 0.671875 -0.125 C 0.734375 -0.125 0.789062 -0.148438 0.84375 -0.203125 C 0.894531 -0.253906 0.9375 -0.316406 0.96875 -0.390625 C 1 -0.460938 1.023438 -0.539062 1.046875 -0.625 C 1.066406 -0.707031 1.078125 -0.78125 1.078125 -0.84375 L 1.078125 -7.828125 C 1.078125 -7.890625 1.066406 -7.957031 1.046875 -8.03125 C 1.023438 -8.113281 1 -8.1875 0.96875 -8.25 C 0.9375 -8.320312 0.894531 -8.382812 0.84375 -8.4375 C 0.789062 -8.488281 0.734375 -8.515625 0.671875 -8.515625 L 0.609375 -8.515625 L 0.609375 -8.640625 L 1.9375 -8.640625 L 4.96875 -1.484375 L 8.015625 -8.640625 L 9.5 -8.640625 L 9.5 -8.515625 L 9.421875 -8.515625 C 9.359375 -8.515625 9.300781 -8.488281 9.25 -8.4375 C 9.195312 -8.382812 9.148438 -8.320312 9.109375 -8.25 C 9.066406 -8.1875 9.035156 -8.113281 9.015625 -8.03125 C 9.003906 -7.957031 9 -7.890625 9 -7.828125 L 9 -0.84375 C 9 -0.78125 9.003906 -0.707031 9.015625 -0.625 C 9.035156 -0.539062 9.066406 -0.460938 9.109375 -0.390625 C 9.148438 -0.316406 9.195312 -0.253906 9.25 -0.203125 C 9.300781 -0.148438 9.359375 -0.125 9.421875 -0.125 L 9.5 -0.125 L 9.5 0 L 7.640625 0 Z M 7.640625 -0.125 "/></g></g></g><g fill="#ffffff" fill-opacity="1"><g transform="translate(167.310413, 112.315146)"><g><path d="M 5.59375 -0.125 L 5.65625 -0.125 C 5.863281 -0.125 5.96875 -0.222656 5.96875 -0.421875 C 5.96875 -0.492188 5.957031 -0.566406 5.9375 -0.640625 L 4.75 -3.828125 L 2.46875 -3.828125 L 1.328125 -0.6875 C 1.296875 -0.625 1.28125 -0.5625 1.28125 -0.5 C 1.28125 -0.382812 1.3125 -0.289062 1.375 -0.21875 C 1.4375 -0.15625 1.503906 -0.125 1.578125 -0.125 L 1.640625 -0.125 L 1.640625 0 L 0.1875 0 L 0.1875 -0.125 L 0.25 -0.125 C 0.363281 -0.125 0.472656 -0.191406 0.578125 -0.328125 C 0.691406 -0.460938 0.78125 -0.625 0.84375 -0.8125 L 3.84375 -8.796875 L 6.78125 -0.890625 C 6.84375 -0.710938 6.925781 -0.539062 7.03125 -0.375 C 7.144531 -0.207031 7.289062 -0.125 7.46875 -0.125 L 7.53125 -0.125 L 7.53125 0 L 5.59375 0 Z M 2.59375 -4.265625 L 4.609375 -4.265625 L 3.59375 -7 Z M 2.59375 -4.265625 "/></g></g></g><g fill="#ffffff" fill-opacity="1"><g transform="translate(177.09178, 112.315146)"><g><path d="M 3.90625 -0.125 L 3.96875 -0.125 L 3.96875 0 L 2.109375 0 L 2.109375 -0.125 L 2.171875 -0.125 C 2.242188 -0.125 2.304688 -0.148438 2.359375 -0.203125 C 2.410156 -0.253906 2.453125 -0.316406 2.484375 -0.390625 C 2.523438 -0.460938 2.554688 -0.539062 2.578125 -0.625 C 2.597656 -0.707031 2.609375 -0.78125 2.609375 -0.84375 L 2.609375 -8.15625 L 1.09375 -8.15625 C 0.945312 -8.15625 0.820312 -8.125 0.71875 -8.0625 C 0.613281 -8 0.523438 -7.921875 0.453125 -7.828125 C 0.390625 -7.742188 0.335938 -7.644531 0.296875 -7.53125 C 0.265625 -7.425781 0.25 -7.320312 0.25 -7.21875 L 0.125 -7.21875 L 0.125 -8.640625 L 6 -8.640625 L 6 -7.21875 L 5.859375 -7.21875 C 5.859375 -7.320312 5.84375 -7.425781 5.8125 -7.53125 C 5.78125 -7.644531 5.726562 -7.742188 5.65625 -7.828125 C 5.582031 -7.921875 5.492188 -8 5.390625 -8.0625 C 5.285156 -8.125 5.164062 -8.15625 5.03125 -8.15625 L 3.484375 -8.15625 L 3.484375 -0.84375 C 3.484375 -0.78125 3.488281 -0.707031 3.5 -0.625 C 3.519531 -0.539062 3.550781 -0.460938 3.59375 -0.390625 C 3.632812 -0.316406 3.675781 -0.253906 3.71875 -0.203125 C 3.769531 -0.148438 3.832031 -0.125 3.90625 -0.125 Z M 3.90625 -0.125 "/></g></g></g><g fill="#ffffff" fill-opacity="1"><g transform="translate(185.275952, 112.315146)"><g><path d="M 3.90625 -0.125 L 3.96875 -0.125 L 3.96875 0 L 2.109375 0 L 2.109375 -0.125 L 2.171875 -0.125 C 2.242188 -0.125 2.304688 -0.148438 2.359375 -0.203125 C 2.410156 -0.253906 2.453125 -0.316406 2.484375 -0.390625 C 2.523438 -0.460938 2.554688 -0.539062 2.578125 -0.625 C 2.597656 -0.707031 2.609375 -0.78125 2.609375 -0.84375 L 2.609375 -8.15625 L 1.09375 -8.15625 C 0.945312 -8.15625 0.820312 -8.125 0.71875 -8.0625 C 0.613281 -8 0.523438 -7.921875 0.453125 -7.828125 C 0.390625 -7.742188 0.335938 -7.644531 0.296875 -7.53125 C 0.265625 -7.425781 0.25 -7.320312 0.25 -7.21875 L 0.125 -7.21875 L 0.125 -8.640625 L 6 -8.640625 L 6 -7.21875 L 5.859375 -7.21875 C 5.859375 -7.320312 5.84375 -7.425781 5.8125 -7.53125 C 5.78125 -7.644531 5.726562 -7.742188 5.65625 -7.828125 C 5.582031 -7.921875 5.492188 -8 5.390625 -8.0625 C 5.285156 -8.125 5.164062 -8.15625 5.03125 -8.15625 L 3.484375 -8.15625 L 3.484375 -0.84375 C 3.484375 -0.78125 3.488281 -0.707031 3.5 -0.625 C 3.519531 -0.539062 3.550781 -0.460938 3.59375 -0.390625 C 3.632812 -0.316406 3.675781 -0.253906 3.71875 -0.203125 C 3.769531 -0.148438 3.832031 -0.125 3.90625 -0.125 Z M 3.90625 -0.125 "/></g></g></g><g fill="#ffffff" fill-opacity="1"><g transform="translate(193.460118, 112.315146)"><g><path d="M 0.59375 -0.125 L 0.65625 -0.125 C 0.726562 -0.125 0.789062 -0.148438 0.84375 -0.203125 C 0.894531 -0.253906 0.9375 -0.3125 0.96875 -0.375 C 1.007812 -0.445312 1.039062 -0.519531 1.0625 -0.59375 C 1.082031 -0.675781 1.09375 -0.753906 1.09375 -0.828125 L 1.09375 -7.828125 C 1.09375 -7.890625 1.082031 -7.957031 1.0625 -8.03125 C 1.039062 -8.113281 1.007812 -8.1875 0.96875 -8.25 C 0.9375 -8.320312 0.894531 -8.382812 0.84375 -8.4375 C 0.789062 -8.488281 0.726562 -8.515625 0.65625 -8.515625 L 0.59375 -8.515625 L 0.59375 -8.640625 L 5.625 -8.640625 L 5.625 -7.421875 L 5.5 -7.421875 C 5.476562 -7.617188 5.394531 -7.796875 5.25 -7.953125 C 5.113281 -8.109375 4.898438 -8.1875 4.609375 -8.1875 L 1.984375 -8.1875 L 1.984375 -4.875 L 4.15625 -4.875 C 4.351562 -4.875 4.519531 -4.929688 4.65625 -5.046875 C 4.789062 -5.171875 4.859375 -5.316406 4.859375 -5.484375 L 4.984375 -5.484375 L 4.984375 -3.84375 L 4.859375 -3.84375 C 4.859375 -4 4.789062 -4.132812 4.65625 -4.25 C 4.53125 -4.363281 4.363281 -4.421875 4.15625 -4.421875 L 1.984375 -4.421875 L 1.984375 -0.453125 L 4.84375 -0.453125 C 5.007812 -0.453125 5.148438 -0.488281 5.265625 -0.5625 C 5.390625 -0.644531 5.492188 -0.738281 5.578125 -0.84375 C 5.660156 -0.957031 5.722656 -1.078125 5.765625 -1.203125 C 5.804688 -1.335938 5.828125 -1.445312 5.828125 -1.53125 L 5.953125 -1.53125 L 5.953125 0 L 0.59375 0 Z M 0.59375 -0.125 "/></g></g></g><g fill="#ffffff" fill-opacity="1"><g transform="translate(201.866842, 112.315146)"><g><path d="M 2.375 -0.125 L 2.4375 -0.125 L 2.4375 0 L 0.59375 0 L 0.59375 -0.125 L 0.65625 -0.125 C 0.71875 -0.125 0.773438 -0.148438 0.828125 -0.203125 C 0.878906 -0.253906 0.921875 -0.316406 0.953125 -0.390625 C 0.992188 -0.460938 1.023438 -0.539062 1.046875 -0.625 C 1.066406 -0.707031 1.078125 -0.78125 1.078125 -0.84375 L 1.078125 -7.828125 C 1.078125 -7.890625 1.066406 -7.957031 1.046875 -8.03125 C 1.023438 -8.113281 0.992188 -8.1875 0.953125 -8.25 C 0.921875 -8.320312 0.878906 -8.382812 0.828125 -8.4375 C 0.773438 -8.488281 0.71875 -8.515625 0.65625 -8.515625 L 0.59375 -8.515625 L 0.59375 -8.640625 L 2.875 -8.640625 C 3.738281 -8.640625 4.410156 -8.46875 4.890625 -8.125 C 5.367188 -7.789062 5.609375 -7.289062 5.609375 -6.625 C 5.609375 -6.289062 5.550781 -6 5.4375 -5.75 C 5.332031 -5.5 5.1875 -5.285156 5 -5.109375 C 4.820312 -4.929688 4.609375 -4.785156 4.359375 -4.671875 C 4.109375 -4.566406 3.84375 -4.488281 3.5625 -4.4375 L 4.5 -3 C 4.726562 -2.644531 4.957031 -2.300781 5.1875 -1.96875 C 5.425781 -1.632812 5.660156 -1.285156 5.890625 -0.921875 C 5.953125 -0.835938 6.019531 -0.75 6.09375 -0.65625 C 6.164062 -0.5625 6.242188 -0.472656 6.328125 -0.390625 C 6.410156 -0.316406 6.5 -0.253906 6.59375 -0.203125 C 6.6875 -0.148438 6.78125 -0.125 6.875 -0.125 L 6.875 0 L 6.3125 0 C 5.957031 0 5.671875 -0.0820312 5.453125 -0.25 C 5.234375 -0.425781 5.046875 -0.625 4.890625 -0.84375 C 4.503906 -1.425781 4.113281 -2.015625 3.71875 -2.609375 C 3.332031 -3.203125 2.945312 -3.785156 2.5625 -4.359375 C 2.46875 -4.367188 2.363281 -4.378906 2.25 -4.390625 C 2.144531 -4.398438 2.046875 -4.414062 1.953125 -4.4375 L 1.953125 -0.84375 C 1.953125 -0.78125 1.957031 -0.707031 1.96875 -0.625 C 1.988281 -0.539062 2.019531 -0.460938 2.0625 -0.390625 C 2.101562 -0.316406 2.144531 -0.253906 2.1875 -0.203125 C 2.238281 -0.148438 2.300781 -0.125 2.375 -0.125 Z M 1.953125 -8.203125 L 1.953125 -4.875 L 2.015625 -4.875 C 2.085938 -4.863281 2.195312 -4.851562 2.34375 -4.84375 C 2.5 -4.84375 2.691406 -4.84375 2.921875 -4.84375 C 3.097656 -4.84375 3.289062 -4.867188 3.5 -4.921875 C 3.707031 -4.984375 3.898438 -5.082031 4.078125 -5.21875 C 4.253906 -5.351562 4.398438 -5.53125 4.515625 -5.75 C 4.640625 -5.96875 4.703125 -6.242188 4.703125 -6.578125 C 4.703125 -6.910156 4.640625 -7.179688 4.515625 -7.390625 C 4.390625 -7.597656 4.210938 -7.757812 3.984375 -7.875 C 3.765625 -8 3.492188 -8.082031 3.171875 -8.125 C 2.859375 -8.175781 2.515625 -8.203125 2.140625 -8.203125 Z M 1.953125 -8.203125 "/></g></g></g><g fill="#ffffff" fill-opacity="1"><g transform="translate(210.993608, 112.315146)"><g><path d="M 0.6875 -0.5625 C 0.6875 -0.738281 0.742188 -0.882812 0.859375 -1 C 0.972656 -1.125 1.117188 -1.1875 1.296875 -1.1875 C 1.472656 -1.1875 1.617188 -1.125 1.734375 -1 C 1.859375 -0.882812 1.921875 -0.738281 1.921875 -0.5625 C 1.921875 -0.382812 1.859375 -0.238281 1.734375 -0.125 C 1.617188 -0.0078125 1.472656 0.046875 1.296875 0.046875 C 1.117188 0.046875 0.972656 -0.0078125 0.859375 -0.125 C 0.742188 -0.238281 0.6875 -0.382812 0.6875 -0.5625 Z M 0.6875 -0.5625 "/></g></g></g><g fill="#ffffff" fill-opacity="1"><g transform="translate(95.02788, 130.063599)"><g><path d="M 7.640625 -0.125 L 7.703125 -0.125 C 7.765625 -0.125 7.820312 -0.148438 7.875 -0.203125 C 7.925781 -0.253906 7.96875 -0.316406 8 -0.390625 C 8.039062 -0.460938 8.070312 -0.539062 8.09375 -0.625 C 8.113281 -0.707031 8.125 -0.78125 8.125 -0.84375 L 8.125 -7.734375 L 4.734375 0.140625 L 1.53125 -7.328125 L 1.53125 -0.84375 C 1.53125 -0.78125 1.535156 -0.707031 1.546875 -0.625 C 1.566406 -0.539062 1.597656 -0.460938 1.640625 -0.390625 C 1.679688 -0.316406 1.726562 -0.253906 1.78125 -0.203125 C 1.832031 -0.148438 1.894531 -0.125 1.96875 -0.125 L 2.03125 -0.125 L 2.03125 0 L 0.609375 0 L 0.609375 -0.125 L 0.671875 -0.125 C 0.734375 -0.125 0.789062 -0.148438 0.84375 -0.203125 C 0.894531 -0.253906 0.9375 -0.316406 0.96875 -0.390625 C 1 -0.460938 1.023438 -0.539062 1.046875 -0.625 C 1.066406 -0.707031 1.078125 -0.78125 1.078125 -0.84375 L 1.078125 -7.828125 C 1.078125 -7.890625 1.066406 -7.957031 1.046875 -8.03125 C 1.023438 -8.113281 1 -8.1875 0.96875 -8.25 C 0.9375 -8.320312 0.894531 -8.382812 0.84375 -8.4375 C 0.789062 -8.488281 0.734375 -8.515625 0.671875 -8.515625 L 0.609375 -8.515625 L 0.609375 -8.640625 L 1.9375 -8.640625 L 4.96875 -1.484375 L 8.015625 -8.640625 L 9.5 -8.640625 L 9.5 -8.515625 L 9.421875 -8.515625 C 9.359375 -8.515625 9.300781 -8.488281 9.25 -8.4375 C 9.195312 -8.382812 9.148438 -8.320312 9.109375 -8.25 C 9.066406 -8.1875 9.035156 -8.113281 9.015625 -8.03125 C 9.003906 -7.957031 9 -7.890625 9 -7.828125 L 9 -0.84375 C 9 -0.78125 9.003906 -0.707031 9.015625 -0.625 C 9.035156 -0.539062 9.066406 -0.460938 9.109375 -0.390625 C 9.148438 -0.316406 9.195312 -0.253906 9.25 -0.203125 C 9.300781 -0.148438 9.359375 -0.125 9.421875 -0.125 L 9.5 -0.125 L 9.5 0 L 7.640625 0 Z M 7.640625 -0.125 "/></g></g></g><g fill="#ffffff" fill-opacity="1"><g transform="translate(107.257401, 130.063599)"><g><path d="M 5.59375 -0.125 L 5.65625 -0.125 C 5.863281 -0.125 5.96875 -0.222656 5.96875 -0.421875 C 5.96875 -0.492188 5.957031 -0.566406 5.9375 -0.640625 L 4.75 -3.828125 L 2.46875 -3.828125 L 1.328125 -0.6875 C 1.296875 -0.625 1.28125 -0.5625 1.28125 -0.5 C 1.28125 -0.382812 1.3125 -0.289062 1.375 -0.21875 C 1.4375 -0.15625 1.503906 -0.125 1.578125 -0.125 L 1.640625 -0.125 L 1.640625 0 L 0.1875 0 L 0.1875 -0.125 L 0.25 -0.125 C 0.363281 -0.125 0.472656 -0.191406 0.578125 -0.328125 C 0.691406 -0.460938 0.78125 -0.625 0.84375 -0.8125 L 3.84375 -8.796875 L 6.78125 -0.890625 C 6.84375 -0.710938 6.925781 -0.539062 7.03125 -0.375 C 7.144531 -0.207031 7.289062 -0.125 7.46875 -0.125 L 7.53125 -0.125 L 7.53125 0 L 5.59375 0 Z M 2.59375 -4.265625 L 4.609375 -4.265625 L 3.59375 -7 Z M 2.59375 -4.265625 "/></g></g></g><g fill="#ffffff" fill-opacity="1"><g transform="translate(117.038766, 130.063599)"><g><path d="M 0.578125 -0.125 L 0.640625 -0.125 C 0.703125 -0.125 0.757812 -0.148438 0.8125 -0.203125 C 0.863281 -0.253906 0.910156 -0.316406 0.953125 -0.390625 C 0.992188 -0.460938 1.019531 -0.539062 1.03125 -0.625 C 1.050781 -0.707031 1.0625 -0.78125 1.0625 -0.84375 L 1.0625 -7.828125 C 1.0625 -7.890625 1.050781 -7.957031 1.03125 -8.03125 C 1.019531 -8.113281 0.992188 -8.1875 0.953125 -8.25 C 0.921875 -8.320312 0.878906 -8.382812 0.828125 -8.4375 C 0.773438 -8.488281 0.710938 -8.515625 0.640625 -8.515625 L 0.578125 -8.515625 L 0.578125 -8.640625 L 3.109375 -8.640625 C 3.796875 -8.640625 4.410156 -8.519531 4.953125 -8.28125 C 5.503906 -8.039062 5.96875 -7.71875 6.34375 -7.3125 C 6.726562 -6.90625 7.019531 -6.4375 7.21875 -5.90625 C 7.425781 -5.382812 7.53125 -4.84375 7.53125 -4.28125 C 7.53125 -3.75 7.429688 -3.226562 7.234375 -2.71875 C 7.046875 -2.207031 6.757812 -1.75 6.375 -1.34375 C 5.988281 -0.945312 5.507812 -0.625 4.9375 -0.375 C 4.363281 -0.125 3.695312 0 2.9375 0 L 0.578125 0 Z M 6.640625 -4.078125 C 6.640625 -4.640625 6.535156 -5.171875 6.328125 -5.671875 C 6.128906 -6.171875 5.847656 -6.601562 5.484375 -6.96875 C 5.128906 -7.34375 4.703125 -7.640625 4.203125 -7.859375 C 3.710938 -8.078125 3.179688 -8.1875 2.609375 -8.1875 L 1.9375 -8.1875 L 1.9375 -0.453125 L 2.625 -0.453125 C 3.101562 -0.453125 3.578125 -0.523438 4.046875 -0.671875 C 4.523438 -0.816406 4.957031 -1.039062 5.34375 -1.34375 C 5.726562 -1.644531 6.039062 -2.019531 6.28125 -2.46875 C 6.519531 -2.925781 6.640625 -3.460938 6.640625 -4.078125 Z M 6.640625 -4.078125 "/></g></g></g><g fill="#ffffff" fill-opacity="1"><g transform="translate(127.160519, 130.063599)"><g><path d="M 0.59375 -0.125 L 0.65625 -0.125 C 0.726562 -0.125 0.789062 -0.148438 0.84375 -0.203125 C 0.894531 -0.253906 0.9375 -0.3125 0.96875 -0.375 C 1.007812 -0.445312 1.039062 -0.519531 1.0625 -0.59375 C 1.082031 -0.675781 1.09375 -0.753906 1.09375 -0.828125 L 1.09375 -7.828125 C 1.09375 -7.890625 1.082031 -7.957031 1.0625 -8.03125 C 1.039062 -8.113281 1.007812 -8.1875 0.96875 -8.25 C 0.9375 -8.320312 0.894531 -8.382812 0.84375 -8.4375 C 0.789062 -8.488281 0.726562 -8.515625 0.65625 -8.515625 L 0.59375 -8.515625 L 0.59375 -8.640625 L 5.625 -8.640625 L 5.625 -7.421875 L 5.5 -7.421875 C 5.476562 -7.617188 5.394531 -7.796875 5.25 -7.953125 C 5.113281 -8.109375 4.898438 -8.1875 4.609375 -8.1875 L 1.984375 -8.1875 L 1.984375 -4.875 L 4.15625 -4.875 C 4.351562 -4.875 4.519531 -4.929688 4.65625 -5.046875 C 4.789062 -5.171875 4.859375 -5.316406 4.859375 -5.484375 L 4.984375 -5.484375 L 4.984375 -3.84375 L 4.859375 -3.84375 C 4.859375 -4 4.789062 -4.132812 4.65625 -4.25 C 4.53125 -4.363281 4.363281 -4.421875 4.15625 -4.421875 L 1.984375 -4.421875 L 1.984375 -0.453125 L 4.84375 -0.453125 C 5.007812 -0.453125 5.148438 -0.488281 5.265625 -0.5625 C 5.390625 -0.644531 5.492188 -0.738281 5.578125 -0.84375 C 5.660156 -0.957031 5.722656 -1.078125 5.765625 -1.203125 C 5.804688 -1.335938 5.828125 -1.445312 5.828125 -1.53125 L 5.953125 -1.53125 L 5.953125 0 L 0.59375 0 Z M 0.59375 -0.125 "/></g></g></g><g fill="#ffffff" fill-opacity="1"><g transform="translate(135.567248, 130.063599)"><g/></g></g><g fill="#ffffff" fill-opacity="1"><g transform="translate(141.028337, 130.063599)"><g><path d="M 0.59375 -0.125 L 0.65625 -0.125 C 0.71875 -0.125 0.773438 -0.148438 0.828125 -0.203125 C 0.878906 -0.253906 0.921875 -0.316406 0.953125 -0.390625 C 0.992188 -0.460938 1.023438 -0.539062 1.046875 -0.625 C 1.066406 -0.707031 1.078125 -0.78125 1.078125 -0.84375 L 1.078125 -7.8125 C 1.078125 -7.875 1.066406 -7.941406 1.046875 -8.015625 C 1.023438 -8.097656 0.992188 -8.175781 0.953125 -8.25 C 0.921875 -8.320312 0.875 -8.382812 0.8125 -8.4375 C 0.757812 -8.488281 0.695312 -8.515625 0.625 -8.515625 L 0.5625 -8.515625 L 0.5625 -8.640625 L 2.703125 -8.640625 C 3.515625 -8.640625 4.148438 -8.457031 4.609375 -8.09375 C 5.066406 -7.738281 5.296875 -7.265625 5.296875 -6.671875 C 5.296875 -6.421875 5.253906 -6.195312 5.171875 -6 C 5.085938 -5.800781 4.976562 -5.617188 4.84375 -5.453125 C 4.707031 -5.296875 4.554688 -5.160156 4.390625 -5.046875 C 4.234375 -4.941406 4.085938 -4.859375 3.953125 -4.796875 C 4.316406 -4.722656 4.617188 -4.601562 4.859375 -4.4375 C 5.109375 -4.269531 5.3125 -4.078125 5.46875 -3.859375 C 5.625 -3.648438 5.726562 -3.421875 5.78125 -3.171875 C 5.84375 -2.929688 5.875 -2.695312 5.875 -2.46875 C 5.875 -2.007812 5.789062 -1.625 5.625 -1.3125 C 5.457031 -1 5.238281 -0.742188 4.96875 -0.546875 C 4.695312 -0.359375 4.382812 -0.21875 4.03125 -0.125 C 3.675781 -0.0390625 3.3125 0 2.9375 0 L 0.59375 0 Z M 4.984375 -2.390625 C 4.921875 -3.054688 4.695312 -3.570312 4.3125 -3.9375 C 3.925781 -4.300781 3.382812 -4.484375 2.6875 -4.484375 L 1.953125 -4.484375 L 1.953125 -0.4375 L 2.703125 -0.4375 C 3.410156 -0.4375 3.96875 -0.59375 4.375 -0.90625 C 4.78125 -1.226562 4.984375 -1.671875 4.984375 -2.234375 Z M 4.453125 -6.5625 C 4.421875 -7.0625 4.242188 -7.457031 3.921875 -7.75 C 3.597656 -8.050781 3.160156 -8.203125 2.609375 -8.203125 L 1.953125 -8.203125 L 1.953125 -4.90625 L 2.625 -4.90625 C 3 -4.90625 3.300781 -4.953125 3.53125 -5.046875 C 3.757812 -5.148438 3.941406 -5.273438 4.078125 -5.421875 C 4.222656 -5.578125 4.320312 -5.742188 4.375 -5.921875 C 4.425781 -6.109375 4.453125 -6.289062 4.453125 -6.46875 Z M 4.453125 -6.5625 "/></g></g></g><g fill="#ffffff" fill-opacity="1"><g transform="translate(149.487434, 130.063599)"><g><path d="M 0.046875 -8.640625 L 1.84375 -8.640625 L 1.84375 -8.515625 C 1.78125 -8.503906 1.722656 -8.472656 1.671875 -8.421875 C 1.617188 -8.378906 1.59375 -8.316406 1.59375 -8.234375 C 1.59375 -8.191406 1.609375 -8.144531 1.640625 -8.09375 L 3.59375 -4.640625 L 5.484375 -7.90625 C 5.515625 -7.976562 5.535156 -8.03125 5.546875 -8.0625 C 5.566406 -8.101562 5.578125 -8.148438 5.578125 -8.203125 C 5.554688 -8.335938 5.503906 -8.421875 5.421875 -8.453125 C 5.335938 -8.492188 5.289062 -8.515625 5.28125 -8.515625 L 5.28125 -8.640625 L 6.671875 -8.640625 L 6.671875 -8.515625 C 6.546875 -8.515625 6.414062 -8.429688 6.28125 -8.265625 C 6.144531 -8.109375 6.03125 -7.945312 5.9375 -7.78125 L 3.890625 -4.25 L 3.890625 -0.84375 C 3.890625 -0.78125 3.898438 -0.707031 3.921875 -0.625 C 3.941406 -0.550781 3.96875 -0.472656 4 -0.390625 C 4.039062 -0.316406 4.085938 -0.253906 4.140625 -0.203125 C 4.191406 -0.148438 4.253906 -0.125 4.328125 -0.125 L 4.390625 -0.125 L 4.390625 0 L 2.515625 0 L 2.515625 -0.125 L 2.578125 -0.125 C 2.648438 -0.125 2.710938 -0.148438 2.765625 -0.203125 C 2.816406 -0.253906 2.859375 -0.316406 2.890625 -0.390625 C 2.929688 -0.460938 2.960938 -0.539062 2.984375 -0.625 C 3.003906 -0.707031 3.015625 -0.78125 3.015625 -0.84375 L 3.015625 -4.125 L 0.90625 -7.734375 C 0.863281 -7.804688 0.8125 -7.882812 0.75 -7.96875 C 0.6875 -8.0625 0.617188 -8.144531 0.546875 -8.21875 C 0.472656 -8.300781 0.394531 -8.367188 0.3125 -8.421875 C 0.238281 -8.484375 0.171875 -8.515625 0.109375 -8.515625 L 0.046875 -8.515625 Z M 0.046875 -8.640625 "/></g></g></g><g fill="#ffffff" fill-opacity="1"><g transform="translate(158.470197, 130.063599)"><g/></g></g><g fill="#ffffff" fill-opacity="1"><g transform="translate(163.931286, 130.063599)"><g><path d="M 1.96875 -0.125 L 2.03125 -0.125 L 2.03125 0 L 0.578125 0 L 0.578125 -0.125 L 0.640625 -0.125 C 0.703125 -0.125 0.757812 -0.148438 0.8125 -0.203125 C 0.875 -0.253906 0.921875 -0.316406 0.953125 -0.390625 C 0.992188 -0.460938 1.023438 -0.539062 1.046875 -0.625 C 1.066406 -0.707031 1.078125 -0.78125 1.078125 -0.84375 L 1.078125 -7.828125 C 1.078125 -7.890625 1.066406 -7.957031 1.046875 -8.03125 C 1.035156 -8.113281 1.007812 -8.1875 0.96875 -8.25 C 0.9375 -8.320312 0.890625 -8.382812 0.828125 -8.4375 C 0.773438 -8.488281 0.703125 -8.515625 0.609375 -8.515625 L 0.546875 -8.515625 L 0.546875 -8.640625 L 1.875 -8.640625 L 6.625 -1.15625 L 6.625 -7.828125 C 6.625 -7.890625 6.613281 -7.957031 6.59375 -8.03125 C 6.570312 -8.113281 6.539062 -8.1875 6.5 -8.25 C 6.457031 -8.320312 6.410156 -8.382812 6.359375 -8.4375 C 6.304688 -8.488281 6.25 -8.515625 6.1875 -8.515625 L 6.109375 -8.515625 L 6.109375 -8.640625 L 7.578125 -8.640625 L 7.578125 -8.515625 L 7.515625 -8.515625 C 7.441406 -8.515625 7.378906 -8.488281 7.328125 -8.4375 C 7.273438 -8.382812 7.226562 -8.320312 7.1875 -8.25 C 7.15625 -8.1875 7.128906 -8.113281 7.109375 -8.03125 C 7.085938 -7.957031 7.078125 -7.890625 7.078125 -7.828125 L 7.078125 0 L 6.265625 0 L 1.53125 -7.515625 L 1.53125 -0.84375 C 1.53125 -0.78125 1.535156 -0.707031 1.546875 -0.625 C 1.566406 -0.539062 1.597656 -0.460938 1.640625 -0.390625 C 1.679688 -0.316406 1.726562 -0.253906 1.78125 -0.203125 C 1.832031 -0.148438 1.894531 -0.125 1.96875 -0.125 Z M 1.96875 -0.125 "/></g></g></g><g fill="#ffffff" fill-opacity="1"><g transform="translate(174.210137, 130.063599)"><g><path d="M 5.59375 -0.125 L 5.65625 -0.125 C 5.863281 -0.125 5.96875 -0.222656 5.96875 -0.421875 C 5.96875 -0.492188 5.957031 -0.566406 5.9375 -0.640625 L 4.75 -3.828125 L 2.46875 -3.828125 L 1.328125 -0.6875 C 1.296875 -0.625 1.28125 -0.5625 1.28125 -0.5 C 1.28125 -0.382812 1.3125 -0.289062 1.375 -0.21875 C 1.4375 -0.15625 1.503906 -0.125 1.578125 -0.125 L 1.640625 -0.125 L 1.640625 0 L 0.1875 0 L 0.1875 -0.125 L 0.25 -0.125 C 0.363281 -0.125 0.472656 -0.191406 0.578125 -0.328125 C 0.691406 -0.460938 0.78125 -0.625 0.84375 -0.8125 L 3.84375 -8.796875 L 6.78125 -0.890625 C 6.84375 -0.710938 6.925781 -0.539062 7.03125 -0.375 C 7.144531 -0.207031 7.289062 -0.125 7.46875 -0.125 L 7.53125 -0.125 L 7.53125 0 L 5.59375 0 Z M 2.59375 -4.265625 L 4.609375 -4.265625 L 3.59375 -7 Z M 2.59375 -4.265625 "/></g></g></g><g fill="#ffffff" fill-opacity="1"><g transform="translate(183.991504, 130.063599)"><g><path d="M 1.96875 -0.125 L 2.03125 -0.125 L 2.03125 0 L 0.578125 0 L 0.578125 -0.125 L 0.640625 -0.125 C 0.703125 -0.125 0.757812 -0.148438 0.8125 -0.203125 C 0.875 -0.253906 0.921875 -0.316406 0.953125 -0.390625 C 0.992188 -0.460938 1.023438 -0.539062 1.046875 -0.625 C 1.066406 -0.707031 1.078125 -0.78125 1.078125 -0.84375 L 1.078125 -7.828125 C 1.078125 -7.890625 1.066406 -7.957031 1.046875 -8.03125 C 1.035156 -8.113281 1.007812 -8.1875 0.96875 -8.25 C 0.9375 -8.320312 0.890625 -8.382812 0.828125 -8.4375 C 0.773438 -8.488281 0.703125 -8.515625 0.609375 -8.515625 L 0.546875 -8.515625 L 0.546875 -8.640625 L 1.875 -8.640625 L 6.625 -1.15625 L 6.625 -7.828125 C 6.625 -7.890625 6.613281 -7.957031 6.59375 -8.03125 C 6.570312 -8.113281 6.539062 -8.1875 6.5 -8.25 C 6.457031 -8.320312 6.410156 -8.382812 6.359375 -8.4375 C 6.304688 -8.488281 6.25 -8.515625 6.1875 -8.515625 L 6.109375 -8.515625 L 6.109375 -8.640625 L 7.578125 -8.640625 L 7.578125 -8.515625 L 7.515625 -8.515625 C 7.441406 -8.515625 7.378906 -8.488281 7.328125 -8.4375 C 7.273438 -8.382812 7.226562 -8.320312 7.1875 -8.25 C 7.15625 -8.1875 7.128906 -8.113281 7.109375 -8.03125 C 7.085938 -7.957031 7.078125 -7.890625 7.078125 -7.828125 L 7.078125 0 L 6.265625 0 L 1.53125 -7.515625 L 1.53125 -0.84375 C 1.53125 -0.78125 1.535156 -0.707031 1.546875 -0.625 C 1.566406 -0.539062 1.597656 -0.460938 1.640625 -0.390625 C 1.679688 -0.316406 1.726562 -0.253906 1.78125 -0.203125 C 1.832031 -0.148438 1.894531 -0.125 1.96875 -0.125 Z M 1.96875 -0.125 "/></g></g></g><g fill="#ffffff" fill-opacity="1"><g transform="translate(194.270355, 130.063599)"><g><path d="M 5.59375 -0.125 L 5.65625 -0.125 C 5.863281 -0.125 5.96875 -0.222656 5.96875 -0.421875 C 5.96875 -0.492188 5.957031 -0.566406 5.9375 -0.640625 L 4.75 -3.828125 L 2.46875 -3.828125 L 1.328125 -0.6875 C 1.296875 -0.625 1.28125 -0.5625 1.28125 -0.5 C 1.28125 -0.382812 1.3125 -0.289062 1.375 -0.21875 C 1.4375 -0.15625 1.503906 -0.125 1.578125 -0.125 L 1.640625 -0.125 L 1.640625 0 L 0.1875 0 L 0.1875 -0.125 L 0.25 -0.125 C 0.363281 -0.125 0.472656 -0.191406 0.578125 -0.328125 C 0.691406 -0.460938 0.78125 -0.625 0.84375 -0.8125 L 3.84375 -8.796875 L 6.78125 -0.890625 C 6.84375 -0.710938 6.925781 -0.539062 7.03125 -0.375 C 7.144531 -0.207031 7.289062 -0.125 7.46875 -0.125 L 7.53125 -0.125 L 7.53125 0 L 5.59375 0 Z M 2.59375 -4.265625 L 4.609375 -4.265625 L 3.59375 -7 Z M 2.59375 -4.265625 "/></g></g></g></svg>