<svg xmlns="http://www.w3.org/2000/svg" xmlns:xlink="http://www.w3.org/1999/xlink" width="450" zoomAndPan="magnify" viewBox="0 0 337.5 249.749992" height="333" preserveAspectRatio="xMidYMid meet" version="1.0"><defs><g/><clipPath id="1eb7c7fde8"><path d="M 171 114.132812 L 336.121094 114.132812 L 336.121094 150.828125 L 171 150.828125 Z M 171 114.132812 " clip-rule="nonzero"/></clipPath></defs><g clip-path="url(#1eb7c7fde8)"><path fill="#ffffff" d="M 174.554688 130.765625 L 174.59375 130.808594 C 174.558594 130.773438 175.140625 131.425781 175.433594 131.691406 C 176.632812 132.71875 177.945312 133.570312 179.371094 134.246094 C 184.5625 136.878906 190.5625 137.882812 196.332031 138.035156 C 205.941406 138.28125 215.308594 135.851562 224.644531 133.914062 C 234.402344 131.867188 244.355469 129.546875 254.367188 129.460938 C 257.46875 129.421875 260.554688 129.613281 263.625 130.03125 C 265.390625 123.121094 271.265625 118.550781 278.175781 116.660156 C 287.386719 114.132812 297.742188 114.554688 307.085938 116.054688 C 317.269531 117.6875 327.246094 121.179688 336.042969 126.605469 C 336.113281 126.644531 336.160156 126.707031 336.183594 126.785156 C 336.203125 126.867188 336.191406 126.941406 336.152344 127.011719 C 336.109375 127.085938 336.046875 127.132812 335.96875 127.152344 C 335.890625 127.171875 335.8125 127.164062 335.742188 127.121094 C 320.425781 118.90625 303.003906 114.835938 285.625 116.894531 C 277.816406 117.824219 268.925781 120.636719 266.191406 128.878906 C 266.027344 129.378906 265.886719 129.882812 265.777344 130.398438 C 270.761719 131.335938 275.597656 133.109375 279.28125 136.21875 C 281.925781 138.449219 283.558594 141.738281 282.757812 145.21875 C 281.957031 148.699219 278.808594 150.625 275.335938 150.039062 C 267.597656 148.730469 262.4375 139.988281 263.191406 132.578125 C 263.1875 132.554688 263.1875 132.53125 263.191406 132.507812 C 255.988281 131.417969 248.554688 132.078125 241.410156 133.285156 C 231.929688 134.886719 222.574219 137.109375 213.152344 139 C 205.796875 140.480469 198.289062 141.277344 190.808594 140.339844 C 185.714844 139.703125 180.566406 138.359375 176.160156 135.675781 C 174.8125 134.851562 170.867188 132.46875 171.726562 130.300781 C 172.347656 128.722656 174.832031 129.277344 174.554688 130.765625 Z M 267.324219 140.792969 C 269.140625 143.933594 272.863281 147.640625 276.78125 147.496094 C 281.339844 147.328125 280.96875 141.546875 278.699219 139.035156 C 276.027344 136.066406 271.726562 134.558594 267.957031 133.519531 C 267.113281 133.285156 266.265625 133.09375 265.410156 132.917969 C 265.28125 135.730469 265.917969 138.355469 267.324219 140.792969 Z M 174.445312 130.644531 C 174.421875 130.605469 174.410156 130.601562 174.445312 130.644531 Z M 174.445312 130.644531 " fill-opacity="1" fill-rule="nonzero"/></g><g fill="#ffffff" fill-opacity="1"><g transform="translate(75.884037, 148.235859)"><g><path d="M 25.71875 -16.1875 C 25.882812 -15.78125 25.894531 -15.359375 25.75 -14.921875 C 25.613281 -14.492188 25.34375 -14.164062 24.9375 -13.9375 C 24.757812 -13.882812 24.539062 -13.84375 24.28125 -13.8125 C 24.019531 -13.78125 23.398438 -13.765625 22.421875 -13.765625 C 21.441406 -13.765625 19.769531 -13.765625 17.40625 -13.765625 C 16.070312 -13.765625 14.582031 -13.765625 12.9375 -13.765625 C 11.289062 -13.765625 9.832031 -13.765625 8.5625 -13.765625 C 7.300781 -13.765625 6.492188 -13.734375 6.140625 -13.671875 C 6.085938 -13.671875 6.03125 -13.671875 5.96875 -13.671875 C 4.988281 -13.671875 4.441406 -14.164062 4.328125 -15.15625 C 4.273438 -15.613281 4.390625 -16.03125 4.671875 -16.40625 C 4.960938 -16.78125 5.335938 -17 5.796875 -17.0625 C 6.316406 -17.113281 7.613281 -17.140625 9.6875 -17.140625 C 11.769531 -17.140625 14.367188 -17.113281 17.484375 -17.0625 C 18.867188 -17.0625 20.222656 -17.0625 21.546875 -17.0625 C 22.878906 -17.0625 23.691406 -17.0625 23.984375 -17.0625 C 24.785156 -17.226562 25.363281 -16.9375 25.71875 -16.1875 Z M 25.71875 -16.1875 "/></g></g></g><g fill="#ffffff" fill-opacity="1"><g transform="translate(106.095546, 148.235859)"><g><path d="M 36.53125 -19.390625 C 36.9375 -19.160156 37.195312 -18.8125 37.3125 -18.34375 C 37.425781 -17.882812 37.34375 -17.484375 37.0625 -17.140625 C 34.632812 -13.160156 31.859375 -9.679688 28.734375 -6.703125 C 25.617188 -3.734375 22.429688 -1.179688 19.171875 0.953125 C 15.910156 3.085938 12.78125 4.859375 9.78125 6.265625 C 6.78125 7.679688 4.15625 8.769531 1.90625 9.53125 C 1.09375 9.8125 0.457031 9.578125 0 8.828125 C -0.925781 11.140625 -1.734375 13.421875 -2.421875 15.671875 C -2.648438 16.421875 -3.195312 16.796875 -4.0625 16.796875 C -4.125 16.796875 -4.210938 16.796875 -4.328125 16.796875 C -5.253906 16.617188 -5.71875 16.070312 -5.71875 15.15625 C -5.71875 14.632812 -5.515625 13.363281 -5.109375 11.34375 C -4.703125 9.320312 -4.164062 6.738281 -3.5 3.59375 C -2.84375 0.445312 -2.078125 -3.039062 -1.203125 -6.875 C -0.335938 -10.71875 0.550781 -14.6875 1.46875 -18.78125 C 2.394531 -22.882812 3.304688 -26.910156 4.203125 -30.859375 C 5.097656 -34.816406 5.945312 -38.46875 6.75 -41.8125 C 6.75 -41.988281 6.78125 -42.164062 6.84375 -42.34375 C 7.820312 -46.5 8.628906 -49.84375 9.265625 -52.375 C 10.585938 -57.6875 12.054688 -62.519531 13.671875 -66.875 C 15.296875 -71.238281 16.898438 -74.75 18.484375 -77.40625 C 20.066406 -80.0625 21.46875 -81.503906 22.6875 -81.734375 C 23.664062 -81.898438 24.414062 -81.609375 24.9375 -80.859375 C 25.738281 -79.703125 25.664062 -77.304688 24.71875 -73.671875 C 23.769531 -70.035156 22.035156 -65.429688 19.515625 -59.859375 C 17.003906 -54.296875 13.847656 -48.050781 10.046875 -41.125 C 9.117188 -37.257812 8.132812 -33.070312 7.09375 -28.5625 C 6.0625 -24.0625 5.039062 -19.53125 4.03125 -14.96875 C 3.019531 -10.414062 2.082031 -6.175781 1.21875 -2.25 C 2.832031 -5.59375 4.390625 -8.304688 5.890625 -10.390625 C 10.390625 -16.679688 13.96875 -19.421875 16.625 -18.609375 C 17.144531 -18.441406 17.707031 -18.050781 18.3125 -17.4375 C 18.914062 -16.832031 19.25 -15.695312 19.3125 -14.03125 C 19.363281 -12.289062 18.925781 -10.09375 18 -7.4375 C 17.082031 -4.789062 15.671875 -2.164062 13.765625 0.4375 C 18.097656 -2.101562 22.023438 -5.019531 25.546875 -8.3125 C 29.066406 -11.601562 31.976562 -15.125 34.28125 -18.875 C 34.507812 -19.28125 34.84375 -19.523438 35.28125 -19.609375 C 35.71875 -19.691406 36.132812 -19.617188 36.53125 -19.390625 Z M 22.078125 -76.96875 C 21.097656 -75.46875 19.785156 -72.882812 18.140625 -69.21875 C 16.492188 -65.550781 14.863281 -60.601562 13.25 -54.375 C 16.132812 -60.195312 18.253906 -64.96875 19.609375 -68.6875 C 20.960938 -72.414062 21.785156 -75.175781 22.078125 -76.96875 Z M 0.953125 6.3125 C 3.898438 5.21875 6.410156 3.601562 8.484375 1.46875 C 10.554688 -0.664062 12.1875 -2.914062 13.375 -5.28125 C 14.5625 -7.644531 15.328125 -9.722656 15.671875 -11.515625 C 15.960938 -12.785156 16.046875 -13.722656 15.921875 -14.328125 C 15.804688 -14.929688 15.722656 -15.289062 15.671875 -15.40625 C 15.554688 -15.40625 15.238281 -15.273438 14.71875 -15.015625 C 14.195312 -14.753906 13.445312 -14.148438 12.46875 -13.203125 C 11.488281 -12.253906 10.21875 -10.679688 8.65625 -8.484375 C 7.445312 -6.753906 6.160156 -4.601562 4.796875 -2.03125 C 3.441406 0.53125 2.160156 3.3125 0.953125 6.3125 Z M 0.953125 6.3125 "/></g></g></g><g fill="#ffffff" fill-opacity="1"><g transform="translate(138.644343, 148.235859)"><g><path d="M 34.890625 -19.3125 C 35.296875 -19.070312 35.554688 -18.734375 35.671875 -18.296875 C 35.785156 -17.867188 35.726562 -17.457031 35.5 -17.0625 C 32.78125 -12.269531 30.335938 -8.585938 28.171875 -6.015625 C 26.015625 -3.453125 23.8125 -2.3125 21.5625 -2.59375 C 18.675781 -2.9375 16.394531 -6.054688 14.71875 -11.953125 C 14.144531 -13.859375 13.640625 -15.226562 13.203125 -16.0625 C 12.765625 -16.894531 12.414062 -17.410156 12.15625 -17.609375 C 11.90625 -17.816406 11.71875 -17.921875 11.59375 -17.921875 C 11.425781 -17.984375 11.082031 -17.8125 10.5625 -17.40625 C 10.039062 -17 9.289062 -16.101562 8.3125 -14.71875 C 7.332031 -13.332031 6.117188 -11.179688 4.671875 -8.265625 C 3.234375 -5.347656 1.472656 -1.351562 -0.609375 3.71875 C -0.890625 4.414062 -1.378906 4.765625 -2.078125 4.765625 C -2.253906 4.765625 -2.398438 4.734375 -2.515625 4.671875 C -3.492188 4.441406 -3.925781 3.835938 -3.8125 2.859375 C -3.519531 0.492188 -3 -2.242188 -2.25 -5.359375 C -1.5 -8.484375 -0.675781 -11.660156 0.21875 -14.890625 C 1.113281 -18.117188 1.9375 -21.003906 2.6875 -23.546875 C 2.851562 -24.128906 3.007812 -24.664062 3.15625 -25.15625 C 3.300781 -25.644531 3.429688 -26.117188 3.546875 -26.578125 C 3.722656 -27.035156 4.007812 -27.363281 4.40625 -27.5625 C 4.8125 -27.769531 5.21875 -27.816406 5.625 -27.703125 C 6.082031 -27.585938 6.425781 -27.328125 6.65625 -26.921875 C 6.894531 -26.515625 6.925781 -26.082031 6.75 -25.625 C 6.632812 -25.164062 6.503906 -24.691406 6.359375 -24.203125 C 6.210938 -23.710938 6.054688 -23.175781 5.890625 -22.59375 C 5.484375 -21.09375 5.019531 -19.445312 4.5 -17.65625 C 3.976562 -15.875 3.457031 -14.054688 2.9375 -12.203125 C 4.90625 -15.898438 6.582031 -18.351562 7.96875 -19.5625 C 9.351562 -20.78125 10.625 -21.359375 11.78125 -21.296875 C 13.394531 -21.179688 14.660156 -20.285156 15.578125 -18.609375 C 16.503906 -16.941406 17.285156 -15.007812 17.921875 -12.8125 C 18.785156 -9.8125 19.59375 -7.90625 20.34375 -7.09375 C 21.09375 -6.289062 21.640625 -5.890625 21.984375 -5.890625 C 22.734375 -5.773438 23.613281 -6.191406 24.625 -7.140625 C 25.632812 -8.097656 26.644531 -9.3125 27.65625 -10.78125 C 28.664062 -12.25 29.617188 -13.703125 30.515625 -15.140625 C 31.410156 -16.585938 32.085938 -17.773438 32.546875 -18.703125 C 32.785156 -19.109375 33.132812 -19.367188 33.59375 -19.484375 C 34.050781 -19.597656 34.484375 -19.539062 34.890625 -19.3125 Z M 34.890625 -19.3125 "/></g></g></g><g fill="#ffffff" fill-opacity="1"><g transform="translate(137.46291, 171.571629)"><g><path d="M 7.734375 -0.125 L 7.796875 -0.125 C 7.859375 -0.125 7.914062 -0.148438 7.96875 -0.203125 C 8.019531 -0.265625 8.066406 -0.328125 8.109375 -0.390625 C 8.148438 -0.460938 8.175781 -0.539062 8.1875 -0.625 C 8.207031 -0.707031 8.21875 -0.785156 8.21875 -0.859375 L 8.21875 -7.84375 L 4.796875 0.140625 L 1.546875 -7.421875 L 1.546875 -0.859375 C 1.546875 -0.785156 1.554688 -0.707031 1.578125 -0.625 C 1.597656 -0.539062 1.625 -0.460938 1.65625 -0.390625 C 1.695312 -0.328125 1.742188 -0.265625 1.796875 -0.203125 C 1.859375 -0.148438 1.921875 -0.125 1.984375 -0.125 L 2.0625 -0.125 L 2.0625 0 L 0.609375 0 L 0.609375 -0.125 L 0.671875 -0.125 C 0.734375 -0.125 0.789062 -0.148438 0.84375 -0.203125 C 0.894531 -0.265625 0.9375 -0.328125 0.96875 -0.390625 C 1.007812 -0.460938 1.039062 -0.539062 1.0625 -0.625 C 1.082031 -0.707031 1.09375 -0.785156 1.09375 -0.859375 L 1.09375 -7.9375 C 1.09375 -8 1.082031 -8.066406 1.0625 -8.140625 C 1.039062 -8.222656 1.007812 -8.300781 0.96875 -8.375 C 0.9375 -8.445312 0.894531 -8.503906 0.84375 -8.546875 C 0.789062 -8.597656 0.734375 -8.625 0.671875 -8.625 L 0.609375 -8.625 L 0.609375 -8.75 L 1.96875 -8.75 L 5.046875 -1.5 L 8.125 -8.75 L 9.625 -8.75 L 9.625 -8.625 L 9.546875 -8.625 C 9.472656 -8.625 9.410156 -8.597656 9.359375 -8.546875 C 9.304688 -8.503906 9.257812 -8.445312 9.21875 -8.375 C 9.1875 -8.300781 9.160156 -8.222656 9.140625 -8.140625 C 9.117188 -8.066406 9.109375 -8 9.109375 -7.9375 L 9.109375 -0.859375 C 9.109375 -0.785156 9.117188 -0.707031 9.140625 -0.625 C 9.160156 -0.539062 9.1875 -0.460938 9.21875 -0.390625 C 9.257812 -0.328125 9.304688 -0.265625 9.359375 -0.203125 C 9.410156 -0.148438 9.472656 -0.125 9.546875 -0.125 L 9.625 -0.125 L 9.625 0 L 7.734375 0 Z M 7.734375 -0.125 "/></g></g></g><g fill="#ffffff" fill-opacity="1"><g transform="translate(149.84741, 171.571629)"><g><path d="M 5.671875 -0.125 L 5.734375 -0.125 C 5.941406 -0.125 6.046875 -0.222656 6.046875 -0.421875 C 6.046875 -0.492188 6.035156 -0.570312 6.015625 -0.65625 L 4.8125 -3.875 L 2.5 -3.875 L 1.34375 -0.703125 C 1.3125 -0.628906 1.296875 -0.5625 1.296875 -0.5 C 1.296875 -0.382812 1.328125 -0.289062 1.390625 -0.21875 C 1.453125 -0.15625 1.519531 -0.125 1.59375 -0.125 L 1.65625 -0.125 L 1.65625 0 L 0.1875 0 L 0.1875 -0.125 L 0.25 -0.125 C 0.363281 -0.125 0.472656 -0.191406 0.578125 -0.328125 C 0.691406 -0.472656 0.785156 -0.640625 0.859375 -0.828125 L 3.90625 -8.921875 L 6.875 -0.90625 C 6.9375 -0.726562 7.019531 -0.550781 7.125 -0.375 C 7.238281 -0.207031 7.382812 -0.125 7.5625 -0.125 L 7.625 -0.125 L 7.625 0 L 5.671875 0 Z M 2.625 -4.328125 L 4.671875 -4.328125 L 3.640625 -7.09375 Z M 2.625 -4.328125 "/></g></g></g><g fill="#ffffff" fill-opacity="1"><g transform="translate(159.75273, 171.571629)"><g><path d="M 0.578125 -0.125 L 0.65625 -0.125 C 0.71875 -0.125 0.773438 -0.148438 0.828125 -0.203125 C 0.878906 -0.265625 0.921875 -0.328125 0.953125 -0.390625 C 0.992188 -0.460938 1.023438 -0.539062 1.046875 -0.625 C 1.066406 -0.707031 1.078125 -0.785156 1.078125 -0.859375 L 1.078125 -7.9375 C 1.078125 -8 1.066406 -8.066406 1.046875 -8.140625 C 1.023438 -8.222656 1 -8.300781 0.96875 -8.375 C 0.9375 -8.445312 0.890625 -8.503906 0.828125 -8.546875 C 0.773438 -8.597656 0.71875 -8.625 0.65625 -8.625 L 0.578125 -8.625 L 0.578125 -8.75 L 3.140625 -8.75 C 3.835938 -8.75 4.460938 -8.628906 5.015625 -8.390625 C 5.578125 -8.148438 6.050781 -7.820312 6.4375 -7.40625 C 6.820312 -7 7.113281 -6.53125 7.3125 -6 C 7.519531 -5.46875 7.625 -4.914062 7.625 -4.34375 C 7.625 -3.800781 7.523438 -3.269531 7.328125 -2.75 C 7.140625 -2.238281 6.847656 -1.773438 6.453125 -1.359375 C 6.066406 -0.953125 5.582031 -0.625 5 -0.375 C 4.414062 -0.125 3.738281 0 2.96875 0 L 0.578125 0 Z M 6.71875 -4.140625 C 6.71875 -4.703125 6.613281 -5.234375 6.40625 -5.734375 C 6.207031 -6.242188 5.925781 -6.6875 5.5625 -7.0625 C 5.195312 -7.4375 4.765625 -7.734375 4.265625 -7.953125 C 3.765625 -8.179688 3.222656 -8.296875 2.640625 -8.296875 L 1.96875 -8.296875 L 1.96875 -0.46875 L 2.671875 -0.46875 C 3.140625 -0.46875 3.613281 -0.539062 4.09375 -0.6875 C 4.582031 -0.832031 5.019531 -1.054688 5.40625 -1.359375 C 5.800781 -1.660156 6.117188 -2.039062 6.359375 -2.5 C 6.597656 -2.96875 6.71875 -3.515625 6.71875 -4.140625 Z M 6.71875 -4.140625 "/></g></g></g><g fill="#ffffff" fill-opacity="1"><g transform="translate(170.002752, 171.571629)"><g><path d="M 0.59375 -0.125 L 0.65625 -0.125 C 0.726562 -0.125 0.789062 -0.148438 0.84375 -0.203125 C 0.894531 -0.253906 0.941406 -0.3125 0.984375 -0.375 C 1.023438 -0.445312 1.054688 -0.523438 1.078125 -0.609375 C 1.097656 -0.691406 1.109375 -0.765625 1.109375 -0.828125 L 1.109375 -7.9375 C 1.109375 -8 1.097656 -8.066406 1.078125 -8.140625 C 1.054688 -8.222656 1.023438 -8.300781 0.984375 -8.375 C 0.941406 -8.445312 0.894531 -8.503906 0.84375 -8.546875 C 0.789062 -8.597656 0.726562 -8.625 0.65625 -8.625 L 0.59375 -8.625 L 0.59375 -8.75 L 5.703125 -8.75 L 5.703125 -7.515625 L 5.578125 -7.515625 C 5.554688 -7.722656 5.472656 -7.90625 5.328125 -8.0625 C 5.191406 -8.21875 4.972656 -8.296875 4.671875 -8.296875 L 2 -8.296875 L 2 -4.9375 L 4.203125 -4.9375 C 4.410156 -4.9375 4.582031 -5 4.71875 -5.125 C 4.851562 -5.25 4.921875 -5.394531 4.921875 -5.5625 L 5.046875 -5.5625 L 5.046875 -3.90625 L 4.921875 -3.90625 C 4.921875 -4.0625 4.851562 -4.195312 4.71875 -4.3125 C 4.59375 -4.425781 4.421875 -4.484375 4.203125 -4.484375 L 2 -4.484375 L 2 -0.46875 L 4.90625 -0.46875 C 5.070312 -0.46875 5.21875 -0.503906 5.34375 -0.578125 C 5.46875 -0.660156 5.570312 -0.753906 5.65625 -0.859375 C 5.738281 -0.972656 5.800781 -1.09375 5.84375 -1.21875 C 5.882812 -1.351562 5.90625 -1.460938 5.90625 -1.546875 L 6.03125 -1.546875 L 6.03125 0 L 0.59375 0 Z M 0.59375 -0.125 "/></g></g></g><g fill="#ffffff" fill-opacity="1"><g transform="translate(178.516016, 171.571629)"><g/></g></g><g fill="#ffffff" fill-opacity="1"><g transform="translate(184.046311, 171.571629)"><g><path d="M 3.953125 -0.125 L 4.015625 -0.125 L 4.015625 0 L 2.140625 0 L 2.140625 -0.125 L 2.203125 -0.125 C 2.273438 -0.125 2.335938 -0.148438 2.390625 -0.203125 C 2.441406 -0.265625 2.488281 -0.328125 2.53125 -0.390625 C 2.570312 -0.460938 2.597656 -0.539062 2.609375 -0.625 C 2.628906 -0.707031 2.640625 -0.785156 2.640625 -0.859375 L 2.640625 -8.265625 L 1.09375 -8.265625 C 0.957031 -8.265625 0.835938 -8.234375 0.734375 -8.171875 C 0.628906 -8.109375 0.539062 -8.03125 0.46875 -7.9375 C 0.394531 -7.84375 0.335938 -7.738281 0.296875 -7.625 C 0.265625 -7.519531 0.25 -7.414062 0.25 -7.3125 L 0.125 -7.3125 L 0.125 -8.75 L 6.078125 -8.75 L 6.078125 -7.3125 L 5.9375 -7.3125 C 5.9375 -7.414062 5.921875 -7.519531 5.890625 -7.625 C 5.859375 -7.738281 5.804688 -7.84375 5.734375 -7.9375 C 5.660156 -8.03125 5.570312 -8.109375 5.46875 -8.171875 C 5.363281 -8.234375 5.238281 -8.265625 5.09375 -8.265625 L 3.53125 -8.265625 L 3.53125 -0.859375 C 3.53125 -0.785156 3.535156 -0.707031 3.546875 -0.625 C 3.566406 -0.539062 3.597656 -0.460938 3.640625 -0.390625 C 3.679688 -0.328125 3.722656 -0.265625 3.765625 -0.203125 C 3.816406 -0.148438 3.878906 -0.125 3.953125 -0.125 Z M 3.953125 -0.125 "/></g></g></g><g fill="#ffffff" fill-opacity="1"><g transform="translate(192.334195, 171.571629)"><g><path d="M 5.0625 -8.890625 C 5.757812 -8.890625 6.378906 -8.765625 6.921875 -8.515625 C 7.472656 -8.273438 7.941406 -7.945312 8.328125 -7.53125 C 8.710938 -7.125 9.007812 -6.648438 9.21875 -6.109375 C 9.425781 -5.566406 9.53125 -5 9.53125 -4.40625 C 9.53125 -3.738281 9.40625 -3.125 9.15625 -2.5625 C 8.914062 -2.007812 8.582031 -1.535156 8.15625 -1.140625 C 7.726562 -0.742188 7.234375 -0.429688 6.671875 -0.203125 C 6.117188 0.015625 5.519531 0.125 4.875 0.125 C 4.195312 0.125 3.585938 0.00390625 3.046875 -0.234375 C 2.503906 -0.484375 2.039062 -0.8125 1.65625 -1.21875 C 1.28125 -1.625 0.988281 -2.09375 0.78125 -2.625 C 0.582031 -3.15625 0.484375 -3.707031 0.484375 -4.28125 C 0.484375 -4.851562 0.582031 -5.414062 0.78125 -5.96875 C 0.988281 -6.519531 1.289062 -7.007812 1.6875 -7.4375 C 2.082031 -7.875 2.5625 -8.222656 3.125 -8.484375 C 3.695312 -8.753906 4.34375 -8.890625 5.0625 -8.890625 Z M 5.046875 -0.328125 C 5.640625 -0.359375 6.160156 -0.492188 6.609375 -0.734375 C 7.054688 -0.972656 7.429688 -1.28125 7.734375 -1.65625 C 8.035156 -2.039062 8.257812 -2.457031 8.40625 -2.90625 C 8.550781 -3.351562 8.625 -3.800781 8.625 -4.25 C 8.625 -4.726562 8.535156 -5.210938 8.359375 -5.703125 C 8.179688 -6.203125 7.925781 -6.65625 7.59375 -7.0625 C 7.269531 -7.46875 6.878906 -7.796875 6.421875 -8.046875 C 5.972656 -8.296875 5.460938 -8.421875 4.890625 -8.421875 C 4.347656 -8.421875 3.859375 -8.296875 3.421875 -8.046875 C 2.984375 -7.804688 2.613281 -7.492188 2.3125 -7.109375 C 2.007812 -6.734375 1.773438 -6.3125 1.609375 -5.84375 C 1.453125 -5.375 1.375 -4.914062 1.375 -4.46875 C 1.375 -3.976562 1.46875 -3.488281 1.65625 -3 C 1.84375 -2.507812 2.097656 -2.066406 2.421875 -1.671875 C 2.753906 -1.273438 3.144531 -0.953125 3.59375 -0.703125 C 4.039062 -0.453125 4.523438 -0.328125 5.046875 -0.328125 Z M 5.046875 -0.328125 "/></g></g></g><g fill="#ffffff" fill-opacity="1"><g transform="translate(204.506574, 171.571629)"><g/></g></g><g fill="#ffffff" fill-opacity="1"><g transform="translate(210.036869, 171.571629)"><g><path d="M 7.734375 -0.125 L 7.796875 -0.125 C 7.859375 -0.125 7.914062 -0.148438 7.96875 -0.203125 C 8.019531 -0.265625 8.066406 -0.328125 8.109375 -0.390625 C 8.148438 -0.460938 8.175781 -0.539062 8.1875 -0.625 C 8.207031 -0.707031 8.21875 -0.785156 8.21875 -0.859375 L 8.21875 -7.84375 L 4.796875 0.140625 L 1.546875 -7.421875 L 1.546875 -0.859375 C 1.546875 -0.785156 1.554688 -0.707031 1.578125 -0.625 C 1.597656 -0.539062 1.625 -0.460938 1.65625 -0.390625 C 1.695312 -0.328125 1.742188 -0.265625 1.796875 -0.203125 C 1.859375 -0.148438 1.921875 -0.125 1.984375 -0.125 L 2.0625 -0.125 L 2.0625 0 L 0.609375 0 L 0.609375 -0.125 L 0.671875 -0.125 C 0.734375 -0.125 0.789062 -0.148438 0.84375 -0.203125 C 0.894531 -0.265625 0.9375 -0.328125 0.96875 -0.390625 C 1.007812 -0.460938 1.039062 -0.539062 1.0625 -0.625 C 1.082031 -0.707031 1.09375 -0.785156 1.09375 -0.859375 L 1.09375 -7.9375 C 1.09375 -8 1.082031 -8.066406 1.0625 -8.140625 C 1.039062 -8.222656 1.007812 -8.300781 0.96875 -8.375 C 0.9375 -8.445312 0.894531 -8.503906 0.84375 -8.546875 C 0.789062 -8.597656 0.734375 -8.625 0.671875 -8.625 L 0.609375 -8.625 L 0.609375 -8.75 L 1.96875 -8.75 L 5.046875 -1.5 L 8.125 -8.75 L 9.625 -8.75 L 9.625 -8.625 L 9.546875 -8.625 C 9.472656 -8.625 9.410156 -8.597656 9.359375 -8.546875 C 9.304688 -8.503906 9.257812 -8.445312 9.21875 -8.375 C 9.1875 -8.300781 9.160156 -8.222656 9.140625 -8.140625 C 9.117188 -8.066406 9.109375 -8 9.109375 -7.9375 L 9.109375 -0.859375 C 9.109375 -0.785156 9.117188 -0.707031 9.140625 -0.625 C 9.160156 -0.539062 9.1875 -0.460938 9.21875 -0.390625 C 9.257812 -0.328125 9.304688 -0.265625 9.359375 -0.203125 C 9.410156 -0.148438 9.472656 -0.125 9.546875 -0.125 L 9.625 -0.125 L 9.625 0 L 7.734375 0 Z M 7.734375 -0.125 "/></g></g></g><g fill="#ffffff" fill-opacity="1"><g transform="translate(222.42137, 171.571629)"><g><path d="M 5.671875 -0.125 L 5.734375 -0.125 C 5.941406 -0.125 6.046875 -0.222656 6.046875 -0.421875 C 6.046875 -0.492188 6.035156 -0.570312 6.015625 -0.65625 L 4.8125 -3.875 L 2.5 -3.875 L 1.34375 -0.703125 C 1.3125 -0.628906 1.296875 -0.5625 1.296875 -0.5 C 1.296875 -0.382812 1.328125 -0.289062 1.390625 -0.21875 C 1.453125 -0.15625 1.519531 -0.125 1.59375 -0.125 L 1.65625 -0.125 L 1.65625 0 L 0.1875 0 L 0.1875 -0.125 L 0.25 -0.125 C 0.363281 -0.125 0.472656 -0.191406 0.578125 -0.328125 C 0.691406 -0.472656 0.785156 -0.640625 0.859375 -0.828125 L 3.90625 -8.921875 L 6.875 -0.90625 C 6.9375 -0.726562 7.019531 -0.550781 7.125 -0.375 C 7.238281 -0.207031 7.382812 -0.125 7.5625 -0.125 L 7.625 -0.125 L 7.625 0 L 5.671875 0 Z M 2.625 -4.328125 L 4.671875 -4.328125 L 3.640625 -7.09375 Z M 2.625 -4.328125 "/></g></g></g><g fill="#ffffff" fill-opacity="1"><g transform="translate(232.326691, 171.571629)"><g><path d="M 3.953125 -0.125 L 4.015625 -0.125 L 4.015625 0 L 2.140625 0 L 2.140625 -0.125 L 2.203125 -0.125 C 2.273438 -0.125 2.335938 -0.148438 2.390625 -0.203125 C 2.441406 -0.265625 2.488281 -0.328125 2.53125 -0.390625 C 2.570312 -0.460938 2.597656 -0.539062 2.609375 -0.625 C 2.628906 -0.707031 2.640625 -0.785156 2.640625 -0.859375 L 2.640625 -8.265625 L 1.09375 -8.265625 C 0.957031 -8.265625 0.835938 -8.234375 0.734375 -8.171875 C 0.628906 -8.109375 0.539062 -8.03125 0.46875 -7.9375 C 0.394531 -7.84375 0.335938 -7.738281 0.296875 -7.625 C 0.265625 -7.519531 0.25 -7.414062 0.25 -7.3125 L 0.125 -7.3125 L 0.125 -8.75 L 6.078125 -8.75 L 6.078125 -7.3125 L 5.9375 -7.3125 C 5.9375 -7.414062 5.921875 -7.519531 5.890625 -7.625 C 5.859375 -7.738281 5.804688 -7.84375 5.734375 -7.9375 C 5.660156 -8.03125 5.570312 -8.109375 5.46875 -8.171875 C 5.363281 -8.234375 5.238281 -8.265625 5.09375 -8.265625 L 3.53125 -8.265625 L 3.53125 -0.859375 C 3.53125 -0.785156 3.535156 -0.707031 3.546875 -0.625 C 3.566406 -0.539062 3.597656 -0.460938 3.640625 -0.390625 C 3.679688 -0.328125 3.722656 -0.265625 3.765625 -0.203125 C 3.816406 -0.148438 3.878906 -0.125 3.953125 -0.125 Z M 3.953125 -0.125 "/></g></g></g><g fill="#ffffff" fill-opacity="1"><g transform="translate(240.614578, 171.571629)"><g><path d="M 3.953125 -0.125 L 4.015625 -0.125 L 4.015625 0 L 2.140625 0 L 2.140625 -0.125 L 2.203125 -0.125 C 2.273438 -0.125 2.335938 -0.148438 2.390625 -0.203125 C 2.441406 -0.265625 2.488281 -0.328125 2.53125 -0.390625 C 2.570312 -0.460938 2.597656 -0.539062 2.609375 -0.625 C 2.628906 -0.707031 2.640625 -0.785156 2.640625 -0.859375 L 2.640625 -8.265625 L 1.09375 -8.265625 C 0.957031 -8.265625 0.835938 -8.234375 0.734375 -8.171875 C 0.628906 -8.109375 0.539062 -8.03125 0.46875 -7.9375 C 0.394531 -7.84375 0.335938 -7.738281 0.296875 -7.625 C 0.265625 -7.519531 0.25 -7.414062 0.25 -7.3125 L 0.125 -7.3125 L 0.125 -8.75 L 6.078125 -8.75 L 6.078125 -7.3125 L 5.9375 -7.3125 C 5.9375 -7.414062 5.921875 -7.519531 5.890625 -7.625 C 5.859375 -7.738281 5.804688 -7.84375 5.734375 -7.9375 C 5.660156 -8.03125 5.570312 -8.109375 5.46875 -8.171875 C 5.363281 -8.234375 5.238281 -8.265625 5.09375 -8.265625 L 3.53125 -8.265625 L 3.53125 -0.859375 C 3.53125 -0.785156 3.535156 -0.707031 3.546875 -0.625 C 3.566406 -0.539062 3.597656 -0.460938 3.640625 -0.390625 C 3.679688 -0.328125 3.722656 -0.265625 3.765625 -0.203125 C 3.816406 -0.148438 3.878906 -0.125 3.953125 -0.125 Z M 3.953125 -0.125 "/></g></g></g><g fill="#ffffff" fill-opacity="1"><g transform="translate(248.902459, 171.571629)"><g><path d="M 0.59375 -0.125 L 0.65625 -0.125 C 0.726562 -0.125 0.789062 -0.148438 0.84375 -0.203125 C 0.894531 -0.253906 0.941406 -0.3125 0.984375 -0.375 C 1.023438 -0.445312 1.054688 -0.523438 1.078125 -0.609375 C 1.097656 -0.691406 1.109375 -0.765625 1.109375 -0.828125 L 1.109375 -7.9375 C 1.109375 -8 1.097656 -8.066406 1.078125 -8.140625 C 1.054688 -8.222656 1.023438 -8.300781 0.984375 -8.375 C 0.941406 -8.445312 0.894531 -8.503906 0.84375 -8.546875 C 0.789062 -8.597656 0.726562 -8.625 0.65625 -8.625 L 0.59375 -8.625 L 0.59375 -8.75 L 5.703125 -8.75 L 5.703125 -7.515625 L 5.578125 -7.515625 C 5.554688 -7.722656 5.472656 -7.90625 5.328125 -8.0625 C 5.191406 -8.21875 4.972656 -8.296875 4.671875 -8.296875 L 2 -8.296875 L 2 -4.9375 L 4.203125 -4.9375 C 4.410156 -4.9375 4.582031 -5 4.71875 -5.125 C 4.851562 -5.25 4.921875 -5.394531 4.921875 -5.5625 L 5.046875 -5.5625 L 5.046875 -3.90625 L 4.921875 -3.90625 C 4.921875 -4.0625 4.851562 -4.195312 4.71875 -4.3125 C 4.59375 -4.425781 4.421875 -4.484375 4.203125 -4.484375 L 2 -4.484375 L 2 -0.46875 L 4.90625 -0.46875 C 5.070312 -0.46875 5.21875 -0.503906 5.34375 -0.578125 C 5.46875 -0.660156 5.570312 -0.753906 5.65625 -0.859375 C 5.738281 -0.972656 5.800781 -1.09375 5.84375 -1.21875 C 5.882812 -1.351562 5.90625 -1.460938 5.90625 -1.546875 L 6.03125 -1.546875 L 6.03125 0 L 0.59375 0 Z M 0.59375 -0.125 "/></g></g></g><g fill="#ffffff" fill-opacity="1"><g transform="translate(257.415717, 171.571629)"><g><path d="M 2.40625 -0.125 L 2.46875 -0.125 L 2.46875 0 L 0.59375 0 L 0.59375 -0.125 L 0.65625 -0.125 C 0.71875 -0.125 0.773438 -0.148438 0.828125 -0.203125 C 0.890625 -0.265625 0.9375 -0.328125 0.96875 -0.390625 C 1.007812 -0.460938 1.039062 -0.539062 1.0625 -0.625 C 1.082031 -0.707031 1.09375 -0.785156 1.09375 -0.859375 L 1.09375 -7.9375 C 1.09375 -8 1.082031 -8.066406 1.0625 -8.140625 C 1.039062 -8.222656 1.007812 -8.300781 0.96875 -8.375 C 0.9375 -8.445312 0.890625 -8.503906 0.828125 -8.546875 C 0.773438 -8.597656 0.71875 -8.625 0.65625 -8.625 L 0.59375 -8.625 L 0.59375 -8.75 L 2.90625 -8.75 C 3.789062 -8.75 4.472656 -8.578125 4.953125 -8.234375 C 5.429688 -7.890625 5.671875 -7.382812 5.671875 -6.71875 C 5.671875 -6.375 5.613281 -6.078125 5.5 -5.828125 C 5.394531 -5.578125 5.25 -5.359375 5.0625 -5.171875 C 4.875 -4.992188 4.65625 -4.847656 4.40625 -4.734375 C 4.15625 -4.628906 3.890625 -4.550781 3.609375 -4.5 L 4.5625 -3.03125 C 4.789062 -2.675781 5.023438 -2.328125 5.265625 -1.984375 C 5.503906 -1.648438 5.738281 -1.300781 5.96875 -0.9375 C 6.03125 -0.851562 6.097656 -0.757812 6.171875 -0.65625 C 6.242188 -0.5625 6.320312 -0.472656 6.40625 -0.390625 C 6.5 -0.316406 6.585938 -0.253906 6.671875 -0.203125 C 6.765625 -0.148438 6.863281 -0.125 6.96875 -0.125 L 6.96875 0 L 6.390625 0 C 6.035156 0 5.742188 -0.0820312 5.515625 -0.25 C 5.296875 -0.425781 5.113281 -0.628906 4.96875 -0.859375 C 4.5625 -1.441406 4.160156 -2.035156 3.765625 -2.640625 C 3.378906 -3.242188 2.988281 -3.835938 2.59375 -4.421875 C 2.5 -4.429688 2.394531 -4.441406 2.28125 -4.453125 C 2.175781 -4.460938 2.078125 -4.476562 1.984375 -4.5 L 1.984375 -0.859375 C 1.984375 -0.785156 1.988281 -0.707031 2 -0.625 C 2.019531 -0.539062 2.050781 -0.460938 2.09375 -0.390625 C 2.132812 -0.328125 2.175781 -0.265625 2.21875 -0.203125 C 2.269531 -0.148438 2.332031 -0.125 2.40625 -0.125 Z M 1.984375 -8.296875 L 1.984375 -4.9375 L 2.046875 -4.9375 C 2.117188 -4.925781 2.226562 -4.914062 2.375 -4.90625 C 2.53125 -4.90625 2.722656 -4.90625 2.953125 -4.90625 C 3.140625 -4.90625 3.335938 -4.929688 3.546875 -4.984375 C 3.753906 -5.046875 3.945312 -5.144531 4.125 -5.28125 C 4.3125 -5.414062 4.460938 -5.59375 4.578125 -5.8125 C 4.703125 -6.039062 4.765625 -6.320312 4.765625 -6.65625 C 4.765625 -6.988281 4.695312 -7.257812 4.5625 -7.46875 C 4.4375 -7.6875 4.257812 -7.859375 4.03125 -7.984375 C 3.8125 -8.109375 3.539062 -8.191406 3.21875 -8.234375 C 2.90625 -8.273438 2.554688 -8.296875 2.171875 -8.296875 Z M 1.984375 -8.296875 "/></g></g></g><g fill="#ffffff" fill-opacity="1"><g transform="translate(266.658143, 171.571629)"><g><path d="M 0.6875 -0.578125 C 0.6875 -0.742188 0.742188 -0.890625 0.859375 -1.015625 C 0.984375 -1.140625 1.132812 -1.203125 1.3125 -1.203125 C 1.488281 -1.203125 1.640625 -1.140625 1.765625 -1.015625 C 1.890625 -0.890625 1.953125 -0.742188 1.953125 -0.578125 C 1.953125 -0.398438 1.890625 -0.25 1.765625 -0.125 C 1.640625 -0.0078125 1.488281 0.046875 1.3125 0.046875 C 1.132812 0.046875 0.984375 -0.0078125 0.859375 -0.125 C 0.742188 -0.25 0.6875 -0.398438 0.6875 -0.578125 Z M 0.6875 -0.578125 "/></g></g></g><g fill="#ffffff" fill-opacity="1"><g transform="translate(149.222831, 189.545001)"><g><path d="M 7.734375 -0.125 L 7.796875 -0.125 C 7.859375 -0.125 7.914062 -0.148438 7.96875 -0.203125 C 8.019531 -0.265625 8.066406 -0.328125 8.109375 -0.390625 C 8.148438 -0.460938 8.175781 -0.539062 8.1875 -0.625 C 8.207031 -0.707031 8.21875 -0.785156 8.21875 -0.859375 L 8.21875 -7.84375 L 4.796875 0.140625 L 1.546875 -7.421875 L 1.546875 -0.859375 C 1.546875 -0.785156 1.554688 -0.707031 1.578125 -0.625 C 1.597656 -0.539062 1.625 -0.460938 1.65625 -0.390625 C 1.695312 -0.328125 1.742188 -0.265625 1.796875 -0.203125 C 1.859375 -0.148438 1.921875 -0.125 1.984375 -0.125 L 2.0625 -0.125 L 2.0625 0 L 0.609375 0 L 0.609375 -0.125 L 0.671875 -0.125 C 0.734375 -0.125 0.789062 -0.148438 0.84375 -0.203125 C 0.894531 -0.265625 0.9375 -0.328125 0.96875 -0.390625 C 1.007812 -0.460938 1.039062 -0.539062 1.0625 -0.625 C 1.082031 -0.707031 1.09375 -0.785156 1.09375 -0.859375 L 1.09375 -7.9375 C 1.09375 -8 1.082031 -8.066406 1.0625 -8.140625 C 1.039062 -8.222656 1.007812 -8.300781 0.96875 -8.375 C 0.9375 -8.445312 0.894531 -8.503906 0.84375 -8.546875 C 0.789062 -8.597656 0.734375 -8.625 0.671875 -8.625 L 0.609375 -8.625 L 0.609375 -8.75 L 1.96875 -8.75 L 5.046875 -1.5 L 8.125 -8.75 L 9.625 -8.75 L 9.625 -8.625 L 9.546875 -8.625 C 9.472656 -8.625 9.410156 -8.597656 9.359375 -8.546875 C 9.304688 -8.503906 9.257812 -8.445312 9.21875 -8.375 C 9.1875 -8.300781 9.160156 -8.222656 9.140625 -8.140625 C 9.117188 -8.066406 9.109375 -8 9.109375 -7.9375 L 9.109375 -0.859375 C 9.109375 -0.785156 9.117188 -0.707031 9.140625 -0.625 C 9.160156 -0.539062 9.1875 -0.460938 9.21875 -0.390625 C 9.257812 -0.328125 9.304688 -0.265625 9.359375 -0.203125 C 9.410156 -0.148438 9.472656 -0.125 9.546875 -0.125 L 9.625 -0.125 L 9.625 0 L 7.734375 0 Z M 7.734375 -0.125 "/></g></g></g><g fill="#ffffff" fill-opacity="1"><g transform="translate(161.607331, 189.545001)"><g><path d="M 5.671875 -0.125 L 5.734375 -0.125 C 5.941406 -0.125 6.046875 -0.222656 6.046875 -0.421875 C 6.046875 -0.492188 6.035156 -0.570312 6.015625 -0.65625 L 4.8125 -3.875 L 2.5 -3.875 L 1.34375 -0.703125 C 1.3125 -0.628906 1.296875 -0.5625 1.296875 -0.5 C 1.296875 -0.382812 1.328125 -0.289062 1.390625 -0.21875 C 1.453125 -0.15625 1.519531 -0.125 1.59375 -0.125 L 1.65625 -0.125 L 1.65625 0 L 0.1875 0 L 0.1875 -0.125 L 0.25 -0.125 C 0.363281 -0.125 0.472656 -0.191406 0.578125 -0.328125 C 0.691406 -0.472656 0.785156 -0.640625 0.859375 -0.828125 L 3.90625 -8.921875 L 6.875 -0.90625 C 6.9375 -0.726562 7.019531 -0.550781 7.125 -0.375 C 7.238281 -0.207031 7.382812 -0.125 7.5625 -0.125 L 7.625 -0.125 L 7.625 0 L 5.671875 0 Z M 2.625 -4.328125 L 4.671875 -4.328125 L 3.640625 -7.09375 Z M 2.625 -4.328125 "/></g></g></g><g fill="#ffffff" fill-opacity="1"><g transform="translate(171.512651, 189.545001)"><g><path d="M 0.578125 -0.125 L 0.65625 -0.125 C 0.71875 -0.125 0.773438 -0.148438 0.828125 -0.203125 C 0.878906 -0.265625 0.921875 -0.328125 0.953125 -0.390625 C 0.992188 -0.460938 1.023438 -0.539062 1.046875 -0.625 C 1.066406 -0.707031 1.078125 -0.785156 1.078125 -0.859375 L 1.078125 -7.9375 C 1.078125 -8 1.066406 -8.066406 1.046875 -8.140625 C 1.023438 -8.222656 1 -8.300781 0.96875 -8.375 C 0.9375 -8.445312 0.890625 -8.503906 0.828125 -8.546875 C 0.773438 -8.597656 0.71875 -8.625 0.65625 -8.625 L 0.578125 -8.625 L 0.578125 -8.75 L 3.140625 -8.75 C 3.835938 -8.75 4.460938 -8.628906 5.015625 -8.390625 C 5.578125 -8.148438 6.050781 -7.820312 6.4375 -7.40625 C 6.820312 -7 7.113281 -6.53125 7.3125 -6 C 7.519531 -5.46875 7.625 -4.914062 7.625 -4.34375 C 7.625 -3.800781 7.523438 -3.269531 7.328125 -2.75 C 7.140625 -2.238281 6.847656 -1.773438 6.453125 -1.359375 C 6.066406 -0.953125 5.582031 -0.625 5 -0.375 C 4.414062 -0.125 3.738281 0 2.96875 0 L 0.578125 0 Z M 6.71875 -4.140625 C 6.71875 -4.703125 6.613281 -5.234375 6.40625 -5.734375 C 6.207031 -6.242188 5.925781 -6.6875 5.5625 -7.0625 C 5.195312 -7.4375 4.765625 -7.734375 4.265625 -7.953125 C 3.765625 -8.179688 3.222656 -8.296875 2.640625 -8.296875 L 1.96875 -8.296875 L 1.96875 -0.46875 L 2.671875 -0.46875 C 3.140625 -0.46875 3.613281 -0.539062 4.09375 -0.6875 C 4.582031 -0.832031 5.019531 -1.054688 5.40625 -1.359375 C 5.800781 -1.660156 6.117188 -2.039062 6.359375 -2.5 C 6.597656 -2.96875 6.71875 -3.515625 6.71875 -4.140625 Z M 6.71875 -4.140625 "/></g></g></g><g fill="#ffffff" fill-opacity="1"><g transform="translate(181.762673, 189.545001)"><g><path d="M 0.59375 -0.125 L 0.65625 -0.125 C 0.726562 -0.125 0.789062 -0.148438 0.84375 -0.203125 C 0.894531 -0.253906 0.941406 -0.3125 0.984375 -0.375 C 1.023438 -0.445312 1.054688 -0.523438 1.078125 -0.609375 C 1.097656 -0.691406 1.109375 -0.765625 1.109375 -0.828125 L 1.109375 -7.9375 C 1.109375 -8 1.097656 -8.066406 1.078125 -8.140625 C 1.054688 -8.222656 1.023438 -8.300781 0.984375 -8.375 C 0.941406 -8.445312 0.894531 -8.503906 0.84375 -8.546875 C 0.789062 -8.597656 0.726562 -8.625 0.65625 -8.625 L 0.59375 -8.625 L 0.59375 -8.75 L 5.703125 -8.75 L 5.703125 -7.515625 L 5.578125 -7.515625 C 5.554688 -7.722656 5.472656 -7.90625 5.328125 -8.0625 C 5.191406 -8.21875 4.972656 -8.296875 4.671875 -8.296875 L 2 -8.296875 L 2 -4.9375 L 4.203125 -4.9375 C 4.410156 -4.9375 4.582031 -5 4.71875 -5.125 C 4.851562 -5.25 4.921875 -5.394531 4.921875 -5.5625 L 5.046875 -5.5625 L 5.046875 -3.90625 L 4.921875 -3.90625 C 4.921875 -4.0625 4.851562 -4.195312 4.71875 -4.3125 C 4.59375 -4.425781 4.421875 -4.484375 4.203125 -4.484375 L 2 -4.484375 L 2 -0.46875 L 4.90625 -0.46875 C 5.070312 -0.46875 5.21875 -0.503906 5.34375 -0.578125 C 5.46875 -0.660156 5.570312 -0.753906 5.65625 -0.859375 C 5.738281 -0.972656 5.800781 -1.09375 5.84375 -1.21875 C 5.882812 -1.351562 5.90625 -1.460938 5.90625 -1.546875 L 6.03125 -1.546875 L 6.03125 0 L 0.59375 0 Z M 0.59375 -0.125 "/></g></g></g><g fill="#ffffff" fill-opacity="1"><g transform="translate(190.275937, 189.545001)"><g/></g></g><g fill="#ffffff" fill-opacity="1"><g transform="translate(195.806232, 189.545001)"><g><path d="M 0.59375 -0.125 L 0.65625 -0.125 C 0.71875 -0.125 0.773438 -0.148438 0.828125 -0.203125 C 0.890625 -0.265625 0.9375 -0.328125 0.96875 -0.390625 C 1.007812 -0.460938 1.039062 -0.539062 1.0625 -0.625 C 1.082031 -0.707031 1.09375 -0.785156 1.09375 -0.859375 L 1.09375 -7.921875 C 1.09375 -7.984375 1.082031 -8.050781 1.0625 -8.125 C 1.039062 -8.207031 1.007812 -8.285156 0.96875 -8.359375 C 0.9375 -8.441406 0.890625 -8.503906 0.828125 -8.546875 C 0.773438 -8.597656 0.710938 -8.625 0.640625 -8.625 L 0.578125 -8.625 L 0.578125 -8.75 L 2.75 -8.75 C 3.570312 -8.75 4.210938 -8.566406 4.671875 -8.203125 C 5.140625 -7.847656 5.375 -7.367188 5.375 -6.765625 C 5.375 -6.503906 5.328125 -6.269531 5.234375 -6.0625 C 5.148438 -5.863281 5.039062 -5.6875 4.90625 -5.53125 C 4.769531 -5.375 4.617188 -5.238281 4.453125 -5.125 C 4.296875 -5.019531 4.144531 -4.929688 4 -4.859375 C 4.375 -4.785156 4.6875 -4.664062 4.9375 -4.5 C 5.1875 -4.332031 5.382812 -4.140625 5.53125 -3.921875 C 5.6875 -3.703125 5.796875 -3.46875 5.859375 -3.21875 C 5.921875 -2.976562 5.953125 -2.738281 5.953125 -2.5 C 5.953125 -2.03125 5.867188 -1.640625 5.703125 -1.328125 C 5.535156 -1.015625 5.3125 -0.757812 5.03125 -0.5625 C 4.75 -0.363281 4.429688 -0.21875 4.078125 -0.125 C 3.722656 -0.0390625 3.351562 0 2.96875 0 L 0.59375 0 Z M 5.046875 -2.421875 C 4.984375 -3.097656 4.753906 -3.617188 4.359375 -3.984375 C 3.972656 -4.359375 3.425781 -4.546875 2.71875 -4.546875 L 1.984375 -4.546875 L 1.984375 -0.4375 L 2.75 -0.4375 C 3.46875 -0.4375 4.03125 -0.597656 4.4375 -0.921875 C 4.84375 -1.242188 5.046875 -1.691406 5.046875 -2.265625 Z M 4.515625 -6.640625 C 4.484375 -7.160156 4.300781 -7.566406 3.96875 -7.859375 C 3.632812 -8.160156 3.191406 -8.3125 2.640625 -8.3125 L 1.984375 -8.3125 L 1.984375 -4.96875 L 2.671875 -4.96875 C 3.035156 -4.96875 3.332031 -5.015625 3.5625 -5.109375 C 3.800781 -5.210938 3.988281 -5.34375 4.125 -5.5 C 4.269531 -5.65625 4.367188 -5.820312 4.421875 -6 C 4.484375 -6.1875 4.515625 -6.367188 4.515625 -6.546875 Z M 4.515625 -6.640625 "/></g></g></g><g fill="#ffffff" fill-opacity="1"><g transform="translate(204.372527, 189.545001)"><g><path d="M 0.046875 -8.75 L 1.875 -8.75 L 1.875 -8.625 C 1.8125 -8.613281 1.753906 -8.585938 1.703125 -8.546875 C 1.648438 -8.503906 1.625 -8.4375 1.625 -8.34375 C 1.625 -8.300781 1.632812 -8.253906 1.65625 -8.203125 L 3.640625 -4.703125 L 5.5625 -8.015625 C 5.59375 -8.085938 5.613281 -8.140625 5.625 -8.171875 C 5.644531 -8.203125 5.65625 -8.242188 5.65625 -8.296875 C 5.632812 -8.441406 5.582031 -8.53125 5.5 -8.5625 C 5.414062 -8.601562 5.363281 -8.625 5.34375 -8.625 L 5.34375 -8.75 L 6.765625 -8.75 L 6.765625 -8.625 C 6.628906 -8.625 6.492188 -8.539062 6.359375 -8.375 C 6.222656 -8.207031 6.109375 -8.039062 6.015625 -7.875 L 3.9375 -4.296875 L 3.9375 -0.859375 C 3.9375 -0.785156 3.945312 -0.707031 3.96875 -0.625 C 3.988281 -0.550781 4.015625 -0.476562 4.046875 -0.40625 C 4.085938 -0.332031 4.132812 -0.265625 4.1875 -0.203125 C 4.238281 -0.148438 4.300781 -0.125 4.375 -0.125 L 4.4375 -0.125 L 4.4375 0 L 2.546875 0 L 2.546875 -0.125 L 2.609375 -0.125 C 2.679688 -0.125 2.742188 -0.148438 2.796875 -0.203125 C 2.847656 -0.253906 2.894531 -0.316406 2.9375 -0.390625 C 2.976562 -0.460938 3.003906 -0.539062 3.015625 -0.625 C 3.035156 -0.707031 3.046875 -0.785156 3.046875 -0.859375 L 3.046875 -4.171875 L 0.921875 -7.84375 C 0.867188 -7.914062 0.8125 -7.992188 0.75 -8.078125 C 0.6875 -8.171875 0.617188 -8.253906 0.546875 -8.328125 C 0.484375 -8.410156 0.410156 -8.476562 0.328125 -8.53125 C 0.253906 -8.59375 0.179688 -8.625 0.109375 -8.625 L 0.046875 -8.625 Z M 0.046875 -8.75 "/></g></g></g><g fill="#ffffff" fill-opacity="1"><g transform="translate(213.469126, 189.545001)"><g/></g></g><g fill="#ffffff" fill-opacity="1"><g transform="translate(218.999421, 189.545001)"><g><path d="M 1.984375 -0.125 L 2.0625 -0.125 L 2.0625 0 L 0.578125 0 L 0.578125 -0.125 L 0.65625 -0.125 C 0.71875 -0.125 0.773438 -0.148438 0.828125 -0.203125 C 0.890625 -0.265625 0.9375 -0.328125 0.96875 -0.390625 C 1 -0.460938 1.023438 -0.539062 1.046875 -0.625 C 1.078125 -0.707031 1.09375 -0.785156 1.09375 -0.859375 L 1.09375 -7.9375 C 1.09375 -8 1.082031 -8.066406 1.0625 -8.140625 C 1.050781 -8.222656 1.023438 -8.300781 0.984375 -8.375 C 0.953125 -8.445312 0.90625 -8.503906 0.84375 -8.546875 C 0.78125 -8.597656 0.707031 -8.625 0.625 -8.625 L 0.5625 -8.625 L 0.5625 -8.75 L 1.890625 -8.75 L 6.71875 -1.171875 L 6.71875 -7.9375 C 6.71875 -8 6.703125 -8.066406 6.671875 -8.140625 C 6.648438 -8.222656 6.617188 -8.300781 6.578125 -8.375 C 6.546875 -8.445312 6.503906 -8.503906 6.453125 -8.546875 C 6.398438 -8.597656 6.335938 -8.625 6.265625 -8.625 L 6.1875 -8.625 L 6.1875 -8.75 L 7.6875 -8.75 L 7.6875 -8.625 L 7.609375 -8.625 C 7.546875 -8.625 7.484375 -8.597656 7.421875 -8.546875 C 7.367188 -8.503906 7.320312 -8.445312 7.28125 -8.375 C 7.25 -8.300781 7.222656 -8.222656 7.203125 -8.140625 C 7.179688 -8.066406 7.171875 -8 7.171875 -7.9375 L 7.171875 0 L 6.359375 0 L 1.546875 -7.609375 L 1.546875 -0.859375 C 1.546875 -0.785156 1.554688 -0.707031 1.578125 -0.625 C 1.597656 -0.539062 1.625 -0.460938 1.65625 -0.390625 C 1.695312 -0.328125 1.742188 -0.265625 1.796875 -0.203125 C 1.859375 -0.148438 1.921875 -0.125 1.984375 -0.125 Z M 1.984375 -0.125 "/></g></g></g><g fill="#ffffff" fill-opacity="1"><g transform="translate(229.408531, 189.545001)"><g><path d="M 5.671875 -0.125 L 5.734375 -0.125 C 5.941406 -0.125 6.046875 -0.222656 6.046875 -0.421875 C 6.046875 -0.492188 6.035156 -0.570312 6.015625 -0.65625 L 4.8125 -3.875 L 2.5 -3.875 L 1.34375 -0.703125 C 1.3125 -0.628906 1.296875 -0.5625 1.296875 -0.5 C 1.296875 -0.382812 1.328125 -0.289062 1.390625 -0.21875 C 1.453125 -0.15625 1.519531 -0.125 1.59375 -0.125 L 1.65625 -0.125 L 1.65625 0 L 0.1875 0 L 0.1875 -0.125 L 0.25 -0.125 C 0.363281 -0.125 0.472656 -0.191406 0.578125 -0.328125 C 0.691406 -0.472656 0.785156 -0.640625 0.859375 -0.828125 L 3.90625 -8.921875 L 6.875 -0.90625 C 6.9375 -0.726562 7.019531 -0.550781 7.125 -0.375 C 7.238281 -0.207031 7.382812 -0.125 7.5625 -0.125 L 7.625 -0.125 L 7.625 0 L 5.671875 0 Z M 2.625 -4.328125 L 4.671875 -4.328125 L 3.640625 -7.09375 Z M 2.625 -4.328125 "/></g></g></g><g fill="#ffffff" fill-opacity="1"><g transform="translate(239.313853, 189.545001)"><g><path d="M 1.984375 -0.125 L 2.0625 -0.125 L 2.0625 0 L 0.578125 0 L 0.578125 -0.125 L 0.65625 -0.125 C 0.71875 -0.125 0.773438 -0.148438 0.828125 -0.203125 C 0.890625 -0.265625 0.9375 -0.328125 0.96875 -0.390625 C 1 -0.460938 1.023438 -0.539062 1.046875 -0.625 C 1.078125 -0.707031 1.09375 -0.785156 1.09375 -0.859375 L 1.09375 -7.9375 C 1.09375 -8 1.082031 -8.066406 1.0625 -8.140625 C 1.050781 -8.222656 1.023438 -8.300781 0.984375 -8.375 C 0.953125 -8.445312 0.90625 -8.503906 0.84375 -8.546875 C 0.78125 -8.597656 0.707031 -8.625 0.625 -8.625 L 0.5625 -8.625 L 0.5625 -8.75 L 1.890625 -8.75 L 6.71875 -1.171875 L 6.71875 -7.9375 C 6.71875 -8 6.703125 -8.066406 6.671875 -8.140625 C 6.648438 -8.222656 6.617188 -8.300781 6.578125 -8.375 C 6.546875 -8.445312 6.503906 -8.503906 6.453125 -8.546875 C 6.398438 -8.597656 6.335938 -8.625 6.265625 -8.625 L 6.1875 -8.625 L 6.1875 -8.75 L 7.6875 -8.75 L 7.6875 -8.625 L 7.609375 -8.625 C 7.546875 -8.625 7.484375 -8.597656 7.421875 -8.546875 C 7.367188 -8.503906 7.320312 -8.445312 7.28125 -8.375 C 7.25 -8.300781 7.222656 -8.222656 7.203125 -8.140625 C 7.179688 -8.066406 7.171875 -8 7.171875 -7.9375 L 7.171875 0 L 6.359375 0 L 1.546875 -7.609375 L 1.546875 -0.859375 C 1.546875 -0.785156 1.554688 -0.707031 1.578125 -0.625 C 1.597656 -0.539062 1.625 -0.460938 1.65625 -0.390625 C 1.695312 -0.328125 1.742188 -0.265625 1.796875 -0.203125 C 1.859375 -0.148438 1.921875 -0.125 1.984375 -0.125 Z M 1.984375 -0.125 "/></g></g></g><g fill="#ffffff" fill-opacity="1"><g transform="translate(249.722963, 189.545001)"><g><path d="M 5.671875 -0.125 L 5.734375 -0.125 C 5.941406 -0.125 6.046875 -0.222656 6.046875 -0.421875 C 6.046875 -0.492188 6.035156 -0.570312 6.015625 -0.65625 L 4.8125 -3.875 L 2.5 -3.875 L 1.34375 -0.703125 C 1.3125 -0.628906 1.296875 -0.5625 1.296875 -0.5 C 1.296875 -0.382812 1.328125 -0.289062 1.390625 -0.21875 C 1.453125 -0.15625 1.519531 -0.125 1.59375 -0.125 L 1.65625 -0.125 L 1.65625 0 L 0.1875 0 L 0.1875 -0.125 L 0.25 -0.125 C 0.363281 -0.125 0.472656 -0.191406 0.578125 -0.328125 C 0.691406 -0.472656 0.785156 -0.640625 0.859375 -0.828125 L 3.90625 -8.921875 L 6.875 -0.90625 C 6.9375 -0.726562 7.019531 -0.550781 7.125 -0.375 C 7.238281 -0.207031 7.382812 -0.125 7.5625 -0.125 L 7.625 -0.125 L 7.625 0 L 5.671875 0 Z M 2.625 -4.328125 L 4.671875 -4.328125 L 3.640625 -7.09375 Z M 2.625 -4.328125 "/></g></g></g></svg>