<svg xmlns="http://www.w3.org/2000/svg" xmlns:xlink="http://www.w3.org/1999/xlink" width="400" zoomAndPan="magnify" viewBox="0 0 300 149.999998" height="200" preserveAspectRatio="xMidYMid meet" version="1.0"><defs><g/><clipPath id="4471d854ac"><path d="M 183.132812 60 L 296.410156 60 L 296.410156 84.390625 L 183.132812 84.390625 Z M 183.132812 60 " clip-rule="nonzero"/></clipPath><clipPath id="6820363696"><path d="M 17 96.15625 L 296 96.15625 L 296 118.832031 L 17 118.832031 Z M 17 96.15625 " clip-rule="nonzero"/></clipPath><clipPath id="dda15ffbeb"><path d="M 220.183594 103.859375 L 225.519531 103.859375 L 225.519531 109 L 220.183594 109 Z M 220.183594 103.859375 " clip-rule="nonzero"/></clipPath></defs><g clip-path="url(#4471d854ac)"><path fill="#ffffff" d="M 185.820312 71.074219 L 185.847656 71.105469 C 185.824219 71.078125 186.222656 71.523438 186.421875 71.707031 C 187.242188 72.410156 188.136719 72.992188 189.113281 73.453125 C 192.660156 75.25 196.753906 75.9375 200.695312 76.039062 C 207.257812 76.207031 213.65625 74.546875 220.027344 73.222656 C 226.695312 71.828125 233.492188 70.242188 240.328125 70.183594 C 242.445312 70.15625 244.554688 70.285156 246.652344 70.574219 C 247.855469 65.851562 251.867188 62.734375 256.589844 61.441406 C 262.878906 59.71875 269.953125 60.003906 276.332031 61.027344 C 283.285156 62.144531 290.101562 64.527344 296.105469 68.234375 C 296.226562 68.300781 296.25 68.394531 296.179688 68.511719 C 296.113281 68.628906 296.019531 68.65625 295.902344 68.585938 C 285.441406 62.976562 273.542969 60.195312 261.675781 61.601562 C 256.34375 62.234375 250.273438 64.15625 248.402344 69.785156 C 248.289062 70.125 248.195312 70.472656 248.121094 70.824219 C 251.527344 71.464844 254.828125 72.675781 257.34375 74.796875 C 259.148438 76.320312 260.261719 78.566406 259.714844 80.945312 C 259.167969 83.320312 257.019531 84.636719 254.648438 84.234375 C 249.363281 83.34375 245.839844 77.371094 246.355469 72.3125 C 246.351562 72.296875 246.351562 72.28125 246.355469 72.265625 C 241.433594 71.519531 236.359375 71.972656 231.480469 72.796875 C 225.003906 73.890625 218.617188 75.40625 212.183594 76.699219 C 207.160156 77.710938 202.03125 78.253906 196.925781 77.613281 C 193.445312 77.179688 189.929688 76.261719 186.921875 74.429688 C 186 73.863281 183.304688 72.238281 183.890625 70.757812 C 184.316406 69.679688 186.011719 70.058594 185.820312 71.074219 Z M 249.175781 77.921875 C 250.417969 80.066406 252.960938 82.597656 255.636719 82.5 C 258.746094 82.386719 258.496094 78.4375 256.945312 76.722656 C 255.121094 74.695312 252.183594 73.664062 249.609375 72.957031 C 249.035156 72.796875 248.457031 72.664062 247.871094 72.546875 C 247.78125 74.464844 248.214844 76.257812 249.175781 77.921875 Z M 185.746094 70.992188 C 185.734375 70.964844 185.726562 70.964844 185.746094 70.992188 Z M 185.746094 70.992188 " fill-opacity="1" fill-rule="nonzero"/></g><g fill="#ffffff" fill-opacity="1"><g transform="translate(8.847415, 82.600157)"><g><path d="M 17.5625 -11.0625 C 17.675781 -10.78125 17.679688 -10.488281 17.578125 -10.1875 C 17.484375 -9.894531 17.300781 -9.671875 17.03125 -9.515625 C 16.90625 -9.472656 16.753906 -9.441406 16.578125 -9.421875 C 16.398438 -9.410156 15.976562 -9.40625 15.3125 -9.40625 C 14.644531 -9.40625 13.503906 -9.40625 11.890625 -9.40625 C 10.984375 -9.40625 9.96875 -9.40625 8.84375 -9.40625 C 7.71875 -9.40625 6.71875 -9.40625 5.84375 -9.40625 C 4.976562 -9.40625 4.429688 -9.382812 4.203125 -9.34375 C 4.160156 -9.34375 4.117188 -9.34375 4.078125 -9.34375 C 3.410156 -9.34375 3.035156 -9.675781 2.953125 -10.34375 C 2.910156 -10.65625 2.988281 -10.941406 3.1875 -11.203125 C 3.382812 -11.460938 3.644531 -11.609375 3.96875 -11.640625 C 4.320312 -11.679688 5.207031 -11.703125 6.625 -11.703125 C 8.039062 -11.703125 9.8125 -11.679688 11.9375 -11.640625 C 12.882812 -11.640625 13.8125 -11.640625 14.71875 -11.640625 C 15.625 -11.640625 16.175781 -11.640625 16.375 -11.640625 C 16.925781 -11.765625 17.320312 -11.570312 17.5625 -11.0625 Z M 17.5625 -11.0625 "/></g></g></g><g fill="#ffffff" fill-opacity="1"><g transform="translate(29.481058, 82.600157)"><g><path d="M 24.953125 -13.25 C 25.222656 -13.082031 25.394531 -12.84375 25.46875 -12.53125 C 25.550781 -12.21875 25.5 -11.941406 25.3125 -11.703125 C 23.65625 -8.984375 21.757812 -6.609375 19.625 -4.578125 C 17.5 -2.546875 15.320312 -0.800781 13.09375 0.65625 C 10.863281 2.113281 8.722656 3.320312 6.671875 4.28125 C 4.628906 5.25 2.835938 5.988281 1.296875 6.5 C 0.742188 6.695312 0.3125 6.539062 0 6.03125 C -0.632812 7.601562 -1.1875 9.160156 -1.65625 10.703125 C -1.8125 11.210938 -2.1875 11.46875 -2.78125 11.46875 C -2.820312 11.46875 -2.878906 11.46875 -2.953125 11.46875 C -3.585938 11.351562 -3.90625 10.976562 -3.90625 10.34375 C -3.90625 9.988281 -3.765625 9.117188 -3.484375 7.734375 C -3.210938 6.359375 -2.847656 4.597656 -2.390625 2.453125 C -1.941406 0.304688 -1.421875 -2.070312 -0.828125 -4.6875 C -0.234375 -7.3125 0.375 -10.023438 1 -12.828125 C 1.632812 -15.628906 2.253906 -18.378906 2.859375 -21.078125 C 3.472656 -23.773438 4.054688 -26.269531 4.609375 -28.5625 C 4.609375 -28.675781 4.628906 -28.789062 4.671875 -28.90625 C 5.335938 -31.75 5.890625 -34.035156 6.328125 -35.765625 C 7.234375 -39.390625 8.238281 -42.691406 9.34375 -45.671875 C 10.445312 -48.648438 11.539062 -51.046875 12.625 -52.859375 C 13.707031 -54.671875 14.660156 -55.65625 15.484375 -55.8125 C 16.160156 -55.925781 16.675781 -55.726562 17.03125 -55.21875 C 17.582031 -54.4375 17.53125 -52.800781 16.875 -50.3125 C 16.226562 -47.832031 15.046875 -44.6875 13.328125 -40.875 C 11.617188 -37.070312 9.460938 -32.804688 6.859375 -28.078125 C 6.222656 -25.441406 5.550781 -22.585938 4.84375 -19.515625 C 4.132812 -16.441406 3.4375 -13.347656 2.75 -10.234375 C 2.0625 -7.117188 1.421875 -4.21875 0.828125 -1.53125 C 1.929688 -3.820312 2.992188 -5.675781 4.015625 -7.09375 C 7.085938 -11.394531 9.535156 -13.269531 11.359375 -12.71875 C 11.710938 -12.59375 12.09375 -12.320312 12.5 -11.90625 C 12.914062 -11.5 13.144531 -10.722656 13.1875 -9.578125 C 13.226562 -8.390625 12.929688 -6.890625 12.296875 -5.078125 C 11.671875 -3.265625 10.707031 -1.472656 9.40625 0.296875 C 12.351562 -1.441406 15.03125 -3.429688 17.4375 -5.671875 C 19.84375 -7.921875 21.832031 -10.328125 23.40625 -12.890625 C 23.570312 -13.160156 23.800781 -13.328125 24.09375 -13.390625 C 24.382812 -13.453125 24.671875 -13.40625 24.953125 -13.25 Z M 15.078125 -52.5625 C 14.410156 -51.539062 13.515625 -49.773438 12.390625 -47.265625 C 11.265625 -44.765625 10.148438 -41.382812 9.046875 -37.125 C 11.015625 -41.113281 12.460938 -44.378906 13.390625 -46.921875 C 14.316406 -49.460938 14.878906 -51.34375 15.078125 -52.5625 Z M 0.65625 4.3125 C 2.664062 3.5625 4.378906 2.457031 5.796875 1 C 7.210938 -0.457031 8.320312 -1.992188 9.125 -3.609375 C 9.9375 -5.222656 10.460938 -6.640625 10.703125 -7.859375 C 10.898438 -8.734375 10.957031 -9.375 10.875 -9.78125 C 10.800781 -10.195312 10.742188 -10.445312 10.703125 -10.53125 C 10.617188 -10.53125 10.398438 -10.4375 10.046875 -10.25 C 9.691406 -10.070312 9.179688 -9.660156 8.515625 -9.015625 C 7.847656 -8.367188 6.976562 -7.296875 5.90625 -5.796875 C 5.082031 -4.609375 4.207031 -3.140625 3.28125 -1.390625 C 2.351562 0.359375 1.476562 2.257812 0.65625 4.3125 Z M 0.65625 4.3125 "/></g></g></g><g fill="#ffffff" fill-opacity="1"><g transform="translate(51.711006, 82.600157)"><g><path d="M 28.90625 -13 C 29.101562 -12.769531 29.160156 -12.492188 29.078125 -12.171875 C 29.003906 -11.859375 28.847656 -11.625 28.609375 -11.46875 C 25.734375 -9.570312 22.847656 -7.53125 19.953125 -5.34375 C 17.054688 -3.15625 14.226562 -0.6875 11.46875 2.0625 C 9.144531 15.976562 6.601562 27.273438 3.84375 35.953125 C 3.25 37.722656 2.609375 39.523438 1.921875 41.359375 C 1.234375 43.191406 0.488281 44.90625 -0.3125 46.5 C -1.125 48.09375 -1.984375 49.429688 -2.890625 50.515625 C -3.796875 51.597656 -4.722656 52.28125 -5.671875 52.5625 C -5.953125 52.644531 -6.25 52.6875 -6.5625 52.6875 C -7.46875 52.6875 -8.253906 52.289062 -8.921875 51.5 C -9.753906 50.4375 -10.296875 48.816406 -10.546875 46.640625 C -10.804688 44.472656 -10.757812 41.929688 -10.40625 39.015625 C -10.050781 36.097656 -9.367188 33.003906 -8.359375 29.734375 C -7.359375 26.460938 -6.007812 23.210938 -4.3125 19.984375 C -2.257812 16.078125 -0.0820312 12.566406 2.21875 9.453125 C 4.519531 6.347656 6.914062 3.515625 9.40625 0.953125 C 9.988281 -2.753906 10.578125 -6.640625 11.171875 -10.703125 C 10.660156 -9.910156 10.109375 -9.109375 9.515625 -8.296875 C 8.921875 -7.492188 8.332031 -6.738281 7.75 -6.03125 C 6.957031 -5.082031 6.222656 -4.46875 5.546875 -4.1875 C 4.878906 -3.914062 4.3125 -3.816406 3.84375 -3.890625 C 3.375 -3.972656 3.019531 -4.09375 2.78125 -4.25 C 1.914062 -4.769531 1.320312 -5.6875 1 -7 C 0.6875 -8.320312 0.644531 -9.890625 0.875 -11.703125 C 1.113281 -13.515625 1.628906 -15.40625 2.421875 -17.375 C 2.535156 -17.65625 2.738281 -17.851562 3.03125 -17.96875 C 3.332031 -18.09375 3.625 -18.09375 3.90625 -17.96875 C 4.175781 -17.851562 4.378906 -17.65625 4.515625 -17.375 C 4.660156 -17.101562 4.671875 -16.8125 4.546875 -16.5 C 3.765625 -14.644531 3.285156 -12.976562 3.109375 -11.5 C 2.929688 -10.019531 2.9375 -8.816406 3.125 -7.890625 C 3.320312 -6.960938 3.601562 -6.398438 3.96875 -6.203125 C 4.394531 -5.929688 5.0625 -6.347656 5.96875 -7.453125 C 6.757812 -8.398438 7.546875 -9.441406 8.328125 -10.578125 C 9.117188 -11.722656 9.835938 -12.816406 10.484375 -13.859375 C 11.140625 -14.910156 11.664062 -15.769531 12.0625 -16.4375 C 12.375 -16.988281 12.828125 -17.164062 13.421875 -16.96875 C 14.015625 -16.726562 14.269531 -16.316406 14.1875 -15.734375 C 13.519531 -10.804688 12.832031 -6.132812 12.125 -1.71875 C 14.601562 -4.039062 17.125 -6.144531 19.6875 -8.03125 C 22.25 -9.925781 24.8125 -11.703125 27.375 -13.359375 C 27.613281 -13.515625 27.890625 -13.5625 28.203125 -13.5 C 28.515625 -13.445312 28.75 -13.28125 28.90625 -13 Z M 1.65625 35.296875 C 4.175781 27.410156 6.519531 17.335938 8.6875 5.078125 C 6.71875 7.285156 4.804688 9.703125 2.953125 12.328125 C 1.097656 14.953125 -0.65625 17.859375 -2.3125 21.046875 C -4.082031 24.472656 -5.4375 27.78125 -6.375 30.96875 C -7.320312 34.164062 -7.925781 37.082031 -8.1875 39.71875 C -8.445312 42.363281 -8.46875 44.582031 -8.25 46.375 C -8.03125 48.175781 -7.664062 49.390625 -7.15625 50.015625 C -6.957031 50.253906 -6.785156 50.382812 -6.640625 50.40625 C -6.503906 50.425781 -6.398438 50.414062 -6.328125 50.375 C -6.171875 50.332031 -5.875 50.144531 -5.4375 49.8125 C -5.007812 49.476562 -4.4375 48.804688 -3.71875 47.796875 C -3.007812 46.796875 -2.203125 45.300781 -1.296875 43.3125 C -0.390625 41.320312 0.59375 38.648438 1.65625 35.296875 Z M 1.65625 35.296875 "/></g></g></g><g fill="#ffffff" fill-opacity="1"><g transform="translate(77.902139, 82.600157)"><g/></g></g><g fill="#ffffff" fill-opacity="1"><g transform="translate(96.052651, 82.600157)"><g><path d="M 23.828125 -13.1875 C 24.097656 -13.03125 24.273438 -12.800781 24.359375 -12.5 C 24.441406 -12.207031 24.398438 -11.921875 24.234375 -11.640625 C 22.390625 -8.367188 20.726562 -5.859375 19.25 -4.109375 C 17.769531 -2.359375 16.257812 -1.582031 14.71875 -1.78125 C 12.75 -2.007812 11.191406 -4.132812 10.046875 -8.15625 C 9.648438 -9.457031 9.304688 -10.394531 9.015625 -10.96875 C 8.722656 -11.539062 8.488281 -11.894531 8.3125 -12.03125 C 8.132812 -12.164062 8.003906 -12.234375 7.921875 -12.234375 C 7.804688 -12.273438 7.570312 -12.15625 7.21875 -11.875 C 6.863281 -11.601562 6.347656 -10.992188 5.671875 -10.046875 C 5.003906 -9.097656 4.175781 -7.628906 3.1875 -5.640625 C 2.207031 -3.648438 1.007812 -0.921875 -0.40625 2.546875 C -0.601562 3.015625 -0.941406 3.25 -1.421875 3.25 C -1.535156 3.25 -1.632812 3.226562 -1.71875 3.1875 C -2.382812 3.03125 -2.675781 2.617188 -2.59375 1.953125 C -2.40625 0.335938 -2.050781 -1.53125 -1.53125 -3.65625 C -1.019531 -5.789062 -0.460938 -7.960938 0.140625 -10.171875 C 0.753906 -12.378906 1.316406 -14.347656 1.828125 -16.078125 C 1.953125 -16.472656 2.0625 -16.835938 2.15625 -17.171875 C 2.257812 -17.503906 2.347656 -17.832031 2.421875 -18.15625 C 2.535156 -18.46875 2.726562 -18.691406 3 -18.828125 C 3.28125 -18.960938 3.5625 -18.992188 3.84375 -18.921875 C 4.15625 -18.835938 4.390625 -18.65625 4.546875 -18.375 C 4.710938 -18.101562 4.734375 -17.8125 4.609375 -17.5 C 4.535156 -17.1875 4.445312 -16.859375 4.34375 -16.515625 C 4.25 -16.179688 4.140625 -15.820312 4.015625 -15.4375 C 3.742188 -14.40625 3.429688 -13.28125 3.078125 -12.0625 C 2.722656 -10.84375 2.367188 -9.601562 2.015625 -8.34375 C 3.347656 -10.863281 4.488281 -12.535156 5.4375 -13.359375 C 6.382812 -14.191406 7.253906 -14.585938 8.046875 -14.546875 C 9.148438 -14.460938 10.015625 -13.847656 10.640625 -12.703125 C 11.273438 -11.566406 11.804688 -10.25 12.234375 -8.75 C 12.828125 -6.695312 13.378906 -5.394531 13.890625 -4.84375 C 14.398438 -4.289062 14.773438 -4.015625 15.015625 -4.015625 C 15.523438 -3.941406 16.125 -4.226562 16.8125 -4.875 C 17.507812 -5.53125 18.203125 -6.359375 18.890625 -7.359375 C 19.578125 -8.367188 20.226562 -9.363281 20.84375 -10.34375 C 21.457031 -11.332031 21.921875 -12.140625 22.234375 -12.765625 C 22.390625 -13.046875 22.625 -13.222656 22.9375 -13.296875 C 23.25 -13.378906 23.546875 -13.34375 23.828125 -13.1875 Z M 23.828125 -13.1875 "/></g></g></g><g fill="#ffffff" fill-opacity="1"><g transform="translate(117.159273, 82.600157)"><g><path d="M 24.765625 -13.125 C 25.046875 -13.007812 25.234375 -12.800781 25.328125 -12.5 C 25.429688 -12.207031 25.425781 -11.921875 25.3125 -11.640625 C 24.5625 -10.109375 23.738281 -8.570312 22.84375 -7.03125 C 21.957031 -5.5 21.03125 -4.09375 20.0625 -2.8125 C 19.101562 -1.53125 18.109375 -0.503906 17.078125 0.265625 C 16.054688 1.035156 15.035156 1.421875 14.015625 1.421875 C 13.816406 1.421875 13.597656 1.398438 13.359375 1.359375 C 10.722656 0.847656 9.085938 -2.695312 8.453125 -9.28125 C 7.785156 -8.375 7.007812 -7.359375 6.125 -6.234375 C 5.238281 -5.109375 4.300781 -3.992188 3.3125 -2.890625 C 3.15625 -2.734375 2.898438 -2.488281 2.546875 -2.15625 C 2.191406 -1.820312 1.773438 -1.554688 1.296875 -1.359375 C 0.828125 -1.160156 0.351562 -1.179688 -0.125 -1.421875 C -1.0625 -1.773438 -1.515625 -2.800781 -1.484375 -4.5 C -1.484375 -5.476562 -1.296875 -6.695312 -0.921875 -8.15625 C -0.546875 -9.613281 -0.015625 -11.082031 0.671875 -12.5625 C 1.367188 -14.039062 2.179688 -15.347656 3.109375 -16.484375 C 4.035156 -17.628906 5.066406 -18.398438 6.203125 -18.796875 C 6.910156 -19.078125 7.773438 -19.128906 8.796875 -18.953125 C 9.828125 -18.773438 10.894531 -18.035156 12 -16.734375 C 12.195312 -16.492188 12.285156 -16.21875 12.265625 -15.90625 C 12.242188 -15.59375 12.117188 -15.335938 11.890625 -15.140625 C 11.648438 -14.941406 11.367188 -14.851562 11.046875 -14.875 C 10.734375 -14.894531 10.476562 -15.019531 10.28125 -15.25 C 9.34375 -16.351562 8.523438 -16.875 7.828125 -16.8125 C 7.140625 -16.757812 6.5625 -16.554688 6.09375 -16.203125 C 5.226562 -15.566406 4.4375 -14.65625 3.71875 -13.46875 C 3.007812 -12.289062 2.414062 -11.050781 1.9375 -9.75 C 1.46875 -8.445312 1.132812 -7.234375 0.9375 -6.109375 C 0.75 -4.992188 0.691406 -4.179688 0.765625 -3.671875 C 0.890625 -3.742188 1.019531 -3.835938 1.15625 -3.953125 C 1.289062 -4.078125 1.4375 -4.238281 1.59375 -4.4375 C 2.78125 -5.738281 3.863281 -7.03125 4.84375 -8.3125 C 5.832031 -9.59375 6.679688 -10.722656 7.390625 -11.703125 C 7.585938 -11.984375 7.773438 -12.25 7.953125 -12.5 C 8.128906 -12.757812 8.296875 -12.988281 8.453125 -13.1875 C 8.765625 -13.582031 9.179688 -13.703125 9.703125 -13.546875 C 10.210938 -13.421875 10.488281 -13.082031 10.53125 -12.53125 C 10.644531 -9.96875 10.847656 -7.90625 11.140625 -6.34375 C 11.441406 -4.789062 11.769531 -3.628906 12.125 -2.859375 C 12.476562 -2.097656 12.8125 -1.578125 13.125 -1.296875 C 13.4375 -1.023438 13.671875 -0.890625 13.828125 -0.890625 C 14.578125 -0.734375 15.78125 -1.5 17.4375 -3.1875 C 19.09375 -4.882812 21.023438 -8.019531 23.234375 -12.59375 C 23.390625 -12.90625 23.613281 -13.109375 23.90625 -13.203125 C 24.207031 -13.304688 24.492188 -13.28125 24.765625 -13.125 Z M 24.765625 -13.125 "/></g></g></g><g fill="#ffffff" fill-opacity="1"><g transform="translate(139.152739, 82.600157)"><g><path d="M 23.828125 -13.1875 C 24.097656 -13.03125 24.273438 -12.800781 24.359375 -12.5 C 24.441406 -12.207031 24.398438 -11.921875 24.234375 -11.640625 C 22.390625 -8.367188 20.726562 -5.859375 19.25 -4.109375 C 17.769531 -2.359375 16.257812 -1.582031 14.71875 -1.78125 C 12.75 -2.007812 11.191406 -4.132812 10.046875 -8.15625 C 9.648438 -9.457031 9.304688 -10.394531 9.015625 -10.96875 C 8.722656 -11.539062 8.488281 -11.894531 8.3125 -12.03125 C 8.132812 -12.164062 8.003906 -12.234375 7.921875 -12.234375 C 7.804688 -12.273438 7.570312 -12.15625 7.21875 -11.875 C 6.863281 -11.601562 6.347656 -10.992188 5.671875 -10.046875 C 5.003906 -9.097656 4.175781 -7.628906 3.1875 -5.640625 C 2.207031 -3.648438 1.007812 -0.921875 -0.40625 2.546875 C -0.601562 3.015625 -0.941406 3.25 -1.421875 3.25 C -1.535156 3.25 -1.632812 3.226562 -1.71875 3.1875 C -2.382812 3.03125 -2.675781 2.617188 -2.59375 1.953125 C -2.40625 0.335938 -2.050781 -1.53125 -1.53125 -3.65625 C -1.019531 -5.789062 -0.460938 -7.960938 0.140625 -10.171875 C 0.753906 -12.378906 1.316406 -14.347656 1.828125 -16.078125 C 1.953125 -16.472656 2.0625 -16.835938 2.15625 -17.171875 C 2.257812 -17.503906 2.347656 -17.832031 2.421875 -18.15625 C 2.535156 -18.46875 2.726562 -18.691406 3 -18.828125 C 3.28125 -18.960938 3.5625 -18.992188 3.84375 -18.921875 C 4.15625 -18.835938 4.390625 -18.65625 4.546875 -18.375 C 4.710938 -18.101562 4.734375 -17.8125 4.609375 -17.5 C 4.535156 -17.1875 4.445312 -16.859375 4.34375 -16.515625 C 4.25 -16.179688 4.140625 -15.820312 4.015625 -15.4375 C 3.742188 -14.40625 3.429688 -13.28125 3.078125 -12.0625 C 2.722656 -10.84375 2.367188 -9.601562 2.015625 -8.34375 C 3.347656 -10.863281 4.488281 -12.535156 5.4375 -13.359375 C 6.382812 -14.191406 7.253906 -14.585938 8.046875 -14.546875 C 9.148438 -14.460938 10.015625 -13.847656 10.640625 -12.703125 C 11.273438 -11.566406 11.804688 -10.25 12.234375 -8.75 C 12.828125 -6.695312 13.378906 -5.394531 13.890625 -4.84375 C 14.398438 -4.289062 14.773438 -4.015625 15.015625 -4.015625 C 15.523438 -3.941406 16.125 -4.226562 16.8125 -4.875 C 17.507812 -5.53125 18.203125 -6.359375 18.890625 -7.359375 C 19.578125 -8.367188 20.226562 -9.363281 20.84375 -10.34375 C 21.457031 -11.332031 21.921875 -12.140625 22.234375 -12.765625 C 22.390625 -13.046875 22.625 -13.222656 22.9375 -13.296875 C 23.25 -13.378906 23.546875 -13.34375 23.828125 -13.1875 Z M 23.828125 -13.1875 "/></g></g></g><g fill="#ffffff" fill-opacity="1"><g transform="translate(160.259361, 82.600157)"><g><path d="M 24.765625 -13.125 C 25.046875 -13.007812 25.234375 -12.800781 25.328125 -12.5 C 25.429688 -12.207031 25.425781 -11.921875 25.3125 -11.640625 C 24.5625 -10.109375 23.738281 -8.570312 22.84375 -7.03125 C 21.957031 -5.5 21.03125 -4.09375 20.0625 -2.8125 C 19.101562 -1.53125 18.109375 -0.503906 17.078125 0.265625 C 16.054688 1.035156 15.035156 1.421875 14.015625 1.421875 C 13.816406 1.421875 13.597656 1.398438 13.359375 1.359375 C 10.722656 0.847656 9.085938 -2.695312 8.453125 -9.28125 C 7.785156 -8.375 7.007812 -7.359375 6.125 -6.234375 C 5.238281 -5.109375 4.300781 -3.992188 3.3125 -2.890625 C 3.15625 -2.734375 2.898438 -2.488281 2.546875 -2.15625 C 2.191406 -1.820312 1.773438 -1.554688 1.296875 -1.359375 C 0.828125 -1.160156 0.351562 -1.179688 -0.125 -1.421875 C -1.0625 -1.773438 -1.515625 -2.800781 -1.484375 -4.5 C -1.484375 -5.476562 -1.296875 -6.695312 -0.921875 -8.15625 C -0.546875 -9.613281 -0.015625 -11.082031 0.671875 -12.5625 C 1.367188 -14.039062 2.179688 -15.347656 3.109375 -16.484375 C 4.035156 -17.628906 5.066406 -18.398438 6.203125 -18.796875 C 6.910156 -19.078125 7.773438 -19.128906 8.796875 -18.953125 C 9.828125 -18.773438 10.894531 -18.035156 12 -16.734375 C 12.195312 -16.492188 12.285156 -16.21875 12.265625 -15.90625 C 12.242188 -15.59375 12.117188 -15.335938 11.890625 -15.140625 C 11.648438 -14.941406 11.367188 -14.851562 11.046875 -14.875 C 10.734375 -14.894531 10.476562 -15.019531 10.28125 -15.25 C 9.34375 -16.351562 8.523438 -16.875 7.828125 -16.8125 C 7.140625 -16.757812 6.5625 -16.554688 6.09375 -16.203125 C 5.226562 -15.566406 4.4375 -14.65625 3.71875 -13.46875 C 3.007812 -12.289062 2.414062 -11.050781 1.9375 -9.75 C 1.46875 -8.445312 1.132812 -7.234375 0.9375 -6.109375 C 0.75 -4.992188 0.691406 -4.179688 0.765625 -3.671875 C 0.890625 -3.742188 1.019531 -3.835938 1.15625 -3.953125 C 1.289062 -4.078125 1.4375 -4.238281 1.59375 -4.4375 C 2.78125 -5.738281 3.863281 -7.03125 4.84375 -8.3125 C 5.832031 -9.59375 6.679688 -10.722656 7.390625 -11.703125 C 7.585938 -11.984375 7.773438 -12.25 7.953125 -12.5 C 8.128906 -12.757812 8.296875 -12.988281 8.453125 -13.1875 C 8.765625 -13.582031 9.179688 -13.703125 9.703125 -13.546875 C 10.210938 -13.421875 10.488281 -13.082031 10.53125 -12.53125 C 10.644531 -9.96875 10.847656 -7.90625 11.140625 -6.34375 C 11.441406 -4.789062 11.769531 -3.628906 12.125 -2.859375 C 12.476562 -2.097656 12.8125 -1.578125 13.125 -1.296875 C 13.4375 -1.023438 13.671875 -0.890625 13.828125 -0.890625 C 14.578125 -0.734375 15.78125 -1.5 17.4375 -3.1875 C 19.09375 -4.882812 21.023438 -8.019531 23.234375 -12.59375 C 23.390625 -12.90625 23.613281 -13.109375 23.90625 -13.203125 C 24.207031 -13.304688 24.492188 -13.28125 24.765625 -13.125 Z M 24.765625 -13.125 "/></g></g></g><g clip-path="url(#6820363696)"><path fill="#ffffff" d="M 295.097656 98.632812 C 277.1875 96.234375 258.800781 96.613281 240.632812 97.199219 C 222.675781 97.78125 204.726562 98.484375 186.796875 99.335938 C 168.890625 100.183594 151 101.203125 133.175781 102.59375 C 115.128906 104.003906 97.167969 105.773438 79.324219 108.015625 C 60.90625 110.332031 42.648438 113.332031 24.585938 116.59375 C 22.125 117.039062 19.644531 117.445312 17.191406 117.90625 C 16.601562 118.019531 18.171875 118.503906 18.609375 118.429688 C 21.128906 118 23.625 117.511719 26.128906 117.03125 C 40.820312 114.40625 55.710938 112.335938 70.746094 110.636719 C 88.648438 108.617188 106.738281 107.082031 124.800781 105.800781 C 142.929688 104.515625 161.113281 103.527344 179.308594 102.722656 C 197.40625 101.925781 215.523438 101.3125 233.640625 100.75 C 250.09375 100.238281 266.652344 99.609375 283.0625 100.757812 C 282.007812 100.9375 280.957031 101.117188 279.910156 101.304688 C 273.609375 102.417969 267.015625 103.042969 260.550781 103.613281 C 249.15625 104.621094 237.695312 105.363281 226.238281 106.035156 C 226.03125 106.046875 226.59375 106.542969 226.886719 106.53125 C 237.921875 106.007812 248.90625 105.210938 259.867188 104.253906 C 265.472656 103.765625 271.144531 103.207031 276.792969 102.988281 C 279.539062 102.878906 282.28125 102.761719 285.015625 102.566406 C 286.53125 102.453125 288.042969 102.339844 289.554688 102.214844 C 291.3125 102.074219 293.097656 102.101562 294.84375 101.914062 C 296.152344 101.777344 296.417969 98.808594 295.097656 98.632812 " fill-opacity="1" fill-rule="nonzero"/></g><g clip-path="url(#dda15ffbeb)"><path fill="#ffffff" d="M 225.257812 106.394531 C 225.257812 106.730469 225.195312 107.054688 225.066406 107.367188 C 224.9375 107.675781 224.753906 107.953125 224.515625 108.1875 C 224.277344 108.425781 224.003906 108.609375 223.691406 108.738281 C 223.382812 108.867188 223.058594 108.933594 222.722656 108.933594 C 222.382812 108.933594 222.0625 108.867188 221.75 108.738281 C 221.4375 108.609375 221.164062 108.425781 220.925781 108.1875 C 220.6875 107.953125 220.503906 107.675781 220.375 107.367188 C 220.246094 107.054688 220.183594 106.730469 220.183594 106.394531 C 220.183594 106.058594 220.246094 105.734375 220.375 105.425781 C 220.503906 105.113281 220.6875 104.839844 220.925781 104.601562 C 221.164062 104.363281 221.4375 104.179688 221.75 104.050781 C 222.0625 103.921875 222.382812 103.859375 222.722656 103.859375 C 223.058594 103.859375 223.382812 103.921875 223.691406 104.050781 C 224.003906 104.179688 224.277344 104.363281 224.515625 104.601562 C 224.753906 104.839844 224.9375 105.113281 225.066406 105.425781 C 225.195312 105.734375 225.257812 106.058594 225.257812 106.394531 Z M 225.257812 106.394531 " fill-opacity="1" fill-rule="nonzero"/></g></svg>