<svg xmlns="http://www.w3.org/2000/svg" xmlns:xlink="http://www.w3.org/1999/xlink" width="515" zoomAndPan="magnify" viewBox="0 0 386.25 191.999996" height="256" preserveAspectRatio="xMidYMid meet" version="1.0"><defs><g/><clipPath id="6d2dc15436"><path d="M 258 88.082031 L 384.84375 88.082031 L 384.84375 115.78125 L 258 115.78125 Z M 258 88.082031 " clip-rule="nonzero"/></clipPath><clipPath id="97a534e5a4"><path d="M 299.292969 137.628906 L 305 137.628906 L 305 143.617188 L 299.292969 143.617188 Z M 299.292969 137.628906 " clip-rule="nonzero"/></clipPath></defs><g clip-path="url(#6d2dc15436)"><path fill="#ffffff" d="M 260.726562 100.835938 L 260.757812 100.867188 C 260.730469 100.839844 261.179688 101.339844 261.402344 101.542969 C 262.320312 102.332031 263.324219 102.984375 264.421875 103.503906 C 268.398438 105.519531 272.996094 106.289062 277.417969 106.40625 C 284.785156 106.59375 291.964844 104.730469 299.121094 103.246094 C 306.601562 101.679688 314.226562 99.898438 321.902344 99.832031 C 324.28125 99.804688 326.644531 99.949219 329 100.269531 C 330.351562 94.972656 334.855469 91.472656 340.152344 90.023438 C 347.210938 88.085938 355.148438 88.40625 362.308594 89.558594 C 370.117188 90.8125 377.765625 93.488281 384.507812 97.644531 C 384.636719 97.722656 384.664062 97.828125 384.589844 97.957031 C 384.511719 98.089844 384.40625 98.117188 384.273438 98.039062 C 372.535156 91.746094 359.183594 88.625 345.859375 90.203125 C 339.875 90.914062 333.0625 93.070312 330.964844 99.386719 C 330.839844 99.769531 330.734375 100.160156 330.648438 100.550781 C 334.46875 101.273438 338.175781 102.628906 341 105.011719 C 343.027344 106.722656 344.277344 109.242188 343.664062 111.910156 C 343.050781 114.578125 340.636719 116.054688 337.976562 115.605469 C 332.042969 114.605469 328.089844 107.902344 328.664062 102.222656 C 328.664062 102.203125 328.664062 102.1875 328.664062 102.167969 C 323.144531 101.332031 317.449219 101.839844 311.96875 102.765625 C 304.703125 103.992188 297.53125 105.695312 290.3125 107.148438 C 284.675781 108.28125 278.917969 108.890625 273.1875 108.171875 C 269.28125 107.683594 265.335938 106.65625 261.957031 104.597656 C 260.925781 103.964844 257.902344 102.140625 258.558594 100.476562 C 259.035156 99.265625 260.941406 99.695312 260.726562 100.835938 Z M 331.832031 108.519531 C 333.226562 110.925781 336.078125 113.769531 339.082031 113.65625 C 342.574219 113.527344 342.292969 109.097656 340.554688 107.171875 C 338.503906 104.898438 335.210938 103.742188 332.316406 102.945312 C 331.671875 102.765625 331.023438 102.617188 330.367188 102.484375 C 330.265625 104.640625 330.753906 106.652344 331.832031 108.519531 Z M 260.644531 100.742188 C 260.625 100.710938 260.617188 100.707031 260.644531 100.742188 Z M 260.644531 100.742188 " fill-opacity="1" fill-rule="nonzero"/></g><g fill="#ffffff" fill-opacity="1"><g transform="translate(62.095378, 113.76993)"><g><path d="M 19.703125 -12.40625 C 19.835938 -12.09375 19.847656 -11.769531 19.734375 -11.4375 C 19.628906 -11.113281 19.421875 -10.863281 19.109375 -10.6875 C 18.972656 -10.644531 18.804688 -10.609375 18.609375 -10.578125 C 18.410156 -10.554688 17.9375 -10.546875 17.1875 -10.546875 C 16.4375 -10.546875 15.15625 -10.546875 13.34375 -10.546875 C 12.320312 -10.546875 11.179688 -10.546875 9.921875 -10.546875 C 8.660156 -10.546875 7.539062 -10.546875 6.5625 -10.546875 C 5.59375 -10.546875 4.976562 -10.523438 4.71875 -10.484375 C 4.664062 -10.484375 4.617188 -10.484375 4.578125 -10.484375 C 3.828125 -10.484375 3.40625 -10.859375 3.3125 -11.609375 C 3.269531 -11.960938 3.359375 -12.28125 3.578125 -12.5625 C 3.804688 -12.851562 4.097656 -13.023438 4.453125 -13.078125 C 4.847656 -13.117188 5.84375 -13.140625 7.4375 -13.140625 C 9.03125 -13.140625 11.019531 -13.117188 13.40625 -13.078125 C 14.46875 -13.078125 15.503906 -13.078125 16.515625 -13.078125 C 17.535156 -13.078125 18.15625 -13.078125 18.375 -13.078125 C 19 -13.203125 19.441406 -12.976562 19.703125 -12.40625 Z M 19.703125 -12.40625 "/></g></g></g><g fill="#ffffff" fill-opacity="1"><g transform="translate(85.253931, 113.76993)"><g><path d="M 28 -14.859375 C 28.3125 -14.679688 28.507812 -14.414062 28.59375 -14.0625 C 28.6875 -13.707031 28.625 -13.398438 28.40625 -13.140625 C 26.539062 -10.085938 24.414062 -7.421875 22.03125 -5.140625 C 19.644531 -2.859375 17.203125 -0.898438 14.703125 0.734375 C 12.203125 2.367188 9.800781 3.726562 7.5 4.8125 C 5.195312 5.894531 3.179688 6.722656 1.453125 7.296875 C 0.835938 7.515625 0.351562 7.335938 0 6.765625 C -0.707031 8.535156 -1.328125 10.285156 -1.859375 12.015625 C -2.035156 12.585938 -2.457031 12.875 -3.125 12.875 C -3.164062 12.875 -3.226562 12.875 -3.3125 12.875 C -4.019531 12.738281 -4.375 12.316406 -4.375 11.609375 C -4.375 11.210938 -4.21875 10.238281 -3.90625 8.6875 C -3.601562 7.144531 -3.195312 5.164062 -2.6875 2.75 C -2.175781 0.34375 -1.585938 -2.328125 -0.921875 -5.265625 C -0.265625 -8.210938 0.414062 -11.253906 1.125 -14.390625 C 1.832031 -17.535156 2.53125 -20.625 3.21875 -23.65625 C 3.90625 -26.6875 4.554688 -29.484375 5.171875 -32.046875 C 5.171875 -32.179688 5.195312 -32.316406 5.25 -32.453125 C 6 -35.640625 6.613281 -38.203125 7.09375 -40.140625 C 8.113281 -44.210938 9.242188 -47.914062 10.484375 -51.25 C 11.722656 -54.59375 12.953125 -57.28125 14.171875 -59.3125 C 15.390625 -61.351562 16.460938 -62.460938 17.390625 -62.640625 C 18.140625 -62.773438 18.710938 -62.554688 19.109375 -61.984375 C 19.734375 -61.097656 19.675781 -59.257812 18.9375 -56.46875 C 18.207031 -53.6875 16.878906 -50.160156 14.953125 -45.890625 C 13.035156 -41.617188 10.617188 -36.828125 7.703125 -31.515625 C 6.992188 -28.554688 6.238281 -25.347656 5.4375 -21.890625 C 4.644531 -18.441406 3.859375 -14.96875 3.078125 -11.46875 C 2.304688 -7.976562 1.585938 -4.726562 0.921875 -1.71875 C 2.160156 -4.289062 3.359375 -6.375 4.515625 -7.96875 C 7.960938 -12.789062 10.703125 -14.890625 12.734375 -14.265625 C 13.140625 -14.128906 13.570312 -13.828125 14.03125 -13.359375 C 14.5 -12.898438 14.753906 -12.03125 14.796875 -10.75 C 14.835938 -9.425781 14.503906 -7.742188 13.796875 -5.703125 C 13.085938 -3.671875 12.003906 -1.660156 10.546875 0.328125 C 13.867188 -1.617188 16.878906 -3.851562 19.578125 -6.375 C 22.273438 -8.894531 24.507812 -11.59375 26.28125 -14.46875 C 26.457031 -14.78125 26.710938 -14.96875 27.046875 -15.03125 C 27.378906 -15.09375 27.695312 -15.035156 28 -14.859375 Z M 16.921875 -59 C 16.171875 -57.84375 15.164062 -55.859375 13.90625 -53.046875 C 12.644531 -50.242188 11.394531 -46.453125 10.15625 -41.671875 C 12.363281 -46.140625 13.988281 -49.800781 15.03125 -52.65625 C 16.070312 -55.507812 16.703125 -57.625 16.921875 -59 Z M 0.734375 4.84375 C 2.984375 4 4.90625 2.757812 6.5 1.125 C 8.09375 -0.507812 9.34375 -2.234375 10.25 -4.046875 C 11.15625 -5.859375 11.742188 -7.453125 12.015625 -8.828125 C 12.234375 -9.796875 12.296875 -10.507812 12.203125 -10.96875 C 12.117188 -11.4375 12.054688 -11.71875 12.015625 -11.8125 C 11.921875 -11.8125 11.675781 -11.710938 11.28125 -11.515625 C 10.882812 -11.316406 10.304688 -10.851562 9.546875 -10.125 C 8.796875 -9.394531 7.828125 -8.1875 6.640625 -6.5 C 5.710938 -5.175781 4.726562 -3.53125 3.6875 -1.5625 C 2.644531 0.40625 1.660156 2.539062 0.734375 4.84375 Z M 0.734375 4.84375 "/></g></g></g><g fill="#ffffff" fill-opacity="1"><g transform="translate(110.204125, 113.76993)"><g><path d="M 32.453125 -14.59375 C 32.671875 -14.332031 32.734375 -14.023438 32.640625 -13.671875 C 32.554688 -13.316406 32.382812 -13.050781 32.125 -12.875 C 28.894531 -10.75 25.648438 -8.457031 22.390625 -6 C 19.140625 -3.550781 15.96875 -0.773438 12.875 2.328125 C 10.257812 17.941406 7.40625 30.613281 4.3125 40.34375 C 3.644531 42.332031 2.925781 44.351562 2.15625 46.40625 C 1.382812 48.46875 0.546875 50.394531 -0.359375 52.1875 C -1.265625 53.976562 -2.226562 55.484375 -3.25 56.703125 C -4.269531 57.921875 -5.3125 58.6875 -6.375 59 C -6.675781 59.082031 -7.003906 59.125 -7.359375 59.125 C -8.378906 59.125 -9.265625 58.679688 -10.015625 57.796875 C -10.941406 56.597656 -11.550781 54.78125 -11.84375 52.34375 C -12.132812 49.914062 -12.078125 47.066406 -11.671875 43.796875 C -11.273438 40.523438 -10.515625 37.050781 -9.390625 33.375 C -8.265625 29.707031 -6.75 26.054688 -4.84375 22.421875 C -2.539062 18.046875 -0.0976562 14.109375 2.484375 10.609375 C 5.078125 7.117188 7.765625 3.9375 10.546875 1.0625 C 11.210938 -3.09375 11.878906 -7.453125 12.546875 -12.015625 C 11.960938 -11.128906 11.335938 -10.234375 10.671875 -9.328125 C 10.015625 -8.421875 9.351562 -7.566406 8.6875 -6.765625 C 7.800781 -5.703125 6.984375 -5.015625 6.234375 -4.703125 C 5.484375 -4.398438 4.84375 -4.289062 4.3125 -4.375 C 3.78125 -4.46875 3.382812 -4.601562 3.125 -4.78125 C 2.144531 -5.351562 1.476562 -6.378906 1.125 -7.859375 C 0.769531 -9.347656 0.722656 -11.109375 0.984375 -13.140625 C 1.253906 -15.171875 1.832031 -17.296875 2.71875 -19.515625 C 2.851562 -19.816406 3.085938 -20.035156 3.421875 -20.171875 C 3.753906 -20.304688 4.070312 -20.304688 4.375 -20.171875 C 4.6875 -20.035156 4.921875 -19.8125 5.078125 -19.5 C 5.234375 -19.195312 5.242188 -18.867188 5.109375 -18.515625 C 4.222656 -16.429688 3.679688 -14.5625 3.484375 -12.90625 C 3.285156 -11.25 3.296875 -9.898438 3.515625 -8.859375 C 3.734375 -7.816406 4.046875 -7.1875 4.453125 -6.96875 C 4.929688 -6.65625 5.679688 -7.117188 6.703125 -8.359375 C 7.585938 -9.421875 8.472656 -10.59375 9.359375 -11.875 C 10.242188 -13.15625 11.050781 -14.378906 11.78125 -15.546875 C 12.507812 -16.722656 13.09375 -17.691406 13.53125 -18.453125 C 13.882812 -19.066406 14.394531 -19.265625 15.0625 -19.046875 C 15.726562 -18.773438 16.015625 -18.3125 15.921875 -17.65625 C 15.171875 -12.125 14.398438 -6.878906 13.609375 -1.921875 C 16.390625 -4.535156 19.21875 -6.898438 22.09375 -9.015625 C 24.96875 -11.140625 27.84375 -13.132812 30.71875 -15 C 30.988281 -15.175781 31.300781 -15.226562 31.65625 -15.15625 C 32.007812 -15.09375 32.273438 -14.90625 32.453125 -14.59375 Z M 1.859375 39.609375 C 4.691406 30.765625 7.320312 19.460938 9.75 5.703125 C 7.539062 8.179688 5.394531 10.890625 3.3125 13.828125 C 1.238281 16.773438 -0.726562 20.039062 -2.59375 23.625 C -4.582031 27.46875 -6.109375 31.179688 -7.171875 34.765625 C -8.234375 38.347656 -8.90625 41.625 -9.1875 44.59375 C -9.476562 47.5625 -9.5 50.050781 -9.25 52.0625 C -9.007812 54.070312 -8.601562 55.429688 -8.03125 56.140625 C -7.8125 56.398438 -7.625 56.539062 -7.46875 56.5625 C -7.3125 56.59375 -7.1875 56.582031 -7.09375 56.53125 C -6.914062 56.488281 -6.582031 56.28125 -6.09375 55.90625 C -5.613281 55.53125 -4.972656 54.773438 -4.171875 53.640625 C -3.378906 52.515625 -2.472656 50.832031 -1.453125 48.59375 C -0.441406 46.363281 0.660156 43.367188 1.859375 39.609375 Z M 1.859375 39.609375 "/></g></g></g><g fill="#ffffff" fill-opacity="1"><g transform="translate(139.60023, 113.76993)"><g/></g></g><g fill="#ffffff" fill-opacity="1"><g transform="translate(159.971794, 113.76993)"><g><path d="M 26.75 -14.796875 C 27.050781 -14.617188 27.242188 -14.363281 27.328125 -14.03125 C 27.421875 -13.695312 27.378906 -13.378906 27.203125 -13.078125 C 25.128906 -9.398438 23.257812 -6.578125 21.59375 -4.609375 C 19.9375 -2.640625 18.25 -1.765625 16.53125 -1.984375 C 14.3125 -2.253906 12.5625 -4.644531 11.28125 -9.15625 C 10.84375 -10.613281 10.457031 -11.660156 10.125 -12.296875 C 9.789062 -12.941406 9.523438 -13.34375 9.328125 -13.5 C 9.128906 -13.65625 8.984375 -13.734375 8.890625 -13.734375 C 8.753906 -13.773438 8.488281 -13.640625 8.09375 -13.328125 C 7.695312 -13.023438 7.125 -12.34375 6.375 -11.28125 C 5.625 -10.21875 4.691406 -8.566406 3.578125 -6.328125 C 2.472656 -4.097656 1.125 -1.035156 -0.46875 2.859375 C -0.6875 3.390625 -1.0625 3.65625 -1.59375 3.65625 C -1.726562 3.65625 -1.835938 3.628906 -1.921875 3.578125 C -2.671875 3.398438 -3.003906 2.9375 -2.921875 2.1875 C -2.703125 0.375 -2.300781 -1.722656 -1.71875 -4.109375 C -1.144531 -6.503906 -0.519531 -8.9375 0.15625 -11.40625 C 0.84375 -13.882812 1.476562 -16.097656 2.0625 -18.046875 C 2.1875 -18.492188 2.304688 -18.90625 2.421875 -19.28125 C 2.535156 -19.65625 2.632812 -20.019531 2.71875 -20.375 C 2.851562 -20.726562 3.070312 -20.984375 3.375 -21.140625 C 3.6875 -21.296875 4 -21.328125 4.3125 -21.234375 C 4.664062 -21.148438 4.929688 -20.953125 5.109375 -20.640625 C 5.285156 -20.328125 5.304688 -19.992188 5.171875 -19.640625 C 5.085938 -19.285156 4.988281 -18.921875 4.875 -18.546875 C 4.769531 -18.171875 4.648438 -17.757812 4.515625 -17.3125 C 4.203125 -16.164062 3.847656 -14.90625 3.453125 -13.53125 C 3.054688 -12.164062 2.65625 -10.773438 2.25 -9.359375 C 3.757812 -12.191406 5.046875 -14.070312 6.109375 -15 C 7.171875 -15.925781 8.144531 -16.367188 9.03125 -16.328125 C 10.269531 -16.234375 11.238281 -15.546875 11.9375 -14.265625 C 12.644531 -12.984375 13.242188 -11.503906 13.734375 -9.828125 C 14.398438 -7.523438 15.019531 -6.0625 15.59375 -5.4375 C 16.164062 -4.820312 16.585938 -4.515625 16.859375 -4.515625 C 17.429688 -4.421875 18.101562 -4.738281 18.875 -5.46875 C 19.65625 -6.195312 20.429688 -7.125 21.203125 -8.25 C 21.972656 -9.382812 22.703125 -10.503906 23.390625 -11.609375 C 24.078125 -12.710938 24.597656 -13.617188 24.953125 -14.328125 C 25.128906 -14.640625 25.394531 -14.835938 25.75 -14.921875 C 26.101562 -15.015625 26.4375 -14.972656 26.75 -14.796875 Z M 26.75 -14.796875 "/></g></g></g><g fill="#ffffff" fill-opacity="1"><g transform="translate(183.661203, 113.76993)"><g><path d="M 27.796875 -14.734375 C 28.109375 -14.597656 28.316406 -14.363281 28.421875 -14.03125 C 28.535156 -13.695312 28.53125 -13.378906 28.40625 -13.078125 C 27.5625 -11.347656 26.640625 -9.617188 25.640625 -7.890625 C 24.648438 -6.171875 23.613281 -4.59375 22.53125 -3.15625 C 21.445312 -1.71875 20.328125 -0.566406 19.171875 0.296875 C 18.023438 1.160156 16.878906 1.59375 15.734375 1.59375 C 15.503906 1.59375 15.257812 1.570312 15 1.53125 C 12.03125 0.945312 10.191406 -3.035156 9.484375 -10.421875 C 8.734375 -9.398438 7.859375 -8.257812 6.859375 -7 C 5.867188 -5.738281 4.820312 -4.488281 3.71875 -3.25 C 3.539062 -3.070312 3.25 -2.796875 2.84375 -2.421875 C 2.445312 -2.046875 1.984375 -1.742188 1.453125 -1.515625 C 0.921875 -1.296875 0.394531 -1.320312 -0.125 -1.59375 C -1.1875 -1.988281 -1.695312 -3.140625 -1.65625 -5.046875 C -1.65625 -6.148438 -1.441406 -7.519531 -1.015625 -9.15625 C -0.597656 -10.789062 -0.00390625 -12.4375 0.765625 -14.09375 C 1.535156 -15.757812 2.441406 -17.234375 3.484375 -18.515625 C 4.523438 -19.796875 5.6875 -20.660156 6.96875 -21.109375 C 7.757812 -21.410156 8.726562 -21.460938 9.875 -21.265625 C 11.03125 -21.066406 12.226562 -20.238281 13.46875 -18.78125 C 13.6875 -18.507812 13.785156 -18.195312 13.765625 -17.84375 C 13.742188 -17.488281 13.601562 -17.203125 13.34375 -16.984375 C 13.070312 -16.765625 12.757812 -16.664062 12.40625 -16.6875 C 12.050781 -16.707031 11.765625 -16.851562 11.546875 -17.125 C 10.484375 -18.363281 9.5625 -18.945312 8.78125 -18.875 C 8.007812 -18.8125 7.359375 -18.582031 6.828125 -18.1875 C 5.859375 -17.476562 4.972656 -16.457031 4.171875 -15.125 C 3.378906 -13.800781 2.71875 -12.410156 2.1875 -10.953125 C 1.65625 -9.492188 1.28125 -8.132812 1.0625 -6.875 C 0.84375 -5.613281 0.773438 -4.691406 0.859375 -4.109375 C 0.992188 -4.203125 1.140625 -4.3125 1.296875 -4.4375 C 1.453125 -4.570312 1.617188 -4.753906 1.796875 -4.984375 C 3.117188 -6.441406 4.332031 -7.890625 5.4375 -9.328125 C 6.539062 -10.765625 7.492188 -12.035156 8.296875 -13.140625 C 8.515625 -13.453125 8.722656 -13.75 8.921875 -14.03125 C 9.117188 -14.320312 9.304688 -14.578125 9.484375 -14.796875 C 9.835938 -15.242188 10.304688 -15.378906 10.890625 -15.203125 C 11.460938 -15.066406 11.769531 -14.6875 11.8125 -14.0625 C 11.945312 -11.1875 12.175781 -8.875 12.5 -7.125 C 12.832031 -5.382812 13.195312 -4.082031 13.59375 -3.21875 C 14 -2.351562 14.378906 -1.765625 14.734375 -1.453125 C 15.085938 -1.148438 15.351562 -1 15.53125 -1 C 16.363281 -0.820312 17.707031 -1.679688 19.5625 -3.578125 C 21.425781 -5.484375 23.597656 -9.003906 26.078125 -14.140625 C 26.253906 -14.492188 26.507812 -14.722656 26.84375 -14.828125 C 27.175781 -14.941406 27.492188 -14.910156 27.796875 -14.734375 Z M 27.796875 -14.734375 "/></g></g></g><g fill="#ffffff" fill-opacity="1"><g transform="translate(208.345978, 113.76993)"><g><path d="M 26.75 -14.796875 C 27.050781 -14.617188 27.242188 -14.363281 27.328125 -14.03125 C 27.421875 -13.695312 27.378906 -13.378906 27.203125 -13.078125 C 25.128906 -9.398438 23.257812 -6.578125 21.59375 -4.609375 C 19.9375 -2.640625 18.25 -1.765625 16.53125 -1.984375 C 14.3125 -2.253906 12.5625 -4.644531 11.28125 -9.15625 C 10.84375 -10.613281 10.457031 -11.660156 10.125 -12.296875 C 9.789062 -12.941406 9.523438 -13.34375 9.328125 -13.5 C 9.128906 -13.65625 8.984375 -13.734375 8.890625 -13.734375 C 8.753906 -13.773438 8.488281 -13.640625 8.09375 -13.328125 C 7.695312 -13.023438 7.125 -12.34375 6.375 -11.28125 C 5.625 -10.21875 4.691406 -8.566406 3.578125 -6.328125 C 2.472656 -4.097656 1.125 -1.035156 -0.46875 2.859375 C -0.6875 3.390625 -1.0625 3.65625 -1.59375 3.65625 C -1.726562 3.65625 -1.835938 3.628906 -1.921875 3.578125 C -2.671875 3.398438 -3.003906 2.9375 -2.921875 2.1875 C -2.703125 0.375 -2.300781 -1.722656 -1.71875 -4.109375 C -1.144531 -6.503906 -0.519531 -8.9375 0.15625 -11.40625 C 0.84375 -13.882812 1.476562 -16.097656 2.0625 -18.046875 C 2.1875 -18.492188 2.304688 -18.90625 2.421875 -19.28125 C 2.535156 -19.65625 2.632812 -20.019531 2.71875 -20.375 C 2.851562 -20.726562 3.070312 -20.984375 3.375 -21.140625 C 3.6875 -21.296875 4 -21.328125 4.3125 -21.234375 C 4.664062 -21.148438 4.929688 -20.953125 5.109375 -20.640625 C 5.285156 -20.328125 5.304688 -19.992188 5.171875 -19.640625 C 5.085938 -19.285156 4.988281 -18.921875 4.875 -18.546875 C 4.769531 -18.171875 4.648438 -17.757812 4.515625 -17.3125 C 4.203125 -16.164062 3.847656 -14.90625 3.453125 -13.53125 C 3.054688 -12.164062 2.65625 -10.773438 2.25 -9.359375 C 3.757812 -12.191406 5.046875 -14.070312 6.109375 -15 C 7.171875 -15.925781 8.144531 -16.367188 9.03125 -16.328125 C 10.269531 -16.234375 11.238281 -15.546875 11.9375 -14.265625 C 12.644531 -12.984375 13.242188 -11.503906 13.734375 -9.828125 C 14.398438 -7.523438 15.019531 -6.0625 15.59375 -5.4375 C 16.164062 -4.820312 16.585938 -4.515625 16.859375 -4.515625 C 17.429688 -4.421875 18.101562 -4.738281 18.875 -5.46875 C 19.65625 -6.195312 20.429688 -7.125 21.203125 -8.25 C 21.972656 -9.382812 22.703125 -10.503906 23.390625 -11.609375 C 24.078125 -12.710938 24.597656 -13.617188 24.953125 -14.328125 C 25.128906 -14.640625 25.394531 -14.835938 25.75 -14.921875 C 26.101562 -15.015625 26.4375 -14.972656 26.75 -14.796875 Z M 26.75 -14.796875 "/></g></g></g><g fill="#ffffff" fill-opacity="1"><g transform="translate(232.035387, 113.76993)"><g><path d="M 27.796875 -14.734375 C 28.109375 -14.597656 28.316406 -14.363281 28.421875 -14.03125 C 28.535156 -13.695312 28.53125 -13.378906 28.40625 -13.078125 C 27.5625 -11.347656 26.640625 -9.617188 25.640625 -7.890625 C 24.648438 -6.171875 23.613281 -4.59375 22.53125 -3.15625 C 21.445312 -1.71875 20.328125 -0.566406 19.171875 0.296875 C 18.023438 1.160156 16.878906 1.59375 15.734375 1.59375 C 15.503906 1.59375 15.257812 1.570312 15 1.53125 C 12.03125 0.945312 10.191406 -3.035156 9.484375 -10.421875 C 8.734375 -9.398438 7.859375 -8.257812 6.859375 -7 C 5.867188 -5.738281 4.820312 -4.488281 3.71875 -3.25 C 3.539062 -3.070312 3.25 -2.796875 2.84375 -2.421875 C 2.445312 -2.046875 1.984375 -1.742188 1.453125 -1.515625 C 0.921875 -1.296875 0.394531 -1.320312 -0.125 -1.59375 C -1.1875 -1.988281 -1.695312 -3.140625 -1.65625 -5.046875 C -1.65625 -6.148438 -1.441406 -7.519531 -1.015625 -9.15625 C -0.597656 -10.789062 -0.00390625 -12.4375 0.765625 -14.09375 C 1.535156 -15.757812 2.441406 -17.234375 3.484375 -18.515625 C 4.523438 -19.796875 5.6875 -20.660156 6.96875 -21.109375 C 7.757812 -21.410156 8.726562 -21.460938 9.875 -21.265625 C 11.03125 -21.066406 12.226562 -20.238281 13.46875 -18.78125 C 13.6875 -18.507812 13.785156 -18.195312 13.765625 -17.84375 C 13.742188 -17.488281 13.601562 -17.203125 13.34375 -16.984375 C 13.070312 -16.765625 12.757812 -16.664062 12.40625 -16.6875 C 12.050781 -16.707031 11.765625 -16.851562 11.546875 -17.125 C 10.484375 -18.363281 9.5625 -18.945312 8.78125 -18.875 C 8.007812 -18.8125 7.359375 -18.582031 6.828125 -18.1875 C 5.859375 -17.476562 4.972656 -16.457031 4.171875 -15.125 C 3.378906 -13.800781 2.71875 -12.410156 2.1875 -10.953125 C 1.65625 -9.492188 1.28125 -8.132812 1.0625 -6.875 C 0.84375 -5.613281 0.773438 -4.691406 0.859375 -4.109375 C 0.992188 -4.203125 1.140625 -4.3125 1.296875 -4.4375 C 1.453125 -4.570312 1.617188 -4.753906 1.796875 -4.984375 C 3.117188 -6.441406 4.332031 -7.890625 5.4375 -9.328125 C 6.539062 -10.765625 7.492188 -12.035156 8.296875 -13.140625 C 8.515625 -13.453125 8.722656 -13.75 8.921875 -14.03125 C 9.117188 -14.320312 9.304688 -14.578125 9.484375 -14.796875 C 9.835938 -15.242188 10.304688 -15.378906 10.890625 -15.203125 C 11.460938 -15.066406 11.769531 -14.6875 11.8125 -14.0625 C 11.945312 -11.1875 12.175781 -8.875 12.5 -7.125 C 12.832031 -5.382812 13.195312 -4.082031 13.59375 -3.21875 C 14 -2.351562 14.378906 -1.765625 14.734375 -1.453125 C 15.085938 -1.148438 15.351562 -1 15.53125 -1 C 16.363281 -0.820312 17.707031 -1.679688 19.5625 -3.578125 C 21.425781 -5.484375 23.597656 -9.003906 26.078125 -14.140625 C 26.253906 -14.492188 26.507812 -14.722656 26.84375 -14.828125 C 27.175781 -14.941406 27.492188 -14.910156 27.796875 -14.734375 Z M 27.796875 -14.734375 "/></g></g></g><path fill="#ffffff" d="M 383.375 131.765625 C 363.273438 129.074219 342.632812 129.5 322.246094 130.15625 C 302.089844 130.808594 281.945312 131.597656 261.820312 132.554688 C 241.722656 133.507812 221.644531 134.652344 201.636719 136.210938 C 181.382812 137.792969 161.222656 139.777344 141.199219 142.296875 C 120.523438 144.894531 100.03125 148.261719 79.757812 151.925781 C 76.996094 152.421875 74.210938 152.882812 71.457031 153.398438 C 70.796875 153.523438 72.5625 154.066406 73.054688 153.984375 C 75.878906 153.503906 78.683594 152.953125 81.492188 152.414062 C 97.980469 149.46875 114.695312 147.144531 131.570312 145.238281 C 151.660156 142.972656 171.964844 141.25 192.238281 139.8125 C 212.585938 138.367188 232.992188 137.257812 253.417969 136.355469 C 273.730469 135.460938 294.058594 134.773438 314.394531 134.140625 C 332.863281 133.566406 351.445312 132.859375 369.863281 134.148438 C 368.683594 134.351562 367.503906 134.554688 366.328125 134.761719 C 359.257812 136.011719 351.855469 136.714844 344.601562 137.355469 C 331.808594 138.484375 318.945312 139.316406 306.085938 140.074219 C 305.855469 140.089844 306.484375 140.644531 306.816406 140.628906 C 319.199219 140.042969 331.53125 139.144531 343.832031 138.074219 C 350.121094 137.523438 356.492188 136.898438 362.828125 136.652344 C 365.910156 136.53125 368.992188 136.398438 372.058594 136.175781 C 373.757812 136.050781 375.457031 135.921875 377.152344 135.785156 C 379.125 135.628906 381.128906 135.65625 383.089844 135.449219 C 384.558594 135.292969 384.855469 131.964844 383.375 131.765625 " fill-opacity="1" fill-rule="nonzero"/><g clip-path="url(#97a534e5a4)"><path fill="#ffffff" d="M 304.988281 140.476562 C 304.988281 140.855469 304.914062 141.21875 304.769531 141.566406 C 304.625 141.914062 304.421875 142.222656 304.152344 142.492188 C 303.886719 142.757812 303.578125 142.964844 303.230469 143.109375 C 302.882812 143.253906 302.519531 143.324219 302.140625 143.324219 C 301.761719 143.324219 301.398438 143.253906 301.050781 143.109375 C 300.703125 142.964844 300.394531 142.757812 300.125 142.492188 C 299.859375 142.222656 299.652344 141.914062 299.507812 141.566406 C 299.363281 141.21875 299.292969 140.855469 299.292969 140.476562 C 299.292969 140.097656 299.363281 139.734375 299.507812 139.386719 C 299.652344 139.039062 299.859375 138.730469 300.125 138.460938 C 300.394531 138.195312 300.703125 137.988281 301.050781 137.84375 C 301.398438 137.699219 301.761719 137.628906 302.140625 137.628906 C 302.519531 137.628906 302.882812 137.699219 303.230469 137.84375 C 303.578125 137.988281 303.886719 138.195312 304.152344 138.460938 C 304.421875 138.730469 304.625 139.039062 304.769531 139.386719 C 304.914062 139.734375 304.988281 140.097656 304.988281 140.476562 Z M 304.988281 140.476562 " fill-opacity="1" fill-rule="nonzero"/></g></svg>