<svg xmlns="http://www.w3.org/2000/svg" version="1.1" xmlns:xlink="http://www.w3.org/1999/xlink" xmlns:svgjs="http://svgjs.com/svgjs" width="1439" height="850" preserveAspectRatio="none" viewBox="0 0 1439 850"><g mask="url(&quot;#SvgjsMask1087&quot;)" fill="none"><rect width="1439" height="850" x="0" y="0" fill="rgba(36, 36, 36, 1)"></rect><path d="M1462.9833333333336 850L0 850 L0 628.46Q27.94 584.45, 71.95 612.39Q155.8 576.32, 191.86666666666667 660.17Q219.39 615.75, 263.81666666666666 643.27Q292.61 552.15, 383.73333333333335 580.94Q452.42 529.71, 503.65000000000003 598.39Q551.19 573.98, 575.6 621.52Q626.44 600.4, 647.5500000000001 651.24Q715.45 599.23, 767.4666666666667 667.13Q786.11 565.86, 887.3833333333333 584.51Q930.16 555.34, 959.3333333333334 598.12Q1028.33 595.16, 1031.2833333333333 664.16Q1069.96 582.92, 1151.2 621.6Q1203.58 554.07, 1271.1166666666668 606.45Q1348.07 563.49, 1391.0333333333335 640.44Q1418.89 596.35, 1462.9833333333336 624.21z" fill="#182f5d"></path><path d="M1439.0000000000002 850L0 850 L0 663.98Q63.01 607.07, 119.91666666666667 670.08Q169.99 648.21, 191.86666666666667 698.28Q225.38 611.88, 311.78333333333336 645.39Q385.69 599.38, 431.70000000000005 673.29Q515.78 637.45, 551.6166666666667 721.53Q597.76 647.75, 671.5333333333333 693.89Q721.22 623.66, 791.4499999999999 673.35Q848.17 658.13, 863.4 714.85Q906.89 686.39, 935.35 729.89Q936.95 659.53, 1007.3000000000001 661.13Q1035.78 617.65, 1079.25 646.13Q1163.21 610.18, 1199.1666666666667 694.14Q1269.02 644.08, 1319.0833333333335 713.93Q1345.19 620.12, 1439.0000000000002 646.23z" fill="#25467d"></path><path d="M1534.9333333333336 850L0 850 L0 724.38Q40.68 693.11, 71.95 733.79Q137.26 679.18, 191.86666666666667 744.49Q259 739.67, 263.81666666666666 806.8Q283.86 754.89, 335.76666666666665 774.93Q363.59 682.84, 455.68333333333334 710.66Q528.32 663.38, 575.6 736.01Q670.09 710.58, 695.5166666666667 805.07Q715.39 752.99, 767.4666666666667 772.86Q815.2 700.68, 887.3833333333333 748.41Q943.04 732.11, 959.3333333333334 787.77Q960.52 717.01, 1031.2833333333333 718.2Q1075.89 690.86, 1103.2333333333333 735.46Q1173.58 685.89, 1223.15 756.23Q1238.76 699.9, 1295.1000000000001 715.51Q1363.01 663.5, 1415.0166666666669 731.41Q1498.93 695.4, 1534.9333333333336 779.31z" fill="rgba(0, 119, 255, 1)"></path><path d="M1486.9666666666672 850L0 850 L0 805.07Q93.63 778.78, 119.91666666666667 872.41Q152.42 784.99, 239.83333333333334 817.49Q316.98 774.72, 359.75 851.86Q405.35 825.51, 431.7 871.11Q433.7 801.16, 503.65 803.17Q530.04 757.61, 575.6 784.01Q668.68 757.17, 695.5166666666667 850.25Q741.2 823.98, 767.4666666666667 869.66Q780.92 811.16, 839.4166666666667 824.62Q859.77 773.02, 911.3666666666668 793.38Q954.16 764.22, 983.3166666666668 807.01Q1039.45 791.2, 1055.2666666666669 847.33Q1109.43 781.58, 1175.1833333333336 835.74Q1213.09 753.73, 1295.1000000000004 791.63Q1343.19 767.77, 1367.0500000000004 815.85Q1452.07 780.96, 1486.9666666666672 865.98z" fill="rgba(0, 255, 255, 1)"></path></g><defs><mask id="SvgjsMask1087"><rect width="1439" height="850" fill="#ffffff"></rect></mask></defs></svg>