<svg xmlns="http://www.w3.org/2000/svg" xmlns:xlink="http://www.w3.org/1999/xlink" width="559" zoomAndPan="magnify" viewBox="0 0 419.25 181.5" height="242" preserveAspectRatio="xMidYMid meet" version="1.0"><defs><g/></defs><path stroke-linecap="butt" transform="matrix(0.800022, 0, 0, 0.800022, 20.374846, 40.15761)" fill="none" stroke-linejoin="miter" d="M 6.289085 85.000886 L 6.289085 6.565505 L 23.686076 6.565505 L 41.268609 43.127017 L 41.268609 6.565505 L 62.127421 6.565505 L 62.127421 85.000886 L 44.701134 85.000886 L 27.143014 48.302659 L 27.143014 85.000886 Z M 108.478708 73.712129 L 87.302522 73.712129 L 84.167841 85.000886 L 63.768002 85.000886 L 87.463651 6.565505 L 108.639836 6.565505 L 131.988815 85.000886 L 111.774517 85.000886 Z M 103.146821 55.35325 L 97.971179 32.756204 L 92.932253 55.35325 Z M 133.492681 85.000886 L 133.492681 6.565505 L 150.889672 6.565505 L 168.477087 43.127017 L 168.477087 6.565505 L 189.331016 6.565505 L 189.331016 85.000886 L 171.909612 85.000886 L 154.351492 48.302659 L 154.351492 85.000886 Z M 235.687186 73.712129 L 214.511 73.712129 L 211.371437 85.000886 L 190.971597 85.000886 L 214.672129 6.565505 L 235.848314 6.565505 L 259.197293 85.000886 L 238.982995 85.000886 Z M 230.350416 55.35325 L 225.179657 32.756204 L 220.140731 55.35325 Z M 316.778746 73.712129 L 295.60256 73.712129 L 292.462996 85.000886 L 272.063157 85.000886 L 295.763688 6.565505 L 316.939874 6.565505 L 340.288853 85.000886 L 320.074555 85.000886 Z M 311.446858 55.35325 L 306.271217 32.756204 L 301.232291 55.35325 Z M 387.123525 44.523464 C 395.272719 47.560491 399.349758 53.67849 399.349758 62.882343 C 399.349758 69.88899 396.810764 75.333179 391.732776 79.210027 C 386.679201 83.072228 379.438186 85.000886 370.019495 85.000886 L 341.792718 85.000886 L 341.792718 6.565505 L 372.99793 6.565505 C 380.321951 6.565505 385.941917 8.503929 389.857826 12.380778 C 393.788384 16.242978 395.756105 21.779938 395.756105 29.001422 C 395.756105 36.330326 392.880206 41.501085 387.123525 44.523464 Z M 362.192558 36.535399 L 371.279227 36.535399 C 374.94612 36.535399 376.777125 34.860639 376.777125 31.520886 C 376.777125 28.161601 374.94612 26.223177 371.279227 25.705613 L 362.192558 25.705613 Z M 372.538958 66.021907 C 376.918723 66.021907 379.106164 64.039538 379.106164 60.069919 C 379.106164 56.085652 376.918723 54.093518 372.538958 54.093518 L 362.192558 54.093518 L 362.192558 66.021907 Z M 444.929581 73.712129 L 423.748513 73.712129 L 420.613832 85.000886 L 400.213992 85.000886 L 423.909641 6.565505 L 445.085827 6.565505 L 468.434806 85.000886 L 448.22539 85.000886 Z M 439.592811 55.35325 L 434.41717 32.756204 L 429.378243 55.35325 Z M 439.592811 55.35325 " stroke="#ffffff" stroke-width="2.882329" stroke-opacity="1" stroke-miterlimit="4"/><g fill="#ff914d" fill-opacity="0.302"><g transform="translate(114.001841, 137.360301)"><g><path d="M 80.53125 -9.25 C 80.632812 -8.71875 80.550781 -8.289062 80.28125 -7.96875 C 80.019531 -7.644531 79.617188 -7.5625 79.078125 -7.71875 C 76.878906 -8.414062 74.640625 -8.867188 72.359375 -9.078125 C 70.085938 -9.296875 67.796875 -9.40625 65.484375 -9.40625 C 65.054688 -8.332031 64.613281 -7.234375 64.15625 -6.109375 C 63.707031 -4.984375 63.296875 -3.882812 62.921875 -2.8125 C 62.429688 -1.53125 61.984375 -0.242188 61.578125 1.046875 C 61.179688 2.335938 60.796875 3.625 60.421875 4.90625 C 60.253906 5.550781 60.09375 6.179688 59.9375 6.796875 C 59.78125 7.410156 59.644531 8.015625 59.53125 8.609375 C 59.476562 8.828125 59.453125 9.082031 59.453125 9.375 C 59.453125 9.664062 59.425781 9.921875 59.375 10.140625 C 59.375 10.242188 59.375 10.347656 59.375 10.453125 C 59.75 10.722656 60.097656 11.046875 60.421875 11.421875 C 60.742188 11.796875 60.957031 12.195312 61.0625 12.625 C 61.113281 13.113281 61.019531 13.53125 60.78125 13.875 C 60.539062 14.226562 60.125 14.296875 59.53125 14.078125 C 57.925781 13.484375 56.8125 12.625 56.1875 11.5 C 55.570312 10.375 55.28125 9.113281 55.3125 7.71875 C 55.34375 6.320312 55.515625 4.929688 55.828125 3.546875 C 56.367188 1.335938 57 -0.832031 57.71875 -2.96875 C 58.445312 -5.113281 59.238281 -7.234375 60.09375 -9.328125 C 53.820312 -9.117188 47.679688 -8.53125 41.671875 -7.5625 C 40.273438 -7.34375 38.828125 -7.101562 37.328125 -6.84375 C 30.410156 2.332031 24.507812 12.148438 19.625 22.609375 C 19.363281 23.085938 18.976562 23.300781 18.46875 23.25 C 17.957031 23.195312 17.429688 22.957031 16.890625 22.53125 C 16.359375 22.101562 15.929688 21.601562 15.609375 21.03125 C 15.285156 20.46875 15.234375 19.972656 15.453125 19.546875 C 19.523438 10.910156 24.269531 2.648438 29.6875 -5.234375 C 21.644531 -3.242188 13.757812 -0.640625 6.03125 2.578125 C 5.601562 2.785156 5.109375 2.726562 4.546875 2.40625 C 3.984375 2.09375 3.484375 1.664062 3.046875 1.125 C 2.617188 0.59375 2.378906 0.0703125 2.328125 -0.4375 C 2.273438 -0.945312 2.492188 -1.3125 2.984375 -1.53125 C 13.003906 -5.769531 23.273438 -8.878906 33.796875 -10.859375 C 36.046875 -13.804688 38.320312 -16.648438 40.625 -19.390625 C 45.664062 -25.179688 51.082031 -30.625 56.875 -35.71875 C 59.832031 -38.289062 62.914062 -40.8125 66.125 -43.28125 C 69.34375 -45.75 72.804688 -47.734375 76.515625 -49.234375 C 77.097656 -49.503906 77.75 -49.34375 78.46875 -48.75 C 79.195312 -48.164062 79.671875 -47.628906 79.890625 -47.140625 C 80.535156 -45.585938 80.679688 -43.976562 80.328125 -42.3125 C 79.984375 -40.65625 79.40625 -39.019531 78.59375 -37.40625 C 77.789062 -35.800781 77.070312 -34.273438 76.4375 -32.828125 C 75.25 -30.359375 74.066406 -27.898438 72.890625 -25.453125 C 71.710938 -23.015625 70.5625 -20.566406 69.4375 -18.109375 C 68.6875 -16.546875 67.988281 -15.039062 67.34375 -13.59375 C 69.113281 -13.488281 70.878906 -13.316406 72.640625 -13.078125 C 74.410156 -12.835938 76.15625 -12.421875 77.875 -11.828125 C 78.414062 -11.660156 78.96875 -11.335938 79.53125 -10.859375 C 80.09375 -10.378906 80.425781 -9.84375 80.53125 -9.25 Z M 61.875 -13.671875 C 63.101562 -16.460938 64.359375 -19.210938 65.640625 -21.921875 C 66.929688 -24.628906 68.222656 -27.328125 69.515625 -30.015625 C 70.097656 -31.296875 70.695312 -32.59375 71.3125 -33.90625 C 71.9375 -35.21875 72.539062 -36.519531 73.125 -37.8125 C 73.445312 -38.507812 73.769531 -39.21875 74.09375 -39.9375 C 74.414062 -40.664062 74.710938 -41.40625 74.984375 -42.15625 C 75.035156 -42.320312 75.097656 -42.484375 75.171875 -42.640625 C 75.253906 -42.796875 75.351562 -42.957031 75.46875 -43.125 C 72.625 -41.625 69.925781 -39.828125 67.375 -37.734375 C 64.832031 -35.640625 62.378906 -33.546875 60.015625 -31.453125 C 54.441406 -26.523438 49.238281 -21.242188 44.40625 -15.609375 C 43.875 -15.066406 43.363281 -14.5 42.875 -13.90625 C 42.394531 -13.320312 41.941406 -12.734375 41.515625 -12.140625 C 44.460938 -12.578125 47.425781 -12.914062 50.40625 -13.15625 C 53.382812 -13.394531 56.347656 -13.566406 59.296875 -13.671875 C 60.203125 -13.671875 61.0625 -13.671875 61.875 -13.671875 Z M 61.875 -13.671875 "/></g></g></g><g fill="#ff914d" fill-opacity="0.302"><g transform="translate(196.933952, 137.360301)"><g><path d="M 24.53125 -10.21875 C 25.125 -10.488281 25.675781 -10.4375 26.1875 -10.0625 C 26.695312 -9.6875 26.988281 -9.226562 27.0625 -8.6875 C 27.144531 -8.15625 26.835938 -7.726562 26.140625 -7.40625 C 23.785156 -6.332031 21.398438 -5.269531 18.984375 -4.21875 C 16.566406 -3.175781 14.15625 -2.117188 11.75 -1.046875 C 10.507812 -0.503906 9.191406 0.0703125 7.796875 0.6875 C 6.410156 1.300781 4.992188 1.675781 3.546875 1.8125 C 2.097656 1.945312 0.726562 1.609375 -0.5625 0.796875 C -2.007812 -0.109375 -2.921875 -1.3125 -3.296875 -2.8125 C -3.671875 -4.3125 -3.613281 -5.851562 -3.125 -7.4375 C -2.644531 -9.019531 -1.867188 -10.414062 -0.796875 -11.625 C 0.265625 -12.832031 1.519531 -13.632812 2.96875 -14.03125 C 4.425781 -14.4375 5.929688 -14.1875 7.484375 -13.28125 C 7.910156 -13.007812 8.390625 -12.601562 8.921875 -12.0625 C 9.460938 -11.53125 9.707031 -10.941406 9.65625 -10.296875 C 9.601562 -9.765625 9.347656 -9.441406 8.890625 -9.328125 C 8.429688 -9.222656 7.988281 -9.304688 7.5625 -9.578125 C 6.539062 -10.160156 5.597656 -10.179688 4.734375 -9.640625 C 3.878906 -9.109375 3.15625 -8.347656 2.5625 -7.359375 C 1.976562 -6.367188 1.550781 -5.5 1.28125 -4.75 C 0.90625 -3.726562 0.828125 -3.097656 1.046875 -2.859375 C 1.265625 -2.617188 1.425781 -2.5 1.53125 -2.5 C 2.5 -2.601562 3.957031 -2.9375 5.90625 -3.5 C 7.863281 -4.0625 10.007812 -4.742188 12.34375 -5.546875 C 14.675781 -6.359375 16.941406 -7.175781 19.140625 -8 C 21.347656 -8.832031 23.144531 -9.570312 24.53125 -10.21875 Z M 24.53125 -10.21875 "/></g></g></g><g fill="#ff914d" fill-opacity="0.302"><g transform="translate(222.030776, 137.360301)"><g><path d="M 15.84375 -44.734375 C 16.0625 -45.210938 16.4375 -45.410156 16.96875 -45.328125 C 17.507812 -45.253906 18.046875 -45 18.578125 -44.5625 C 19.117188 -44.132812 19.535156 -43.648438 19.828125 -43.109375 C 20.128906 -42.578125 20.171875 -42.097656 19.953125 -41.671875 C 15.335938 -32.285156 10.992188 -22.710938 6.921875 -12.953125 C 8.046875 -13.867188 9.25 -14.632812 10.53125 -15.25 C 11.820312 -15.863281 13.085938 -15.898438 14.328125 -15.359375 C 14.859375 -15.148438 15.378906 -14.707031 15.890625 -14.03125 C 16.398438 -13.363281 16.570312 -12.707031 16.40625 -12.0625 C 15.875 -9.914062 14.867188 -8.050781 13.390625 -6.46875 C 11.921875 -4.894531 10.140625 -3.734375 8.046875 -2.984375 C 8.253906 -1.472656 8.828125 -0.117188 9.765625 1.078125 C 10.710938 2.285156 11.9375 3.210938 13.4375 3.859375 C 13.96875 4.078125 14.179688 4.441406 14.078125 4.953125 C 13.972656 5.460938 13.691406 5.96875 13.234375 6.46875 C 12.773438 6.976562 12.265625 7.378906 11.703125 7.671875 C 11.140625 7.972656 10.644531 8.046875 10.21875 7.890625 C 8.070312 6.921875 6.445312 5.550781 5.34375 3.78125 C 4.25 2.007812 3.675781 0.078125 3.625 -2.015625 C 2.332031 -0.242188 1.285156 1.550781 0.484375 3.375 C 0.265625 3.96875 -0.160156 4.179688 -0.796875 4.015625 C -1.492188 3.910156 -2.21875 3.441406 -2.96875 2.609375 C -3.726562 1.785156 -3.972656 1.050781 -3.703125 0.40625 C 2.035156 -14.988281 8.550781 -30.035156 15.84375 -44.734375 Z M 15.84375 -44.734375 "/></g></g></g><g fill="#ff914d" fill-opacity="0.302"><g transform="translate(243.266551, 137.360301)"><g><path d="M 30.171875 -10.296875 C 30.703125 -10.722656 31.273438 -10.789062 31.890625 -10.5 C 32.515625 -10.207031 32.988281 -9.765625 33.3125 -9.171875 C 33.632812 -8.578125 33.550781 -8.066406 33.0625 -7.640625 C 31.1875 -5.984375 29.296875 -4.347656 27.390625 -2.734375 C 25.484375 -1.128906 23.457031 0.289062 21.3125 1.53125 C 20.351562 2.113281 19.296875 2.660156 18.140625 3.171875 C 16.984375 3.679688 15.816406 3.859375 14.640625 3.703125 C 13.410156 3.597656 12.335938 3.113281 11.421875 2.25 C 10.515625 1.394531 9.875 0.378906 9.5 -0.796875 C 9.28125 -1.554688 9.195312 -2.28125 9.25 -2.96875 C 9.300781 -3.664062 9.4375 -4.335938 9.65625 -4.984375 C 7.507812 -3.585938 5.46875 -1.988281 3.53125 -0.1875 C 1.601562 1.601562 -0.59375 2.976562 -3.0625 3.9375 C -3.59375 4.15625 -4.164062 4.0625 -4.78125 3.65625 C -5.40625 3.257812 -5.90625 2.738281 -6.28125 2.09375 C -6.65625 1.445312 -6.785156 0.859375 -6.671875 0.328125 C -6.140625 -2.085938 -5.21875 -4.4375 -3.90625 -6.71875 C -2.59375 -9 -0.941406 -10.890625 1.046875 -12.390625 C 2.648438 -13.566406 4.347656 -14.035156 6.140625 -13.796875 C 7.941406 -13.554688 9.4375 -12.6875 10.625 -11.1875 C 11.050781 -11.34375 11.476562 -11.503906 11.90625 -11.671875 C 12.445312 -11.773438 13.0625 -11.585938 13.75 -11.109375 C 14.1875 -10.785156 14.59375 -10.394531 14.96875 -9.9375 C 15.34375 -9.476562 15.554688 -9.035156 15.609375 -8.609375 C 15.660156 -8.335938 15.632812 -8.097656 15.53125 -7.890625 C 15.476562 -7.242188 15.34375 -6.625 15.125 -6.03125 C 14.90625 -5.445312 14.691406 -4.832031 14.484375 -4.1875 C 14.265625 -3.59375 14.101562 -3 14 -2.40625 C 13.894531 -1.820312 13.757812 -1.207031 13.59375 -0.5625 C 13.644531 -0.5625 13.679688 -0.5625 13.703125 -0.5625 C 13.734375 -0.5625 13.78125 -0.5625 13.84375 -0.5625 C 15.019531 -0.71875 16.382812 -1.171875 17.9375 -1.921875 C 19.5 -2.679688 21.066406 -3.582031 22.640625 -4.625 C 24.222656 -5.664062 25.6875 -6.695312 27.03125 -7.71875 C 28.375 -8.738281 29.421875 -9.597656 30.171875 -10.296875 Z M 1.125 -4.90625 C 2.195312 -5.757812 3.242188 -6.601562 4.265625 -7.4375 C 5.285156 -8.269531 6.359375 -9.035156 7.484375 -9.734375 C 7.429688 -9.734375 7.40625 -9.734375 7.40625 -9.734375 C 7.289062 -9.734375 7.15625 -9.71875 7 -9.6875 C 6.84375 -9.664062 6.679688 -9.628906 6.515625 -9.578125 C 6.085938 -9.460938 5.671875 -9.269531 5.265625 -9 C 4.867188 -8.738281 4.507812 -8.472656 4.1875 -8.203125 C 3.59375 -7.722656 3.050781 -7.210938 2.5625 -6.671875 C 2.082031 -6.140625 1.65625 -5.601562 1.28125 -5.0625 C 1.226562 -5.007812 1.203125 -4.96875 1.203125 -4.9375 C 1.203125 -4.914062 1.175781 -4.90625 1.125 -4.90625 Z M 1.125 -4.90625 "/></g></g></g><g fill="#ff914d" fill-opacity="0.302"><g transform="translate(273.913623, 137.360301)"><g><path d="M 37.484375 -10.453125 C 38.023438 -10.722656 38.5625 -10.671875 39.09375 -10.296875 C 39.632812 -9.921875 39.984375 -9.4375 40.140625 -8.84375 C 40.304688 -8.257812 40.039062 -7.78125 39.34375 -7.40625 C 36.925781 -6.007812 34.457031 -4.53125 31.9375 -2.96875 C 29.414062 -1.414062 26.816406 -0.1875 24.140625 0.71875 C 22.640625 1.207031 21.160156 1.113281 19.703125 0.4375 C 18.253906 -0.226562 17.453125 -1.445312 17.296875 -3.21875 C 17.242188 -4.019531 17.320312 -4.835938 17.53125 -5.671875 C 17.75 -6.503906 17.992188 -7.296875 18.265625 -8.046875 C 18.472656 -8.578125 18.6875 -9.109375 18.90625 -9.640625 C 19.125 -10.179688 19.3125 -10.722656 19.46875 -11.265625 C 12.925781 -7.617188 7.132812 -3.003906 2.09375 2.578125 C 1.820312 2.898438 1.429688 2.96875 0.921875 2.78125 C 0.410156 2.59375 0.0234375 2.390625 -0.234375 2.171875 C -2.003906 0.828125 -2.890625 -0.6875 -2.890625 -2.375 C -2.890625 -4.0625 -2.570312 -5.867188 -1.9375 -7.796875 C -0.269531 -12.410156 1.554688 -16.972656 3.546875 -21.484375 C 5.578125 -26.035156 7.8125 -30.5 10.25 -34.875 C 12.695312 -39.25 15.285156 -43.5 18.015625 -47.625 C 18.285156 -48.050781 18.6875 -48.1875 19.21875 -48.03125 C 19.757812 -47.875 20.269531 -47.550781 20.75 -47.0625 C 21.238281 -46.582031 21.601562 -46.046875 21.84375 -45.453125 C 22.082031 -44.867188 22.066406 -44.359375 21.796875 -43.921875 C 17.078125 -36.847656 12.921875 -29.53125 9.328125 -21.96875 C 7.554688 -18.207031 5.894531 -14.367188 4.34375 -10.453125 C 3.695312 -8.796875 3.050781 -7.054688 2.40625 -5.234375 C 4.445312 -7.109375 6.566406 -8.847656 8.765625 -10.453125 C 10.960938 -12.066406 13.242188 -13.570312 15.609375 -14.96875 C 16.785156 -15.664062 17.921875 -16.144531 19.015625 -16.40625 C 20.117188 -16.675781 21.234375 -16.300781 22.359375 -15.28125 C 23.273438 -14.425781 23.800781 -13.445312 23.9375 -12.34375 C 24.070312 -11.25 24.003906 -10.140625 23.734375 -9.015625 C 23.578125 -8.097656 23.320312 -7.207031 22.96875 -6.34375 C 22.625 -5.488281 22.316406 -4.632812 22.046875 -3.78125 C 24.617188 -4.582031 27.257812 -5.5625 29.96875 -6.71875 C 32.675781 -7.875 35.179688 -9.117188 37.484375 -10.453125 Z M 37.484375 -10.453125 "/></g></g></g><g fill="#ff914d" fill-opacity="0.502"><g transform="translate(111.997775, 132.639017)"><g><path d="M 80.53125 -9.25 C 80.632812 -8.71875 80.550781 -8.289062 80.28125 -7.96875 C 80.019531 -7.644531 79.617188 -7.5625 79.078125 -7.71875 C 76.878906 -8.414062 74.640625 -8.867188 72.359375 -9.078125 C 70.085938 -9.296875 67.796875 -9.40625 65.484375 -9.40625 C 65.054688 -8.332031 64.613281 -7.234375 64.15625 -6.109375 C 63.707031 -4.984375 63.296875 -3.882812 62.921875 -2.8125 C 62.429688 -1.53125 61.984375 -0.242188 61.578125 1.046875 C 61.179688 2.335938 60.796875 3.625 60.421875 4.90625 C 60.253906 5.550781 60.09375 6.179688 59.9375 6.796875 C 59.78125 7.410156 59.644531 8.015625 59.53125 8.609375 C 59.476562 8.828125 59.453125 9.082031 59.453125 9.375 C 59.453125 9.664062 59.425781 9.921875 59.375 10.140625 C 59.375 10.242188 59.375 10.347656 59.375 10.453125 C 59.75 10.722656 60.097656 11.046875 60.421875 11.421875 C 60.742188 11.796875 60.957031 12.195312 61.0625 12.625 C 61.113281 13.113281 61.019531 13.53125 60.78125 13.875 C 60.539062 14.226562 60.125 14.296875 59.53125 14.078125 C 57.925781 13.484375 56.8125 12.625 56.1875 11.5 C 55.570312 10.375 55.28125 9.113281 55.3125 7.71875 C 55.34375 6.320312 55.515625 4.929688 55.828125 3.546875 C 56.367188 1.335938 57 -0.832031 57.71875 -2.96875 C 58.445312 -5.113281 59.238281 -7.234375 60.09375 -9.328125 C 53.820312 -9.117188 47.679688 -8.53125 41.671875 -7.5625 C 40.273438 -7.34375 38.828125 -7.101562 37.328125 -6.84375 C 30.410156 2.332031 24.507812 12.148438 19.625 22.609375 C 19.363281 23.085938 18.976562 23.300781 18.46875 23.25 C 17.957031 23.195312 17.429688 22.957031 16.890625 22.53125 C 16.359375 22.101562 15.929688 21.601562 15.609375 21.03125 C 15.285156 20.46875 15.234375 19.972656 15.453125 19.546875 C 19.523438 10.910156 24.269531 2.648438 29.6875 -5.234375 C 21.644531 -3.242188 13.757812 -0.640625 6.03125 2.578125 C 5.601562 2.785156 5.109375 2.726562 4.546875 2.40625 C 3.984375 2.09375 3.484375 1.664062 3.046875 1.125 C 2.617188 0.59375 2.378906 0.0703125 2.328125 -0.4375 C 2.273438 -0.945312 2.492188 -1.3125 2.984375 -1.53125 C 13.003906 -5.769531 23.273438 -8.878906 33.796875 -10.859375 C 36.046875 -13.804688 38.320312 -16.648438 40.625 -19.390625 C 45.664062 -25.179688 51.082031 -30.625 56.875 -35.71875 C 59.832031 -38.289062 62.914062 -40.8125 66.125 -43.28125 C 69.34375 -45.75 72.804688 -47.734375 76.515625 -49.234375 C 77.097656 -49.503906 77.75 -49.34375 78.46875 -48.75 C 79.195312 -48.164062 79.671875 -47.628906 79.890625 -47.140625 C 80.535156 -45.585938 80.679688 -43.976562 80.328125 -42.3125 C 79.984375 -40.65625 79.40625 -39.019531 78.59375 -37.40625 C 77.789062 -35.800781 77.070312 -34.273438 76.4375 -32.828125 C 75.25 -30.359375 74.066406 -27.898438 72.890625 -25.453125 C 71.710938 -23.015625 70.5625 -20.566406 69.4375 -18.109375 C 68.6875 -16.546875 67.988281 -15.039062 67.34375 -13.59375 C 69.113281 -13.488281 70.878906 -13.316406 72.640625 -13.078125 C 74.410156 -12.835938 76.15625 -12.421875 77.875 -11.828125 C 78.414062 -11.660156 78.96875 -11.335938 79.53125 -10.859375 C 80.09375 -10.378906 80.425781 -9.84375 80.53125 -9.25 Z M 61.875 -13.671875 C 63.101562 -16.460938 64.359375 -19.210938 65.640625 -21.921875 C 66.929688 -24.628906 68.222656 -27.328125 69.515625 -30.015625 C 70.097656 -31.296875 70.695312 -32.59375 71.3125 -33.90625 C 71.9375 -35.21875 72.539062 -36.519531 73.125 -37.8125 C 73.445312 -38.507812 73.769531 -39.21875 74.09375 -39.9375 C 74.414062 -40.664062 74.710938 -41.40625 74.984375 -42.15625 C 75.035156 -42.320312 75.097656 -42.484375 75.171875 -42.640625 C 75.253906 -42.796875 75.351562 -42.957031 75.46875 -43.125 C 72.625 -41.625 69.925781 -39.828125 67.375 -37.734375 C 64.832031 -35.640625 62.378906 -33.546875 60.015625 -31.453125 C 54.441406 -26.523438 49.238281 -21.242188 44.40625 -15.609375 C 43.875 -15.066406 43.363281 -14.5 42.875 -13.90625 C 42.394531 -13.320312 41.941406 -12.734375 41.515625 -12.140625 C 44.460938 -12.578125 47.425781 -12.914062 50.40625 -13.15625 C 53.382812 -13.394531 56.347656 -13.566406 59.296875 -13.671875 C 60.203125 -13.671875 61.0625 -13.671875 61.875 -13.671875 Z M 61.875 -13.671875 "/></g></g></g><g fill="#ff914d" fill-opacity="0.502"><g transform="translate(194.929887, 132.639017)"><g><path d="M 24.53125 -10.21875 C 25.125 -10.488281 25.675781 -10.4375 26.1875 -10.0625 C 26.695312 -9.6875 26.988281 -9.226562 27.0625 -8.6875 C 27.144531 -8.15625 26.835938 -7.726562 26.140625 -7.40625 C 23.785156 -6.332031 21.398438 -5.269531 18.984375 -4.21875 C 16.566406 -3.175781 14.15625 -2.117188 11.75 -1.046875 C 10.507812 -0.503906 9.191406 0.0703125 7.796875 0.6875 C 6.410156 1.300781 4.992188 1.675781 3.546875 1.8125 C 2.097656 1.945312 0.726562 1.609375 -0.5625 0.796875 C -2.007812 -0.109375 -2.921875 -1.3125 -3.296875 -2.8125 C -3.671875 -4.3125 -3.613281 -5.851562 -3.125 -7.4375 C -2.644531 -9.019531 -1.867188 -10.414062 -0.796875 -11.625 C 0.265625 -12.832031 1.519531 -13.632812 2.96875 -14.03125 C 4.425781 -14.4375 5.929688 -14.1875 7.484375 -13.28125 C 7.910156 -13.007812 8.390625 -12.601562 8.921875 -12.0625 C 9.460938 -11.53125 9.707031 -10.941406 9.65625 -10.296875 C 9.601562 -9.765625 9.347656 -9.441406 8.890625 -9.328125 C 8.429688 -9.222656 7.988281 -9.304688 7.5625 -9.578125 C 6.539062 -10.160156 5.597656 -10.179688 4.734375 -9.640625 C 3.878906 -9.109375 3.15625 -8.347656 2.5625 -7.359375 C 1.976562 -6.367188 1.550781 -5.5 1.28125 -4.75 C 0.90625 -3.726562 0.828125 -3.097656 1.046875 -2.859375 C 1.265625 -2.617188 1.425781 -2.5 1.53125 -2.5 C 2.5 -2.601562 3.957031 -2.9375 5.90625 -3.5 C 7.863281 -4.0625 10.007812 -4.742188 12.34375 -5.546875 C 14.675781 -6.359375 16.941406 -7.175781 19.140625 -8 C 21.347656 -8.832031 23.144531 -9.570312 24.53125 -10.21875 Z M 24.53125 -10.21875 "/></g></g></g><g fill="#ff914d" fill-opacity="0.502"><g transform="translate(220.026711, 132.639017)"><g><path d="M 15.84375 -44.734375 C 16.0625 -45.210938 16.4375 -45.410156 16.96875 -45.328125 C 17.507812 -45.253906 18.046875 -45 18.578125 -44.5625 C 19.117188 -44.132812 19.535156 -43.648438 19.828125 -43.109375 C 20.128906 -42.578125 20.171875 -42.097656 19.953125 -41.671875 C 15.335938 -32.285156 10.992188 -22.710938 6.921875 -12.953125 C 8.046875 -13.867188 9.25 -14.632812 10.53125 -15.25 C 11.820312 -15.863281 13.085938 -15.898438 14.328125 -15.359375 C 14.859375 -15.148438 15.378906 -14.707031 15.890625 -14.03125 C 16.398438 -13.363281 16.570312 -12.707031 16.40625 -12.0625 C 15.875 -9.914062 14.867188 -8.050781 13.390625 -6.46875 C 11.921875 -4.894531 10.140625 -3.734375 8.046875 -2.984375 C 8.253906 -1.472656 8.828125 -0.117188 9.765625 1.078125 C 10.710938 2.285156 11.9375 3.210938 13.4375 3.859375 C 13.96875 4.078125 14.179688 4.441406 14.078125 4.953125 C 13.972656 5.460938 13.691406 5.96875 13.234375 6.46875 C 12.773438 6.976562 12.265625 7.378906 11.703125 7.671875 C 11.140625 7.972656 10.644531 8.046875 10.21875 7.890625 C 8.070312 6.921875 6.445312 5.550781 5.34375 3.78125 C 4.25 2.007812 3.675781 0.078125 3.625 -2.015625 C 2.332031 -0.242188 1.285156 1.550781 0.484375 3.375 C 0.265625 3.96875 -0.160156 4.179688 -0.796875 4.015625 C -1.492188 3.910156 -2.21875 3.441406 -2.96875 2.609375 C -3.726562 1.785156 -3.972656 1.050781 -3.703125 0.40625 C 2.035156 -14.988281 8.550781 -30.035156 15.84375 -44.734375 Z M 15.84375 -44.734375 "/></g></g></g><g fill="#ff914d" fill-opacity="0.502"><g transform="translate(241.262486, 132.639017)"><g><path d="M 30.171875 -10.296875 C 30.703125 -10.722656 31.273438 -10.789062 31.890625 -10.5 C 32.515625 -10.207031 32.988281 -9.765625 33.3125 -9.171875 C 33.632812 -8.578125 33.550781 -8.066406 33.0625 -7.640625 C 31.1875 -5.984375 29.296875 -4.347656 27.390625 -2.734375 C 25.484375 -1.128906 23.457031 0.289062 21.3125 1.53125 C 20.351562 2.113281 19.296875 2.660156 18.140625 3.171875 C 16.984375 3.679688 15.816406 3.859375 14.640625 3.703125 C 13.410156 3.597656 12.335938 3.113281 11.421875 2.25 C 10.515625 1.394531 9.875 0.378906 9.5 -0.796875 C 9.28125 -1.554688 9.195312 -2.28125 9.25 -2.96875 C 9.300781 -3.664062 9.4375 -4.335938 9.65625 -4.984375 C 7.507812 -3.585938 5.46875 -1.988281 3.53125 -0.1875 C 1.601562 1.601562 -0.59375 2.976562 -3.0625 3.9375 C -3.59375 4.15625 -4.164062 4.0625 -4.78125 3.65625 C -5.40625 3.257812 -5.90625 2.738281 -6.28125 2.09375 C -6.65625 1.445312 -6.785156 0.859375 -6.671875 0.328125 C -6.140625 -2.085938 -5.21875 -4.4375 -3.90625 -6.71875 C -2.59375 -9 -0.941406 -10.890625 1.046875 -12.390625 C 2.648438 -13.566406 4.347656 -14.035156 6.140625 -13.796875 C 7.941406 -13.554688 9.4375 -12.6875 10.625 -11.1875 C 11.050781 -11.34375 11.476562 -11.503906 11.90625 -11.671875 C 12.445312 -11.773438 13.0625 -11.585938 13.75 -11.109375 C 14.1875 -10.785156 14.59375 -10.394531 14.96875 -9.9375 C 15.34375 -9.476562 15.554688 -9.035156 15.609375 -8.609375 C 15.660156 -8.335938 15.632812 -8.097656 15.53125 -7.890625 C 15.476562 -7.242188 15.34375 -6.625 15.125 -6.03125 C 14.90625 -5.445312 14.691406 -4.832031 14.484375 -4.1875 C 14.265625 -3.59375 14.101562 -3 14 -2.40625 C 13.894531 -1.820312 13.757812 -1.207031 13.59375 -0.5625 C 13.644531 -0.5625 13.679688 -0.5625 13.703125 -0.5625 C 13.734375 -0.5625 13.78125 -0.5625 13.84375 -0.5625 C 15.019531 -0.71875 16.382812 -1.171875 17.9375 -1.921875 C 19.5 -2.679688 21.066406 -3.582031 22.640625 -4.625 C 24.222656 -5.664062 25.6875 -6.695312 27.03125 -7.71875 C 28.375 -8.738281 29.421875 -9.597656 30.171875 -10.296875 Z M 1.125 -4.90625 C 2.195312 -5.757812 3.242188 -6.601562 4.265625 -7.4375 C 5.285156 -8.269531 6.359375 -9.035156 7.484375 -9.734375 C 7.429688 -9.734375 7.40625 -9.734375 7.40625 -9.734375 C 7.289062 -9.734375 7.15625 -9.71875 7 -9.6875 C 6.84375 -9.664062 6.679688 -9.628906 6.515625 -9.578125 C 6.085938 -9.460938 5.671875 -9.269531 5.265625 -9 C 4.867188 -8.738281 4.507812 -8.472656 4.1875 -8.203125 C 3.59375 -7.722656 3.050781 -7.210938 2.5625 -6.671875 C 2.082031 -6.140625 1.65625 -5.601562 1.28125 -5.0625 C 1.226562 -5.007812 1.203125 -4.96875 1.203125 -4.9375 C 1.203125 -4.914062 1.175781 -4.90625 1.125 -4.90625 Z M 1.125 -4.90625 "/></g></g></g><g fill="#ff914d" fill-opacity="0.502"><g transform="translate(271.909558, 132.639017)"><g><path d="M 37.484375 -10.453125 C 38.023438 -10.722656 38.5625 -10.671875 39.09375 -10.296875 C 39.632812 -9.921875 39.984375 -9.4375 40.140625 -8.84375 C 40.304688 -8.257812 40.039062 -7.78125 39.34375 -7.40625 C 36.925781 -6.007812 34.457031 -4.53125 31.9375 -2.96875 C 29.414062 -1.414062 26.816406 -0.1875 24.140625 0.71875 C 22.640625 1.207031 21.160156 1.113281 19.703125 0.4375 C 18.253906 -0.226562 17.453125 -1.445312 17.296875 -3.21875 C 17.242188 -4.019531 17.320312 -4.835938 17.53125 -5.671875 C 17.75 -6.503906 17.992188 -7.296875 18.265625 -8.046875 C 18.472656 -8.578125 18.6875 -9.109375 18.90625 -9.640625 C 19.125 -10.179688 19.3125 -10.722656 19.46875 -11.265625 C 12.925781 -7.617188 7.132812 -3.003906 2.09375 2.578125 C 1.820312 2.898438 1.429688 2.96875 0.921875 2.78125 C 0.410156 2.59375 0.0234375 2.390625 -0.234375 2.171875 C -2.003906 0.828125 -2.890625 -0.6875 -2.890625 -2.375 C -2.890625 -4.0625 -2.570312 -5.867188 -1.9375 -7.796875 C -0.269531 -12.410156 1.554688 -16.972656 3.546875 -21.484375 C 5.578125 -26.035156 7.8125 -30.5 10.25 -34.875 C 12.695312 -39.25 15.285156 -43.5 18.015625 -47.625 C 18.285156 -48.050781 18.6875 -48.1875 19.21875 -48.03125 C 19.757812 -47.875 20.269531 -47.550781 20.75 -47.0625 C 21.238281 -46.582031 21.601562 -46.046875 21.84375 -45.453125 C 22.082031 -44.867188 22.066406 -44.359375 21.796875 -43.921875 C 17.078125 -36.847656 12.921875 -29.53125 9.328125 -21.96875 C 7.554688 -18.207031 5.894531 -14.367188 4.34375 -10.453125 C 3.695312 -8.796875 3.050781 -7.054688 2.40625 -5.234375 C 4.445312 -7.109375 6.566406 -8.847656 8.765625 -10.453125 C 10.960938 -12.066406 13.242188 -13.570312 15.609375 -14.96875 C 16.785156 -15.664062 17.921875 -16.144531 19.015625 -16.40625 C 20.117188 -16.675781 21.234375 -16.300781 22.359375 -15.28125 C 23.273438 -14.425781 23.800781 -13.445312 23.9375 -12.34375 C 24.070312 -11.25 24.003906 -10.140625 23.734375 -9.015625 C 23.578125 -8.097656 23.320312 -7.207031 22.96875 -6.34375 C 22.625 -5.488281 22.316406 -4.632812 22.046875 -3.78125 C 24.617188 -4.582031 27.257812 -5.5625 29.96875 -6.71875 C 32.675781 -7.875 35.179688 -9.117188 37.484375 -10.453125 Z M 37.484375 -10.453125 "/></g></g></g><g fill="#ffffff" fill-opacity="1"><g transform="translate(109.99371, 127.917736)"><g><path d="M 80.53125 -9.25 C 80.632812 -8.71875 80.550781 -8.289062 80.28125 -7.96875 C 80.019531 -7.644531 79.617188 -7.5625 79.078125 -7.71875 C 76.878906 -8.414062 74.640625 -8.867188 72.359375 -9.078125 C 70.085938 -9.296875 67.796875 -9.40625 65.484375 -9.40625 C 65.054688 -8.332031 64.613281 -7.234375 64.15625 -6.109375 C 63.707031 -4.984375 63.296875 -3.882812 62.921875 -2.8125 C 62.429688 -1.53125 61.984375 -0.242188 61.578125 1.046875 C 61.179688 2.335938 60.796875 3.625 60.421875 4.90625 C 60.253906 5.550781 60.09375 6.179688 59.9375 6.796875 C 59.78125 7.410156 59.644531 8.015625 59.53125 8.609375 C 59.476562 8.828125 59.453125 9.082031 59.453125 9.375 C 59.453125 9.664062 59.425781 9.921875 59.375 10.140625 C 59.375 10.242188 59.375 10.347656 59.375 10.453125 C 59.75 10.722656 60.097656 11.046875 60.421875 11.421875 C 60.742188 11.796875 60.957031 12.195312 61.0625 12.625 C 61.113281 13.113281 61.019531 13.53125 60.78125 13.875 C 60.539062 14.226562 60.125 14.296875 59.53125 14.078125 C 57.925781 13.484375 56.8125 12.625 56.1875 11.5 C 55.570312 10.375 55.28125 9.113281 55.3125 7.71875 C 55.34375 6.320312 55.515625 4.929688 55.828125 3.546875 C 56.367188 1.335938 57 -0.832031 57.71875 -2.96875 C 58.445312 -5.113281 59.238281 -7.234375 60.09375 -9.328125 C 53.820312 -9.117188 47.679688 -8.53125 41.671875 -7.5625 C 40.273438 -7.34375 38.828125 -7.101562 37.328125 -6.84375 C 30.410156 2.332031 24.507812 12.148438 19.625 22.609375 C 19.363281 23.085938 18.976562 23.300781 18.46875 23.25 C 17.957031 23.195312 17.429688 22.957031 16.890625 22.53125 C 16.359375 22.101562 15.929688 21.601562 15.609375 21.03125 C 15.285156 20.46875 15.234375 19.972656 15.453125 19.546875 C 19.523438 10.910156 24.269531 2.648438 29.6875 -5.234375 C 21.644531 -3.242188 13.757812 -0.640625 6.03125 2.578125 C 5.601562 2.785156 5.109375 2.726562 4.546875 2.40625 C 3.984375 2.09375 3.484375 1.664062 3.046875 1.125 C 2.617188 0.59375 2.378906 0.0703125 2.328125 -0.4375 C 2.273438 -0.945312 2.492188 -1.3125 2.984375 -1.53125 C 13.003906 -5.769531 23.273438 -8.878906 33.796875 -10.859375 C 36.046875 -13.804688 38.320312 -16.648438 40.625 -19.390625 C 45.664062 -25.179688 51.082031 -30.625 56.875 -35.71875 C 59.832031 -38.289062 62.914062 -40.8125 66.125 -43.28125 C 69.34375 -45.75 72.804688 -47.734375 76.515625 -49.234375 C 77.097656 -49.503906 77.75 -49.34375 78.46875 -48.75 C 79.195312 -48.164062 79.671875 -47.628906 79.890625 -47.140625 C 80.535156 -45.585938 80.679688 -43.976562 80.328125 -42.3125 C 79.984375 -40.65625 79.40625 -39.019531 78.59375 -37.40625 C 77.789062 -35.800781 77.070312 -34.273438 76.4375 -32.828125 C 75.25 -30.359375 74.066406 -27.898438 72.890625 -25.453125 C 71.710938 -23.015625 70.5625 -20.566406 69.4375 -18.109375 C 68.6875 -16.546875 67.988281 -15.039062 67.34375 -13.59375 C 69.113281 -13.488281 70.878906 -13.316406 72.640625 -13.078125 C 74.410156 -12.835938 76.15625 -12.421875 77.875 -11.828125 C 78.414062 -11.660156 78.96875 -11.335938 79.53125 -10.859375 C 80.09375 -10.378906 80.425781 -9.84375 80.53125 -9.25 Z M 61.875 -13.671875 C 63.101562 -16.460938 64.359375 -19.210938 65.640625 -21.921875 C 66.929688 -24.628906 68.222656 -27.328125 69.515625 -30.015625 C 70.097656 -31.296875 70.695312 -32.59375 71.3125 -33.90625 C 71.9375 -35.21875 72.539062 -36.519531 73.125 -37.8125 C 73.445312 -38.507812 73.769531 -39.21875 74.09375 -39.9375 C 74.414062 -40.664062 74.710938 -41.40625 74.984375 -42.15625 C 75.035156 -42.320312 75.097656 -42.484375 75.171875 -42.640625 C 75.253906 -42.796875 75.351562 -42.957031 75.46875 -43.125 C 72.625 -41.625 69.925781 -39.828125 67.375 -37.734375 C 64.832031 -35.640625 62.378906 -33.546875 60.015625 -31.453125 C 54.441406 -26.523438 49.238281 -21.242188 44.40625 -15.609375 C 43.875 -15.066406 43.363281 -14.5 42.875 -13.90625 C 42.394531 -13.320312 41.941406 -12.734375 41.515625 -12.140625 C 44.460938 -12.578125 47.425781 -12.914062 50.40625 -13.15625 C 53.382812 -13.394531 56.347656 -13.566406 59.296875 -13.671875 C 60.203125 -13.671875 61.0625 -13.671875 61.875 -13.671875 Z M 61.875 -13.671875 "/></g></g></g><g fill="#ffffff" fill-opacity="1"><g transform="translate(192.925821, 127.917736)"><g><path d="M 24.53125 -10.21875 C 25.125 -10.488281 25.675781 -10.4375 26.1875 -10.0625 C 26.695312 -9.6875 26.988281 -9.226562 27.0625 -8.6875 C 27.144531 -8.15625 26.835938 -7.726562 26.140625 -7.40625 C 23.785156 -6.332031 21.398438 -5.269531 18.984375 -4.21875 C 16.566406 -3.175781 14.15625 -2.117188 11.75 -1.046875 C 10.507812 -0.503906 9.191406 0.0703125 7.796875 0.6875 C 6.410156 1.300781 4.992188 1.675781 3.546875 1.8125 C 2.097656 1.945312 0.726562 1.609375 -0.5625 0.796875 C -2.007812 -0.109375 -2.921875 -1.3125 -3.296875 -2.8125 C -3.671875 -4.3125 -3.613281 -5.851562 -3.125 -7.4375 C -2.644531 -9.019531 -1.867188 -10.414062 -0.796875 -11.625 C 0.265625 -12.832031 1.519531 -13.632812 2.96875 -14.03125 C 4.425781 -14.4375 5.929688 -14.1875 7.484375 -13.28125 C 7.910156 -13.007812 8.390625 -12.601562 8.921875 -12.0625 C 9.460938 -11.53125 9.707031 -10.941406 9.65625 -10.296875 C 9.601562 -9.765625 9.347656 -9.441406 8.890625 -9.328125 C 8.429688 -9.222656 7.988281 -9.304688 7.5625 -9.578125 C 6.539062 -10.160156 5.597656 -10.179688 4.734375 -9.640625 C 3.878906 -9.109375 3.15625 -8.347656 2.5625 -7.359375 C 1.976562 -6.367188 1.550781 -5.5 1.28125 -4.75 C 0.90625 -3.726562 0.828125 -3.097656 1.046875 -2.859375 C 1.265625 -2.617188 1.425781 -2.5 1.53125 -2.5 C 2.5 -2.601562 3.957031 -2.9375 5.90625 -3.5 C 7.863281 -4.0625 10.007812 -4.742188 12.34375 -5.546875 C 14.675781 -6.359375 16.941406 -7.175781 19.140625 -8 C 21.347656 -8.832031 23.144531 -9.570312 24.53125 -10.21875 Z M 24.53125 -10.21875 "/></g></g></g><g fill="#ffffff" fill-opacity="1"><g transform="translate(218.022645, 127.917736)"><g><path d="M 15.84375 -44.734375 C 16.0625 -45.210938 16.4375 -45.410156 16.96875 -45.328125 C 17.507812 -45.253906 18.046875 -45 18.578125 -44.5625 C 19.117188 -44.132812 19.535156 -43.648438 19.828125 -43.109375 C 20.128906 -42.578125 20.171875 -42.097656 19.953125 -41.671875 C 15.335938 -32.285156 10.992188 -22.710938 6.921875 -12.953125 C 8.046875 -13.867188 9.25 -14.632812 10.53125 -15.25 C 11.820312 -15.863281 13.085938 -15.898438 14.328125 -15.359375 C 14.859375 -15.148438 15.378906 -14.707031 15.890625 -14.03125 C 16.398438 -13.363281 16.570312 -12.707031 16.40625 -12.0625 C 15.875 -9.914062 14.867188 -8.050781 13.390625 -6.46875 C 11.921875 -4.894531 10.140625 -3.734375 8.046875 -2.984375 C 8.253906 -1.472656 8.828125 -0.117188 9.765625 1.078125 C 10.710938 2.285156 11.9375 3.210938 13.4375 3.859375 C 13.96875 4.078125 14.179688 4.441406 14.078125 4.953125 C 13.972656 5.460938 13.691406 5.96875 13.234375 6.46875 C 12.773438 6.976562 12.265625 7.378906 11.703125 7.671875 C 11.140625 7.972656 10.644531 8.046875 10.21875 7.890625 C 8.070312 6.921875 6.445312 5.550781 5.34375 3.78125 C 4.25 2.007812 3.675781 0.078125 3.625 -2.015625 C 2.332031 -0.242188 1.285156 1.550781 0.484375 3.375 C 0.265625 3.96875 -0.160156 4.179688 -0.796875 4.015625 C -1.492188 3.910156 -2.21875 3.441406 -2.96875 2.609375 C -3.726562 1.785156 -3.972656 1.050781 -3.703125 0.40625 C 2.035156 -14.988281 8.550781 -30.035156 15.84375 -44.734375 Z M 15.84375 -44.734375 "/></g></g></g><g fill="#ffffff" fill-opacity="1"><g transform="translate(239.258421, 127.917736)"><g><path d="M 30.171875 -10.296875 C 30.703125 -10.722656 31.273438 -10.789062 31.890625 -10.5 C 32.515625 -10.207031 32.988281 -9.765625 33.3125 -9.171875 C 33.632812 -8.578125 33.550781 -8.066406 33.0625 -7.640625 C 31.1875 -5.984375 29.296875 -4.347656 27.390625 -2.734375 C 25.484375 -1.128906 23.457031 0.289062 21.3125 1.53125 C 20.351562 2.113281 19.296875 2.660156 18.140625 3.171875 C 16.984375 3.679688 15.816406 3.859375 14.640625 3.703125 C 13.410156 3.597656 12.335938 3.113281 11.421875 2.25 C 10.515625 1.394531 9.875 0.378906 9.5 -0.796875 C 9.28125 -1.554688 9.195312 -2.28125 9.25 -2.96875 C 9.300781 -3.664062 9.4375 -4.335938 9.65625 -4.984375 C 7.507812 -3.585938 5.46875 -1.988281 3.53125 -0.1875 C 1.601562 1.601562 -0.59375 2.976562 -3.0625 3.9375 C -3.59375 4.15625 -4.164062 4.0625 -4.78125 3.65625 C -5.40625 3.257812 -5.90625 2.738281 -6.28125 2.09375 C -6.65625 1.445312 -6.785156 0.859375 -6.671875 0.328125 C -6.140625 -2.085938 -5.21875 -4.4375 -3.90625 -6.71875 C -2.59375 -9 -0.941406 -10.890625 1.046875 -12.390625 C 2.648438 -13.566406 4.347656 -14.035156 6.140625 -13.796875 C 7.941406 -13.554688 9.4375 -12.6875 10.625 -11.1875 C 11.050781 -11.34375 11.476562 -11.503906 11.90625 -11.671875 C 12.445312 -11.773438 13.0625 -11.585938 13.75 -11.109375 C 14.1875 -10.785156 14.59375 -10.394531 14.96875 -9.9375 C 15.34375 -9.476562 15.554688 -9.035156 15.609375 -8.609375 C 15.660156 -8.335938 15.632812 -8.097656 15.53125 -7.890625 C 15.476562 -7.242188 15.34375 -6.625 15.125 -6.03125 C 14.90625 -5.445312 14.691406 -4.832031 14.484375 -4.1875 C 14.265625 -3.59375 14.101562 -3 14 -2.40625 C 13.894531 -1.820312 13.757812 -1.207031 13.59375 -0.5625 C 13.644531 -0.5625 13.679688 -0.5625 13.703125 -0.5625 C 13.734375 -0.5625 13.78125 -0.5625 13.84375 -0.5625 C 15.019531 -0.71875 16.382812 -1.171875 17.9375 -1.921875 C 19.5 -2.679688 21.066406 -3.582031 22.640625 -4.625 C 24.222656 -5.664062 25.6875 -6.695312 27.03125 -7.71875 C 28.375 -8.738281 29.421875 -9.597656 30.171875 -10.296875 Z M 1.125 -4.90625 C 2.195312 -5.757812 3.242188 -6.601562 4.265625 -7.4375 C 5.285156 -8.269531 6.359375 -9.035156 7.484375 -9.734375 C 7.429688 -9.734375 7.40625 -9.734375 7.40625 -9.734375 C 7.289062 -9.734375 7.15625 -9.71875 7 -9.6875 C 6.84375 -9.664062 6.679688 -9.628906 6.515625 -9.578125 C 6.085938 -9.460938 5.671875 -9.269531 5.265625 -9 C 4.867188 -8.738281 4.507812 -8.472656 4.1875 -8.203125 C 3.59375 -7.722656 3.050781 -7.210938 2.5625 -6.671875 C 2.082031 -6.140625 1.65625 -5.601562 1.28125 -5.0625 C 1.226562 -5.007812 1.203125 -4.96875 1.203125 -4.9375 C 1.203125 -4.914062 1.175781 -4.90625 1.125 -4.90625 Z M 1.125 -4.90625 "/></g></g></g><g fill="#ffffff" fill-opacity="1"><g transform="translate(269.905492, 127.917736)"><g><path d="M 37.484375 -10.453125 C 38.023438 -10.722656 38.5625 -10.671875 39.09375 -10.296875 C 39.632812 -9.921875 39.984375 -9.4375 40.140625 -8.84375 C 40.304688 -8.257812 40.039062 -7.78125 39.34375 -7.40625 C 36.925781 -6.007812 34.457031 -4.53125 31.9375 -2.96875 C 29.414062 -1.414062 26.816406 -0.1875 24.140625 0.71875 C 22.640625 1.207031 21.160156 1.113281 19.703125 0.4375 C 18.253906 -0.226562 17.453125 -1.445312 17.296875 -3.21875 C 17.242188 -4.019531 17.320312 -4.835938 17.53125 -5.671875 C 17.75 -6.503906 17.992188 -7.296875 18.265625 -8.046875 C 18.472656 -8.578125 18.6875 -9.109375 18.90625 -9.640625 C 19.125 -10.179688 19.3125 -10.722656 19.46875 -11.265625 C 12.925781 -7.617188 7.132812 -3.003906 2.09375 2.578125 C 1.820312 2.898438 1.429688 2.96875 0.921875 2.78125 C 0.410156 2.59375 0.0234375 2.390625 -0.234375 2.171875 C -2.003906 0.828125 -2.890625 -0.6875 -2.890625 -2.375 C -2.890625 -4.0625 -2.570312 -5.867188 -1.9375 -7.796875 C -0.269531 -12.410156 1.554688 -16.972656 3.546875 -21.484375 C 5.578125 -26.035156 7.8125 -30.5 10.25 -34.875 C 12.695312 -39.25 15.285156 -43.5 18.015625 -47.625 C 18.285156 -48.050781 18.6875 -48.1875 19.21875 -48.03125 C 19.757812 -47.875 20.269531 -47.550781 20.75 -47.0625 C 21.238281 -46.582031 21.601562 -46.046875 21.84375 -45.453125 C 22.082031 -44.867188 22.066406 -44.359375 21.796875 -43.921875 C 17.078125 -36.847656 12.921875 -29.53125 9.328125 -21.96875 C 7.554688 -18.207031 5.894531 -14.367188 4.34375 -10.453125 C 3.695312 -8.796875 3.050781 -7.054688 2.40625 -5.234375 C 4.445312 -7.109375 6.566406 -8.847656 8.765625 -10.453125 C 10.960938 -12.066406 13.242188 -13.570312 15.609375 -14.96875 C 16.785156 -15.664062 17.921875 -16.144531 19.015625 -16.40625 C 20.117188 -16.675781 21.234375 -16.300781 22.359375 -15.28125 C 23.273438 -14.425781 23.800781 -13.445312 23.9375 -12.34375 C 24.070312 -11.25 24.003906 -10.140625 23.734375 -9.015625 C 23.578125 -8.097656 23.320312 -7.207031 22.96875 -6.34375 C 22.625 -5.488281 22.316406 -4.632812 22.046875 -3.78125 C 24.617188 -4.582031 27.257812 -5.5625 29.96875 -6.71875 C 32.675781 -7.875 35.179688 -9.117188 37.484375 -10.453125 Z M 37.484375 -10.453125 "/></g></g></g></svg>