<svg xmlns="http://www.w3.org/2000/svg" xmlns:xlink="http://www.w3.org/1999/xlink" width="1366" zoomAndPan="magnify" viewBox="0 0 1024.5 433.499982" height="578" preserveAspectRatio="xMidYMid meet" version="1.0"><defs><g/><clipPath id="1559a37aab"><path d="M 0.339844 0 L 1023.660156 0 L 1023.660156 433 L 0.339844 433 Z M 0.339844 0 " clip-rule="nonzero"/></clipPath><clipPath id="6c37cd6231"><path d="M 470.152344 25.480469 L 554.054688 25.480469 L 554.054688 86.910156 L 470.152344 86.910156 Z M 470.152344 25.480469 " clip-rule="nonzero"/></clipPath></defs><g clip-path="url(#1559a37aab)"><path fill="#ffffff" d="M 0.339844 0 L 1023.660156 0 L 1023.660156 433 L 0.339844 433 Z M 0.339844 0 " fill-opacity="1" fill-rule="nonzero"/><path fill="#4a596e" d="M 0.339844 0 L 1023.660156 0 L 1023.660156 433 L 0.339844 433 Z M 0.339844 0 " fill-opacity="1" fill-rule="nonzero"/></g><path stroke-linecap="butt" transform="matrix(0.749136, 0.000000000000000016, -0.000000000000000016, 0.749136, 21.578445, 157.00106)" fill="none" stroke-linejoin="miter" d="M -0.000426547 1.500315 L 1313.299158 1.500315 " stroke="#636363" stroke-width="3" stroke-opacity="1" stroke-miterlimit="4"/><g clip-path="url(#6c37cd6231)"><path fill="#bb9979" d="M 504.136719 50.253906 L 495.109375 41.292969 L 481.652344 54.644531 L 479.675781 52.679688 L 495.109375 37.371094 L 506.113281 48.292969 L 529.09375 25.492188 L 554.050781 50.253906 L 549.625 54.644531 L 547.648438 52.679688 L 550.097656 50.253906 L 529.09375 29.414062 L 491.097656 67.113281 L 495.109375 71.089844 C 506.402344 59.886719 517.695312 48.679688 528.992188 37.472656 L 529.09375 37.371094 L 554.050781 62.132812 L 529.09375 86.894531 L 513.664062 71.582031 L 515.640625 69.621094 L 529.09375 82.96875 L 550.097656 62.132812 L 535.082031 47.230469 L 520.0625 62.132812 L 529.09375 71.09375 L 542.546875 57.742188 L 544.527344 59.703125 L 529.09375 75.015625 L 518.085938 64.09375 L 495.109375 86.894531 L 470.152344 62.132812 L 474.574219 57.742188 L 476.550781 59.703125 L 474.105469 62.132812 L 495.105469 82.972656 L 533.101562 45.269531 L 529.09375 41.292969 C 517.800781 52.5 506.503906 63.707031 495.210938 74.914062 L 495.105469 75.015625 L 470.152344 50.253906 L 495.109375 25.492188 L 510.539062 40.800781 L 508.5625 42.765625 L 495.109375 29.414062 L 474.105469 50.253906 L 489.121094 65.152344 Z M 504.136719 50.253906 " fill-opacity="1" fill-rule="evenodd"/></g><g fill="#ffffff" fill-opacity="1"><g transform="translate(20.080173, 204.130821)"><g><path d="M 9.6875 -7.796875 L 9.6875 -12.5 L 12.15625 -12.5 L 12.15625 0 L 9.6875 0 L 9.6875 -5.6875 L 4.09375 -5.6875 L 4.09375 0 L 1.625 0 L 1.625 -12.5 L 4.09375 -12.5 L 4.09375 -7.796875 Z M 9.6875 -7.796875 "/></g></g></g><g fill="#ffffff" fill-opacity="1"><g transform="translate(33.862623, 204.130821)"><g><path d="M 4.09375 -5.484375 L 4.09375 -2.0625 L 10.0625 -2.0625 L 10.0625 0 L 1.625 0 L 1.625 -12.5 L 9.921875 -12.5 L 9.921875 -10.421875 L 4.09375 -10.421875 L 4.09375 -7.5 L 9.1875 -7.5 L 9.1875 -5.484375 Z M 4.09375 -5.484375 "/></g></g></g><g fill="#ffffff" fill-opacity="1"><g transform="translate(44.603194, 204.130821)"><g><path d="M 11.984375 0 L 9.390625 0 L 8.453125 -2.875 L 3.671875 -2.875 L 2.71875 0 L 0.1875 0 L 4.5 -12.5 L 7.671875 -12.5 Z M 5.9375 -9.890625 L 4.328125 -4.953125 L 7.765625 -4.953125 L 6.15625 -9.890625 Z M 5.9375 -9.890625 "/></g></g></g><g fill="#ffffff" fill-opacity="1"><g transform="translate(56.779258, 204.130821)"><g><path d="M 6.125 -12.5 C 8.144531 -12.5 9.6875 -11.972656 10.75 -10.921875 C 11.820312 -9.867188 12.359375 -8.3125 12.359375 -6.25 C 12.359375 -4.1875 11.820312 -2.628906 10.75 -1.578125 C 9.6875 -0.523438 8.144531 0 6.125 0 L 1.625 0 L 1.625 -12.5 Z M 5.96875 -2.078125 C 7.257812 -2.078125 8.222656 -2.40625 8.859375 -3.0625 C 9.492188 -3.71875 9.8125 -4.78125 9.8125 -6.25 C 9.8125 -7.707031 9.492188 -8.765625 8.859375 -9.421875 C 8.222656 -10.085938 7.257812 -10.421875 5.96875 -10.421875 L 4.09375 -10.421875 L 4.09375 -2.078125 Z M 5.96875 -2.078125 "/></g></g></g><g fill="#ffffff" fill-opacity="1"><g transform="translate(70.134477, 204.130821)"><g><path d="M 4.09375 0 L 1.625 0 L 1.625 -12.5 L 4.09375 -12.5 Z M 4.09375 0 "/></g></g></g><g fill="#ffffff" fill-opacity="1"><g transform="translate(75.859361, 204.130821)"><g><path d="M 4.015625 0 L 1.625 0 L 1.625 -12.5 L 4.453125 -12.5 L 9.46875 -4.4375 L 9.6875 -4.484375 L 9.6875 -12.5 L 12.0625 -12.5 L 12.0625 0 L 9.53125 0 L 4.234375 -8.59375 L 4.015625 -8.5625 Z M 4.015625 0 "/></g></g></g><g fill="#ffffff" fill-opacity="1"><g transform="translate(89.556364, 204.130821)"><g><path d="M 6.0625 0.171875 C 5.019531 0.171875 4.117188 -0.0625 3.359375 -0.53125 C 2.597656 -1.007812 2.007812 -1.726562 1.59375 -2.6875 C 1.1875 -3.644531 0.984375 -4.832031 0.984375 -6.25 C 0.984375 -7.664062 1.226562 -8.851562 1.71875 -9.8125 C 2.21875 -10.78125 2.90625 -11.5 3.78125 -11.96875 C 4.664062 -12.4375 5.691406 -12.671875 6.859375 -12.671875 C 8.046875 -12.671875 9.0625 -12.445312 9.90625 -12 C 10.75 -11.5625 11.34375 -10.898438 11.6875 -10.015625 L 9.890625 -8.921875 L 9.671875 -8.9375 C 9.410156 -9.5 9.046875 -9.90625 8.578125 -10.15625 C 8.117188 -10.414062 7.546875 -10.546875 6.859375 -10.546875 C 5.773438 -10.546875 4.945312 -10.203125 4.375 -9.515625 C 3.8125 -8.835938 3.53125 -7.75 3.53125 -6.25 C 3.53125 -4.738281 3.796875 -3.640625 4.328125 -2.953125 C 4.859375 -2.273438 5.644531 -1.9375 6.6875 -1.9375 C 7.59375 -1.9375 8.257812 -2.132812 8.6875 -2.53125 C 9.113281 -2.9375 9.328125 -3.539062 9.328125 -4.34375 L 9.328125 -4.890625 L 6.359375 -4.890625 L 6.359375 -6.890625 L 11.78125 -6.890625 L 11.78125 0 L 9.421875 0 L 9.421875 -1.671875 L 9.234375 -1.703125 C 8.984375 -1.097656 8.59375 -0.632812 8.0625 -0.3125 C 7.539062 0.0078125 6.875 0.171875 6.0625 0.171875 Z M 6.0625 0.171875 "/></g></g></g><path fill="#ffffff" d="M 38.808594 222.109375 C 38.808594 222.507812 38.734375 222.890625 38.582031 223.257812 C 38.429688 223.625 38.210938 223.949219 37.929688 224.230469 C 37.648438 224.511719 37.324219 224.726562 36.957031 224.878906 C 36.589844 225.03125 36.210938 225.105469 35.8125 225.105469 C 35.414062 225.105469 35.03125 225.03125 34.664062 224.878906 C 34.296875 224.726562 33.972656 224.511719 33.691406 224.230469 C 33.414062 223.949219 33.195312 223.625 33.042969 223.257812 C 32.890625 222.890625 32.816406 222.507812 32.816406 222.109375 C 32.816406 221.710938 32.890625 221.332031 33.042969 220.964844 C 33.195312 220.597656 33.414062 220.273438 33.691406 219.992188 C 33.972656 219.710938 34.296875 219.492188 34.664062 219.339844 C 35.03125 219.191406 35.414062 219.113281 35.8125 219.113281 C 36.210938 219.113281 36.589844 219.191406 36.957031 219.339844 C 37.324219 219.492188 37.648438 219.710938 37.929688 219.992188 C 38.210938 220.273438 38.429688 220.597656 38.582031 220.964844 C 38.734375 221.332031 38.808594 221.710938 38.808594 222.109375 Z M 38.808594 222.109375 " fill-opacity="1" fill-rule="nonzero"/><path fill="#ffffff" d="M 49.847656 229.601562 L 84.050781 229.601562 L 84.050781 231.101562 L 49.847656 231.101562 Z M 49.847656 229.601562 " fill-opacity="1" fill-rule="nonzero"/><g fill="#ffffff" fill-opacity="1"><g transform="translate(49.846619, 228.10317)"><g><path d="M 3.359375 -12.5 L 3.359375 -1.21875 L 9.375 -1.21875 L 9.375 0 L 1.890625 0 L 1.890625 -12.5 Z M 3.359375 -12.5 "/></g></g></g><g fill="#ffffff" fill-opacity="1"><g transform="translate(59.749819, 228.10317)"><g><path d="M 2.34375 -11.25 C 2.039062 -11.25 1.796875 -11.335938 1.609375 -11.515625 C 1.429688 -11.703125 1.34375 -11.941406 1.34375 -12.234375 C 1.34375 -12.515625 1.429688 -12.742188 1.609375 -12.921875 C 1.796875 -13.109375 2.039062 -13.203125 2.34375 -13.203125 C 2.632812 -13.203125 2.875 -13.109375 3.0625 -12.921875 C 3.25 -12.742188 3.34375 -12.515625 3.34375 -12.234375 C 3.34375 -11.941406 3.25 -11.703125 3.0625 -11.515625 C 2.875 -11.335938 2.632812 -11.25 2.34375 -11.25 Z M 1.640625 0 L 1.640625 -9.421875 L 3.03125 -9.421875 L 3.03125 0 Z M 1.640625 0 "/></g></g></g><g fill="#ffffff" fill-opacity="1"><g transform="translate(64.423722, 228.10317)"><g><path d="M 1.640625 0 L 1.640625 -9.421875 L 2.96875 -9.421875 L 2.96875 -7.953125 L 3.140625 -7.90625 C 3.453125 -8.457031 3.851562 -8.878906 4.34375 -9.171875 C 4.832031 -9.460938 5.425781 -9.609375 6.125 -9.609375 C 7.257812 -9.609375 8.082031 -9.316406 8.59375 -8.734375 C 9.101562 -8.160156 9.359375 -7.269531 9.359375 -6.0625 L 9.359375 0 L 7.96875 0 L 7.96875 -6.03125 C 7.96875 -6.601562 7.894531 -7.0625 7.75 -7.40625 C 7.601562 -7.75 7.375 -8 7.0625 -8.15625 C 6.757812 -8.3125 6.363281 -8.390625 5.875 -8.390625 C 5.019531 -8.390625 4.332031 -8.109375 3.8125 -7.546875 C 3.289062 -6.984375 3.03125 -6.082031 3.03125 -4.84375 L 3.03125 0 Z M 1.640625 0 "/></g></g></g><g fill="#ffffff" fill-opacity="1"><g transform="translate(75.275367, 228.10317)"><g><path d="M 1.640625 0 L 1.640625 -13.203125 L 3.03125 -13.203125 L 3.03125 -5.5 L 3.265625 -5.5 L 6.765625 -9.421875 L 8.234375 -9.421875 L 8.234375 -9.234375 L 4.5 -5 L 8.59375 -0.21875 L 8.59375 0 L 7.03125 0 L 3.265625 -4.359375 L 3.03125 -4.359375 L 3.03125 0 Z M 1.640625 0 "/></g></g></g><path fill="#ffffff" d="M 38.808594 246.082031 C 38.808594 246.480469 38.734375 246.863281 38.582031 247.230469 C 38.429688 247.597656 38.210938 247.921875 37.929688 248.203125 C 37.648438 248.480469 37.324219 248.699219 36.957031 248.851562 C 36.589844 249.003906 36.210938 249.078125 35.8125 249.078125 C 35.414062 249.078125 35.03125 249.003906 34.664062 248.851562 C 34.296875 248.699219 33.972656 248.480469 33.691406 248.203125 C 33.414062 247.921875 33.195312 247.597656 33.042969 247.230469 C 32.890625 246.863281 32.816406 246.480469 32.816406 246.082031 C 32.816406 245.683594 32.890625 245.304688 33.042969 244.9375 C 33.195312 244.570312 33.414062 244.246094 33.691406 243.964844 C 33.972656 243.683594 34.296875 243.464844 34.664062 243.3125 C 35.03125 243.160156 35.414062 243.085938 35.8125 243.085938 C 36.210938 243.085938 36.589844 243.160156 36.957031 243.3125 C 37.324219 243.464844 37.648438 243.683594 37.929688 243.964844 C 38.210938 244.246094 38.429688 244.570312 38.582031 244.9375 C 38.734375 245.304688 38.808594 245.683594 38.808594 246.082031 Z M 38.808594 246.082031 " fill-opacity="1" fill-rule="nonzero"/><path fill="#ffffff" d="M 49.847656 253.574219 L 84.050781 253.574219 L 84.050781 255.070312 L 49.847656 255.070312 Z M 49.847656 253.574219 " fill-opacity="1" fill-rule="nonzero"/><g fill="#ffffff" fill-opacity="1"><g transform="translate(49.846619, 252.075518)"><g><path d="M 3.359375 -12.5 L 3.359375 -1.21875 L 9.375 -1.21875 L 9.375 0 L 1.890625 0 L 1.890625 -12.5 Z M 3.359375 -12.5 "/></g></g></g><g fill="#ffffff" fill-opacity="1"><g transform="translate(59.749819, 252.075518)"><g><path d="M 2.34375 -11.25 C 2.039062 -11.25 1.796875 -11.335938 1.609375 -11.515625 C 1.429688 -11.703125 1.34375 -11.941406 1.34375 -12.234375 C 1.34375 -12.515625 1.429688 -12.742188 1.609375 -12.921875 C 1.796875 -13.109375 2.039062 -13.203125 2.34375 -13.203125 C 2.632812 -13.203125 2.875 -13.109375 3.0625 -12.921875 C 3.25 -12.742188 3.34375 -12.515625 3.34375 -12.234375 C 3.34375 -11.941406 3.25 -11.703125 3.0625 -11.515625 C 2.875 -11.335938 2.632812 -11.25 2.34375 -11.25 Z M 1.640625 0 L 1.640625 -9.421875 L 3.03125 -9.421875 L 3.03125 0 Z M 1.640625 0 "/></g></g></g><g fill="#ffffff" fill-opacity="1"><g transform="translate(64.423722, 252.075518)"><g><path d="M 1.640625 0 L 1.640625 -9.421875 L 2.96875 -9.421875 L 2.96875 -7.953125 L 3.140625 -7.90625 C 3.453125 -8.457031 3.851562 -8.878906 4.34375 -9.171875 C 4.832031 -9.460938 5.425781 -9.609375 6.125 -9.609375 C 7.257812 -9.609375 8.082031 -9.316406 8.59375 -8.734375 C 9.101562 -8.160156 9.359375 -7.269531 9.359375 -6.0625 L 9.359375 0 L 7.96875 0 L 7.96875 -6.03125 C 7.96875 -6.601562 7.894531 -7.0625 7.75 -7.40625 C 7.601562 -7.75 7.375 -8 7.0625 -8.15625 C 6.757812 -8.3125 6.363281 -8.390625 5.875 -8.390625 C 5.019531 -8.390625 4.332031 -8.109375 3.8125 -7.546875 C 3.289062 -6.984375 3.03125 -6.082031 3.03125 -4.84375 L 3.03125 0 Z M 1.640625 0 "/></g></g></g><g fill="#ffffff" fill-opacity="1"><g transform="translate(75.275367, 252.075518)"><g><path d="M 1.640625 0 L 1.640625 -13.203125 L 3.03125 -13.203125 L 3.03125 -5.5 L 3.265625 -5.5 L 6.765625 -9.421875 L 8.234375 -9.421875 L 8.234375 -9.234375 L 4.5 -5 L 8.59375 -0.21875 L 8.59375 0 L 7.03125 0 L 3.265625 -4.359375 L 3.03125 -4.359375 L 3.03125 0 Z M 1.640625 0 "/></g></g></g><path fill="#ffffff" d="M 38.808594 270.054688 C 38.808594 270.453125 38.734375 270.835938 38.582031 271.203125 C 38.429688 271.570312 38.210938 271.894531 37.929688 272.171875 C 37.648438 272.453125 37.324219 272.671875 36.957031 272.824219 C 36.589844 272.976562 36.210938 273.050781 35.8125 273.050781 C 35.414062 273.050781 35.03125 272.976562 34.664062 272.824219 C 34.296875 272.671875 33.972656 272.453125 33.691406 272.171875 C 33.414062 271.894531 33.195312 271.570312 33.042969 271.203125 C 32.890625 270.835938 32.816406 270.453125 32.816406 270.054688 C 32.816406 269.65625 32.890625 269.273438 33.042969 268.90625 C 33.195312 268.539062 33.414062 268.21875 33.691406 267.9375 C 33.972656 267.65625 34.296875 267.4375 34.664062 267.285156 C 35.03125 267.132812 35.414062 267.058594 35.8125 267.058594 C 36.210938 267.058594 36.589844 267.132812 36.957031 267.285156 C 37.324219 267.4375 37.648438 267.65625 37.929688 267.9375 C 38.210938 268.21875 38.429688 268.539062 38.582031 268.90625 C 38.734375 269.273438 38.808594 269.65625 38.808594 270.054688 Z M 38.808594 270.054688 " fill-opacity="1" fill-rule="nonzero"/><path fill="#ffffff" d="M 49.847656 277.546875 L 84.050781 277.546875 L 84.050781 279.042969 L 49.847656 279.042969 Z M 49.847656 277.546875 " fill-opacity="1" fill-rule="nonzero"/><g fill="#ffffff" fill-opacity="1"><g transform="translate(49.846619, 276.047866)"><g><path d="M 3.359375 -12.5 L 3.359375 -1.21875 L 9.375 -1.21875 L 9.375 0 L 1.890625 0 L 1.890625 -12.5 Z M 3.359375 -12.5 "/></g></g></g><g fill="#ffffff" fill-opacity="1"><g transform="translate(59.749819, 276.047866)"><g><path d="M 2.34375 -11.25 C 2.039062 -11.25 1.796875 -11.335938 1.609375 -11.515625 C 1.429688 -11.703125 1.34375 -11.941406 1.34375 -12.234375 C 1.34375 -12.515625 1.429688 -12.742188 1.609375 -12.921875 C 1.796875 -13.109375 2.039062 -13.203125 2.34375 -13.203125 C 2.632812 -13.203125 2.875 -13.109375 3.0625 -12.921875 C 3.25 -12.742188 3.34375 -12.515625 3.34375 -12.234375 C 3.34375 -11.941406 3.25 -11.703125 3.0625 -11.515625 C 2.875 -11.335938 2.632812 -11.25 2.34375 -11.25 Z M 1.640625 0 L 1.640625 -9.421875 L 3.03125 -9.421875 L 3.03125 0 Z M 1.640625 0 "/></g></g></g><g fill="#ffffff" fill-opacity="1"><g transform="translate(64.423722, 276.047866)"><g><path d="M 1.640625 0 L 1.640625 -9.421875 L 2.96875 -9.421875 L 2.96875 -7.953125 L 3.140625 -7.90625 C 3.453125 -8.457031 3.851562 -8.878906 4.34375 -9.171875 C 4.832031 -9.460938 5.425781 -9.609375 6.125 -9.609375 C 7.257812 -9.609375 8.082031 -9.316406 8.59375 -8.734375 C 9.101562 -8.160156 9.359375 -7.269531 9.359375 -6.0625 L 9.359375 0 L 7.96875 0 L 7.96875 -6.03125 C 7.96875 -6.601562 7.894531 -7.0625 7.75 -7.40625 C 7.601562 -7.75 7.375 -8 7.0625 -8.15625 C 6.757812 -8.3125 6.363281 -8.390625 5.875 -8.390625 C 5.019531 -8.390625 4.332031 -8.109375 3.8125 -7.546875 C 3.289062 -6.984375 3.03125 -6.082031 3.03125 -4.84375 L 3.03125 0 Z M 1.640625 0 "/></g></g></g><g fill="#ffffff" fill-opacity="1"><g transform="translate(75.275367, 276.047866)"><g><path d="M 1.640625 0 L 1.640625 -13.203125 L 3.03125 -13.203125 L 3.03125 -5.5 L 3.265625 -5.5 L 6.765625 -9.421875 L 8.234375 -9.421875 L 8.234375 -9.234375 L 4.5 -5 L 8.59375 -0.21875 L 8.59375 0 L 7.03125 0 L 3.265625 -4.359375 L 3.03125 -4.359375 L 3.03125 0 Z M 1.640625 0 "/></g></g></g><path fill="#ffffff" d="M 38.808594 294.027344 C 38.808594 294.425781 38.734375 294.808594 38.582031 295.175781 C 38.429688 295.539062 38.210938 295.863281 37.929688 296.144531 C 37.648438 296.425781 37.324219 296.644531 36.957031 296.796875 C 36.589844 296.949219 36.210938 297.023438 35.8125 297.023438 C 35.414062 297.023438 35.03125 296.949219 34.664062 296.796875 C 34.296875 296.644531 33.972656 296.425781 33.691406 296.144531 C 33.414062 295.863281 33.195312 295.539062 33.042969 295.175781 C 32.890625 294.808594 32.816406 294.425781 32.816406 294.027344 C 32.816406 293.628906 32.890625 293.246094 33.042969 292.878906 C 33.195312 292.511719 33.414062 292.1875 33.691406 291.910156 C 33.972656 291.628906 34.296875 291.410156 34.664062 291.257812 C 35.03125 291.105469 35.414062 291.03125 35.8125 291.03125 C 36.210938 291.03125 36.589844 291.105469 36.957031 291.257812 C 37.324219 291.410156 37.648438 291.628906 37.929688 291.910156 C 38.210938 292.1875 38.429688 292.511719 38.582031 292.878906 C 38.734375 293.246094 38.808594 293.628906 38.808594 294.027344 Z M 38.808594 294.027344 " fill-opacity="1" fill-rule="nonzero"/><path fill="#ffffff" d="M 49.847656 301.519531 L 84.050781 301.519531 L 84.050781 303.015625 L 49.847656 303.015625 Z M 49.847656 301.519531 " fill-opacity="1" fill-rule="nonzero"/><g fill="#ffffff" fill-opacity="1"><g transform="translate(49.846619, 300.020214)"><g><path d="M 3.359375 -12.5 L 3.359375 -1.21875 L 9.375 -1.21875 L 9.375 0 L 1.890625 0 L 1.890625 -12.5 Z M 3.359375 -12.5 "/></g></g></g><g fill="#ffffff" fill-opacity="1"><g transform="translate(59.749819, 300.020214)"><g><path d="M 2.34375 -11.25 C 2.039062 -11.25 1.796875 -11.335938 1.609375 -11.515625 C 1.429688 -11.703125 1.34375 -11.941406 1.34375 -12.234375 C 1.34375 -12.515625 1.429688 -12.742188 1.609375 -12.921875 C 1.796875 -13.109375 2.039062 -13.203125 2.34375 -13.203125 C 2.632812 -13.203125 2.875 -13.109375 3.0625 -12.921875 C 3.25 -12.742188 3.34375 -12.515625 3.34375 -12.234375 C 3.34375 -11.941406 3.25 -11.703125 3.0625 -11.515625 C 2.875 -11.335938 2.632812 -11.25 2.34375 -11.25 Z M 1.640625 0 L 1.640625 -9.421875 L 3.03125 -9.421875 L 3.03125 0 Z M 1.640625 0 "/></g></g></g><g fill="#ffffff" fill-opacity="1"><g transform="translate(64.423722, 300.020214)"><g><path d="M 1.640625 0 L 1.640625 -9.421875 L 2.96875 -9.421875 L 2.96875 -7.953125 L 3.140625 -7.90625 C 3.453125 -8.457031 3.851562 -8.878906 4.34375 -9.171875 C 4.832031 -9.460938 5.425781 -9.609375 6.125 -9.609375 C 7.257812 -9.609375 8.082031 -9.316406 8.59375 -8.734375 C 9.101562 -8.160156 9.359375 -7.269531 9.359375 -6.0625 L 9.359375 0 L 7.96875 0 L 7.96875 -6.03125 C 7.96875 -6.601562 7.894531 -7.0625 7.75 -7.40625 C 7.601562 -7.75 7.375 -8 7.0625 -8.15625 C 6.757812 -8.3125 6.363281 -8.390625 5.875 -8.390625 C 5.019531 -8.390625 4.332031 -8.109375 3.8125 -7.546875 C 3.289062 -6.984375 3.03125 -6.082031 3.03125 -4.84375 L 3.03125 0 Z M 1.640625 0 "/></g></g></g><g fill="#ffffff" fill-opacity="1"><g transform="translate(75.275367, 300.020214)"><g><path d="M 1.640625 0 L 1.640625 -13.203125 L 3.03125 -13.203125 L 3.03125 -5.5 L 3.265625 -5.5 L 6.765625 -9.421875 L 8.234375 -9.421875 L 8.234375 -9.234375 L 4.5 -5 L 8.59375 -0.21875 L 8.59375 0 L 7.03125 0 L 3.265625 -4.359375 L 3.03125 -4.359375 L 3.03125 0 Z M 1.640625 0 "/></g></g></g><path fill="#ffffff" d="M 38.808594 318 C 38.808594 318.398438 38.734375 318.777344 38.582031 319.144531 C 38.429688 319.511719 38.210938 319.835938 37.929688 320.117188 C 37.648438 320.398438 37.324219 320.617188 36.957031 320.769531 C 36.589844 320.921875 36.210938 320.996094 35.8125 320.996094 C 35.414062 320.996094 35.03125 320.921875 34.664062 320.769531 C 34.296875 320.617188 33.972656 320.398438 33.691406 320.117188 C 33.414062 319.835938 33.195312 319.511719 33.042969 319.144531 C 32.890625 318.777344 32.816406 318.398438 32.816406 318 C 32.816406 317.601562 32.890625 317.21875 33.042969 316.851562 C 33.195312 316.484375 33.414062 316.160156 33.691406 315.878906 C 33.972656 315.597656 34.296875 315.382812 34.664062 315.230469 C 35.03125 315.078125 35.414062 315.003906 35.8125 315.003906 C 36.210938 315.003906 36.589844 315.078125 36.957031 315.230469 C 37.324219 315.382812 37.648438 315.597656 37.929688 315.878906 C 38.210938 316.160156 38.429688 316.484375 38.582031 316.851562 C 38.734375 317.21875 38.808594 317.601562 38.808594 318 Z M 38.808594 318 " fill-opacity="1" fill-rule="nonzero"/><path fill="#ffffff" d="M 49.847656 325.492188 L 84.050781 325.492188 L 84.050781 326.988281 L 49.847656 326.988281 Z M 49.847656 325.492188 " fill-opacity="1" fill-rule="nonzero"/><g fill="#ffffff" fill-opacity="1"><g transform="translate(49.846619, 323.992563)"><g><path d="M 3.359375 -12.5 L 3.359375 -1.21875 L 9.375 -1.21875 L 9.375 0 L 1.890625 0 L 1.890625 -12.5 Z M 3.359375 -12.5 "/></g></g></g><g fill="#ffffff" fill-opacity="1"><g transform="translate(59.749819, 323.992563)"><g><path d="M 2.34375 -11.25 C 2.039062 -11.25 1.796875 -11.335938 1.609375 -11.515625 C 1.429688 -11.703125 1.34375 -11.941406 1.34375 -12.234375 C 1.34375 -12.515625 1.429688 -12.742188 1.609375 -12.921875 C 1.796875 -13.109375 2.039062 -13.203125 2.34375 -13.203125 C 2.632812 -13.203125 2.875 -13.109375 3.0625 -12.921875 C 3.25 -12.742188 3.34375 -12.515625 3.34375 -12.234375 C 3.34375 -11.941406 3.25 -11.703125 3.0625 -11.515625 C 2.875 -11.335938 2.632812 -11.25 2.34375 -11.25 Z M 1.640625 0 L 1.640625 -9.421875 L 3.03125 -9.421875 L 3.03125 0 Z M 1.640625 0 "/></g></g></g><g fill="#ffffff" fill-opacity="1"><g transform="translate(64.423722, 323.992563)"><g><path d="M 1.640625 0 L 1.640625 -9.421875 L 2.96875 -9.421875 L 2.96875 -7.953125 L 3.140625 -7.90625 C 3.453125 -8.457031 3.851562 -8.878906 4.34375 -9.171875 C 4.832031 -9.460938 5.425781 -9.609375 6.125 -9.609375 C 7.257812 -9.609375 8.082031 -9.316406 8.59375 -8.734375 C 9.101562 -8.160156 9.359375 -7.269531 9.359375 -6.0625 L 9.359375 0 L 7.96875 0 L 7.96875 -6.03125 C 7.96875 -6.601562 7.894531 -7.0625 7.75 -7.40625 C 7.601562 -7.75 7.375 -8 7.0625 -8.15625 C 6.757812 -8.3125 6.363281 -8.390625 5.875 -8.390625 C 5.019531 -8.390625 4.332031 -8.109375 3.8125 -7.546875 C 3.289062 -6.984375 3.03125 -6.082031 3.03125 -4.84375 L 3.03125 0 Z M 1.640625 0 "/></g></g></g><g fill="#ffffff" fill-opacity="1"><g transform="translate(75.275367, 323.992563)"><g><path d="M 1.640625 0 L 1.640625 -13.203125 L 3.03125 -13.203125 L 3.03125 -5.5 L 3.265625 -5.5 L 6.765625 -9.421875 L 8.234375 -9.421875 L 8.234375 -9.234375 L 4.5 -5 L 8.59375 -0.21875 L 8.59375 0 L 7.03125 0 L 3.265625 -4.359375 L 3.03125 -4.359375 L 3.03125 0 Z M 1.640625 0 "/></g></g></g><path fill="#ffffff" d="M 38.808594 341.972656 C 38.808594 342.371094 38.734375 342.75 38.582031 343.117188 C 38.429688 343.484375 38.210938 343.808594 37.929688 344.089844 C 37.648438 344.371094 37.324219 344.589844 36.957031 344.742188 C 36.589844 344.890625 36.210938 344.96875 35.8125 344.96875 C 35.414062 344.96875 35.03125 344.890625 34.664062 344.742188 C 34.296875 344.589844 33.972656 344.371094 33.691406 344.089844 C 33.414062 343.808594 33.195312 343.484375 33.042969 343.117188 C 32.890625 342.75 32.816406 342.371094 32.816406 341.972656 C 32.816406 341.574219 32.890625 341.191406 33.042969 340.824219 C 33.195312 340.457031 33.414062 340.132812 33.691406 339.851562 C 33.972656 339.570312 34.296875 339.355469 34.664062 339.203125 C 35.03125 339.050781 35.414062 338.976562 35.8125 338.976562 C 36.210938 338.976562 36.589844 339.050781 36.957031 339.203125 C 37.324219 339.355469 37.648438 339.570312 37.929688 339.851562 C 38.210938 340.132812 38.429688 340.457031 38.582031 340.824219 C 38.734375 341.191406 38.808594 341.574219 38.808594 341.972656 Z M 38.808594 341.972656 " fill-opacity="1" fill-rule="nonzero"/><path fill="#ffffff" d="M 49.847656 349.464844 L 84.050781 349.464844 L 84.050781 350.960938 L 49.847656 350.960938 Z M 49.847656 349.464844 " fill-opacity="1" fill-rule="nonzero"/><g fill="#ffffff" fill-opacity="1"><g transform="translate(49.846619, 347.964911)"><g><path d="M 3.359375 -12.5 L 3.359375 -1.21875 L 9.375 -1.21875 L 9.375 0 L 1.890625 0 L 1.890625 -12.5 Z M 3.359375 -12.5 "/></g></g></g><g fill="#ffffff" fill-opacity="1"><g transform="translate(59.749819, 347.964911)"><g><path d="M 2.34375 -11.25 C 2.039062 -11.25 1.796875 -11.335938 1.609375 -11.515625 C 1.429688 -11.703125 1.34375 -11.941406 1.34375 -12.234375 C 1.34375 -12.515625 1.429688 -12.742188 1.609375 -12.921875 C 1.796875 -13.109375 2.039062 -13.203125 2.34375 -13.203125 C 2.632812 -13.203125 2.875 -13.109375 3.0625 -12.921875 C 3.25 -12.742188 3.34375 -12.515625 3.34375 -12.234375 C 3.34375 -11.941406 3.25 -11.703125 3.0625 -11.515625 C 2.875 -11.335938 2.632812 -11.25 2.34375 -11.25 Z M 1.640625 0 L 1.640625 -9.421875 L 3.03125 -9.421875 L 3.03125 0 Z M 1.640625 0 "/></g></g></g><g fill="#ffffff" fill-opacity="1"><g transform="translate(64.423722, 347.964911)"><g><path d="M 1.640625 0 L 1.640625 -9.421875 L 2.96875 -9.421875 L 2.96875 -7.953125 L 3.140625 -7.90625 C 3.453125 -8.457031 3.851562 -8.878906 4.34375 -9.171875 C 4.832031 -9.460938 5.425781 -9.609375 6.125 -9.609375 C 7.257812 -9.609375 8.082031 -9.316406 8.59375 -8.734375 C 9.101562 -8.160156 9.359375 -7.269531 9.359375 -6.0625 L 9.359375 0 L 7.96875 0 L 7.96875 -6.03125 C 7.96875 -6.601562 7.894531 -7.0625 7.75 -7.40625 C 7.601562 -7.75 7.375 -8 7.0625 -8.15625 C 6.757812 -8.3125 6.363281 -8.390625 5.875 -8.390625 C 5.019531 -8.390625 4.332031 -8.109375 3.8125 -7.546875 C 3.289062 -6.984375 3.03125 -6.082031 3.03125 -4.84375 L 3.03125 0 Z M 1.640625 0 "/></g></g></g><g fill="#ffffff" fill-opacity="1"><g transform="translate(75.275367, 347.964911)"><g><path d="M 1.640625 0 L 1.640625 -13.203125 L 3.03125 -13.203125 L 3.03125 -5.5 L 3.265625 -5.5 L 6.765625 -9.421875 L 8.234375 -9.421875 L 8.234375 -9.234375 L 4.5 -5 L 8.59375 -0.21875 L 8.59375 0 L 7.03125 0 L 3.265625 -4.359375 L 3.03125 -4.359375 L 3.03125 0 Z M 1.640625 0 "/></g></g></g><path fill="#ffffff" d="M 38.808594 365.945312 C 38.808594 366.339844 38.734375 366.722656 38.582031 367.089844 C 38.429688 367.457031 38.210938 367.78125 37.929688 368.0625 C 37.648438 368.34375 37.324219 368.558594 36.957031 368.710938 C 36.589844 368.863281 36.210938 368.941406 35.8125 368.941406 C 35.414062 368.941406 35.03125 368.863281 34.664062 368.710938 C 34.296875 368.558594 33.972656 368.34375 33.691406 368.0625 C 33.414062 367.78125 33.195312 367.457031 33.042969 367.089844 C 32.890625 366.722656 32.816406 366.339844 32.816406 365.945312 C 32.816406 365.546875 32.890625 365.164062 33.042969 364.796875 C 33.195312 364.429688 33.414062 364.105469 33.691406 363.824219 C 33.972656 363.542969 34.296875 363.328125 34.664062 363.175781 C 35.03125 363.023438 35.414062 362.949219 35.8125 362.949219 C 36.210938 362.949219 36.589844 363.023438 36.957031 363.175781 C 37.324219 363.328125 37.648438 363.542969 37.929688 363.824219 C 38.210938 364.105469 38.429688 364.429688 38.582031 364.796875 C 38.734375 365.164062 38.808594 365.546875 38.808594 365.945312 Z M 38.808594 365.945312 " fill-opacity="1" fill-rule="nonzero"/><path fill="#ffffff" d="M 49.847656 373.433594 L 84.050781 373.433594 L 84.050781 374.933594 L 49.847656 374.933594 Z M 49.847656 373.433594 " fill-opacity="1" fill-rule="nonzero"/><g fill="#ffffff" fill-opacity="1"><g transform="translate(49.846619, 371.937259)"><g><path d="M 3.359375 -12.5 L 3.359375 -1.21875 L 9.375 -1.21875 L 9.375 0 L 1.890625 0 L 1.890625 -12.5 Z M 3.359375 -12.5 "/></g></g></g><g fill="#ffffff" fill-opacity="1"><g transform="translate(59.749819, 371.937259)"><g><path d="M 2.34375 -11.25 C 2.039062 -11.25 1.796875 -11.335938 1.609375 -11.515625 C 1.429688 -11.703125 1.34375 -11.941406 1.34375 -12.234375 C 1.34375 -12.515625 1.429688 -12.742188 1.609375 -12.921875 C 1.796875 -13.109375 2.039062 -13.203125 2.34375 -13.203125 C 2.632812 -13.203125 2.875 -13.109375 3.0625 -12.921875 C 3.25 -12.742188 3.34375 -12.515625 3.34375 -12.234375 C 3.34375 -11.941406 3.25 -11.703125 3.0625 -11.515625 C 2.875 -11.335938 2.632812 -11.25 2.34375 -11.25 Z M 1.640625 0 L 1.640625 -9.421875 L 3.03125 -9.421875 L 3.03125 0 Z M 1.640625 0 "/></g></g></g><g fill="#ffffff" fill-opacity="1"><g transform="translate(64.423722, 371.937259)"><g><path d="M 1.640625 0 L 1.640625 -9.421875 L 2.96875 -9.421875 L 2.96875 -7.953125 L 3.140625 -7.90625 C 3.453125 -8.457031 3.851562 -8.878906 4.34375 -9.171875 C 4.832031 -9.460938 5.425781 -9.609375 6.125 -9.609375 C 7.257812 -9.609375 8.082031 -9.316406 8.59375 -8.734375 C 9.101562 -8.160156 9.359375 -7.269531 9.359375 -6.0625 L 9.359375 0 L 7.96875 0 L 7.96875 -6.03125 C 7.96875 -6.601562 7.894531 -7.0625 7.75 -7.40625 C 7.601562 -7.75 7.375 -8 7.0625 -8.15625 C 6.757812 -8.3125 6.363281 -8.390625 5.875 -8.390625 C 5.019531 -8.390625 4.332031 -8.109375 3.8125 -7.546875 C 3.289062 -6.984375 3.03125 -6.082031 3.03125 -4.84375 L 3.03125 0 Z M 1.640625 0 "/></g></g></g><g fill="#ffffff" fill-opacity="1"><g transform="translate(75.275367, 371.937259)"><g><path d="M 1.640625 0 L 1.640625 -13.203125 L 3.03125 -13.203125 L 3.03125 -5.5 L 3.265625 -5.5 L 6.765625 -9.421875 L 8.234375 -9.421875 L 8.234375 -9.234375 L 4.5 -5 L 8.59375 -0.21875 L 8.59375 0 L 7.03125 0 L 3.265625 -4.359375 L 3.03125 -4.359375 L 3.03125 0 Z M 1.640625 0 "/></g></g></g><g fill="#ffffff" fill-opacity="1"><g transform="translate(423.469341, 123.902326)"><g><path d="M 12.15625 0 L 9.046875 -4.484375 L 5.625 -4.484375 L 5.625 0 L 1.90625 0 L 1.90625 -16.078125 L 8.859375 -16.078125 C 10.285156 -16.078125 11.523438 -15.835938 12.578125 -15.359375 C 13.628906 -14.890625 14.4375 -14.21875 15 -13.34375 C 15.5625 -12.46875 15.84375 -11.4375 15.84375 -10.25 C 15.84375 -9.050781 15.554688 -8.019531 14.984375 -7.15625 C 14.410156 -6.289062 13.597656 -5.628906 12.546875 -5.171875 L 16.140625 0 Z M 12.078125 -10.25 C 12.078125 -11.144531 11.785156 -11.832031 11.203125 -12.3125 C 10.628906 -12.800781 9.78125 -13.046875 8.65625 -13.046875 L 5.625 -13.046875 L 5.625 -7.4375 L 8.65625 -7.4375 C 9.78125 -7.4375 10.628906 -7.679688 11.203125 -8.171875 C 11.785156 -8.660156 12.078125 -9.351562 12.078125 -10.25 Z M 12.078125 -10.25 "/></g></g></g><g fill="#ffffff" fill-opacity="1"><g transform="translate(440.349178, 123.902326)"><g><path d="M 13.765625 -6.125 C 13.765625 -6.082031 13.738281 -5.765625 13.6875 -5.171875 L 4.34375 -5.171875 C 4.507812 -4.398438 4.90625 -3.789062 5.53125 -3.34375 C 6.164062 -2.90625 6.945312 -2.6875 7.875 -2.6875 C 8.519531 -2.6875 9.09375 -2.78125 9.59375 -2.96875 C 10.09375 -3.164062 10.554688 -3.46875 10.984375 -3.875 L 12.890625 -1.8125 C 11.722656 -0.476562 10.019531 0.1875 7.78125 0.1875 C 6.394531 0.1875 5.164062 -0.0820312 4.09375 -0.625 C 3.019531 -1.175781 2.191406 -1.929688 1.609375 -2.890625 C 1.023438 -3.859375 0.734375 -4.953125 0.734375 -6.171875 C 0.734375 -7.390625 1.019531 -8.484375 1.59375 -9.453125 C 2.164062 -10.421875 2.953125 -11.175781 3.953125 -11.71875 C 4.960938 -12.269531 6.085938 -12.546875 7.328125 -12.546875 C 8.535156 -12.546875 9.628906 -12.285156 10.609375 -11.765625 C 11.585938 -11.242188 12.359375 -10.492188 12.921875 -9.515625 C 13.484375 -8.546875 13.765625 -7.414062 13.765625 -6.125 Z M 7.34375 -9.828125 C 6.53125 -9.828125 5.847656 -9.597656 5.296875 -9.140625 C 4.753906 -8.679688 4.421875 -8.054688 4.296875 -7.265625 L 10.375 -7.265625 C 10.257812 -8.035156 9.925781 -8.65625 9.375 -9.125 C 8.820312 -9.59375 8.144531 -9.828125 7.34375 -9.828125 Z M 7.34375 -9.828125 "/></g></g></g><g fill="#ffffff" fill-opacity="1"><g transform="translate(454.840573, 123.902326)"><g><path d="M 1.65625 -17.046875 L 5.234375 -17.046875 L 5.234375 0 L 1.65625 0 Z M 1.65625 -17.046875 "/></g></g></g><g fill="#ffffff" fill-opacity="1"><g transform="translate(461.753265, 123.902326)"><g><path d="M 13.765625 -6.125 C 13.765625 -6.082031 13.738281 -5.765625 13.6875 -5.171875 L 4.34375 -5.171875 C 4.507812 -4.398438 4.90625 -3.789062 5.53125 -3.34375 C 6.164062 -2.90625 6.945312 -2.6875 7.875 -2.6875 C 8.519531 -2.6875 9.09375 -2.78125 9.59375 -2.96875 C 10.09375 -3.164062 10.554688 -3.46875 10.984375 -3.875 L 12.890625 -1.8125 C 11.722656 -0.476562 10.019531 0.1875 7.78125 0.1875 C 6.394531 0.1875 5.164062 -0.0820312 4.09375 -0.625 C 3.019531 -1.175781 2.191406 -1.929688 1.609375 -2.890625 C 1.023438 -3.859375 0.734375 -4.953125 0.734375 -6.171875 C 0.734375 -7.390625 1.019531 -8.484375 1.59375 -9.453125 C 2.164062 -10.421875 2.953125 -11.175781 3.953125 -11.71875 C 4.960938 -12.269531 6.085938 -12.546875 7.328125 -12.546875 C 8.535156 -12.546875 9.628906 -12.285156 10.609375 -11.765625 C 11.585938 -11.242188 12.359375 -10.492188 12.921875 -9.515625 C 13.484375 -8.546875 13.765625 -7.414062 13.765625 -6.125 Z M 7.34375 -9.828125 C 6.53125 -9.828125 5.847656 -9.597656 5.296875 -9.140625 C 4.753906 -8.679688 4.421875 -8.054688 4.296875 -7.265625 L 10.375 -7.265625 C 10.257812 -8.035156 9.925781 -8.65625 9.375 -9.125 C 8.820312 -9.59375 8.144531 -9.828125 7.34375 -9.828125 Z M 7.34375 -9.828125 "/></g></g></g><g fill="#ffffff" fill-opacity="1"><g transform="translate(476.244659, 123.902326)"><g><path d="M 13.921875 -12.359375 L 8.703125 0 L 5 0 L -0.1875 -12.359375 L 3.515625 -12.359375 L 6.9375 -3.953125 L 10.46875 -12.359375 Z M 13.921875 -12.359375 "/></g></g></g><g fill="#ffffff" fill-opacity="1"><g transform="translate(489.978185, 123.902326)"><g><path d="M 6.640625 -12.546875 C 8.554688 -12.546875 10.023438 -12.085938 11.046875 -11.171875 C 12.078125 -10.265625 12.59375 -8.890625 12.59375 -7.046875 L 12.59375 0 L 9.234375 0 L 9.234375 -1.53125 C 8.554688 -0.382812 7.300781 0.1875 5.46875 0.1875 C 4.519531 0.1875 3.695312 0.0234375 3 -0.296875 C 2.300781 -0.617188 1.765625 -1.0625 1.390625 -1.625 C 1.023438 -2.195312 0.84375 -2.84375 0.84375 -3.5625 C 0.84375 -4.707031 1.273438 -5.609375 2.140625 -6.265625 C 3.015625 -6.929688 4.351562 -7.265625 6.15625 -7.265625 L 9 -7.265625 C 9 -8.035156 8.757812 -8.628906 8.28125 -9.046875 C 7.8125 -9.472656 7.101562 -9.6875 6.15625 -9.6875 C 5.5 -9.6875 4.851562 -9.582031 4.21875 -9.375 C 3.582031 -9.175781 3.039062 -8.898438 2.59375 -8.546875 L 1.3125 -11.046875 C 1.976562 -11.523438 2.78125 -11.894531 3.71875 -12.15625 C 4.664062 -12.414062 5.640625 -12.546875 6.640625 -12.546875 Z M 6.359375 -2.234375 C 6.972656 -2.234375 7.515625 -2.375 7.984375 -2.65625 C 8.460938 -2.9375 8.800781 -3.351562 9 -3.90625 L 9 -5.171875 L 6.546875 -5.171875 C 5.078125 -5.171875 4.34375 -4.6875 4.34375 -3.71875 C 4.34375 -3.257812 4.519531 -2.894531 4.875 -2.625 C 5.238281 -2.363281 5.734375 -2.234375 6.359375 -2.234375 Z M 6.359375 -2.234375 "/></g></g></g><g fill="#ffffff" fill-opacity="1"><g transform="translate(504.148062, 123.902326)"><g><path d="M 9.171875 -12.546875 C 10.703125 -12.546875 11.9375 -12.082031 12.875 -11.15625 C 13.8125 -10.238281 14.28125 -8.878906 14.28125 -7.078125 L 14.28125 0 L 10.703125 0 L 10.703125 -6.515625 C 10.703125 -7.503906 10.488281 -8.238281 10.0625 -8.71875 C 9.632812 -9.195312 9.015625 -9.4375 8.203125 -9.4375 C 7.296875 -9.4375 6.570312 -9.15625 6.03125 -8.59375 C 5.5 -8.039062 5.234375 -7.210938 5.234375 -6.109375 L 5.234375 0 L 1.65625 0 L 1.65625 -12.359375 L 5.078125 -12.359375 L 5.078125 -10.90625 C 5.546875 -11.425781 6.132812 -11.828125 6.84375 -12.109375 C 7.550781 -12.398438 8.328125 -12.546875 9.171875 -12.546875 Z M 9.171875 -12.546875 "/></g></g></g><g fill="#ffffff" fill-opacity="1"><g transform="translate(520.017407, 123.902326)"><g><path d="M 9.625 -0.59375 C 9.269531 -0.332031 8.835938 -0.132812 8.328125 0 C 7.816406 0.125 7.273438 0.1875 6.703125 0.1875 C 5.234375 0.1875 4.097656 -0.1875 3.296875 -0.9375 C 2.492188 -1.6875 2.09375 -2.789062 2.09375 -4.25 L 2.09375 -9.328125 L 0.1875 -9.328125 L 0.1875 -12.078125 L 2.09375 -12.078125 L 2.09375 -15.09375 L 5.671875 -15.09375 L 5.671875 -12.078125 L 8.75 -12.078125 L 8.75 -9.328125 L 5.671875 -9.328125 L 5.671875 -4.296875 C 5.671875 -3.773438 5.804688 -3.375 6.078125 -3.09375 C 6.347656 -2.8125 6.726562 -2.671875 7.21875 -2.671875 C 7.78125 -2.671875 8.257812 -2.820312 8.65625 -3.125 Z M 9.625 -0.59375 "/></g></g></g><g fill="#ffffff" fill-opacity="1"><g transform="translate(530.007516, 123.902326)"><g/></g></g><g fill="#ffffff" fill-opacity="1"><g transform="translate(536.506832, 123.902326)"><g><path d="M 1.90625 -16.078125 L 5.625 -16.078125 L 5.625 -3.03125 L 13.6875 -3.03125 L 13.6875 0 L 1.90625 0 Z M 1.90625 -16.078125 "/></g></g></g><g fill="#ffffff" fill-opacity="1"><g transform="translate(550.378157, 123.902326)"><g><path d="M 1.65625 -12.359375 L 5.234375 -12.359375 L 5.234375 0 L 1.65625 0 Z M 3.453125 -14.078125 C 2.796875 -14.078125 2.257812 -14.269531 1.84375 -14.65625 C 1.425781 -15.039062 1.21875 -15.515625 1.21875 -16.078125 C 1.21875 -16.640625 1.425781 -17.113281 1.84375 -17.5 C 2.257812 -17.882812 2.796875 -18.078125 3.453125 -18.078125 C 4.109375 -18.078125 4.644531 -17.890625 5.0625 -17.515625 C 5.476562 -17.148438 5.6875 -16.691406 5.6875 -16.140625 C 5.6875 -15.546875 5.476562 -15.050781 5.0625 -14.65625 C 4.644531 -14.269531 4.109375 -14.078125 3.453125 -14.078125 Z M 3.453125 -14.078125 "/></g></g></g><g fill="#ffffff" fill-opacity="1"><g transform="translate(557.290849, 123.902326)"><g><path d="M 9.171875 -12.546875 C 10.703125 -12.546875 11.9375 -12.082031 12.875 -11.15625 C 13.8125 -10.238281 14.28125 -8.878906 14.28125 -7.078125 L 14.28125 0 L 10.703125 0 L 10.703125 -6.515625 C 10.703125 -7.503906 10.488281 -8.238281 10.0625 -8.71875 C 9.632812 -9.195312 9.015625 -9.4375 8.203125 -9.4375 C 7.296875 -9.4375 6.570312 -9.15625 6.03125 -8.59375 C 5.5 -8.039062 5.234375 -7.210938 5.234375 -6.109375 L 5.234375 0 L 1.65625 0 L 1.65625 -12.359375 L 5.078125 -12.359375 L 5.078125 -10.90625 C 5.546875 -11.425781 6.132812 -11.828125 6.84375 -12.109375 C 7.550781 -12.398438 8.328125 -12.546875 9.171875 -12.546875 Z M 9.171875 -12.546875 "/></g></g></g><g fill="#ffffff" fill-opacity="1"><g transform="translate(573.160194, 123.902326)"><g><path d="M 6.953125 -4.84375 L 5.234375 -3.140625 L 5.234375 0 L 1.65625 0 L 1.65625 -17.046875 L 5.234375 -17.046875 L 5.234375 -7.390625 L 10.46875 -12.359375 L 14.75 -12.359375 L 9.59375 -7.125 L 15.203125 0 L 10.859375 0 Z M 6.953125 -4.84375 "/></g></g></g><g fill="#ffffff" fill-opacity="1"><g transform="translate(588.317599, 123.902326)"><g><path d="M 5.8125 0.1875 C 4.78125 0.1875 3.773438 0.0625 2.796875 -0.1875 C 1.816406 -0.445312 1.035156 -0.769531 0.453125 -1.15625 L 1.65625 -3.71875 C 2.207031 -3.363281 2.875 -3.078125 3.65625 -2.859375 C 4.4375 -2.640625 5.203125 -2.53125 5.953125 -2.53125 C 7.460938 -2.53125 8.21875 -2.90625 8.21875 -3.65625 C 8.21875 -4.007812 8.007812 -4.257812 7.59375 -4.40625 C 7.1875 -4.5625 6.554688 -4.691406 5.703125 -4.796875 C 4.691406 -4.953125 3.851562 -5.128906 3.1875 -5.328125 C 2.53125 -5.523438 1.960938 -5.875 1.484375 -6.375 C 1.003906 -6.882812 0.765625 -7.609375 0.765625 -8.546875 C 0.765625 -9.328125 0.988281 -10.019531 1.4375 -10.625 C 1.882812 -11.226562 2.539062 -11.695312 3.40625 -12.03125 C 4.269531 -12.375 5.296875 -12.546875 6.484375 -12.546875 C 7.347656 -12.546875 8.210938 -12.445312 9.078125 -12.25 C 9.941406 -12.0625 10.660156 -11.800781 11.234375 -11.46875 L 10.03125 -8.90625 C 8.945312 -9.519531 7.765625 -9.828125 6.484375 -9.828125 C 5.710938 -9.828125 5.132812 -9.71875 4.75 -9.5 C 4.375 -9.289062 4.1875 -9.019531 4.1875 -8.6875 C 4.1875 -8.300781 4.390625 -8.03125 4.796875 -7.875 C 5.210938 -7.726562 5.875 -7.582031 6.78125 -7.4375 C 7.789062 -7.269531 8.613281 -7.085938 9.25 -6.890625 C 9.894531 -6.703125 10.453125 -6.351562 10.921875 -5.84375 C 11.398438 -5.34375 11.640625 -4.644531 11.640625 -3.75 C 11.640625 -2.976562 11.410156 -2.289062 10.953125 -1.6875 C 10.492188 -1.09375 9.820312 -0.628906 8.9375 -0.296875 C 8.0625 0.0234375 7.019531 0.1875 5.8125 0.1875 Z M 5.8125 0.1875 "/></g></g></g><g fill="#ffffff" fill-opacity="1"><g transform="translate(733.444786, 204.130821)"><g><path d="M 9.6875 -7.796875 L 9.6875 -12.5 L 12.15625 -12.5 L 12.15625 0 L 9.6875 0 L 9.6875 -5.6875 L 4.09375 -5.6875 L 4.09375 0 L 1.625 0 L 1.625 -12.5 L 4.09375 -12.5 L 4.09375 -7.796875 Z M 9.6875 -7.796875 "/></g></g></g><g fill="#ffffff" fill-opacity="1"><g transform="translate(747.227236, 204.130821)"><g><path d="M 4.09375 -5.484375 L 4.09375 -2.0625 L 10.0625 -2.0625 L 10.0625 0 L 1.625 0 L 1.625 -12.5 L 9.921875 -12.5 L 9.921875 -10.421875 L 4.09375 -10.421875 L 4.09375 -7.5 L 9.1875 -7.5 L 9.1875 -5.484375 Z M 4.09375 -5.484375 "/></g></g></g><g fill="#ffffff" fill-opacity="1"><g transform="translate(757.967807, 204.130821)"><g><path d="M 11.984375 0 L 9.390625 0 L 8.453125 -2.875 L 3.671875 -2.875 L 2.71875 0 L 0.1875 0 L 4.5 -12.5 L 7.671875 -12.5 Z M 5.9375 -9.890625 L 4.328125 -4.953125 L 7.765625 -4.953125 L 6.15625 -9.890625 Z M 5.9375 -9.890625 "/></g></g></g><g fill="#ffffff" fill-opacity="1"><g transform="translate(770.143871, 204.130821)"><g><path d="M 6.125 -12.5 C 8.144531 -12.5 9.6875 -11.972656 10.75 -10.921875 C 11.820312 -9.867188 12.359375 -8.3125 12.359375 -6.25 C 12.359375 -4.1875 11.820312 -2.628906 10.75 -1.578125 C 9.6875 -0.523438 8.144531 0 6.125 0 L 1.625 0 L 1.625 -12.5 Z M 5.96875 -2.078125 C 7.257812 -2.078125 8.222656 -2.40625 8.859375 -3.0625 C 9.492188 -3.71875 9.8125 -4.78125 9.8125 -6.25 C 9.8125 -7.707031 9.492188 -8.765625 8.859375 -9.421875 C 8.222656 -10.085938 7.257812 -10.421875 5.96875 -10.421875 L 4.09375 -10.421875 L 4.09375 -2.078125 Z M 5.96875 -2.078125 "/></g></g></g><g fill="#ffffff" fill-opacity="1"><g transform="translate(783.49909, 204.130821)"><g><path d="M 4.09375 0 L 1.625 0 L 1.625 -12.5 L 4.09375 -12.5 Z M 4.09375 0 "/></g></g></g><g fill="#ffffff" fill-opacity="1"><g transform="translate(789.223974, 204.130821)"><g><path d="M 4.015625 0 L 1.625 0 L 1.625 -12.5 L 4.453125 -12.5 L 9.46875 -4.4375 L 9.6875 -4.484375 L 9.6875 -12.5 L 12.0625 -12.5 L 12.0625 0 L 9.53125 0 L 4.234375 -8.59375 L 4.015625 -8.5625 Z M 4.015625 0 "/></g></g></g><g fill="#ffffff" fill-opacity="1"><g transform="translate(802.920977, 204.130821)"><g><path d="M 6.0625 0.171875 C 5.019531 0.171875 4.117188 -0.0625 3.359375 -0.53125 C 2.597656 -1.007812 2.007812 -1.726562 1.59375 -2.6875 C 1.1875 -3.644531 0.984375 -4.832031 0.984375 -6.25 C 0.984375 -7.664062 1.226562 -8.851562 1.71875 -9.8125 C 2.21875 -10.78125 2.90625 -11.5 3.78125 -11.96875 C 4.664062 -12.4375 5.691406 -12.671875 6.859375 -12.671875 C 8.046875 -12.671875 9.0625 -12.445312 9.90625 -12 C 10.75 -11.5625 11.34375 -10.898438 11.6875 -10.015625 L 9.890625 -8.921875 L 9.671875 -8.9375 C 9.410156 -9.5 9.046875 -9.90625 8.578125 -10.15625 C 8.117188 -10.414062 7.546875 -10.546875 6.859375 -10.546875 C 5.773438 -10.546875 4.945312 -10.203125 4.375 -9.515625 C 3.8125 -8.835938 3.53125 -7.75 3.53125 -6.25 C 3.53125 -4.738281 3.796875 -3.640625 4.328125 -2.953125 C 4.859375 -2.273438 5.644531 -1.9375 6.6875 -1.9375 C 7.59375 -1.9375 8.257812 -2.132812 8.6875 -2.53125 C 9.113281 -2.9375 9.328125 -3.539062 9.328125 -4.34375 L 9.328125 -4.890625 L 6.359375 -4.890625 L 6.359375 -6.890625 L 11.78125 -6.890625 L 11.78125 0 L 9.421875 0 L 9.421875 -1.671875 L 9.234375 -1.703125 C 8.984375 -1.097656 8.59375 -0.632812 8.0625 -0.3125 C 7.539062 0.0078125 6.875 0.171875 6.0625 0.171875 Z M 6.0625 0.171875 "/></g></g></g><path fill="#ffffff" d="M 752.171875 222.109375 C 752.171875 222.507812 752.097656 222.890625 751.945312 223.257812 C 751.792969 223.625 751.578125 223.949219 751.296875 224.230469 C 751.015625 224.511719 750.691406 224.726562 750.324219 224.878906 C 749.957031 225.03125 749.574219 225.105469 749.175781 225.105469 C 748.777344 225.105469 748.398438 225.03125 748.03125 224.878906 C 747.664062 224.726562 747.339844 224.511719 747.058594 224.230469 C 746.777344 223.949219 746.558594 223.625 746.40625 223.257812 C 746.257812 222.890625 746.179688 222.507812 746.179688 222.109375 C 746.179688 221.710938 746.257812 221.332031 746.40625 220.964844 C 746.558594 220.597656 746.777344 220.273438 747.058594 219.992188 C 747.339844 219.710938 747.664062 219.492188 748.03125 219.339844 C 748.398438 219.191406 748.777344 219.113281 749.175781 219.113281 C 749.574219 219.113281 749.957031 219.191406 750.324219 219.339844 C 750.691406 219.492188 751.015625 219.710938 751.296875 219.992188 C 751.578125 220.273438 751.792969 220.597656 751.945312 220.964844 C 752.097656 221.332031 752.171875 221.710938 752.171875 222.109375 Z M 752.171875 222.109375 " fill-opacity="1" fill-rule="nonzero"/><path fill="#ffffff" d="M 763.210938 229.601562 L 797.414062 229.601562 L 797.414062 231.101562 L 763.210938 231.101562 Z M 763.210938 229.601562 " fill-opacity="1" fill-rule="nonzero"/><g fill="#ffffff" fill-opacity="1"><g transform="translate(763.211232, 228.10317)"><g><path d="M 3.359375 -12.5 L 3.359375 -1.21875 L 9.375 -1.21875 L 9.375 0 L 1.890625 0 L 1.890625 -12.5 Z M 3.359375 -12.5 "/></g></g></g><g fill="#ffffff" fill-opacity="1"><g transform="translate(773.114432, 228.10317)"><g><path d="M 2.34375 -11.25 C 2.039062 -11.25 1.796875 -11.335938 1.609375 -11.515625 C 1.429688 -11.703125 1.34375 -11.941406 1.34375 -12.234375 C 1.34375 -12.515625 1.429688 -12.742188 1.609375 -12.921875 C 1.796875 -13.109375 2.039062 -13.203125 2.34375 -13.203125 C 2.632812 -13.203125 2.875 -13.109375 3.0625 -12.921875 C 3.25 -12.742188 3.34375 -12.515625 3.34375 -12.234375 C 3.34375 -11.941406 3.25 -11.703125 3.0625 -11.515625 C 2.875 -11.335938 2.632812 -11.25 2.34375 -11.25 Z M 1.640625 0 L 1.640625 -9.421875 L 3.03125 -9.421875 L 3.03125 0 Z M 1.640625 0 "/></g></g></g><g fill="#ffffff" fill-opacity="1"><g transform="translate(777.788335, 228.10317)"><g><path d="M 1.640625 0 L 1.640625 -9.421875 L 2.96875 -9.421875 L 2.96875 -7.953125 L 3.140625 -7.90625 C 3.453125 -8.457031 3.851562 -8.878906 4.34375 -9.171875 C 4.832031 -9.460938 5.425781 -9.609375 6.125 -9.609375 C 7.257812 -9.609375 8.082031 -9.316406 8.59375 -8.734375 C 9.101562 -8.160156 9.359375 -7.269531 9.359375 -6.0625 L 9.359375 0 L 7.96875 0 L 7.96875 -6.03125 C 7.96875 -6.601562 7.894531 -7.0625 7.75 -7.40625 C 7.601562 -7.75 7.375 -8 7.0625 -8.15625 C 6.757812 -8.3125 6.363281 -8.390625 5.875 -8.390625 C 5.019531 -8.390625 4.332031 -8.109375 3.8125 -7.546875 C 3.289062 -6.984375 3.03125 -6.082031 3.03125 -4.84375 L 3.03125 0 Z M 1.640625 0 "/></g></g></g><g fill="#ffffff" fill-opacity="1"><g transform="translate(788.63998, 228.10317)"><g><path d="M 1.640625 0 L 1.640625 -13.203125 L 3.03125 -13.203125 L 3.03125 -5.5 L 3.265625 -5.5 L 6.765625 -9.421875 L 8.234375 -9.421875 L 8.234375 -9.234375 L 4.5 -5 L 8.59375 -0.21875 L 8.59375 0 L 7.03125 0 L 3.265625 -4.359375 L 3.03125 -4.359375 L 3.03125 0 Z M 1.640625 0 "/></g></g></g><path fill="#ffffff" d="M 752.171875 246.082031 C 752.171875 246.480469 752.097656 246.863281 751.945312 247.230469 C 751.792969 247.597656 751.578125 247.921875 751.296875 248.203125 C 751.015625 248.480469 750.691406 248.699219 750.324219 248.851562 C 749.957031 249.003906 749.574219 249.078125 749.175781 249.078125 C 748.777344 249.078125 748.398438 249.003906 748.03125 248.851562 C 747.664062 248.699219 747.339844 248.480469 747.058594 248.203125 C 746.777344 247.921875 746.558594 247.597656 746.40625 247.230469 C 746.257812 246.863281 746.179688 246.480469 746.179688 246.082031 C 746.179688 245.683594 746.257812 245.304688 746.40625 244.9375 C 746.558594 244.570312 746.777344 244.246094 747.058594 243.964844 C 747.339844 243.683594 747.664062 243.464844 748.03125 243.3125 C 748.398438 243.160156 748.777344 243.085938 749.175781 243.085938 C 749.574219 243.085938 749.957031 243.160156 750.324219 243.3125 C 750.691406 243.464844 751.015625 243.683594 751.296875 243.964844 C 751.578125 244.246094 751.792969 244.570312 751.945312 244.9375 C 752.097656 245.304688 752.171875 245.683594 752.171875 246.082031 Z M 752.171875 246.082031 " fill-opacity="1" fill-rule="nonzero"/><path fill="#ffffff" d="M 763.210938 253.574219 L 797.414062 253.574219 L 797.414062 255.070312 L 763.210938 255.070312 Z M 763.210938 253.574219 " fill-opacity="1" fill-rule="nonzero"/><g fill="#ffffff" fill-opacity="1"><g transform="translate(763.211232, 252.075518)"><g><path d="M 3.359375 -12.5 L 3.359375 -1.21875 L 9.375 -1.21875 L 9.375 0 L 1.890625 0 L 1.890625 -12.5 Z M 3.359375 -12.5 "/></g></g></g><g fill="#ffffff" fill-opacity="1"><g transform="translate(773.114432, 252.075518)"><g><path d="M 2.34375 -11.25 C 2.039062 -11.25 1.796875 -11.335938 1.609375 -11.515625 C 1.429688 -11.703125 1.34375 -11.941406 1.34375 -12.234375 C 1.34375 -12.515625 1.429688 -12.742188 1.609375 -12.921875 C 1.796875 -13.109375 2.039062 -13.203125 2.34375 -13.203125 C 2.632812 -13.203125 2.875 -13.109375 3.0625 -12.921875 C 3.25 -12.742188 3.34375 -12.515625 3.34375 -12.234375 C 3.34375 -11.941406 3.25 -11.703125 3.0625 -11.515625 C 2.875 -11.335938 2.632812 -11.25 2.34375 -11.25 Z M 1.640625 0 L 1.640625 -9.421875 L 3.03125 -9.421875 L 3.03125 0 Z M 1.640625 0 "/></g></g></g><g fill="#ffffff" fill-opacity="1"><g transform="translate(777.788335, 252.075518)"><g><path d="M 1.640625 0 L 1.640625 -9.421875 L 2.96875 -9.421875 L 2.96875 -7.953125 L 3.140625 -7.90625 C 3.453125 -8.457031 3.851562 -8.878906 4.34375 -9.171875 C 4.832031 -9.460938 5.425781 -9.609375 6.125 -9.609375 C 7.257812 -9.609375 8.082031 -9.316406 8.59375 -8.734375 C 9.101562 -8.160156 9.359375 -7.269531 9.359375 -6.0625 L 9.359375 0 L 7.96875 0 L 7.96875 -6.03125 C 7.96875 -6.601562 7.894531 -7.0625 7.75 -7.40625 C 7.601562 -7.75 7.375 -8 7.0625 -8.15625 C 6.757812 -8.3125 6.363281 -8.390625 5.875 -8.390625 C 5.019531 -8.390625 4.332031 -8.109375 3.8125 -7.546875 C 3.289062 -6.984375 3.03125 -6.082031 3.03125 -4.84375 L 3.03125 0 Z M 1.640625 0 "/></g></g></g><g fill="#ffffff" fill-opacity="1"><g transform="translate(788.63998, 252.075518)"><g><path d="M 1.640625 0 L 1.640625 -13.203125 L 3.03125 -13.203125 L 3.03125 -5.5 L 3.265625 -5.5 L 6.765625 -9.421875 L 8.234375 -9.421875 L 8.234375 -9.234375 L 4.5 -5 L 8.59375 -0.21875 L 8.59375 0 L 7.03125 0 L 3.265625 -4.359375 L 3.03125 -4.359375 L 3.03125 0 Z M 1.640625 0 "/></g></g></g><path fill="#ffffff" d="M 752.171875 270.054688 C 752.171875 270.453125 752.097656 270.835938 751.945312 271.203125 C 751.792969 271.570312 751.578125 271.894531 751.296875 272.171875 C 751.015625 272.453125 750.691406 272.671875 750.324219 272.824219 C 749.957031 272.976562 749.574219 273.050781 749.175781 273.050781 C 748.777344 273.050781 748.398438 272.976562 748.03125 272.824219 C 747.664062 272.671875 747.339844 272.453125 747.058594 272.171875 C 746.777344 271.894531 746.558594 271.570312 746.40625 271.203125 C 746.257812 270.835938 746.179688 270.453125 746.179688 270.054688 C 746.179688 269.65625 746.257812 269.273438 746.40625 268.90625 C 746.558594 268.539062 746.777344 268.21875 747.058594 267.9375 C 747.339844 267.65625 747.664062 267.4375 748.03125 267.285156 C 748.398438 267.132812 748.777344 267.058594 749.175781 267.058594 C 749.574219 267.058594 749.957031 267.132812 750.324219 267.285156 C 750.691406 267.4375 751.015625 267.65625 751.296875 267.9375 C 751.578125 268.21875 751.792969 268.539062 751.945312 268.90625 C 752.097656 269.273438 752.171875 269.65625 752.171875 270.054688 Z M 752.171875 270.054688 " fill-opacity="1" fill-rule="nonzero"/><path fill="#ffffff" d="M 763.210938 277.546875 L 797.414062 277.546875 L 797.414062 279.042969 L 763.210938 279.042969 Z M 763.210938 277.546875 " fill-opacity="1" fill-rule="nonzero"/><g fill="#ffffff" fill-opacity="1"><g transform="translate(763.211232, 276.047866)"><g><path d="M 3.359375 -12.5 L 3.359375 -1.21875 L 9.375 -1.21875 L 9.375 0 L 1.890625 0 L 1.890625 -12.5 Z M 3.359375 -12.5 "/></g></g></g><g fill="#ffffff" fill-opacity="1"><g transform="translate(773.114432, 276.047866)"><g><path d="M 2.34375 -11.25 C 2.039062 -11.25 1.796875 -11.335938 1.609375 -11.515625 C 1.429688 -11.703125 1.34375 -11.941406 1.34375 -12.234375 C 1.34375 -12.515625 1.429688 -12.742188 1.609375 -12.921875 C 1.796875 -13.109375 2.039062 -13.203125 2.34375 -13.203125 C 2.632812 -13.203125 2.875 -13.109375 3.0625 -12.921875 C 3.25 -12.742188 3.34375 -12.515625 3.34375 -12.234375 C 3.34375 -11.941406 3.25 -11.703125 3.0625 -11.515625 C 2.875 -11.335938 2.632812 -11.25 2.34375 -11.25 Z M 1.640625 0 L 1.640625 -9.421875 L 3.03125 -9.421875 L 3.03125 0 Z M 1.640625 0 "/></g></g></g><g fill="#ffffff" fill-opacity="1"><g transform="translate(777.788335, 276.047866)"><g><path d="M 1.640625 0 L 1.640625 -9.421875 L 2.96875 -9.421875 L 2.96875 -7.953125 L 3.140625 -7.90625 C 3.453125 -8.457031 3.851562 -8.878906 4.34375 -9.171875 C 4.832031 -9.460938 5.425781 -9.609375 6.125 -9.609375 C 7.257812 -9.609375 8.082031 -9.316406 8.59375 -8.734375 C 9.101562 -8.160156 9.359375 -7.269531 9.359375 -6.0625 L 9.359375 0 L 7.96875 0 L 7.96875 -6.03125 C 7.96875 -6.601562 7.894531 -7.0625 7.75 -7.40625 C 7.601562 -7.75 7.375 -8 7.0625 -8.15625 C 6.757812 -8.3125 6.363281 -8.390625 5.875 -8.390625 C 5.019531 -8.390625 4.332031 -8.109375 3.8125 -7.546875 C 3.289062 -6.984375 3.03125 -6.082031 3.03125 -4.84375 L 3.03125 0 Z M 1.640625 0 "/></g></g></g><g fill="#ffffff" fill-opacity="1"><g transform="translate(788.63998, 276.047866)"><g><path d="M 1.640625 0 L 1.640625 -13.203125 L 3.03125 -13.203125 L 3.03125 -5.5 L 3.265625 -5.5 L 6.765625 -9.421875 L 8.234375 -9.421875 L 8.234375 -9.234375 L 4.5 -5 L 8.59375 -0.21875 L 8.59375 0 L 7.03125 0 L 3.265625 -4.359375 L 3.03125 -4.359375 L 3.03125 0 Z M 1.640625 0 "/></g></g></g><path fill="#ffffff" d="M 752.171875 294.027344 C 752.171875 294.425781 752.097656 294.808594 751.945312 295.175781 C 751.792969 295.539062 751.578125 295.863281 751.296875 296.144531 C 751.015625 296.425781 750.691406 296.644531 750.324219 296.796875 C 749.957031 296.949219 749.574219 297.023438 749.175781 297.023438 C 748.777344 297.023438 748.398438 296.949219 748.03125 296.796875 C 747.664062 296.644531 747.339844 296.425781 747.058594 296.144531 C 746.777344 295.863281 746.558594 295.539062 746.40625 295.175781 C 746.257812 294.808594 746.179688 294.425781 746.179688 294.027344 C 746.179688 293.628906 746.257812 293.246094 746.40625 292.878906 C 746.558594 292.511719 746.777344 292.1875 747.058594 291.910156 C 747.339844 291.628906 747.664062 291.410156 748.03125 291.257812 C 748.398438 291.105469 748.777344 291.03125 749.175781 291.03125 C 749.574219 291.03125 749.957031 291.105469 750.324219 291.257812 C 750.691406 291.410156 751.015625 291.628906 751.296875 291.910156 C 751.578125 292.1875 751.792969 292.511719 751.945312 292.878906 C 752.097656 293.246094 752.171875 293.628906 752.171875 294.027344 Z M 752.171875 294.027344 " fill-opacity="1" fill-rule="nonzero"/><path fill="#ffffff" d="M 763.210938 301.519531 L 797.414062 301.519531 L 797.414062 303.015625 L 763.210938 303.015625 Z M 763.210938 301.519531 " fill-opacity="1" fill-rule="nonzero"/><g fill="#ffffff" fill-opacity="1"><g transform="translate(763.211232, 300.020214)"><g><path d="M 3.359375 -12.5 L 3.359375 -1.21875 L 9.375 -1.21875 L 9.375 0 L 1.890625 0 L 1.890625 -12.5 Z M 3.359375 -12.5 "/></g></g></g><g fill="#ffffff" fill-opacity="1"><g transform="translate(773.114432, 300.020214)"><g><path d="M 2.34375 -11.25 C 2.039062 -11.25 1.796875 -11.335938 1.609375 -11.515625 C 1.429688 -11.703125 1.34375 -11.941406 1.34375 -12.234375 C 1.34375 -12.515625 1.429688 -12.742188 1.609375 -12.921875 C 1.796875 -13.109375 2.039062 -13.203125 2.34375 -13.203125 C 2.632812 -13.203125 2.875 -13.109375 3.0625 -12.921875 C 3.25 -12.742188 3.34375 -12.515625 3.34375 -12.234375 C 3.34375 -11.941406 3.25 -11.703125 3.0625 -11.515625 C 2.875 -11.335938 2.632812 -11.25 2.34375 -11.25 Z M 1.640625 0 L 1.640625 -9.421875 L 3.03125 -9.421875 L 3.03125 0 Z M 1.640625 0 "/></g></g></g><g fill="#ffffff" fill-opacity="1"><g transform="translate(777.788335, 300.020214)"><g><path d="M 1.640625 0 L 1.640625 -9.421875 L 2.96875 -9.421875 L 2.96875 -7.953125 L 3.140625 -7.90625 C 3.453125 -8.457031 3.851562 -8.878906 4.34375 -9.171875 C 4.832031 -9.460938 5.425781 -9.609375 6.125 -9.609375 C 7.257812 -9.609375 8.082031 -9.316406 8.59375 -8.734375 C 9.101562 -8.160156 9.359375 -7.269531 9.359375 -6.0625 L 9.359375 0 L 7.96875 0 L 7.96875 -6.03125 C 7.96875 -6.601562 7.894531 -7.0625 7.75 -7.40625 C 7.601562 -7.75 7.375 -8 7.0625 -8.15625 C 6.757812 -8.3125 6.363281 -8.390625 5.875 -8.390625 C 5.019531 -8.390625 4.332031 -8.109375 3.8125 -7.546875 C 3.289062 -6.984375 3.03125 -6.082031 3.03125 -4.84375 L 3.03125 0 Z M 1.640625 0 "/></g></g></g><g fill="#ffffff" fill-opacity="1"><g transform="translate(788.63998, 300.020214)"><g><path d="M 1.640625 0 L 1.640625 -13.203125 L 3.03125 -13.203125 L 3.03125 -5.5 L 3.265625 -5.5 L 6.765625 -9.421875 L 8.234375 -9.421875 L 8.234375 -9.234375 L 4.5 -5 L 8.59375 -0.21875 L 8.59375 0 L 7.03125 0 L 3.265625 -4.359375 L 3.03125 -4.359375 L 3.03125 0 Z M 1.640625 0 "/></g></g></g><path fill="#ffffff" d="M 752.171875 318 C 752.171875 318.398438 752.097656 318.777344 751.945312 319.144531 C 751.792969 319.511719 751.578125 319.835938 751.296875 320.117188 C 751.015625 320.398438 750.691406 320.617188 750.324219 320.769531 C 749.957031 320.921875 749.574219 320.996094 749.175781 320.996094 C 748.777344 320.996094 748.398438 320.921875 748.03125 320.769531 C 747.664062 320.617188 747.339844 320.398438 747.058594 320.117188 C 746.777344 319.835938 746.558594 319.511719 746.40625 319.144531 C 746.257812 318.777344 746.179688 318.398438 746.179688 318 C 746.179688 317.601562 746.257812 317.21875 746.40625 316.851562 C 746.558594 316.484375 746.777344 316.160156 747.058594 315.878906 C 747.339844 315.597656 747.664062 315.382812 748.03125 315.230469 C 748.398438 315.078125 748.777344 315.003906 749.175781 315.003906 C 749.574219 315.003906 749.957031 315.078125 750.324219 315.230469 C 750.691406 315.382812 751.015625 315.597656 751.296875 315.878906 C 751.578125 316.160156 751.792969 316.484375 751.945312 316.851562 C 752.097656 317.21875 752.171875 317.601562 752.171875 318 Z M 752.171875 318 " fill-opacity="1" fill-rule="nonzero"/><path fill="#ffffff" d="M 763.210938 325.492188 L 797.414062 325.492188 L 797.414062 326.988281 L 763.210938 326.988281 Z M 763.210938 325.492188 " fill-opacity="1" fill-rule="nonzero"/><g fill="#ffffff" fill-opacity="1"><g transform="translate(763.211232, 323.992563)"><g><path d="M 3.359375 -12.5 L 3.359375 -1.21875 L 9.375 -1.21875 L 9.375 0 L 1.890625 0 L 1.890625 -12.5 Z M 3.359375 -12.5 "/></g></g></g><g fill="#ffffff" fill-opacity="1"><g transform="translate(773.114432, 323.992563)"><g><path d="M 2.34375 -11.25 C 2.039062 -11.25 1.796875 -11.335938 1.609375 -11.515625 C 1.429688 -11.703125 1.34375 -11.941406 1.34375 -12.234375 C 1.34375 -12.515625 1.429688 -12.742188 1.609375 -12.921875 C 1.796875 -13.109375 2.039062 -13.203125 2.34375 -13.203125 C 2.632812 -13.203125 2.875 -13.109375 3.0625 -12.921875 C 3.25 -12.742188 3.34375 -12.515625 3.34375 -12.234375 C 3.34375 -11.941406 3.25 -11.703125 3.0625 -11.515625 C 2.875 -11.335938 2.632812 -11.25 2.34375 -11.25 Z M 1.640625 0 L 1.640625 -9.421875 L 3.03125 -9.421875 L 3.03125 0 Z M 1.640625 0 "/></g></g></g><g fill="#ffffff" fill-opacity="1"><g transform="translate(777.788335, 323.992563)"><g><path d="M 1.640625 0 L 1.640625 -9.421875 L 2.96875 -9.421875 L 2.96875 -7.953125 L 3.140625 -7.90625 C 3.453125 -8.457031 3.851562 -8.878906 4.34375 -9.171875 C 4.832031 -9.460938 5.425781 -9.609375 6.125 -9.609375 C 7.257812 -9.609375 8.082031 -9.316406 8.59375 -8.734375 C 9.101562 -8.160156 9.359375 -7.269531 9.359375 -6.0625 L 9.359375 0 L 7.96875 0 L 7.96875 -6.03125 C 7.96875 -6.601562 7.894531 -7.0625 7.75 -7.40625 C 7.601562 -7.75 7.375 -8 7.0625 -8.15625 C 6.757812 -8.3125 6.363281 -8.390625 5.875 -8.390625 C 5.019531 -8.390625 4.332031 -8.109375 3.8125 -7.546875 C 3.289062 -6.984375 3.03125 -6.082031 3.03125 -4.84375 L 3.03125 0 Z M 1.640625 0 "/></g></g></g><g fill="#ffffff" fill-opacity="1"><g transform="translate(788.63998, 323.992563)"><g><path d="M 1.640625 0 L 1.640625 -13.203125 L 3.03125 -13.203125 L 3.03125 -5.5 L 3.265625 -5.5 L 6.765625 -9.421875 L 8.234375 -9.421875 L 8.234375 -9.234375 L 4.5 -5 L 8.59375 -0.21875 L 8.59375 0 L 7.03125 0 L 3.265625 -4.359375 L 3.03125 -4.359375 L 3.03125 0 Z M 1.640625 0 "/></g></g></g><path fill="#ffffff" d="M 752.171875 341.972656 C 752.171875 342.371094 752.097656 342.75 751.945312 343.117188 C 751.792969 343.484375 751.578125 343.808594 751.296875 344.089844 C 751.015625 344.371094 750.691406 344.589844 750.324219 344.742188 C 749.957031 344.890625 749.574219 344.96875 749.175781 344.96875 C 748.777344 344.96875 748.398438 344.890625 748.03125 344.742188 C 747.664062 344.589844 747.339844 344.371094 747.058594 344.089844 C 746.777344 343.808594 746.558594 343.484375 746.40625 343.117188 C 746.257812 342.75 746.179688 342.371094 746.179688 341.972656 C 746.179688 341.574219 746.257812 341.191406 746.40625 340.824219 C 746.558594 340.457031 746.777344 340.132812 747.058594 339.851562 C 747.339844 339.570312 747.664062 339.355469 748.03125 339.203125 C 748.398438 339.050781 748.777344 338.976562 749.175781 338.976562 C 749.574219 338.976562 749.957031 339.050781 750.324219 339.203125 C 750.691406 339.355469 751.015625 339.570312 751.296875 339.851562 C 751.578125 340.132812 751.792969 340.457031 751.945312 340.824219 C 752.097656 341.191406 752.171875 341.574219 752.171875 341.972656 Z M 752.171875 341.972656 " fill-opacity="1" fill-rule="nonzero"/><path fill="#ffffff" d="M 763.210938 349.464844 L 797.414062 349.464844 L 797.414062 350.960938 L 763.210938 350.960938 Z M 763.210938 349.464844 " fill-opacity="1" fill-rule="nonzero"/><g fill="#ffffff" fill-opacity="1"><g transform="translate(763.211232, 347.964911)"><g><path d="M 3.359375 -12.5 L 3.359375 -1.21875 L 9.375 -1.21875 L 9.375 0 L 1.890625 0 L 1.890625 -12.5 Z M 3.359375 -12.5 "/></g></g></g><g fill="#ffffff" fill-opacity="1"><g transform="translate(773.114432, 347.964911)"><g><path d="M 2.34375 -11.25 C 2.039062 -11.25 1.796875 -11.335938 1.609375 -11.515625 C 1.429688 -11.703125 1.34375 -11.941406 1.34375 -12.234375 C 1.34375 -12.515625 1.429688 -12.742188 1.609375 -12.921875 C 1.796875 -13.109375 2.039062 -13.203125 2.34375 -13.203125 C 2.632812 -13.203125 2.875 -13.109375 3.0625 -12.921875 C 3.25 -12.742188 3.34375 -12.515625 3.34375 -12.234375 C 3.34375 -11.941406 3.25 -11.703125 3.0625 -11.515625 C 2.875 -11.335938 2.632812 -11.25 2.34375 -11.25 Z M 1.640625 0 L 1.640625 -9.421875 L 3.03125 -9.421875 L 3.03125 0 Z M 1.640625 0 "/></g></g></g><g fill="#ffffff" fill-opacity="1"><g transform="translate(777.788335, 347.964911)"><g><path d="M 1.640625 0 L 1.640625 -9.421875 L 2.96875 -9.421875 L 2.96875 -7.953125 L 3.140625 -7.90625 C 3.453125 -8.457031 3.851562 -8.878906 4.34375 -9.171875 C 4.832031 -9.460938 5.425781 -9.609375 6.125 -9.609375 C 7.257812 -9.609375 8.082031 -9.316406 8.59375 -8.734375 C 9.101562 -8.160156 9.359375 -7.269531 9.359375 -6.0625 L 9.359375 0 L 7.96875 0 L 7.96875 -6.03125 C 7.96875 -6.601562 7.894531 -7.0625 7.75 -7.40625 C 7.601562 -7.75 7.375 -8 7.0625 -8.15625 C 6.757812 -8.3125 6.363281 -8.390625 5.875 -8.390625 C 5.019531 -8.390625 4.332031 -8.109375 3.8125 -7.546875 C 3.289062 -6.984375 3.03125 -6.082031 3.03125 -4.84375 L 3.03125 0 Z M 1.640625 0 "/></g></g></g><g fill="#ffffff" fill-opacity="1"><g transform="translate(788.63998, 347.964911)"><g><path d="M 1.640625 0 L 1.640625 -13.203125 L 3.03125 -13.203125 L 3.03125 -5.5 L 3.265625 -5.5 L 6.765625 -9.421875 L 8.234375 -9.421875 L 8.234375 -9.234375 L 4.5 -5 L 8.59375 -0.21875 L 8.59375 0 L 7.03125 0 L 3.265625 -4.359375 L 3.03125 -4.359375 L 3.03125 0 Z M 1.640625 0 "/></g></g></g><path fill="#ffffff" d="M 752.171875 365.945312 C 752.171875 366.339844 752.097656 366.722656 751.945312 367.089844 C 751.792969 367.457031 751.578125 367.78125 751.296875 368.0625 C 751.015625 368.34375 750.691406 368.558594 750.324219 368.710938 C 749.957031 368.863281 749.574219 368.941406 749.175781 368.941406 C 748.777344 368.941406 748.398438 368.863281 748.03125 368.710938 C 747.664062 368.558594 747.339844 368.34375 747.058594 368.0625 C 746.777344 367.78125 746.558594 367.457031 746.40625 367.089844 C 746.257812 366.722656 746.179688 366.339844 746.179688 365.945312 C 746.179688 365.546875 746.257812 365.164062 746.40625 364.796875 C 746.558594 364.429688 746.777344 364.105469 747.058594 363.824219 C 747.339844 363.542969 747.664062 363.328125 748.03125 363.175781 C 748.398438 363.023438 748.777344 362.949219 749.175781 362.949219 C 749.574219 362.949219 749.957031 363.023438 750.324219 363.175781 C 750.691406 363.328125 751.015625 363.542969 751.296875 363.824219 C 751.578125 364.105469 751.792969 364.429688 751.945312 364.796875 C 752.097656 365.164062 752.171875 365.546875 752.171875 365.945312 Z M 752.171875 365.945312 " fill-opacity="1" fill-rule="nonzero"/><path fill="#ffffff" d="M 763.210938 373.433594 L 797.414062 373.433594 L 797.414062 374.933594 L 763.210938 374.933594 Z M 763.210938 373.433594 " fill-opacity="1" fill-rule="nonzero"/><g fill="#ffffff" fill-opacity="1"><g transform="translate(763.211232, 371.937259)"><g><path d="M 3.359375 -12.5 L 3.359375 -1.21875 L 9.375 -1.21875 L 9.375 0 L 1.890625 0 L 1.890625 -12.5 Z M 3.359375 -12.5 "/></g></g></g><g fill="#ffffff" fill-opacity="1"><g transform="translate(773.114432, 371.937259)"><g><path d="M 2.34375 -11.25 C 2.039062 -11.25 1.796875 -11.335938 1.609375 -11.515625 C 1.429688 -11.703125 1.34375 -11.941406 1.34375 -12.234375 C 1.34375 -12.515625 1.429688 -12.742188 1.609375 -12.921875 C 1.796875 -13.109375 2.039062 -13.203125 2.34375 -13.203125 C 2.632812 -13.203125 2.875 -13.109375 3.0625 -12.921875 C 3.25 -12.742188 3.34375 -12.515625 3.34375 -12.234375 C 3.34375 -11.941406 3.25 -11.703125 3.0625 -11.515625 C 2.875 -11.335938 2.632812 -11.25 2.34375 -11.25 Z M 1.640625 0 L 1.640625 -9.421875 L 3.03125 -9.421875 L 3.03125 0 Z M 1.640625 0 "/></g></g></g><g fill="#ffffff" fill-opacity="1"><g transform="translate(777.788335, 371.937259)"><g><path d="M 1.640625 0 L 1.640625 -9.421875 L 2.96875 -9.421875 L 2.96875 -7.953125 L 3.140625 -7.90625 C 3.453125 -8.457031 3.851562 -8.878906 4.34375 -9.171875 C 4.832031 -9.460938 5.425781 -9.609375 6.125 -9.609375 C 7.257812 -9.609375 8.082031 -9.316406 8.59375 -8.734375 C 9.101562 -8.160156 9.359375 -7.269531 9.359375 -6.0625 L 9.359375 0 L 7.96875 0 L 7.96875 -6.03125 C 7.96875 -6.601562 7.894531 -7.0625 7.75 -7.40625 C 7.601562 -7.75 7.375 -8 7.0625 -8.15625 C 6.757812 -8.3125 6.363281 -8.390625 5.875 -8.390625 C 5.019531 -8.390625 4.332031 -8.109375 3.8125 -7.546875 C 3.289062 -6.984375 3.03125 -6.082031 3.03125 -4.84375 L 3.03125 0 Z M 1.640625 0 "/></g></g></g><g fill="#ffffff" fill-opacity="1"><g transform="translate(788.63998, 371.937259)"><g><path d="M 1.640625 0 L 1.640625 -13.203125 L 3.03125 -13.203125 L 3.03125 -5.5 L 3.265625 -5.5 L 6.765625 -9.421875 L 8.234375 -9.421875 L 8.234375 -9.234375 L 4.5 -5 L 8.59375 -0.21875 L 8.59375 0 L 7.03125 0 L 3.265625 -4.359375 L 3.03125 -4.359375 L 3.03125 0 Z M 1.640625 0 "/></g></g></g><g fill="#ffffff" fill-opacity="1"><g transform="translate(333.415518, 204.130821)"><g><path d="M 9.6875 -7.796875 L 9.6875 -12.5 L 12.15625 -12.5 L 12.15625 0 L 9.6875 0 L 9.6875 -5.6875 L 4.09375 -5.6875 L 4.09375 0 L 1.625 0 L 1.625 -12.5 L 4.09375 -12.5 L 4.09375 -7.796875 Z M 9.6875 -7.796875 "/></g></g></g><g fill="#ffffff" fill-opacity="1"><g transform="translate(347.197968, 204.130821)"><g><path d="M 4.09375 -5.484375 L 4.09375 -2.0625 L 10.0625 -2.0625 L 10.0625 0 L 1.625 0 L 1.625 -12.5 L 9.921875 -12.5 L 9.921875 -10.421875 L 4.09375 -10.421875 L 4.09375 -7.5 L 9.1875 -7.5 L 9.1875 -5.484375 Z M 4.09375 -5.484375 "/></g></g></g><g fill="#ffffff" fill-opacity="1"><g transform="translate(357.938539, 204.130821)"><g><path d="M 11.984375 0 L 9.390625 0 L 8.453125 -2.875 L 3.671875 -2.875 L 2.71875 0 L 0.1875 0 L 4.5 -12.5 L 7.671875 -12.5 Z M 5.9375 -9.890625 L 4.328125 -4.953125 L 7.765625 -4.953125 L 6.15625 -9.890625 Z M 5.9375 -9.890625 "/></g></g></g><g fill="#ffffff" fill-opacity="1"><g transform="translate(370.114604, 204.130821)"><g><path d="M 6.125 -12.5 C 8.144531 -12.5 9.6875 -11.972656 10.75 -10.921875 C 11.820312 -9.867188 12.359375 -8.3125 12.359375 -6.25 C 12.359375 -4.1875 11.820312 -2.628906 10.75 -1.578125 C 9.6875 -0.523438 8.144531 0 6.125 0 L 1.625 0 L 1.625 -12.5 Z M 5.96875 -2.078125 C 7.257812 -2.078125 8.222656 -2.40625 8.859375 -3.0625 C 9.492188 -3.71875 9.8125 -4.78125 9.8125 -6.25 C 9.8125 -7.707031 9.492188 -8.765625 8.859375 -9.421875 C 8.222656 -10.085938 7.257812 -10.421875 5.96875 -10.421875 L 4.09375 -10.421875 L 4.09375 -2.078125 Z M 5.96875 -2.078125 "/></g></g></g><g fill="#ffffff" fill-opacity="1"><g transform="translate(383.469823, 204.130821)"><g><path d="M 4.09375 0 L 1.625 0 L 1.625 -12.5 L 4.09375 -12.5 Z M 4.09375 0 "/></g></g></g><g fill="#ffffff" fill-opacity="1"><g transform="translate(389.194707, 204.130821)"><g><path d="M 4.015625 0 L 1.625 0 L 1.625 -12.5 L 4.453125 -12.5 L 9.46875 -4.4375 L 9.6875 -4.484375 L 9.6875 -12.5 L 12.0625 -12.5 L 12.0625 0 L 9.53125 0 L 4.234375 -8.59375 L 4.015625 -8.5625 Z M 4.015625 0 "/></g></g></g><g fill="#ffffff" fill-opacity="1"><g transform="translate(402.89171, 204.130821)"><g><path d="M 6.0625 0.171875 C 5.019531 0.171875 4.117188 -0.0625 3.359375 -0.53125 C 2.597656 -1.007812 2.007812 -1.726562 1.59375 -2.6875 C 1.1875 -3.644531 0.984375 -4.832031 0.984375 -6.25 C 0.984375 -7.664062 1.226562 -8.851562 1.71875 -9.8125 C 2.21875 -10.78125 2.90625 -11.5 3.78125 -11.96875 C 4.664062 -12.4375 5.691406 -12.671875 6.859375 -12.671875 C 8.046875 -12.671875 9.0625 -12.445312 9.90625 -12 C 10.75 -11.5625 11.34375 -10.898438 11.6875 -10.015625 L 9.890625 -8.921875 L 9.671875 -8.9375 C 9.410156 -9.5 9.046875 -9.90625 8.578125 -10.15625 C 8.117188 -10.414062 7.546875 -10.546875 6.859375 -10.546875 C 5.773438 -10.546875 4.945312 -10.203125 4.375 -9.515625 C 3.8125 -8.835938 3.53125 -7.75 3.53125 -6.25 C 3.53125 -4.738281 3.796875 -3.640625 4.328125 -2.953125 C 4.859375 -2.273438 5.644531 -1.9375 6.6875 -1.9375 C 7.59375 -1.9375 8.257812 -2.132812 8.6875 -2.53125 C 9.113281 -2.9375 9.328125 -3.539062 9.328125 -4.34375 L 9.328125 -4.890625 L 6.359375 -4.890625 L 6.359375 -6.890625 L 11.78125 -6.890625 L 11.78125 0 L 9.421875 0 L 9.421875 -1.671875 L 9.234375 -1.703125 C 8.984375 -1.097656 8.59375 -0.632812 8.0625 -0.3125 C 7.539062 0.0078125 6.875 0.171875 6.0625 0.171875 Z M 6.0625 0.171875 "/></g></g></g><path fill="#ffffff" d="M 352.144531 222.109375 C 352.144531 222.507812 352.066406 222.890625 351.914062 223.257812 C 351.765625 223.625 351.546875 223.949219 351.265625 224.230469 C 350.984375 224.511719 350.660156 224.726562 350.292969 224.878906 C 349.925781 225.03125 349.542969 225.105469 349.148438 225.105469 C 348.75 225.105469 348.367188 225.03125 348 224.878906 C 347.632812 224.726562 347.308594 224.511719 347.027344 224.230469 C 346.746094 223.949219 346.53125 223.625 346.378906 223.257812 C 346.226562 222.890625 346.152344 222.507812 346.152344 222.109375 C 346.152344 221.710938 346.226562 221.332031 346.378906 220.964844 C 346.53125 220.597656 346.746094 220.273438 347.027344 219.992188 C 347.308594 219.710938 347.632812 219.492188 348 219.339844 C 348.367188 219.191406 348.75 219.113281 349.148438 219.113281 C 349.542969 219.113281 349.925781 219.191406 350.292969 219.339844 C 350.660156 219.492188 350.984375 219.710938 351.265625 219.992188 C 351.546875 220.273438 351.765625 220.597656 351.914062 220.964844 C 352.066406 221.332031 352.144531 221.710938 352.144531 222.109375 Z M 352.144531 222.109375 " fill-opacity="1" fill-rule="nonzero"/><path fill="#ffffff" d="M 363.183594 229.601562 L 397.382812 229.601562 L 397.382812 231.101562 L 363.183594 231.101562 Z M 363.183594 229.601562 " fill-opacity="1" fill-rule="nonzero"/><g fill="#ffffff" fill-opacity="1"><g transform="translate(363.181964, 228.10317)"><g><path d="M 3.359375 -12.5 L 3.359375 -1.21875 L 9.375 -1.21875 L 9.375 0 L 1.890625 0 L 1.890625 -12.5 Z M 3.359375 -12.5 "/></g></g></g><g fill="#ffffff" fill-opacity="1"><g transform="translate(373.085165, 228.10317)"><g><path d="M 2.34375 -11.25 C 2.039062 -11.25 1.796875 -11.335938 1.609375 -11.515625 C 1.429688 -11.703125 1.34375 -11.941406 1.34375 -12.234375 C 1.34375 -12.515625 1.429688 -12.742188 1.609375 -12.921875 C 1.796875 -13.109375 2.039062 -13.203125 2.34375 -13.203125 C 2.632812 -13.203125 2.875 -13.109375 3.0625 -12.921875 C 3.25 -12.742188 3.34375 -12.515625 3.34375 -12.234375 C 3.34375 -11.941406 3.25 -11.703125 3.0625 -11.515625 C 2.875 -11.335938 2.632812 -11.25 2.34375 -11.25 Z M 1.640625 0 L 1.640625 -9.421875 L 3.03125 -9.421875 L 3.03125 0 Z M 1.640625 0 "/></g></g></g><g fill="#ffffff" fill-opacity="1"><g transform="translate(377.759068, 228.10317)"><g><path d="M 1.640625 0 L 1.640625 -9.421875 L 2.96875 -9.421875 L 2.96875 -7.953125 L 3.140625 -7.90625 C 3.453125 -8.457031 3.851562 -8.878906 4.34375 -9.171875 C 4.832031 -9.460938 5.425781 -9.609375 6.125 -9.609375 C 7.257812 -9.609375 8.082031 -9.316406 8.59375 -8.734375 C 9.101562 -8.160156 9.359375 -7.269531 9.359375 -6.0625 L 9.359375 0 L 7.96875 0 L 7.96875 -6.03125 C 7.96875 -6.601562 7.894531 -7.0625 7.75 -7.40625 C 7.601562 -7.75 7.375 -8 7.0625 -8.15625 C 6.757812 -8.3125 6.363281 -8.390625 5.875 -8.390625 C 5.019531 -8.390625 4.332031 -8.109375 3.8125 -7.546875 C 3.289062 -6.984375 3.03125 -6.082031 3.03125 -4.84375 L 3.03125 0 Z M 1.640625 0 "/></g></g></g><g fill="#ffffff" fill-opacity="1"><g transform="translate(388.610713, 228.10317)"><g><path d="M 1.640625 0 L 1.640625 -13.203125 L 3.03125 -13.203125 L 3.03125 -5.5 L 3.265625 -5.5 L 6.765625 -9.421875 L 8.234375 -9.421875 L 8.234375 -9.234375 L 4.5 -5 L 8.59375 -0.21875 L 8.59375 0 L 7.03125 0 L 3.265625 -4.359375 L 3.03125 -4.359375 L 3.03125 0 Z M 1.640625 0 "/></g></g></g><path fill="#ffffff" d="M 352.144531 246.082031 C 352.144531 246.480469 352.066406 246.863281 351.914062 247.230469 C 351.765625 247.597656 351.546875 247.921875 351.265625 248.203125 C 350.984375 248.480469 350.660156 248.699219 350.292969 248.851562 C 349.925781 249.003906 349.542969 249.078125 349.148438 249.078125 C 348.75 249.078125 348.367188 249.003906 348 248.851562 C 347.632812 248.699219 347.308594 248.480469 347.027344 248.203125 C 346.746094 247.921875 346.53125 247.597656 346.378906 247.230469 C 346.226562 246.863281 346.152344 246.480469 346.152344 246.082031 C 346.152344 245.683594 346.226562 245.304688 346.378906 244.9375 C 346.53125 244.570312 346.746094 244.246094 347.027344 243.964844 C 347.308594 243.683594 347.632812 243.464844 348 243.3125 C 348.367188 243.160156 348.75 243.085938 349.148438 243.085938 C 349.542969 243.085938 349.925781 243.160156 350.292969 243.3125 C 350.660156 243.464844 350.984375 243.683594 351.265625 243.964844 C 351.546875 244.246094 351.765625 244.570312 351.914062 244.9375 C 352.066406 245.304688 352.144531 245.683594 352.144531 246.082031 Z M 352.144531 246.082031 " fill-opacity="1" fill-rule="nonzero"/><path fill="#ffffff" d="M 363.183594 253.574219 L 397.382812 253.574219 L 397.382812 255.070312 L 363.183594 255.070312 Z M 363.183594 253.574219 " fill-opacity="1" fill-rule="nonzero"/><g fill="#ffffff" fill-opacity="1"><g transform="translate(363.181964, 252.075518)"><g><path d="M 3.359375 -12.5 L 3.359375 -1.21875 L 9.375 -1.21875 L 9.375 0 L 1.890625 0 L 1.890625 -12.5 Z M 3.359375 -12.5 "/></g></g></g><g fill="#ffffff" fill-opacity="1"><g transform="translate(373.085165, 252.075518)"><g><path d="M 2.34375 -11.25 C 2.039062 -11.25 1.796875 -11.335938 1.609375 -11.515625 C 1.429688 -11.703125 1.34375 -11.941406 1.34375 -12.234375 C 1.34375 -12.515625 1.429688 -12.742188 1.609375 -12.921875 C 1.796875 -13.109375 2.039062 -13.203125 2.34375 -13.203125 C 2.632812 -13.203125 2.875 -13.109375 3.0625 -12.921875 C 3.25 -12.742188 3.34375 -12.515625 3.34375 -12.234375 C 3.34375 -11.941406 3.25 -11.703125 3.0625 -11.515625 C 2.875 -11.335938 2.632812 -11.25 2.34375 -11.25 Z M 1.640625 0 L 1.640625 -9.421875 L 3.03125 -9.421875 L 3.03125 0 Z M 1.640625 0 "/></g></g></g><g fill="#ffffff" fill-opacity="1"><g transform="translate(377.759068, 252.075518)"><g><path d="M 1.640625 0 L 1.640625 -9.421875 L 2.96875 -9.421875 L 2.96875 -7.953125 L 3.140625 -7.90625 C 3.453125 -8.457031 3.851562 -8.878906 4.34375 -9.171875 C 4.832031 -9.460938 5.425781 -9.609375 6.125 -9.609375 C 7.257812 -9.609375 8.082031 -9.316406 8.59375 -8.734375 C 9.101562 -8.160156 9.359375 -7.269531 9.359375 -6.0625 L 9.359375 0 L 7.96875 0 L 7.96875 -6.03125 C 7.96875 -6.601562 7.894531 -7.0625 7.75 -7.40625 C 7.601562 -7.75 7.375 -8 7.0625 -8.15625 C 6.757812 -8.3125 6.363281 -8.390625 5.875 -8.390625 C 5.019531 -8.390625 4.332031 -8.109375 3.8125 -7.546875 C 3.289062 -6.984375 3.03125 -6.082031 3.03125 -4.84375 L 3.03125 0 Z M 1.640625 0 "/></g></g></g><g fill="#ffffff" fill-opacity="1"><g transform="translate(388.610713, 252.075518)"><g><path d="M 1.640625 0 L 1.640625 -13.203125 L 3.03125 -13.203125 L 3.03125 -5.5 L 3.265625 -5.5 L 6.765625 -9.421875 L 8.234375 -9.421875 L 8.234375 -9.234375 L 4.5 -5 L 8.59375 -0.21875 L 8.59375 0 L 7.03125 0 L 3.265625 -4.359375 L 3.03125 -4.359375 L 3.03125 0 Z M 1.640625 0 "/></g></g></g><path fill="#ffffff" d="M 352.144531 270.054688 C 352.144531 270.453125 352.066406 270.835938 351.914062 271.203125 C 351.765625 271.570312 351.546875 271.894531 351.265625 272.171875 C 350.984375 272.453125 350.660156 272.671875 350.292969 272.824219 C 349.925781 272.976562 349.542969 273.050781 349.148438 273.050781 C 348.75 273.050781 348.367188 272.976562 348 272.824219 C 347.632812 272.671875 347.308594 272.453125 347.027344 272.171875 C 346.746094 271.894531 346.53125 271.570312 346.378906 271.203125 C 346.226562 270.835938 346.152344 270.453125 346.152344 270.054688 C 346.152344 269.65625 346.226562 269.273438 346.378906 268.90625 C 346.53125 268.539062 346.746094 268.21875 347.027344 267.9375 C 347.308594 267.65625 347.632812 267.4375 348 267.285156 C 348.367188 267.132812 348.75 267.058594 349.148438 267.058594 C 349.542969 267.058594 349.925781 267.132812 350.292969 267.285156 C 350.660156 267.4375 350.984375 267.65625 351.265625 267.9375 C 351.546875 268.21875 351.765625 268.539062 351.914062 268.90625 C 352.066406 269.273438 352.144531 269.65625 352.144531 270.054688 Z M 352.144531 270.054688 " fill-opacity="1" fill-rule="nonzero"/><path fill="#ffffff" d="M 363.183594 277.546875 L 397.382812 277.546875 L 397.382812 279.042969 L 363.183594 279.042969 Z M 363.183594 277.546875 " fill-opacity="1" fill-rule="nonzero"/><g fill="#ffffff" fill-opacity="1"><g transform="translate(363.181964, 276.047866)"><g><path d="M 3.359375 -12.5 L 3.359375 -1.21875 L 9.375 -1.21875 L 9.375 0 L 1.890625 0 L 1.890625 -12.5 Z M 3.359375 -12.5 "/></g></g></g><g fill="#ffffff" fill-opacity="1"><g transform="translate(373.085165, 276.047866)"><g><path d="M 2.34375 -11.25 C 2.039062 -11.25 1.796875 -11.335938 1.609375 -11.515625 C 1.429688 -11.703125 1.34375 -11.941406 1.34375 -12.234375 C 1.34375 -12.515625 1.429688 -12.742188 1.609375 -12.921875 C 1.796875 -13.109375 2.039062 -13.203125 2.34375 -13.203125 C 2.632812 -13.203125 2.875 -13.109375 3.0625 -12.921875 C 3.25 -12.742188 3.34375 -12.515625 3.34375 -12.234375 C 3.34375 -11.941406 3.25 -11.703125 3.0625 -11.515625 C 2.875 -11.335938 2.632812 -11.25 2.34375 -11.25 Z M 1.640625 0 L 1.640625 -9.421875 L 3.03125 -9.421875 L 3.03125 0 Z M 1.640625 0 "/></g></g></g><g fill="#ffffff" fill-opacity="1"><g transform="translate(377.759068, 276.047866)"><g><path d="M 1.640625 0 L 1.640625 -9.421875 L 2.96875 -9.421875 L 2.96875 -7.953125 L 3.140625 -7.90625 C 3.453125 -8.457031 3.851562 -8.878906 4.34375 -9.171875 C 4.832031 -9.460938 5.425781 -9.609375 6.125 -9.609375 C 7.257812 -9.609375 8.082031 -9.316406 8.59375 -8.734375 C 9.101562 -8.160156 9.359375 -7.269531 9.359375 -6.0625 L 9.359375 0 L 7.96875 0 L 7.96875 -6.03125 C 7.96875 -6.601562 7.894531 -7.0625 7.75 -7.40625 C 7.601562 -7.75 7.375 -8 7.0625 -8.15625 C 6.757812 -8.3125 6.363281 -8.390625 5.875 -8.390625 C 5.019531 -8.390625 4.332031 -8.109375 3.8125 -7.546875 C 3.289062 -6.984375 3.03125 -6.082031 3.03125 -4.84375 L 3.03125 0 Z M 1.640625 0 "/></g></g></g><g fill="#ffffff" fill-opacity="1"><g transform="translate(388.610713, 276.047866)"><g><path d="M 1.640625 0 L 1.640625 -13.203125 L 3.03125 -13.203125 L 3.03125 -5.5 L 3.265625 -5.5 L 6.765625 -9.421875 L 8.234375 -9.421875 L 8.234375 -9.234375 L 4.5 -5 L 8.59375 -0.21875 L 8.59375 0 L 7.03125 0 L 3.265625 -4.359375 L 3.03125 -4.359375 L 3.03125 0 Z M 1.640625 0 "/></g></g></g><path fill="#ffffff" d="M 352.144531 294.027344 C 352.144531 294.425781 352.066406 294.808594 351.914062 295.175781 C 351.765625 295.539062 351.546875 295.863281 351.265625 296.144531 C 350.984375 296.425781 350.660156 296.644531 350.292969 296.796875 C 349.925781 296.949219 349.542969 297.023438 349.148438 297.023438 C 348.75 297.023438 348.367188 296.949219 348 296.796875 C 347.632812 296.644531 347.308594 296.425781 347.027344 296.144531 C 346.746094 295.863281 346.53125 295.539062 346.378906 295.175781 C 346.226562 294.808594 346.152344 294.425781 346.152344 294.027344 C 346.152344 293.628906 346.226562 293.246094 346.378906 292.878906 C 346.53125 292.511719 346.746094 292.1875 347.027344 291.910156 C 347.308594 291.628906 347.632812 291.410156 348 291.257812 C 348.367188 291.105469 348.75 291.03125 349.148438 291.03125 C 349.542969 291.03125 349.925781 291.105469 350.292969 291.257812 C 350.660156 291.410156 350.984375 291.628906 351.265625 291.910156 C 351.546875 292.1875 351.765625 292.511719 351.914062 292.878906 C 352.066406 293.246094 352.144531 293.628906 352.144531 294.027344 Z M 352.144531 294.027344 " fill-opacity="1" fill-rule="nonzero"/><path fill="#ffffff" d="M 363.183594 301.519531 L 397.382812 301.519531 L 397.382812 303.015625 L 363.183594 303.015625 Z M 363.183594 301.519531 " fill-opacity="1" fill-rule="nonzero"/><g fill="#ffffff" fill-opacity="1"><g transform="translate(363.181964, 300.020214)"><g><path d="M 3.359375 -12.5 L 3.359375 -1.21875 L 9.375 -1.21875 L 9.375 0 L 1.890625 0 L 1.890625 -12.5 Z M 3.359375 -12.5 "/></g></g></g><g fill="#ffffff" fill-opacity="1"><g transform="translate(373.085165, 300.020214)"><g><path d="M 2.34375 -11.25 C 2.039062 -11.25 1.796875 -11.335938 1.609375 -11.515625 C 1.429688 -11.703125 1.34375 -11.941406 1.34375 -12.234375 C 1.34375 -12.515625 1.429688 -12.742188 1.609375 -12.921875 C 1.796875 -13.109375 2.039062 -13.203125 2.34375 -13.203125 C 2.632812 -13.203125 2.875 -13.109375 3.0625 -12.921875 C 3.25 -12.742188 3.34375 -12.515625 3.34375 -12.234375 C 3.34375 -11.941406 3.25 -11.703125 3.0625 -11.515625 C 2.875 -11.335938 2.632812 -11.25 2.34375 -11.25 Z M 1.640625 0 L 1.640625 -9.421875 L 3.03125 -9.421875 L 3.03125 0 Z M 1.640625 0 "/></g></g></g><g fill="#ffffff" fill-opacity="1"><g transform="translate(377.759068, 300.020214)"><g><path d="M 1.640625 0 L 1.640625 -9.421875 L 2.96875 -9.421875 L 2.96875 -7.953125 L 3.140625 -7.90625 C 3.453125 -8.457031 3.851562 -8.878906 4.34375 -9.171875 C 4.832031 -9.460938 5.425781 -9.609375 6.125 -9.609375 C 7.257812 -9.609375 8.082031 -9.316406 8.59375 -8.734375 C 9.101562 -8.160156 9.359375 -7.269531 9.359375 -6.0625 L 9.359375 0 L 7.96875 0 L 7.96875 -6.03125 C 7.96875 -6.601562 7.894531 -7.0625 7.75 -7.40625 C 7.601562 -7.75 7.375 -8 7.0625 -8.15625 C 6.757812 -8.3125 6.363281 -8.390625 5.875 -8.390625 C 5.019531 -8.390625 4.332031 -8.109375 3.8125 -7.546875 C 3.289062 -6.984375 3.03125 -6.082031 3.03125 -4.84375 L 3.03125 0 Z M 1.640625 0 "/></g></g></g><g fill="#ffffff" fill-opacity="1"><g transform="translate(388.610713, 300.020214)"><g><path d="M 1.640625 0 L 1.640625 -13.203125 L 3.03125 -13.203125 L 3.03125 -5.5 L 3.265625 -5.5 L 6.765625 -9.421875 L 8.234375 -9.421875 L 8.234375 -9.234375 L 4.5 -5 L 8.59375 -0.21875 L 8.59375 0 L 7.03125 0 L 3.265625 -4.359375 L 3.03125 -4.359375 L 3.03125 0 Z M 1.640625 0 "/></g></g></g><path fill="#ffffff" d="M 352.144531 318 C 352.144531 318.398438 352.066406 318.777344 351.914062 319.144531 C 351.765625 319.511719 351.546875 319.835938 351.265625 320.117188 C 350.984375 320.398438 350.660156 320.617188 350.292969 320.769531 C 349.925781 320.921875 349.542969 320.996094 349.148438 320.996094 C 348.75 320.996094 348.367188 320.921875 348 320.769531 C 347.632812 320.617188 347.308594 320.398438 347.027344 320.117188 C 346.746094 319.835938 346.53125 319.511719 346.378906 319.144531 C 346.226562 318.777344 346.152344 318.398438 346.152344 318 C 346.152344 317.601562 346.226562 317.21875 346.378906 316.851562 C 346.53125 316.484375 346.746094 316.160156 347.027344 315.878906 C 347.308594 315.597656 347.632812 315.382812 348 315.230469 C 348.367188 315.078125 348.75 315.003906 349.148438 315.003906 C 349.542969 315.003906 349.925781 315.078125 350.292969 315.230469 C 350.660156 315.382812 350.984375 315.597656 351.265625 315.878906 C 351.546875 316.160156 351.765625 316.484375 351.914062 316.851562 C 352.066406 317.21875 352.144531 317.601562 352.144531 318 Z M 352.144531 318 " fill-opacity="1" fill-rule="nonzero"/><path fill="#ffffff" d="M 363.183594 325.492188 L 397.382812 325.492188 L 397.382812 326.988281 L 363.183594 326.988281 Z M 363.183594 325.492188 " fill-opacity="1" fill-rule="nonzero"/><g fill="#ffffff" fill-opacity="1"><g transform="translate(363.181964, 323.992563)"><g><path d="M 3.359375 -12.5 L 3.359375 -1.21875 L 9.375 -1.21875 L 9.375 0 L 1.890625 0 L 1.890625 -12.5 Z M 3.359375 -12.5 "/></g></g></g><g fill="#ffffff" fill-opacity="1"><g transform="translate(373.085165, 323.992563)"><g><path d="M 2.34375 -11.25 C 2.039062 -11.25 1.796875 -11.335938 1.609375 -11.515625 C 1.429688 -11.703125 1.34375 -11.941406 1.34375 -12.234375 C 1.34375 -12.515625 1.429688 -12.742188 1.609375 -12.921875 C 1.796875 -13.109375 2.039062 -13.203125 2.34375 -13.203125 C 2.632812 -13.203125 2.875 -13.109375 3.0625 -12.921875 C 3.25 -12.742188 3.34375 -12.515625 3.34375 -12.234375 C 3.34375 -11.941406 3.25 -11.703125 3.0625 -11.515625 C 2.875 -11.335938 2.632812 -11.25 2.34375 -11.25 Z M 1.640625 0 L 1.640625 -9.421875 L 3.03125 -9.421875 L 3.03125 0 Z M 1.640625 0 "/></g></g></g><g fill="#ffffff" fill-opacity="1"><g transform="translate(377.759068, 323.992563)"><g><path d="M 1.640625 0 L 1.640625 -9.421875 L 2.96875 -9.421875 L 2.96875 -7.953125 L 3.140625 -7.90625 C 3.453125 -8.457031 3.851562 -8.878906 4.34375 -9.171875 C 4.832031 -9.460938 5.425781 -9.609375 6.125 -9.609375 C 7.257812 -9.609375 8.082031 -9.316406 8.59375 -8.734375 C 9.101562 -8.160156 9.359375 -7.269531 9.359375 -6.0625 L 9.359375 0 L 7.96875 0 L 7.96875 -6.03125 C 7.96875 -6.601562 7.894531 -7.0625 7.75 -7.40625 C 7.601562 -7.75 7.375 -8 7.0625 -8.15625 C 6.757812 -8.3125 6.363281 -8.390625 5.875 -8.390625 C 5.019531 -8.390625 4.332031 -8.109375 3.8125 -7.546875 C 3.289062 -6.984375 3.03125 -6.082031 3.03125 -4.84375 L 3.03125 0 Z M 1.640625 0 "/></g></g></g><g fill="#ffffff" fill-opacity="1"><g transform="translate(388.610713, 323.992563)"><g><path d="M 1.640625 0 L 1.640625 -13.203125 L 3.03125 -13.203125 L 3.03125 -5.5 L 3.265625 -5.5 L 6.765625 -9.421875 L 8.234375 -9.421875 L 8.234375 -9.234375 L 4.5 -5 L 8.59375 -0.21875 L 8.59375 0 L 7.03125 0 L 3.265625 -4.359375 L 3.03125 -4.359375 L 3.03125 0 Z M 1.640625 0 "/></g></g></g><path fill="#ffffff" d="M 352.144531 341.972656 C 352.144531 342.371094 352.066406 342.75 351.914062 343.117188 C 351.765625 343.484375 351.546875 343.808594 351.265625 344.089844 C 350.984375 344.371094 350.660156 344.589844 350.292969 344.742188 C 349.925781 344.890625 349.542969 344.96875 349.148438 344.96875 C 348.75 344.96875 348.367188 344.890625 348 344.742188 C 347.632812 344.589844 347.308594 344.371094 347.027344 344.089844 C 346.746094 343.808594 346.53125 343.484375 346.378906 343.117188 C 346.226562 342.75 346.152344 342.371094 346.152344 341.972656 C 346.152344 341.574219 346.226562 341.191406 346.378906 340.824219 C 346.53125 340.457031 346.746094 340.132812 347.027344 339.851562 C 347.308594 339.570312 347.632812 339.355469 348 339.203125 C 348.367188 339.050781 348.75 338.976562 349.148438 338.976562 C 349.542969 338.976562 349.925781 339.050781 350.292969 339.203125 C 350.660156 339.355469 350.984375 339.570312 351.265625 339.851562 C 351.546875 340.132812 351.765625 340.457031 351.914062 340.824219 C 352.066406 341.191406 352.144531 341.574219 352.144531 341.972656 Z M 352.144531 341.972656 " fill-opacity="1" fill-rule="nonzero"/><path fill="#ffffff" d="M 363.183594 349.464844 L 397.382812 349.464844 L 397.382812 350.960938 L 363.183594 350.960938 Z M 363.183594 349.464844 " fill-opacity="1" fill-rule="nonzero"/><g fill="#ffffff" fill-opacity="1"><g transform="translate(363.181964, 347.964911)"><g><path d="M 3.359375 -12.5 L 3.359375 -1.21875 L 9.375 -1.21875 L 9.375 0 L 1.890625 0 L 1.890625 -12.5 Z M 3.359375 -12.5 "/></g></g></g><g fill="#ffffff" fill-opacity="1"><g transform="translate(373.085165, 347.964911)"><g><path d="M 2.34375 -11.25 C 2.039062 -11.25 1.796875 -11.335938 1.609375 -11.515625 C 1.429688 -11.703125 1.34375 -11.941406 1.34375 -12.234375 C 1.34375 -12.515625 1.429688 -12.742188 1.609375 -12.921875 C 1.796875 -13.109375 2.039062 -13.203125 2.34375 -13.203125 C 2.632812 -13.203125 2.875 -13.109375 3.0625 -12.921875 C 3.25 -12.742188 3.34375 -12.515625 3.34375 -12.234375 C 3.34375 -11.941406 3.25 -11.703125 3.0625 -11.515625 C 2.875 -11.335938 2.632812 -11.25 2.34375 -11.25 Z M 1.640625 0 L 1.640625 -9.421875 L 3.03125 -9.421875 L 3.03125 0 Z M 1.640625 0 "/></g></g></g><g fill="#ffffff" fill-opacity="1"><g transform="translate(377.759068, 347.964911)"><g><path d="M 1.640625 0 L 1.640625 -9.421875 L 2.96875 -9.421875 L 2.96875 -7.953125 L 3.140625 -7.90625 C 3.453125 -8.457031 3.851562 -8.878906 4.34375 -9.171875 C 4.832031 -9.460938 5.425781 -9.609375 6.125 -9.609375 C 7.257812 -9.609375 8.082031 -9.316406 8.59375 -8.734375 C 9.101562 -8.160156 9.359375 -7.269531 9.359375 -6.0625 L 9.359375 0 L 7.96875 0 L 7.96875 -6.03125 C 7.96875 -6.601562 7.894531 -7.0625 7.75 -7.40625 C 7.601562 -7.75 7.375 -8 7.0625 -8.15625 C 6.757812 -8.3125 6.363281 -8.390625 5.875 -8.390625 C 5.019531 -8.390625 4.332031 -8.109375 3.8125 -7.546875 C 3.289062 -6.984375 3.03125 -6.082031 3.03125 -4.84375 L 3.03125 0 Z M 1.640625 0 "/></g></g></g><g fill="#ffffff" fill-opacity="1"><g transform="translate(388.610713, 347.964911)"><g><path d="M 1.640625 0 L 1.640625 -13.203125 L 3.03125 -13.203125 L 3.03125 -5.5 L 3.265625 -5.5 L 6.765625 -9.421875 L 8.234375 -9.421875 L 8.234375 -9.234375 L 4.5 -5 L 8.59375 -0.21875 L 8.59375 0 L 7.03125 0 L 3.265625 -4.359375 L 3.03125 -4.359375 L 3.03125 0 Z M 1.640625 0 "/></g></g></g><path fill="#ffffff" d="M 352.144531 365.945312 C 352.144531 366.339844 352.066406 366.722656 351.914062 367.089844 C 351.765625 367.457031 351.546875 367.78125 351.265625 368.0625 C 350.984375 368.34375 350.660156 368.558594 350.292969 368.710938 C 349.925781 368.863281 349.542969 368.941406 349.148438 368.941406 C 348.75 368.941406 348.367188 368.863281 348 368.710938 C 347.632812 368.558594 347.308594 368.34375 347.027344 368.0625 C 346.746094 367.78125 346.53125 367.457031 346.378906 367.089844 C 346.226562 366.722656 346.152344 366.339844 346.152344 365.945312 C 346.152344 365.546875 346.226562 365.164062 346.378906 364.796875 C 346.53125 364.429688 346.746094 364.105469 347.027344 363.824219 C 347.308594 363.542969 347.632812 363.328125 348 363.175781 C 348.367188 363.023438 348.75 362.949219 349.148438 362.949219 C 349.542969 362.949219 349.925781 363.023438 350.292969 363.175781 C 350.660156 363.328125 350.984375 363.542969 351.265625 363.824219 C 351.546875 364.105469 351.765625 364.429688 351.914062 364.796875 C 352.066406 365.164062 352.144531 365.546875 352.144531 365.945312 Z M 352.144531 365.945312 " fill-opacity="1" fill-rule="nonzero"/><path fill="#ffffff" d="M 363.183594 373.433594 L 397.382812 373.433594 L 397.382812 374.933594 L 363.183594 374.933594 Z M 363.183594 373.433594 " fill-opacity="1" fill-rule="nonzero"/><g fill="#ffffff" fill-opacity="1"><g transform="translate(363.181964, 371.937259)"><g><path d="M 3.359375 -12.5 L 3.359375 -1.21875 L 9.375 -1.21875 L 9.375 0 L 1.890625 0 L 1.890625 -12.5 Z M 3.359375 -12.5 "/></g></g></g><g fill="#ffffff" fill-opacity="1"><g transform="translate(373.085165, 371.937259)"><g><path d="M 2.34375 -11.25 C 2.039062 -11.25 1.796875 -11.335938 1.609375 -11.515625 C 1.429688 -11.703125 1.34375 -11.941406 1.34375 -12.234375 C 1.34375 -12.515625 1.429688 -12.742188 1.609375 -12.921875 C 1.796875 -13.109375 2.039062 -13.203125 2.34375 -13.203125 C 2.632812 -13.203125 2.875 -13.109375 3.0625 -12.921875 C 3.25 -12.742188 3.34375 -12.515625 3.34375 -12.234375 C 3.34375 -11.941406 3.25 -11.703125 3.0625 -11.515625 C 2.875 -11.335938 2.632812 -11.25 2.34375 -11.25 Z M 1.640625 0 L 1.640625 -9.421875 L 3.03125 -9.421875 L 3.03125 0 Z M 1.640625 0 "/></g></g></g><g fill="#ffffff" fill-opacity="1"><g transform="translate(377.759068, 371.937259)"><g><path d="M 1.640625 0 L 1.640625 -9.421875 L 2.96875 -9.421875 L 2.96875 -7.953125 L 3.140625 -7.90625 C 3.453125 -8.457031 3.851562 -8.878906 4.34375 -9.171875 C 4.832031 -9.460938 5.425781 -9.609375 6.125 -9.609375 C 7.257812 -9.609375 8.082031 -9.316406 8.59375 -8.734375 C 9.101562 -8.160156 9.359375 -7.269531 9.359375 -6.0625 L 9.359375 0 L 7.96875 0 L 7.96875 -6.03125 C 7.96875 -6.601562 7.894531 -7.0625 7.75 -7.40625 C 7.601562 -7.75 7.375 -8 7.0625 -8.15625 C 6.757812 -8.3125 6.363281 -8.390625 5.875 -8.390625 C 5.019531 -8.390625 4.332031 -8.109375 3.8125 -7.546875 C 3.289062 -6.984375 3.03125 -6.082031 3.03125 -4.84375 L 3.03125 0 Z M 1.640625 0 "/></g></g></g><g fill="#ffffff" fill-opacity="1"><g transform="translate(388.610713, 371.937259)"><g><path d="M 1.640625 0 L 1.640625 -13.203125 L 3.03125 -13.203125 L 3.03125 -5.5 L 3.265625 -5.5 L 6.765625 -9.421875 L 8.234375 -9.421875 L 8.234375 -9.234375 L 4.5 -5 L 8.59375 -0.21875 L 8.59375 0 L 7.03125 0 L 3.265625 -4.359375 L 3.03125 -4.359375 L 3.03125 0 Z M 1.640625 0 "/></g></g></g></svg>