<svg xmlns="http://www.w3.org/2000/svg" xmlns:xlink="http://www.w3.org/1999/xlink" width="1366" zoomAndPan="magnify" viewBox="0 0 1024.5 495.749987" height="661" preserveAspectRatio="xMidYMid meet" version="1.0"><defs><g/><clipPath id="5be33fdc06"><path d="M 0.0078125 0 L 1023.992188 0 L 1023.992188 495.5 L 0.0078125 495.5 Z M 0.0078125 0 " clip-rule="nonzero"/></clipPath><clipPath id="3865fb90ba"><path d="M 470.125 25.496094 L 554.082031 25.496094 L 554.082031 86.964844 L 470.125 86.964844 Z M 470.125 25.496094 " clip-rule="nonzero"/></clipPath></defs><g clip-path="url(#5be33fdc06)"><path fill="#ffffff" d="M 0.0078125 0 L 1023.992188 0 L 1023.992188 495.5 L 0.0078125 495.5 Z M 0.0078125 0 " fill-opacity="1" fill-rule="nonzero"/><path fill="#4a596e" d="M 0.0078125 0 L 1023.992188 0 L 1023.992188 495.5 L 0.0078125 495.5 Z M 0.0078125 0 " fill-opacity="1" fill-rule="nonzero"/></g><path stroke-linecap="butt" transform="matrix(0.749622, 0.000000000000000016, -0.000000000000000016, 0.749622, 21.260095, 157.102923)" fill="none" stroke-linejoin="miter" d="M 0.00216611 1.498942 L 1313.299616 1.498942 " stroke="#636363" stroke-width="3" stroke-opacity="1" stroke-miterlimit="4"/><g clip-path="url(#3865fb90ba)"><path fill="#bb9979" d="M 504.132812 50.285156 L 495.097656 41.320312 L 481.632812 54.679688 L 479.65625 52.714844 L 495.097656 37.394531 L 506.109375 48.324219 L 529.105469 25.507812 L 554.078125 50.285156 L 549.652344 54.679688 L 547.671875 52.714844 L 550.121094 50.285156 L 529.105469 29.433594 L 491.085938 67.15625 L 495.097656 71.136719 C 506.398438 59.925781 517.699219 48.710938 529 37.496094 L 529.105469 37.394531 L 554.078125 62.171875 L 529.105469 86.949219 L 513.664062 71.628906 L 515.640625 69.664062 L 529.105469 83.023438 L 550.121094 62.171875 L 535.097656 47.261719 L 520.070312 62.171875 L 529.105469 71.136719 L 542.566406 57.78125 L 544.546875 59.742188 L 529.105469 75.0625 L 518.089844 64.132812 L 495.097656 86.949219 L 470.125 62.171875 L 474.550781 57.78125 L 476.527344 59.742188 L 474.078125 62.171875 L 495.09375 83.023438 L 533.113281 45.300781 L 529.105469 41.320312 C 517.800781 52.535156 506.5 63.75 495.199219 74.960938 L 495.09375 75.0625 L 470.125 50.285156 L 495.097656 25.507812 L 510.539062 40.828125 L 508.558594 42.792969 L 495.097656 29.433594 L 474.082031 50.285156 L 489.105469 65.195312 Z M 504.132812 50.285156 " fill-opacity="1" fill-rule="evenodd"/></g><g fill="#ffffff" fill-opacity="1"><g transform="translate(19.760851, 204.263262)"><g><path d="M 9.703125 -7.796875 L 9.703125 -12.5 L 12.15625 -12.5 L 12.15625 0 L 9.703125 0 L 9.703125 -5.703125 L 4.09375 -5.703125 L 4.09375 0 L 1.625 0 L 1.625 -12.5 L 4.09375 -12.5 L 4.09375 -7.796875 Z M 9.703125 -7.796875 "/></g></g></g><g fill="#ffffff" fill-opacity="1"><g transform="translate(33.552243, 204.263262)"><g><path d="M 4.09375 -5.484375 L 4.09375 -2.0625 L 10.0625 -2.0625 L 10.0625 0 L 1.625 0 L 1.625 -12.5 L 9.921875 -12.5 L 9.921875 -10.4375 L 4.09375 -10.4375 L 4.09375 -7.515625 L 9.1875 -7.515625 L 9.1875 -5.484375 Z M 4.09375 -5.484375 "/></g></g></g><g fill="#ffffff" fill-opacity="1"><g transform="translate(44.299783, 204.263262)"><g><path d="M 12 0 L 9.40625 0 L 8.453125 -2.875 L 3.671875 -2.875 L 2.734375 0 L 0.1875 0 L 4.5 -12.5 L 7.6875 -12.5 Z M 5.9375 -9.890625 L 4.34375 -4.953125 L 7.78125 -4.953125 L 6.15625 -9.890625 Z M 5.9375 -9.890625 "/></g></g></g><g fill="#ffffff" fill-opacity="1"><g transform="translate(56.483747, 204.263262)"><g><path d="M 6.125 -12.5 C 8.15625 -12.5 9.703125 -11.972656 10.765625 -10.921875 C 11.835938 -9.878906 12.375 -8.320312 12.375 -6.25 C 12.375 -4.1875 11.835938 -2.628906 10.765625 -1.578125 C 9.703125 -0.523438 8.15625 0 6.125 0 L 1.625 0 L 1.625 -12.5 Z M 5.984375 -2.078125 C 7.265625 -2.078125 8.222656 -2.40625 8.859375 -3.0625 C 9.503906 -3.71875 9.828125 -4.78125 9.828125 -6.25 C 9.828125 -7.71875 9.503906 -8.78125 8.859375 -9.4375 C 8.222656 -10.09375 7.265625 -10.421875 5.984375 -10.421875 L 4.09375 -10.421875 L 4.09375 -2.078125 Z M 5.984375 -2.078125 "/></g></g></g><g fill="#ffffff" fill-opacity="1"><g transform="translate(69.847631, 204.263262)"><g><path d="M 4.09375 0 L 1.625 0 L 1.625 -12.5 L 4.09375 -12.5 Z M 4.09375 0 "/></g></g></g><g fill="#ffffff" fill-opacity="1"><g transform="translate(75.576229, 204.263262)"><g><path d="M 4.015625 0 L 1.625 0 L 1.625 -12.5 L 4.453125 -12.5 L 9.46875 -4.453125 L 9.703125 -4.484375 L 9.703125 -12.5 L 12.078125 -12.5 L 12.078125 0 L 9.546875 0 L 4.234375 -8.609375 L 4.015625 -8.5625 Z M 4.015625 0 "/></g></g></g><g fill="#ffffff" fill-opacity="1"><g transform="translate(89.282119, 204.263262)"><g><path d="M 6.078125 0.171875 C 5.023438 0.171875 4.117188 -0.0625 3.359375 -0.53125 C 2.597656 -1.007812 2.007812 -1.726562 1.59375 -2.6875 C 1.1875 -3.644531 0.984375 -4.832031 0.984375 -6.25 C 0.984375 -7.675781 1.226562 -8.867188 1.71875 -9.828125 C 2.21875 -10.785156 2.90625 -11.5 3.78125 -11.96875 C 4.664062 -12.445312 5.691406 -12.6875 6.859375 -12.6875 C 8.054688 -12.6875 9.078125 -12.460938 9.921875 -12.015625 C 10.765625 -11.566406 11.359375 -10.90625 11.703125 -10.03125 L 9.890625 -8.9375 L 9.6875 -8.953125 C 9.425781 -9.503906 9.0625 -9.90625 8.59375 -10.15625 C 8.132812 -10.414062 7.554688 -10.546875 6.859375 -10.546875 C 5.785156 -10.546875 4.960938 -10.207031 4.390625 -9.53125 C 3.816406 -8.851562 3.53125 -7.757812 3.53125 -6.25 C 3.53125 -4.738281 3.796875 -3.640625 4.328125 -2.953125 C 4.859375 -2.273438 5.648438 -1.9375 6.703125 -1.9375 C 7.597656 -1.9375 8.257812 -2.132812 8.6875 -2.53125 C 9.113281 -2.9375 9.328125 -3.546875 9.328125 -4.359375 L 9.328125 -4.890625 L 6.375 -4.890625 L 6.375 -6.90625 L 11.78125 -6.90625 L 11.78125 0 L 9.421875 0 L 9.421875 -1.671875 L 9.25 -1.703125 C 8.988281 -1.097656 8.597656 -0.632812 8.078125 -0.3125 C 7.554688 0.0078125 6.890625 0.171875 6.078125 0.171875 Z M 6.078125 0.171875 "/></g></g></g><path fill="#ffffff" d="M 38.5 222.253906 C 38.5 222.652344 38.425781 223.035156 38.273438 223.402344 C 38.121094 223.769531 37.90625 224.09375 37.625 224.375 C 37.34375 224.65625 37.019531 224.871094 36.648438 225.023438 C 36.28125 225.175781 35.902344 225.253906 35.503906 225.253906 C 35.105469 225.253906 34.722656 225.175781 34.355469 225.023438 C 33.988281 224.871094 33.664062 224.65625 33.382812 224.375 C 33.101562 224.09375 32.886719 223.769531 32.734375 223.402344 C 32.582031 223.035156 32.503906 222.652344 32.503906 222.253906 C 32.503906 221.855469 32.582031 221.472656 32.734375 221.105469 C 32.886719 220.738281 33.101562 220.414062 33.382812 220.132812 C 33.664062 219.851562 33.988281 219.636719 34.355469 219.484375 C 34.722656 219.332031 35.105469 219.253906 35.503906 219.253906 C 35.902344 219.253906 36.28125 219.332031 36.648438 219.484375 C 37.019531 219.636719 37.34375 219.851562 37.625 220.132812 C 37.90625 220.414062 38.121094 220.738281 38.273438 221.105469 C 38.425781 221.472656 38.5 221.855469 38.5 222.253906 Z M 38.5 222.253906 " fill-opacity="1" fill-rule="nonzero"/><path fill="#ffffff" d="M 49.546875 229.75 L 83.773438 229.75 L 83.773438 231.25 L 49.546875 231.25 Z M 49.546875 229.75 " fill-opacity="1" fill-rule="nonzero"/><g fill="#ffffff" fill-opacity="1"><g transform="translate(49.54661, 228.251164)"><g><path d="M 3.359375 -12.5 L 3.359375 -1.21875 L 9.375 -1.21875 L 9.375 0 L 1.890625 0 L 1.890625 -12.5 Z M 3.359375 -12.5 "/></g></g></g><g fill="#ffffff" fill-opacity="1"><g transform="translate(59.456235, 228.251164)"><g><path d="M 2.34375 -11.25 C 2.050781 -11.25 1.8125 -11.34375 1.625 -11.53125 C 1.4375 -11.71875 1.34375 -11.953125 1.34375 -12.234375 C 1.34375 -12.523438 1.4375 -12.757812 1.625 -12.9375 C 1.8125 -13.125 2.050781 -13.21875 2.34375 -13.21875 C 2.632812 -13.21875 2.875 -13.125 3.0625 -12.9375 C 3.25 -12.757812 3.34375 -12.523438 3.34375 -12.234375 C 3.34375 -11.953125 3.25 -11.71875 3.0625 -11.53125 C 2.875 -11.34375 2.632812 -11.25 2.34375 -11.25 Z M 1.640625 0 L 1.640625 -9.4375 L 3.03125 -9.4375 L 3.03125 0 Z M 1.640625 0 "/></g></g></g><g fill="#ffffff" fill-opacity="1"><g transform="translate(64.133171, 228.251164)"><g><path d="M 1.640625 0 L 1.640625 -9.4375 L 2.96875 -9.4375 L 2.96875 -7.953125 L 3.140625 -7.90625 C 3.460938 -8.457031 3.863281 -8.878906 4.34375 -9.171875 C 4.832031 -9.460938 5.425781 -9.609375 6.125 -9.609375 C 7.257812 -9.609375 8.082031 -9.316406 8.59375 -8.734375 C 9.101562 -8.160156 9.359375 -7.273438 9.359375 -6.078125 L 9.359375 0 L 7.96875 0 L 7.96875 -6.03125 C 7.96875 -6.601562 7.894531 -7.0625 7.75 -7.40625 C 7.601562 -7.75 7.378906 -8 7.078125 -8.15625 C 6.773438 -8.320312 6.375 -8.40625 5.875 -8.40625 C 5.019531 -8.40625 4.332031 -8.125 3.8125 -7.5625 C 3.289062 -7 3.03125 -6.09375 3.03125 -4.84375 L 3.03125 0 Z M 1.640625 0 "/></g></g></g><g fill="#ffffff" fill-opacity="1"><g transform="translate(74.991857, 228.251164)"><g><path d="M 1.640625 0 L 1.640625 -13.21875 L 3.03125 -13.21875 L 3.03125 -5.5 L 3.265625 -5.5 L 6.78125 -9.4375 L 8.234375 -9.4375 L 8.234375 -9.234375 L 4.5 -5 L 8.59375 -0.21875 L 8.59375 0 L 7.03125 0 L 3.265625 -4.359375 L 3.03125 -4.359375 L 3.03125 0 Z M 1.640625 0 "/></g></g></g><path fill="#ffffff" d="M 38.5 246.242188 C 38.5 246.640625 38.425781 247.023438 38.273438 247.390625 C 38.121094 247.757812 37.90625 248.082031 37.625 248.363281 C 37.34375 248.644531 37.019531 248.859375 36.648438 249.011719 C 36.28125 249.164062 35.902344 249.242188 35.503906 249.242188 C 35.105469 249.242188 34.722656 249.164062 34.355469 249.011719 C 33.988281 248.859375 33.664062 248.644531 33.382812 248.363281 C 33.101562 248.082031 32.886719 247.757812 32.734375 247.390625 C 32.582031 247.023438 32.503906 246.640625 32.503906 246.242188 C 32.503906 245.84375 32.582031 245.460938 32.734375 245.09375 C 32.886719 244.726562 33.101562 244.402344 33.382812 244.121094 C 33.664062 243.839844 33.988281 243.625 34.355469 243.472656 C 34.722656 243.320312 35.105469 243.242188 35.503906 243.242188 C 35.902344 243.242188 36.28125 243.320312 36.648438 243.472656 C 37.019531 243.625 37.34375 243.839844 37.625 244.121094 C 37.90625 244.402344 38.121094 244.726562 38.273438 245.09375 C 38.425781 245.460938 38.5 245.84375 38.5 246.242188 Z M 38.5 246.242188 " fill-opacity="1" fill-rule="nonzero"/><path fill="#ffffff" d="M 49.546875 253.738281 L 83.773438 253.738281 L 83.773438 255.238281 L 49.546875 255.238281 Z M 49.546875 253.738281 " fill-opacity="1" fill-rule="nonzero"/><g fill="#ffffff" fill-opacity="1"><g transform="translate(49.54661, 252.239065)"><g><path d="M 3.359375 -12.5 L 3.359375 -1.21875 L 9.375 -1.21875 L 9.375 0 L 1.890625 0 L 1.890625 -12.5 Z M 3.359375 -12.5 "/></g></g></g><g fill="#ffffff" fill-opacity="1"><g transform="translate(59.456235, 252.239065)"><g><path d="M 2.34375 -11.25 C 2.050781 -11.25 1.8125 -11.34375 1.625 -11.53125 C 1.4375 -11.71875 1.34375 -11.953125 1.34375 -12.234375 C 1.34375 -12.523438 1.4375 -12.757812 1.625 -12.9375 C 1.8125 -13.125 2.050781 -13.21875 2.34375 -13.21875 C 2.632812 -13.21875 2.875 -13.125 3.0625 -12.9375 C 3.25 -12.757812 3.34375 -12.523438 3.34375 -12.234375 C 3.34375 -11.953125 3.25 -11.71875 3.0625 -11.53125 C 2.875 -11.34375 2.632812 -11.25 2.34375 -11.25 Z M 1.640625 0 L 1.640625 -9.4375 L 3.03125 -9.4375 L 3.03125 0 Z M 1.640625 0 "/></g></g></g><g fill="#ffffff" fill-opacity="1"><g transform="translate(64.133171, 252.239065)"><g><path d="M 1.640625 0 L 1.640625 -9.4375 L 2.96875 -9.4375 L 2.96875 -7.953125 L 3.140625 -7.90625 C 3.460938 -8.457031 3.863281 -8.878906 4.34375 -9.171875 C 4.832031 -9.460938 5.425781 -9.609375 6.125 -9.609375 C 7.257812 -9.609375 8.082031 -9.316406 8.59375 -8.734375 C 9.101562 -8.160156 9.359375 -7.273438 9.359375 -6.078125 L 9.359375 0 L 7.96875 0 L 7.96875 -6.03125 C 7.96875 -6.601562 7.894531 -7.0625 7.75 -7.40625 C 7.601562 -7.75 7.378906 -8 7.078125 -8.15625 C 6.773438 -8.320312 6.375 -8.40625 5.875 -8.40625 C 5.019531 -8.40625 4.332031 -8.125 3.8125 -7.5625 C 3.289062 -7 3.03125 -6.09375 3.03125 -4.84375 L 3.03125 0 Z M 1.640625 0 "/></g></g></g><g fill="#ffffff" fill-opacity="1"><g transform="translate(74.991857, 252.239065)"><g><path d="M 1.640625 0 L 1.640625 -13.21875 L 3.03125 -13.21875 L 3.03125 -5.5 L 3.265625 -5.5 L 6.78125 -9.4375 L 8.234375 -9.4375 L 8.234375 -9.234375 L 4.5 -5 L 8.59375 -0.21875 L 8.59375 0 L 7.03125 0 L 3.265625 -4.359375 L 3.03125 -4.359375 L 3.03125 0 Z M 1.640625 0 "/></g></g></g><path fill="#ffffff" d="M 38.5 270.230469 C 38.5 270.628906 38.425781 271.011719 38.273438 271.378906 C 38.121094 271.746094 37.90625 272.070312 37.625 272.351562 C 37.34375 272.632812 37.019531 272.847656 36.648438 273 C 36.28125 273.152344 35.902344 273.226562 35.503906 273.226562 C 35.105469 273.226562 34.722656 273.152344 34.355469 273 C 33.988281 272.847656 33.664062 272.632812 33.382812 272.351562 C 33.101562 272.070312 32.886719 271.746094 32.734375 271.378906 C 32.582031 271.011719 32.503906 270.628906 32.503906 270.230469 C 32.503906 269.832031 32.582031 269.449219 32.734375 269.082031 C 32.886719 268.714844 33.101562 268.390625 33.382812 268.109375 C 33.664062 267.828125 33.988281 267.613281 34.355469 267.460938 C 34.722656 267.308594 35.105469 267.230469 35.503906 267.230469 C 35.902344 267.230469 36.28125 267.308594 36.648438 267.460938 C 37.019531 267.613281 37.34375 267.828125 37.625 268.109375 C 37.90625 268.390625 38.121094 268.714844 38.273438 269.082031 C 38.425781 269.449219 38.5 269.832031 38.5 270.230469 Z M 38.5 270.230469 " fill-opacity="1" fill-rule="nonzero"/><path fill="#ffffff" d="M 49.546875 277.726562 L 83.773438 277.726562 L 83.773438 279.226562 L 49.546875 279.226562 Z M 49.546875 277.726562 " fill-opacity="1" fill-rule="nonzero"/><g fill="#ffffff" fill-opacity="1"><g transform="translate(49.54661, 276.226967)"><g><path d="M 3.359375 -12.5 L 3.359375 -1.21875 L 9.375 -1.21875 L 9.375 0 L 1.890625 0 L 1.890625 -12.5 Z M 3.359375 -12.5 "/></g></g></g><g fill="#ffffff" fill-opacity="1"><g transform="translate(59.456235, 276.226967)"><g><path d="M 2.34375 -11.25 C 2.050781 -11.25 1.8125 -11.34375 1.625 -11.53125 C 1.4375 -11.71875 1.34375 -11.953125 1.34375 -12.234375 C 1.34375 -12.523438 1.4375 -12.757812 1.625 -12.9375 C 1.8125 -13.125 2.050781 -13.21875 2.34375 -13.21875 C 2.632812 -13.21875 2.875 -13.125 3.0625 -12.9375 C 3.25 -12.757812 3.34375 -12.523438 3.34375 -12.234375 C 3.34375 -11.953125 3.25 -11.71875 3.0625 -11.53125 C 2.875 -11.34375 2.632812 -11.25 2.34375 -11.25 Z M 1.640625 0 L 1.640625 -9.4375 L 3.03125 -9.4375 L 3.03125 0 Z M 1.640625 0 "/></g></g></g><g fill="#ffffff" fill-opacity="1"><g transform="translate(64.133171, 276.226967)"><g><path d="M 1.640625 0 L 1.640625 -9.4375 L 2.96875 -9.4375 L 2.96875 -7.953125 L 3.140625 -7.90625 C 3.460938 -8.457031 3.863281 -8.878906 4.34375 -9.171875 C 4.832031 -9.460938 5.425781 -9.609375 6.125 -9.609375 C 7.257812 -9.609375 8.082031 -9.316406 8.59375 -8.734375 C 9.101562 -8.160156 9.359375 -7.273438 9.359375 -6.078125 L 9.359375 0 L 7.96875 0 L 7.96875 -6.03125 C 7.96875 -6.601562 7.894531 -7.0625 7.75 -7.40625 C 7.601562 -7.75 7.378906 -8 7.078125 -8.15625 C 6.773438 -8.320312 6.375 -8.40625 5.875 -8.40625 C 5.019531 -8.40625 4.332031 -8.125 3.8125 -7.5625 C 3.289062 -7 3.03125 -6.09375 3.03125 -4.84375 L 3.03125 0 Z M 1.640625 0 "/></g></g></g><g fill="#ffffff" fill-opacity="1"><g transform="translate(74.991857, 276.226967)"><g><path d="M 1.640625 0 L 1.640625 -13.21875 L 3.03125 -13.21875 L 3.03125 -5.5 L 3.265625 -5.5 L 6.78125 -9.4375 L 8.234375 -9.4375 L 8.234375 -9.234375 L 4.5 -5 L 8.59375 -0.21875 L 8.59375 0 L 7.03125 0 L 3.265625 -4.359375 L 3.03125 -4.359375 L 3.03125 0 Z M 1.640625 0 "/></g></g></g><path fill="#ffffff" d="M 38.5 294.21875 C 38.5 294.617188 38.425781 294.996094 38.273438 295.367188 C 38.121094 295.734375 37.90625 296.058594 37.625 296.339844 C 37.34375 296.621094 37.019531 296.835938 36.648438 296.988281 C 36.28125 297.140625 35.902344 297.214844 35.503906 297.214844 C 35.105469 297.214844 34.722656 297.140625 34.355469 296.988281 C 33.988281 296.835938 33.664062 296.621094 33.382812 296.339844 C 33.101562 296.058594 32.886719 295.734375 32.734375 295.367188 C 32.582031 294.996094 32.503906 294.617188 32.503906 294.21875 C 32.503906 293.820312 32.582031 293.4375 32.734375 293.070312 C 32.886719 292.703125 33.101562 292.378906 33.382812 292.097656 C 33.664062 291.816406 33.988281 291.601562 34.355469 291.449219 C 34.722656 291.296875 35.105469 291.21875 35.503906 291.21875 C 35.902344 291.21875 36.28125 291.296875 36.648438 291.449219 C 37.019531 291.601562 37.34375 291.816406 37.625 292.097656 C 37.90625 292.378906 38.121094 292.703125 38.273438 293.070312 C 38.425781 293.4375 38.5 293.820312 38.5 294.21875 Z M 38.5 294.21875 " fill-opacity="1" fill-rule="nonzero"/><path fill="#ffffff" d="M 49.546875 301.714844 L 83.773438 301.714844 L 83.773438 303.214844 L 49.546875 303.214844 Z M 49.546875 301.714844 " fill-opacity="1" fill-rule="nonzero"/><g fill="#ffffff" fill-opacity="1"><g transform="translate(49.54661, 300.214869)"><g><path d="M 3.359375 -12.5 L 3.359375 -1.21875 L 9.375 -1.21875 L 9.375 0 L 1.890625 0 L 1.890625 -12.5 Z M 3.359375 -12.5 "/></g></g></g><g fill="#ffffff" fill-opacity="1"><g transform="translate(59.456235, 300.214869)"><g><path d="M 2.34375 -11.25 C 2.050781 -11.25 1.8125 -11.34375 1.625 -11.53125 C 1.4375 -11.71875 1.34375 -11.953125 1.34375 -12.234375 C 1.34375 -12.523438 1.4375 -12.757812 1.625 -12.9375 C 1.8125 -13.125 2.050781 -13.21875 2.34375 -13.21875 C 2.632812 -13.21875 2.875 -13.125 3.0625 -12.9375 C 3.25 -12.757812 3.34375 -12.523438 3.34375 -12.234375 C 3.34375 -11.953125 3.25 -11.71875 3.0625 -11.53125 C 2.875 -11.34375 2.632812 -11.25 2.34375 -11.25 Z M 1.640625 0 L 1.640625 -9.4375 L 3.03125 -9.4375 L 3.03125 0 Z M 1.640625 0 "/></g></g></g><g fill="#ffffff" fill-opacity="1"><g transform="translate(64.133171, 300.214869)"><g><path d="M 1.640625 0 L 1.640625 -9.4375 L 2.96875 -9.4375 L 2.96875 -7.953125 L 3.140625 -7.90625 C 3.460938 -8.457031 3.863281 -8.878906 4.34375 -9.171875 C 4.832031 -9.460938 5.425781 -9.609375 6.125 -9.609375 C 7.257812 -9.609375 8.082031 -9.316406 8.59375 -8.734375 C 9.101562 -8.160156 9.359375 -7.273438 9.359375 -6.078125 L 9.359375 0 L 7.96875 0 L 7.96875 -6.03125 C 7.96875 -6.601562 7.894531 -7.0625 7.75 -7.40625 C 7.601562 -7.75 7.378906 -8 7.078125 -8.15625 C 6.773438 -8.320312 6.375 -8.40625 5.875 -8.40625 C 5.019531 -8.40625 4.332031 -8.125 3.8125 -7.5625 C 3.289062 -7 3.03125 -6.09375 3.03125 -4.84375 L 3.03125 0 Z M 1.640625 0 "/></g></g></g><g fill="#ffffff" fill-opacity="1"><g transform="translate(74.991857, 300.214869)"><g><path d="M 1.640625 0 L 1.640625 -13.21875 L 3.03125 -13.21875 L 3.03125 -5.5 L 3.265625 -5.5 L 6.78125 -9.4375 L 8.234375 -9.4375 L 8.234375 -9.234375 L 4.5 -5 L 8.59375 -0.21875 L 8.59375 0 L 7.03125 0 L 3.265625 -4.359375 L 3.03125 -4.359375 L 3.03125 0 Z M 1.640625 0 "/></g></g></g><path fill="#ffffff" d="M 38.5 318.207031 C 38.5 318.601562 38.425781 318.984375 38.273438 319.351562 C 38.121094 319.71875 37.90625 320.042969 37.625 320.324219 C 37.34375 320.605469 37.019531 320.824219 36.648438 320.976562 C 36.28125 321.128906 35.902344 321.203125 35.503906 321.203125 C 35.105469 321.203125 34.722656 321.128906 34.355469 320.976562 C 33.988281 320.824219 33.664062 320.605469 33.382812 320.324219 C 33.101562 320.042969 32.886719 319.71875 32.734375 319.351562 C 32.582031 318.984375 32.503906 318.601562 32.503906 318.207031 C 32.503906 317.808594 32.582031 317.425781 32.734375 317.058594 C 32.886719 316.691406 33.101562 316.367188 33.382812 316.085938 C 33.664062 315.804688 33.988281 315.585938 34.355469 315.433594 C 34.722656 315.285156 35.105469 315.207031 35.503906 315.207031 C 35.902344 315.207031 36.28125 315.285156 36.648438 315.433594 C 37.019531 315.585938 37.34375 315.804688 37.625 316.085938 C 37.90625 316.367188 38.121094 316.691406 38.273438 317.058594 C 38.425781 317.425781 38.5 317.808594 38.5 318.207031 Z M 38.5 318.207031 " fill-opacity="1" fill-rule="nonzero"/><path fill="#ffffff" d="M 49.546875 325.703125 L 83.773438 325.703125 L 83.773438 327.203125 L 49.546875 327.203125 Z M 49.546875 325.703125 " fill-opacity="1" fill-rule="nonzero"/><g fill="#ffffff" fill-opacity="1"><g transform="translate(49.54661, 324.20277)"><g><path d="M 3.359375 -12.5 L 3.359375 -1.21875 L 9.375 -1.21875 L 9.375 0 L 1.890625 0 L 1.890625 -12.5 Z M 3.359375 -12.5 "/></g></g></g><g fill="#ffffff" fill-opacity="1"><g transform="translate(59.456235, 324.20277)"><g><path d="M 2.34375 -11.25 C 2.050781 -11.25 1.8125 -11.34375 1.625 -11.53125 C 1.4375 -11.71875 1.34375 -11.953125 1.34375 -12.234375 C 1.34375 -12.523438 1.4375 -12.757812 1.625 -12.9375 C 1.8125 -13.125 2.050781 -13.21875 2.34375 -13.21875 C 2.632812 -13.21875 2.875 -13.125 3.0625 -12.9375 C 3.25 -12.757812 3.34375 -12.523438 3.34375 -12.234375 C 3.34375 -11.953125 3.25 -11.71875 3.0625 -11.53125 C 2.875 -11.34375 2.632812 -11.25 2.34375 -11.25 Z M 1.640625 0 L 1.640625 -9.4375 L 3.03125 -9.4375 L 3.03125 0 Z M 1.640625 0 "/></g></g></g><g fill="#ffffff" fill-opacity="1"><g transform="translate(64.133171, 324.20277)"><g><path d="M 1.640625 0 L 1.640625 -9.4375 L 2.96875 -9.4375 L 2.96875 -7.953125 L 3.140625 -7.90625 C 3.460938 -8.457031 3.863281 -8.878906 4.34375 -9.171875 C 4.832031 -9.460938 5.425781 -9.609375 6.125 -9.609375 C 7.257812 -9.609375 8.082031 -9.316406 8.59375 -8.734375 C 9.101562 -8.160156 9.359375 -7.273438 9.359375 -6.078125 L 9.359375 0 L 7.96875 0 L 7.96875 -6.03125 C 7.96875 -6.601562 7.894531 -7.0625 7.75 -7.40625 C 7.601562 -7.75 7.378906 -8 7.078125 -8.15625 C 6.773438 -8.320312 6.375 -8.40625 5.875 -8.40625 C 5.019531 -8.40625 4.332031 -8.125 3.8125 -7.5625 C 3.289062 -7 3.03125 -6.09375 3.03125 -4.84375 L 3.03125 0 Z M 1.640625 0 "/></g></g></g><g fill="#ffffff" fill-opacity="1"><g transform="translate(74.991857, 324.20277)"><g><path d="M 1.640625 0 L 1.640625 -13.21875 L 3.03125 -13.21875 L 3.03125 -5.5 L 3.265625 -5.5 L 6.78125 -9.4375 L 8.234375 -9.4375 L 8.234375 -9.234375 L 4.5 -5 L 8.59375 -0.21875 L 8.59375 0 L 7.03125 0 L 3.265625 -4.359375 L 3.03125 -4.359375 L 3.03125 0 Z M 1.640625 0 "/></g></g></g><path fill="#ffffff" d="M 38.5 342.195312 C 38.5 342.589844 38.425781 342.972656 38.273438 343.339844 C 38.121094 343.707031 37.90625 344.03125 37.625 344.3125 C 37.34375 344.59375 37.019531 344.8125 36.648438 344.964844 C 36.28125 345.117188 35.902344 345.191406 35.503906 345.191406 C 35.105469 345.191406 34.722656 345.117188 34.355469 344.964844 C 33.988281 344.8125 33.664062 344.59375 33.382812 344.3125 C 33.101562 344.03125 32.886719 343.707031 32.734375 343.339844 C 32.582031 342.972656 32.503906 342.589844 32.503906 342.195312 C 32.503906 341.796875 32.582031 341.414062 32.734375 341.046875 C 32.886719 340.679688 33.101562 340.355469 33.382812 340.074219 C 33.664062 339.792969 33.988281 339.574219 34.355469 339.421875 C 34.722656 339.269531 35.105469 339.195312 35.503906 339.195312 C 35.902344 339.195312 36.28125 339.269531 36.648438 339.421875 C 37.019531 339.574219 37.34375 339.792969 37.625 340.074219 C 37.90625 340.355469 38.121094 340.679688 38.273438 341.046875 C 38.425781 341.414062 38.5 341.796875 38.5 342.195312 Z M 38.5 342.195312 " fill-opacity="1" fill-rule="nonzero"/><path fill="#ffffff" d="M 49.546875 349.691406 L 83.773438 349.691406 L 83.773438 351.1875 L 49.546875 351.1875 Z M 49.546875 349.691406 " fill-opacity="1" fill-rule="nonzero"/><g fill="#ffffff" fill-opacity="1"><g transform="translate(49.54661, 348.190672)"><g><path d="M 3.359375 -12.5 L 3.359375 -1.21875 L 9.375 -1.21875 L 9.375 0 L 1.890625 0 L 1.890625 -12.5 Z M 3.359375 -12.5 "/></g></g></g><g fill="#ffffff" fill-opacity="1"><g transform="translate(59.456235, 348.190672)"><g><path d="M 2.34375 -11.25 C 2.050781 -11.25 1.8125 -11.34375 1.625 -11.53125 C 1.4375 -11.71875 1.34375 -11.953125 1.34375 -12.234375 C 1.34375 -12.523438 1.4375 -12.757812 1.625 -12.9375 C 1.8125 -13.125 2.050781 -13.21875 2.34375 -13.21875 C 2.632812 -13.21875 2.875 -13.125 3.0625 -12.9375 C 3.25 -12.757812 3.34375 -12.523438 3.34375 -12.234375 C 3.34375 -11.953125 3.25 -11.71875 3.0625 -11.53125 C 2.875 -11.34375 2.632812 -11.25 2.34375 -11.25 Z M 1.640625 0 L 1.640625 -9.4375 L 3.03125 -9.4375 L 3.03125 0 Z M 1.640625 0 "/></g></g></g><g fill="#ffffff" fill-opacity="1"><g transform="translate(64.133171, 348.190672)"><g><path d="M 1.640625 0 L 1.640625 -9.4375 L 2.96875 -9.4375 L 2.96875 -7.953125 L 3.140625 -7.90625 C 3.460938 -8.457031 3.863281 -8.878906 4.34375 -9.171875 C 4.832031 -9.460938 5.425781 -9.609375 6.125 -9.609375 C 7.257812 -9.609375 8.082031 -9.316406 8.59375 -8.734375 C 9.101562 -8.160156 9.359375 -7.273438 9.359375 -6.078125 L 9.359375 0 L 7.96875 0 L 7.96875 -6.03125 C 7.96875 -6.601562 7.894531 -7.0625 7.75 -7.40625 C 7.601562 -7.75 7.378906 -8 7.078125 -8.15625 C 6.773438 -8.320312 6.375 -8.40625 5.875 -8.40625 C 5.019531 -8.40625 4.332031 -8.125 3.8125 -7.5625 C 3.289062 -7 3.03125 -6.09375 3.03125 -4.84375 L 3.03125 0 Z M 1.640625 0 "/></g></g></g><g fill="#ffffff" fill-opacity="1"><g transform="translate(74.991857, 348.190672)"><g><path d="M 1.640625 0 L 1.640625 -13.21875 L 3.03125 -13.21875 L 3.03125 -5.5 L 3.265625 -5.5 L 6.78125 -9.4375 L 8.234375 -9.4375 L 8.234375 -9.234375 L 4.5 -5 L 8.59375 -0.21875 L 8.59375 0 L 7.03125 0 L 3.265625 -4.359375 L 3.03125 -4.359375 L 3.03125 0 Z M 1.640625 0 "/></g></g></g><path fill="#ffffff" d="M 38.5 366.179688 C 38.5 366.578125 38.425781 366.960938 38.273438 367.328125 C 38.121094 367.695312 37.90625 368.019531 37.625 368.300781 C 37.34375 368.582031 37.019531 368.800781 36.648438 368.953125 C 36.28125 369.105469 35.902344 369.179688 35.503906 369.179688 C 35.105469 369.179688 34.722656 369.105469 34.355469 368.953125 C 33.988281 368.800781 33.664062 368.582031 33.382812 368.300781 C 33.101562 368.019531 32.886719 367.695312 32.734375 367.328125 C 32.582031 366.960938 32.503906 366.578125 32.503906 366.179688 C 32.503906 365.785156 32.582031 365.402344 32.734375 365.035156 C 32.886719 364.667969 33.101562 364.34375 33.382812 364.0625 C 33.664062 363.78125 33.988281 363.5625 34.355469 363.410156 C 34.722656 363.257812 35.105469 363.183594 35.503906 363.183594 C 35.902344 363.183594 36.28125 363.257812 36.648438 363.410156 C 37.019531 363.5625 37.34375 363.78125 37.625 364.0625 C 37.90625 364.34375 38.121094 364.667969 38.273438 365.035156 C 38.425781 365.402344 38.5 365.785156 38.5 366.179688 Z M 38.5 366.179688 " fill-opacity="1" fill-rule="nonzero"/><path fill="#ffffff" d="M 49.546875 373.679688 L 83.773438 373.679688 L 83.773438 375.175781 L 49.546875 375.175781 Z M 49.546875 373.679688 " fill-opacity="1" fill-rule="nonzero"/><g fill="#ffffff" fill-opacity="1"><g transform="translate(49.54661, 372.178573)"><g><path d="M 3.359375 -12.5 L 3.359375 -1.21875 L 9.375 -1.21875 L 9.375 0 L 1.890625 0 L 1.890625 -12.5 Z M 3.359375 -12.5 "/></g></g></g><g fill="#ffffff" fill-opacity="1"><g transform="translate(59.456235, 372.178573)"><g><path d="M 2.34375 -11.25 C 2.050781 -11.25 1.8125 -11.34375 1.625 -11.53125 C 1.4375 -11.71875 1.34375 -11.953125 1.34375 -12.234375 C 1.34375 -12.523438 1.4375 -12.757812 1.625 -12.9375 C 1.8125 -13.125 2.050781 -13.21875 2.34375 -13.21875 C 2.632812 -13.21875 2.875 -13.125 3.0625 -12.9375 C 3.25 -12.757812 3.34375 -12.523438 3.34375 -12.234375 C 3.34375 -11.953125 3.25 -11.71875 3.0625 -11.53125 C 2.875 -11.34375 2.632812 -11.25 2.34375 -11.25 Z M 1.640625 0 L 1.640625 -9.4375 L 3.03125 -9.4375 L 3.03125 0 Z M 1.640625 0 "/></g></g></g><g fill="#ffffff" fill-opacity="1"><g transform="translate(64.133171, 372.178573)"><g><path d="M 1.640625 0 L 1.640625 -9.4375 L 2.96875 -9.4375 L 2.96875 -7.953125 L 3.140625 -7.90625 C 3.460938 -8.457031 3.863281 -8.878906 4.34375 -9.171875 C 4.832031 -9.460938 5.425781 -9.609375 6.125 -9.609375 C 7.257812 -9.609375 8.082031 -9.316406 8.59375 -8.734375 C 9.101562 -8.160156 9.359375 -7.273438 9.359375 -6.078125 L 9.359375 0 L 7.96875 0 L 7.96875 -6.03125 C 7.96875 -6.601562 7.894531 -7.0625 7.75 -7.40625 C 7.601562 -7.75 7.378906 -8 7.078125 -8.15625 C 6.773438 -8.320312 6.375 -8.40625 5.875 -8.40625 C 5.019531 -8.40625 4.332031 -8.125 3.8125 -7.5625 C 3.289062 -7 3.03125 -6.09375 3.03125 -4.84375 L 3.03125 0 Z M 1.640625 0 "/></g></g></g><g fill="#ffffff" fill-opacity="1"><g transform="translate(74.991857, 372.178573)"><g><path d="M 1.640625 0 L 1.640625 -13.21875 L 3.03125 -13.21875 L 3.03125 -5.5 L 3.265625 -5.5 L 6.78125 -9.4375 L 8.234375 -9.4375 L 8.234375 -9.234375 L 4.5 -5 L 8.59375 -0.21875 L 8.59375 0 L 7.03125 0 L 3.265625 -4.359375 L 3.03125 -4.359375 L 3.03125 0 Z M 1.640625 0 "/></g></g></g><g fill="#ffffff" fill-opacity="1"><g transform="translate(423.41174, 123.982714)"><g><path d="M 12.15625 0 L 9.0625 -4.484375 L 5.625 -4.484375 L 5.625 0 L 1.90625 0 L 1.90625 -16.09375 L 8.875 -16.09375 C 10.300781 -16.09375 11.535156 -15.851562 12.578125 -15.375 C 13.628906 -14.894531 14.4375 -14.21875 15 -13.34375 C 15.570312 -12.476562 15.859375 -11.445312 15.859375 -10.25 C 15.859375 -9.050781 15.570312 -8.019531 15 -7.15625 C 14.425781 -6.289062 13.609375 -5.628906 12.546875 -5.171875 L 16.15625 0 Z M 12.09375 -10.25 C 12.09375 -11.15625 11.800781 -11.847656 11.21875 -12.328125 C 10.632812 -12.816406 9.785156 -13.0625 8.671875 -13.0625 L 5.625 -13.0625 L 5.625 -7.453125 L 8.671875 -7.453125 C 9.785156 -7.453125 10.632812 -7.695312 11.21875 -8.1875 C 11.800781 -8.675781 12.09375 -9.363281 12.09375 -10.25 Z M 12.09375 -10.25 "/></g></g></g><g fill="#ffffff" fill-opacity="1"><g transform="translate(440.302528, 123.982714)"><g><path d="M 13.765625 -6.140625 C 13.765625 -6.085938 13.742188 -5.765625 13.703125 -5.171875 L 4.34375 -5.171875 C 4.507812 -4.398438 4.90625 -3.789062 5.53125 -3.34375 C 6.164062 -2.90625 6.953125 -2.6875 7.890625 -2.6875 C 8.523438 -2.6875 9.09375 -2.78125 9.59375 -2.96875 C 10.09375 -3.164062 10.554688 -3.472656 10.984375 -3.890625 L 12.890625 -1.8125 C 11.722656 -0.476562 10.023438 0.1875 7.796875 0.1875 C 6.398438 0.1875 5.164062 -0.0820312 4.09375 -0.625 C 3.019531 -1.175781 2.191406 -1.929688 1.609375 -2.890625 C 1.023438 -3.859375 0.734375 -4.957031 0.734375 -6.1875 C 0.734375 -7.394531 1.019531 -8.484375 1.59375 -9.453125 C 2.164062 -10.429688 2.953125 -11.191406 3.953125 -11.734375 C 4.960938 -12.273438 6.085938 -12.546875 7.328125 -12.546875 C 8.535156 -12.546875 9.628906 -12.285156 10.609375 -11.765625 C 11.597656 -11.242188 12.367188 -10.492188 12.921875 -9.515625 C 13.484375 -8.546875 13.765625 -7.421875 13.765625 -6.140625 Z M 7.359375 -9.84375 C 6.546875 -9.84375 5.863281 -9.609375 5.3125 -9.140625 C 4.757812 -8.679688 4.421875 -8.054688 4.296875 -7.265625 L 10.390625 -7.265625 C 10.265625 -8.046875 9.925781 -8.671875 9.375 -9.140625 C 8.820312 -9.609375 8.148438 -9.84375 7.359375 -9.84375 Z M 7.359375 -9.84375 "/></g></g></g><g fill="#ffffff" fill-opacity="1"><g transform="translate(454.803325, 123.982714)"><g><path d="M 1.65625 -17.046875 L 5.234375 -17.046875 L 5.234375 0 L 1.65625 0 Z M 1.65625 -17.046875 "/></g></g></g><g fill="#ffffff" fill-opacity="1"><g transform="translate(461.720502, 123.982714)"><g><path d="M 13.765625 -6.140625 C 13.765625 -6.085938 13.742188 -5.765625 13.703125 -5.171875 L 4.34375 -5.171875 C 4.507812 -4.398438 4.90625 -3.789062 5.53125 -3.34375 C 6.164062 -2.90625 6.953125 -2.6875 7.890625 -2.6875 C 8.523438 -2.6875 9.09375 -2.78125 9.59375 -2.96875 C 10.09375 -3.164062 10.554688 -3.472656 10.984375 -3.890625 L 12.890625 -1.8125 C 11.722656 -0.476562 10.023438 0.1875 7.796875 0.1875 C 6.398438 0.1875 5.164062 -0.0820312 4.09375 -0.625 C 3.019531 -1.175781 2.191406 -1.929688 1.609375 -2.890625 C 1.023438 -3.859375 0.734375 -4.957031 0.734375 -6.1875 C 0.734375 -7.394531 1.019531 -8.484375 1.59375 -9.453125 C 2.164062 -10.429688 2.953125 -11.191406 3.953125 -11.734375 C 4.960938 -12.273438 6.085938 -12.546875 7.328125 -12.546875 C 8.535156 -12.546875 9.628906 -12.285156 10.609375 -11.765625 C 11.597656 -11.242188 12.367188 -10.492188 12.921875 -9.515625 C 13.484375 -8.546875 13.765625 -7.421875 13.765625 -6.140625 Z M 7.359375 -9.84375 C 6.546875 -9.84375 5.863281 -9.609375 5.3125 -9.140625 C 4.757812 -8.679688 4.421875 -8.054688 4.296875 -7.265625 L 10.390625 -7.265625 C 10.265625 -8.046875 9.925781 -8.671875 9.375 -9.140625 C 8.820312 -9.609375 8.148438 -9.84375 7.359375 -9.84375 Z M 7.359375 -9.84375 "/></g></g></g><g fill="#ffffff" fill-opacity="1"><g transform="translate(476.221299, 123.982714)"><g><path d="M 13.921875 -12.359375 L 8.71875 0 L 5.015625 0 L -0.1875 -12.359375 L 3.515625 -12.359375 L 6.9375 -3.953125 L 10.484375 -12.359375 Z M 13.921875 -12.359375 "/></g></g></g><g fill="#ffffff" fill-opacity="1"><g transform="translate(489.963735, 123.982714)"><g><path d="M 6.640625 -12.546875 C 8.554688 -12.546875 10.023438 -12.085938 11.046875 -11.171875 C 12.078125 -10.265625 12.59375 -8.894531 12.59375 -7.0625 L 12.59375 0 L 9.234375 0 L 9.234375 -1.546875 C 8.566406 -0.390625 7.3125 0.1875 5.46875 0.1875 C 4.519531 0.1875 3.695312 0.0234375 3 -0.296875 C 2.300781 -0.617188 1.765625 -1.0625 1.390625 -1.625 C 1.023438 -2.195312 0.84375 -2.84375 0.84375 -3.5625 C 0.84375 -4.707031 1.273438 -5.609375 2.140625 -6.265625 C 3.015625 -6.929688 4.351562 -7.265625 6.15625 -7.265625 L 9.015625 -7.265625 C 9.015625 -8.046875 8.773438 -8.644531 8.296875 -9.0625 C 7.816406 -9.488281 7.101562 -9.703125 6.15625 -9.703125 C 5.5 -9.703125 4.851562 -9.597656 4.21875 -9.390625 C 3.582031 -9.179688 3.039062 -8.898438 2.59375 -8.546875 L 1.3125 -11.0625 C 1.988281 -11.53125 2.796875 -11.894531 3.734375 -12.15625 C 4.679688 -12.414062 5.648438 -12.546875 6.640625 -12.546875 Z M 6.359375 -2.234375 C 6.972656 -2.234375 7.519531 -2.375 8 -2.65625 C 8.476562 -2.9375 8.816406 -3.351562 9.015625 -3.90625 L 9.015625 -5.171875 L 6.546875 -5.171875 C 5.078125 -5.171875 4.34375 -4.6875 4.34375 -3.71875 C 4.34375 -3.257812 4.519531 -2.894531 4.875 -2.625 C 5.238281 -2.363281 5.734375 -2.234375 6.359375 -2.234375 Z M 6.359375 -2.234375 "/></g></g></g><g fill="#ffffff" fill-opacity="1"><g transform="translate(504.142806, 123.982714)"><g><path d="M 9.171875 -12.546875 C 10.703125 -12.546875 11.9375 -12.085938 12.875 -11.171875 C 13.820312 -10.253906 14.296875 -8.890625 14.296875 -7.078125 L 14.296875 0 L 10.703125 0 L 10.703125 -6.53125 C 10.703125 -7.507812 10.488281 -8.238281 10.0625 -8.71875 C 9.632812 -9.207031 9.015625 -9.453125 8.203125 -9.453125 C 7.296875 -9.453125 6.570312 -9.171875 6.03125 -8.609375 C 5.5 -8.046875 5.234375 -7.210938 5.234375 -6.109375 L 5.234375 0 L 1.65625 0 L 1.65625 -12.359375 L 5.078125 -12.359375 L 5.078125 -10.921875 C 5.554688 -11.441406 6.144531 -11.84375 6.84375 -12.125 C 7.550781 -12.40625 8.328125 -12.546875 9.171875 -12.546875 Z M 9.171875 -12.546875 "/></g></g></g><g fill="#ffffff" fill-opacity="1"><g transform="translate(520.022446, 123.982714)"><g><path d="M 9.625 -0.59375 C 9.28125 -0.332031 8.847656 -0.132812 8.328125 0 C 7.816406 0.125 7.28125 0.1875 6.71875 0.1875 C 5.238281 0.1875 4.097656 -0.1875 3.296875 -0.9375 C 2.492188 -1.6875 2.09375 -2.789062 2.09375 -4.25 L 2.09375 -9.328125 L 0.1875 -9.328125 L 0.1875 -12.09375 L 2.09375 -12.09375 L 2.09375 -15.09375 L 5.671875 -15.09375 L 5.671875 -12.09375 L 8.75 -12.09375 L 8.75 -9.328125 L 5.671875 -9.328125 L 5.671875 -4.296875 C 5.671875 -3.773438 5.804688 -3.375 6.078125 -3.09375 C 6.347656 -2.8125 6.726562 -2.671875 7.21875 -2.671875 C 7.78125 -2.671875 8.265625 -2.820312 8.671875 -3.125 Z M 9.625 -0.59375 "/></g></g></g><g fill="#ffffff" fill-opacity="1"><g transform="translate(530.019037, 123.982714)"><g/></g></g><g fill="#ffffff" fill-opacity="1"><g transform="translate(536.52257, 123.982714)"><g><path d="M 1.90625 -16.09375 L 5.625 -16.09375 L 5.625 -3.03125 L 13.703125 -3.03125 L 13.703125 0 L 1.90625 0 Z M 1.90625 -16.09375 "/></g></g></g><g fill="#ffffff" fill-opacity="1"><g transform="translate(550.402895, 123.982714)"><g><path d="M 1.65625 -12.359375 L 5.234375 -12.359375 L 5.234375 0 L 1.65625 0 Z M 3.453125 -14.09375 C 2.785156 -14.09375 2.242188 -14.28125 1.828125 -14.65625 C 1.421875 -15.039062 1.21875 -15.519531 1.21875 -16.09375 C 1.21875 -16.65625 1.421875 -17.128906 1.828125 -17.515625 C 2.242188 -17.898438 2.785156 -18.09375 3.453125 -18.09375 C 4.109375 -18.09375 4.640625 -17.90625 5.046875 -17.53125 C 5.460938 -17.164062 5.671875 -16.707031 5.671875 -16.15625 C 5.671875 -15.5625 5.460938 -15.066406 5.046875 -14.671875 C 4.640625 -14.285156 4.109375 -14.09375 3.453125 -14.09375 Z M 3.453125 -14.09375 "/></g></g></g><g fill="#ffffff" fill-opacity="1"><g transform="translate(557.320072, 123.982714)"><g><path d="M 9.171875 -12.546875 C 10.703125 -12.546875 11.9375 -12.085938 12.875 -11.171875 C 13.820312 -10.253906 14.296875 -8.890625 14.296875 -7.078125 L 14.296875 0 L 10.703125 0 L 10.703125 -6.53125 C 10.703125 -7.507812 10.488281 -8.238281 10.0625 -8.71875 C 9.632812 -9.207031 9.015625 -9.453125 8.203125 -9.453125 C 7.296875 -9.453125 6.570312 -9.171875 6.03125 -8.609375 C 5.5 -8.046875 5.234375 -7.210938 5.234375 -6.109375 L 5.234375 0 L 1.65625 0 L 1.65625 -12.359375 L 5.078125 -12.359375 L 5.078125 -10.921875 C 5.554688 -11.441406 6.144531 -11.84375 6.84375 -12.125 C 7.550781 -12.40625 8.328125 -12.546875 9.171875 -12.546875 Z M 9.171875 -12.546875 "/></g></g></g><g fill="#ffffff" fill-opacity="1"><g transform="translate(573.199713, 123.982714)"><g><path d="M 6.96875 -4.84375 L 5.234375 -3.15625 L 5.234375 0 L 1.65625 0 L 1.65625 -17.046875 L 5.234375 -17.046875 L 5.234375 -7.40625 L 10.484375 -12.359375 L 14.75 -12.359375 L 9.609375 -7.125 L 15.21875 0 L 10.875 0 Z M 6.96875 -4.84375 "/></g></g></g><g fill="#ffffff" fill-opacity="1"><g transform="translate(588.366952, 123.982714)"><g><path d="M 5.8125 0.1875 C 4.789062 0.1875 3.785156 0.0625 2.796875 -0.1875 C 1.816406 -0.445312 1.035156 -0.769531 0.453125 -1.15625 L 1.65625 -3.71875 C 2.207031 -3.363281 2.875 -3.078125 3.65625 -2.859375 C 4.4375 -2.640625 5.203125 -2.53125 5.953125 -2.53125 C 7.472656 -2.53125 8.234375 -2.90625 8.234375 -3.65625 C 8.234375 -4.007812 8.023438 -4.257812 7.609375 -4.40625 C 7.191406 -4.5625 6.554688 -4.691406 5.703125 -4.796875 C 4.691406 -4.953125 3.851562 -5.128906 3.1875 -5.328125 C 2.53125 -5.523438 1.960938 -5.875 1.484375 -6.375 C 1.003906 -6.882812 0.765625 -7.609375 0.765625 -8.546875 C 0.765625 -9.328125 0.988281 -10.019531 1.4375 -10.625 C 1.882812 -11.226562 2.539062 -11.695312 3.40625 -12.03125 C 4.28125 -12.375 5.304688 -12.546875 6.484375 -12.546875 C 7.359375 -12.546875 8.226562 -12.445312 9.09375 -12.25 C 9.957031 -12.0625 10.671875 -11.800781 11.234375 -11.46875 L 10.046875 -8.921875 C 8.953125 -9.535156 7.765625 -9.84375 6.484375 -9.84375 C 5.710938 -9.84375 5.132812 -9.734375 4.75 -9.515625 C 4.375 -9.296875 4.1875 -9.019531 4.1875 -8.6875 C 4.1875 -8.300781 4.390625 -8.03125 4.796875 -7.875 C 5.210938 -7.726562 5.875 -7.585938 6.78125 -7.453125 C 7.789062 -7.273438 8.617188 -7.09375 9.265625 -6.90625 C 9.910156 -6.71875 10.46875 -6.367188 10.9375 -5.859375 C 11.414062 -5.359375 11.65625 -4.65625 11.65625 -3.75 C 11.65625 -2.976562 11.425781 -2.289062 10.96875 -1.6875 C 10.507812 -1.09375 9.835938 -0.628906 8.953125 -0.296875 C 8.066406 0.0234375 7.019531 0.1875 5.8125 0.1875 Z M 5.8125 0.1875 "/></g></g></g><g fill="#ffffff" fill-opacity="1"><g transform="translate(733.588298, 204.263262)"><g><path d="M 9.703125 -7.796875 L 9.703125 -12.5 L 12.15625 -12.5 L 12.15625 0 L 9.703125 0 L 9.703125 -5.703125 L 4.09375 -5.703125 L 4.09375 0 L 1.625 0 L 1.625 -12.5 L 4.09375 -12.5 L 4.09375 -7.796875 Z M 9.703125 -7.796875 "/></g></g></g><g fill="#ffffff" fill-opacity="1"><g transform="translate(747.37969, 204.263262)"><g><path d="M 4.09375 -5.484375 L 4.09375 -2.0625 L 10.0625 -2.0625 L 10.0625 0 L 1.625 0 L 1.625 -12.5 L 9.921875 -12.5 L 9.921875 -10.4375 L 4.09375 -10.4375 L 4.09375 -7.515625 L 9.1875 -7.515625 L 9.1875 -5.484375 Z M 4.09375 -5.484375 "/></g></g></g><g fill="#ffffff" fill-opacity="1"><g transform="translate(758.127229, 204.263262)"><g><path d="M 12 0 L 9.40625 0 L 8.453125 -2.875 L 3.671875 -2.875 L 2.734375 0 L 0.1875 0 L 4.5 -12.5 L 7.6875 -12.5 Z M 5.9375 -9.890625 L 4.34375 -4.953125 L 7.78125 -4.953125 L 6.15625 -9.890625 Z M 5.9375 -9.890625 "/></g></g></g><g fill="#ffffff" fill-opacity="1"><g transform="translate(770.311194, 204.263262)"><g><path d="M 6.125 -12.5 C 8.15625 -12.5 9.703125 -11.972656 10.765625 -10.921875 C 11.835938 -9.878906 12.375 -8.320312 12.375 -6.25 C 12.375 -4.1875 11.835938 -2.628906 10.765625 -1.578125 C 9.703125 -0.523438 8.15625 0 6.125 0 L 1.625 0 L 1.625 -12.5 Z M 5.984375 -2.078125 C 7.265625 -2.078125 8.222656 -2.40625 8.859375 -3.0625 C 9.503906 -3.71875 9.828125 -4.78125 9.828125 -6.25 C 9.828125 -7.71875 9.503906 -8.78125 8.859375 -9.4375 C 8.222656 -10.09375 7.265625 -10.421875 5.984375 -10.421875 L 4.09375 -10.421875 L 4.09375 -2.078125 Z M 5.984375 -2.078125 "/></g></g></g><g fill="#ffffff" fill-opacity="1"><g transform="translate(783.675078, 204.263262)"><g><path d="M 4.09375 0 L 1.625 0 L 1.625 -12.5 L 4.09375 -12.5 Z M 4.09375 0 "/></g></g></g><g fill="#ffffff" fill-opacity="1"><g transform="translate(789.403676, 204.263262)"><g><path d="M 4.015625 0 L 1.625 0 L 1.625 -12.5 L 4.453125 -12.5 L 9.46875 -4.453125 L 9.703125 -4.484375 L 9.703125 -12.5 L 12.078125 -12.5 L 12.078125 0 L 9.546875 0 L 4.234375 -8.609375 L 4.015625 -8.5625 Z M 4.015625 0 "/></g></g></g><g fill="#ffffff" fill-opacity="1"><g transform="translate(803.109566, 204.263262)"><g><path d="M 6.078125 0.171875 C 5.023438 0.171875 4.117188 -0.0625 3.359375 -0.53125 C 2.597656 -1.007812 2.007812 -1.726562 1.59375 -2.6875 C 1.1875 -3.644531 0.984375 -4.832031 0.984375 -6.25 C 0.984375 -7.675781 1.226562 -8.867188 1.71875 -9.828125 C 2.21875 -10.785156 2.90625 -11.5 3.78125 -11.96875 C 4.664062 -12.445312 5.691406 -12.6875 6.859375 -12.6875 C 8.054688 -12.6875 9.078125 -12.460938 9.921875 -12.015625 C 10.765625 -11.566406 11.359375 -10.90625 11.703125 -10.03125 L 9.890625 -8.9375 L 9.6875 -8.953125 C 9.425781 -9.503906 9.0625 -9.90625 8.59375 -10.15625 C 8.132812 -10.414062 7.554688 -10.546875 6.859375 -10.546875 C 5.785156 -10.546875 4.960938 -10.207031 4.390625 -9.53125 C 3.816406 -8.851562 3.53125 -7.757812 3.53125 -6.25 C 3.53125 -4.738281 3.796875 -3.640625 4.328125 -2.953125 C 4.859375 -2.273438 5.648438 -1.9375 6.703125 -1.9375 C 7.597656 -1.9375 8.257812 -2.132812 8.6875 -2.53125 C 9.113281 -2.9375 9.328125 -3.546875 9.328125 -4.359375 L 9.328125 -4.890625 L 6.375 -4.890625 L 6.375 -6.90625 L 11.78125 -6.90625 L 11.78125 0 L 9.421875 0 L 9.421875 -1.671875 L 9.25 -1.703125 C 8.988281 -1.097656 8.597656 -0.632812 8.078125 -0.3125 C 7.554688 0.0078125 6.890625 0.171875 6.078125 0.171875 Z M 6.078125 0.171875 "/></g></g></g><path fill="#ffffff" d="M 752.328125 222.253906 C 752.328125 222.652344 752.253906 223.035156 752.101562 223.402344 C 751.949219 223.769531 751.730469 224.09375 751.449219 224.375 C 751.167969 224.65625 750.84375 224.871094 750.476562 225.023438 C 750.109375 225.175781 749.726562 225.253906 749.332031 225.253906 C 748.933594 225.253906 748.550781 225.175781 748.183594 225.023438 C 747.816406 224.871094 747.492188 224.65625 747.210938 224.375 C 746.929688 224.09375 746.710938 223.769531 746.558594 223.402344 C 746.40625 223.035156 746.332031 222.652344 746.332031 222.253906 C 746.332031 221.855469 746.40625 221.472656 746.558594 221.105469 C 746.710938 220.738281 746.929688 220.414062 747.210938 220.132812 C 747.492188 219.851562 747.816406 219.636719 748.183594 219.484375 C 748.550781 219.332031 748.933594 219.253906 749.332031 219.253906 C 749.726562 219.253906 750.109375 219.332031 750.476562 219.484375 C 750.84375 219.636719 751.167969 219.851562 751.449219 220.132812 C 751.730469 220.414062 751.949219 220.738281 752.101562 221.105469 C 752.253906 221.472656 752.328125 221.855469 752.328125 222.253906 Z M 752.328125 222.253906 " fill-opacity="1" fill-rule="nonzero"/><path fill="#ffffff" d="M 763.375 229.75 L 797.597656 229.75 L 797.597656 231.25 L 763.375 231.25 Z M 763.375 229.75 " fill-opacity="1" fill-rule="nonzero"/><g fill="#ffffff" fill-opacity="1"><g transform="translate(763.374056, 228.251164)"><g><path d="M 3.359375 -12.5 L 3.359375 -1.21875 L 9.375 -1.21875 L 9.375 0 L 1.890625 0 L 1.890625 -12.5 Z M 3.359375 -12.5 "/></g></g></g><g fill="#ffffff" fill-opacity="1"><g transform="translate(773.283682, 228.251164)"><g><path d="M 2.34375 -11.25 C 2.050781 -11.25 1.8125 -11.34375 1.625 -11.53125 C 1.4375 -11.71875 1.34375 -11.953125 1.34375 -12.234375 C 1.34375 -12.523438 1.4375 -12.757812 1.625 -12.9375 C 1.8125 -13.125 2.050781 -13.21875 2.34375 -13.21875 C 2.632812 -13.21875 2.875 -13.125 3.0625 -12.9375 C 3.25 -12.757812 3.34375 -12.523438 3.34375 -12.234375 C 3.34375 -11.953125 3.25 -11.71875 3.0625 -11.53125 C 2.875 -11.34375 2.632812 -11.25 2.34375 -11.25 Z M 1.640625 0 L 1.640625 -9.4375 L 3.03125 -9.4375 L 3.03125 0 Z M 1.640625 0 "/></g></g></g><g fill="#ffffff" fill-opacity="1"><g transform="translate(777.960617, 228.251164)"><g><path d="M 1.640625 0 L 1.640625 -9.4375 L 2.96875 -9.4375 L 2.96875 -7.953125 L 3.140625 -7.90625 C 3.460938 -8.457031 3.863281 -8.878906 4.34375 -9.171875 C 4.832031 -9.460938 5.425781 -9.609375 6.125 -9.609375 C 7.257812 -9.609375 8.082031 -9.316406 8.59375 -8.734375 C 9.101562 -8.160156 9.359375 -7.273438 9.359375 -6.078125 L 9.359375 0 L 7.96875 0 L 7.96875 -6.03125 C 7.96875 -6.601562 7.894531 -7.0625 7.75 -7.40625 C 7.601562 -7.75 7.378906 -8 7.078125 -8.15625 C 6.773438 -8.320312 6.375 -8.40625 5.875 -8.40625 C 5.019531 -8.40625 4.332031 -8.125 3.8125 -7.5625 C 3.289062 -7 3.03125 -6.09375 3.03125 -4.84375 L 3.03125 0 Z M 1.640625 0 "/></g></g></g><g fill="#ffffff" fill-opacity="1"><g transform="translate(788.819303, 228.251164)"><g><path d="M 1.640625 0 L 1.640625 -13.21875 L 3.03125 -13.21875 L 3.03125 -5.5 L 3.265625 -5.5 L 6.78125 -9.4375 L 8.234375 -9.4375 L 8.234375 -9.234375 L 4.5 -5 L 8.59375 -0.21875 L 8.59375 0 L 7.03125 0 L 3.265625 -4.359375 L 3.03125 -4.359375 L 3.03125 0 Z M 1.640625 0 "/></g></g></g><path fill="#ffffff" d="M 752.328125 246.242188 C 752.328125 246.640625 752.253906 247.023438 752.101562 247.390625 C 751.949219 247.757812 751.730469 248.082031 751.449219 248.363281 C 751.167969 248.644531 750.84375 248.859375 750.476562 249.011719 C 750.109375 249.164062 749.726562 249.242188 749.332031 249.242188 C 748.933594 249.242188 748.550781 249.164062 748.183594 249.011719 C 747.816406 248.859375 747.492188 248.644531 747.210938 248.363281 C 746.929688 248.082031 746.710938 247.757812 746.558594 247.390625 C 746.40625 247.023438 746.332031 246.640625 746.332031 246.242188 C 746.332031 245.84375 746.40625 245.460938 746.558594 245.09375 C 746.710938 244.726562 746.929688 244.402344 747.210938 244.121094 C 747.492188 243.839844 747.816406 243.625 748.183594 243.472656 C 748.550781 243.320312 748.933594 243.242188 749.332031 243.242188 C 749.726562 243.242188 750.109375 243.320312 750.476562 243.472656 C 750.84375 243.625 751.167969 243.839844 751.449219 244.121094 C 751.730469 244.402344 751.949219 244.726562 752.101562 245.09375 C 752.253906 245.460938 752.328125 245.84375 752.328125 246.242188 Z M 752.328125 246.242188 " fill-opacity="1" fill-rule="nonzero"/><path fill="#ffffff" d="M 763.375 253.738281 L 797.597656 253.738281 L 797.597656 255.238281 L 763.375 255.238281 Z M 763.375 253.738281 " fill-opacity="1" fill-rule="nonzero"/><g fill="#ffffff" fill-opacity="1"><g transform="translate(763.374056, 252.239065)"><g><path d="M 3.359375 -12.5 L 3.359375 -1.21875 L 9.375 -1.21875 L 9.375 0 L 1.890625 0 L 1.890625 -12.5 Z M 3.359375 -12.5 "/></g></g></g><g fill="#ffffff" fill-opacity="1"><g transform="translate(773.283682, 252.239065)"><g><path d="M 2.34375 -11.25 C 2.050781 -11.25 1.8125 -11.34375 1.625 -11.53125 C 1.4375 -11.71875 1.34375 -11.953125 1.34375 -12.234375 C 1.34375 -12.523438 1.4375 -12.757812 1.625 -12.9375 C 1.8125 -13.125 2.050781 -13.21875 2.34375 -13.21875 C 2.632812 -13.21875 2.875 -13.125 3.0625 -12.9375 C 3.25 -12.757812 3.34375 -12.523438 3.34375 -12.234375 C 3.34375 -11.953125 3.25 -11.71875 3.0625 -11.53125 C 2.875 -11.34375 2.632812 -11.25 2.34375 -11.25 Z M 1.640625 0 L 1.640625 -9.4375 L 3.03125 -9.4375 L 3.03125 0 Z M 1.640625 0 "/></g></g></g><g fill="#ffffff" fill-opacity="1"><g transform="translate(777.960617, 252.239065)"><g><path d="M 1.640625 0 L 1.640625 -9.4375 L 2.96875 -9.4375 L 2.96875 -7.953125 L 3.140625 -7.90625 C 3.460938 -8.457031 3.863281 -8.878906 4.34375 -9.171875 C 4.832031 -9.460938 5.425781 -9.609375 6.125 -9.609375 C 7.257812 -9.609375 8.082031 -9.316406 8.59375 -8.734375 C 9.101562 -8.160156 9.359375 -7.273438 9.359375 -6.078125 L 9.359375 0 L 7.96875 0 L 7.96875 -6.03125 C 7.96875 -6.601562 7.894531 -7.0625 7.75 -7.40625 C 7.601562 -7.75 7.378906 -8 7.078125 -8.15625 C 6.773438 -8.320312 6.375 -8.40625 5.875 -8.40625 C 5.019531 -8.40625 4.332031 -8.125 3.8125 -7.5625 C 3.289062 -7 3.03125 -6.09375 3.03125 -4.84375 L 3.03125 0 Z M 1.640625 0 "/></g></g></g><g fill="#ffffff" fill-opacity="1"><g transform="translate(788.819303, 252.239065)"><g><path d="M 1.640625 0 L 1.640625 -13.21875 L 3.03125 -13.21875 L 3.03125 -5.5 L 3.265625 -5.5 L 6.78125 -9.4375 L 8.234375 -9.4375 L 8.234375 -9.234375 L 4.5 -5 L 8.59375 -0.21875 L 8.59375 0 L 7.03125 0 L 3.265625 -4.359375 L 3.03125 -4.359375 L 3.03125 0 Z M 1.640625 0 "/></g></g></g><path fill="#ffffff" d="M 752.328125 270.230469 C 752.328125 270.628906 752.253906 271.011719 752.101562 271.378906 C 751.949219 271.746094 751.730469 272.070312 751.449219 272.351562 C 751.167969 272.632812 750.84375 272.847656 750.476562 273 C 750.109375 273.152344 749.726562 273.226562 749.332031 273.226562 C 748.933594 273.226562 748.550781 273.152344 748.183594 273 C 747.816406 272.847656 747.492188 272.632812 747.210938 272.351562 C 746.929688 272.070312 746.710938 271.746094 746.558594 271.378906 C 746.40625 271.011719 746.332031 270.628906 746.332031 270.230469 C 746.332031 269.832031 746.40625 269.449219 746.558594 269.082031 C 746.710938 268.714844 746.929688 268.390625 747.210938 268.109375 C 747.492188 267.828125 747.816406 267.613281 748.183594 267.460938 C 748.550781 267.308594 748.933594 267.230469 749.332031 267.230469 C 749.726562 267.230469 750.109375 267.308594 750.476562 267.460938 C 750.84375 267.613281 751.167969 267.828125 751.449219 268.109375 C 751.730469 268.390625 751.949219 268.714844 752.101562 269.082031 C 752.253906 269.449219 752.328125 269.832031 752.328125 270.230469 Z M 752.328125 270.230469 " fill-opacity="1" fill-rule="nonzero"/><path fill="#ffffff" d="M 763.375 277.726562 L 797.597656 277.726562 L 797.597656 279.226562 L 763.375 279.226562 Z M 763.375 277.726562 " fill-opacity="1" fill-rule="nonzero"/><g fill="#ffffff" fill-opacity="1"><g transform="translate(763.374056, 276.226967)"><g><path d="M 3.359375 -12.5 L 3.359375 -1.21875 L 9.375 -1.21875 L 9.375 0 L 1.890625 0 L 1.890625 -12.5 Z M 3.359375 -12.5 "/></g></g></g><g fill="#ffffff" fill-opacity="1"><g transform="translate(773.283682, 276.226967)"><g><path d="M 2.34375 -11.25 C 2.050781 -11.25 1.8125 -11.34375 1.625 -11.53125 C 1.4375 -11.71875 1.34375 -11.953125 1.34375 -12.234375 C 1.34375 -12.523438 1.4375 -12.757812 1.625 -12.9375 C 1.8125 -13.125 2.050781 -13.21875 2.34375 -13.21875 C 2.632812 -13.21875 2.875 -13.125 3.0625 -12.9375 C 3.25 -12.757812 3.34375 -12.523438 3.34375 -12.234375 C 3.34375 -11.953125 3.25 -11.71875 3.0625 -11.53125 C 2.875 -11.34375 2.632812 -11.25 2.34375 -11.25 Z M 1.640625 0 L 1.640625 -9.4375 L 3.03125 -9.4375 L 3.03125 0 Z M 1.640625 0 "/></g></g></g><g fill="#ffffff" fill-opacity="1"><g transform="translate(777.960617, 276.226967)"><g><path d="M 1.640625 0 L 1.640625 -9.4375 L 2.96875 -9.4375 L 2.96875 -7.953125 L 3.140625 -7.90625 C 3.460938 -8.457031 3.863281 -8.878906 4.34375 -9.171875 C 4.832031 -9.460938 5.425781 -9.609375 6.125 -9.609375 C 7.257812 -9.609375 8.082031 -9.316406 8.59375 -8.734375 C 9.101562 -8.160156 9.359375 -7.273438 9.359375 -6.078125 L 9.359375 0 L 7.96875 0 L 7.96875 -6.03125 C 7.96875 -6.601562 7.894531 -7.0625 7.75 -7.40625 C 7.601562 -7.75 7.378906 -8 7.078125 -8.15625 C 6.773438 -8.320312 6.375 -8.40625 5.875 -8.40625 C 5.019531 -8.40625 4.332031 -8.125 3.8125 -7.5625 C 3.289062 -7 3.03125 -6.09375 3.03125 -4.84375 L 3.03125 0 Z M 1.640625 0 "/></g></g></g><g fill="#ffffff" fill-opacity="1"><g transform="translate(788.819303, 276.226967)"><g><path d="M 1.640625 0 L 1.640625 -13.21875 L 3.03125 -13.21875 L 3.03125 -5.5 L 3.265625 -5.5 L 6.78125 -9.4375 L 8.234375 -9.4375 L 8.234375 -9.234375 L 4.5 -5 L 8.59375 -0.21875 L 8.59375 0 L 7.03125 0 L 3.265625 -4.359375 L 3.03125 -4.359375 L 3.03125 0 Z M 1.640625 0 "/></g></g></g><path fill="#ffffff" d="M 752.328125 294.21875 C 752.328125 294.617188 752.253906 294.996094 752.101562 295.367188 C 751.949219 295.734375 751.730469 296.058594 751.449219 296.339844 C 751.167969 296.621094 750.84375 296.835938 750.476562 296.988281 C 750.109375 297.140625 749.726562 297.214844 749.332031 297.214844 C 748.933594 297.214844 748.550781 297.140625 748.183594 296.988281 C 747.816406 296.835938 747.492188 296.621094 747.210938 296.339844 C 746.929688 296.058594 746.710938 295.734375 746.558594 295.367188 C 746.40625 294.996094 746.332031 294.617188 746.332031 294.21875 C 746.332031 293.820312 746.40625 293.4375 746.558594 293.070312 C 746.710938 292.703125 746.929688 292.378906 747.210938 292.097656 C 747.492188 291.816406 747.816406 291.601562 748.183594 291.449219 C 748.550781 291.296875 748.933594 291.21875 749.332031 291.21875 C 749.726562 291.21875 750.109375 291.296875 750.476562 291.449219 C 750.84375 291.601562 751.167969 291.816406 751.449219 292.097656 C 751.730469 292.378906 751.949219 292.703125 752.101562 293.070312 C 752.253906 293.4375 752.328125 293.820312 752.328125 294.21875 Z M 752.328125 294.21875 " fill-opacity="1" fill-rule="nonzero"/><path fill="#ffffff" d="M 763.375 301.714844 L 797.597656 301.714844 L 797.597656 303.214844 L 763.375 303.214844 Z M 763.375 301.714844 " fill-opacity="1" fill-rule="nonzero"/><g fill="#ffffff" fill-opacity="1"><g transform="translate(763.374056, 300.214869)"><g><path d="M 3.359375 -12.5 L 3.359375 -1.21875 L 9.375 -1.21875 L 9.375 0 L 1.890625 0 L 1.890625 -12.5 Z M 3.359375 -12.5 "/></g></g></g><g fill="#ffffff" fill-opacity="1"><g transform="translate(773.283682, 300.214869)"><g><path d="M 2.34375 -11.25 C 2.050781 -11.25 1.8125 -11.34375 1.625 -11.53125 C 1.4375 -11.71875 1.34375 -11.953125 1.34375 -12.234375 C 1.34375 -12.523438 1.4375 -12.757812 1.625 -12.9375 C 1.8125 -13.125 2.050781 -13.21875 2.34375 -13.21875 C 2.632812 -13.21875 2.875 -13.125 3.0625 -12.9375 C 3.25 -12.757812 3.34375 -12.523438 3.34375 -12.234375 C 3.34375 -11.953125 3.25 -11.71875 3.0625 -11.53125 C 2.875 -11.34375 2.632812 -11.25 2.34375 -11.25 Z M 1.640625 0 L 1.640625 -9.4375 L 3.03125 -9.4375 L 3.03125 0 Z M 1.640625 0 "/></g></g></g><g fill="#ffffff" fill-opacity="1"><g transform="translate(777.960617, 300.214869)"><g><path d="M 1.640625 0 L 1.640625 -9.4375 L 2.96875 -9.4375 L 2.96875 -7.953125 L 3.140625 -7.90625 C 3.460938 -8.457031 3.863281 -8.878906 4.34375 -9.171875 C 4.832031 -9.460938 5.425781 -9.609375 6.125 -9.609375 C 7.257812 -9.609375 8.082031 -9.316406 8.59375 -8.734375 C 9.101562 -8.160156 9.359375 -7.273438 9.359375 -6.078125 L 9.359375 0 L 7.96875 0 L 7.96875 -6.03125 C 7.96875 -6.601562 7.894531 -7.0625 7.75 -7.40625 C 7.601562 -7.75 7.378906 -8 7.078125 -8.15625 C 6.773438 -8.320312 6.375 -8.40625 5.875 -8.40625 C 5.019531 -8.40625 4.332031 -8.125 3.8125 -7.5625 C 3.289062 -7 3.03125 -6.09375 3.03125 -4.84375 L 3.03125 0 Z M 1.640625 0 "/></g></g></g><g fill="#ffffff" fill-opacity="1"><g transform="translate(788.819303, 300.214869)"><g><path d="M 1.640625 0 L 1.640625 -13.21875 L 3.03125 -13.21875 L 3.03125 -5.5 L 3.265625 -5.5 L 6.78125 -9.4375 L 8.234375 -9.4375 L 8.234375 -9.234375 L 4.5 -5 L 8.59375 -0.21875 L 8.59375 0 L 7.03125 0 L 3.265625 -4.359375 L 3.03125 -4.359375 L 3.03125 0 Z M 1.640625 0 "/></g></g></g><path fill="#ffffff" d="M 752.328125 318.207031 C 752.328125 318.601562 752.253906 318.984375 752.101562 319.351562 C 751.949219 319.71875 751.730469 320.042969 751.449219 320.324219 C 751.167969 320.605469 750.84375 320.824219 750.476562 320.976562 C 750.109375 321.128906 749.726562 321.203125 749.332031 321.203125 C 748.933594 321.203125 748.550781 321.128906 748.183594 320.976562 C 747.816406 320.824219 747.492188 320.605469 747.210938 320.324219 C 746.929688 320.042969 746.710938 319.71875 746.558594 319.351562 C 746.40625 318.984375 746.332031 318.601562 746.332031 318.207031 C 746.332031 317.808594 746.40625 317.425781 746.558594 317.058594 C 746.710938 316.691406 746.929688 316.367188 747.210938 316.085938 C 747.492188 315.804688 747.816406 315.585938 748.183594 315.433594 C 748.550781 315.285156 748.933594 315.207031 749.332031 315.207031 C 749.726562 315.207031 750.109375 315.285156 750.476562 315.433594 C 750.84375 315.585938 751.167969 315.804688 751.449219 316.085938 C 751.730469 316.367188 751.949219 316.691406 752.101562 317.058594 C 752.253906 317.425781 752.328125 317.808594 752.328125 318.207031 Z M 752.328125 318.207031 " fill-opacity="1" fill-rule="nonzero"/><path fill="#ffffff" d="M 763.375 325.703125 L 797.597656 325.703125 L 797.597656 327.203125 L 763.375 327.203125 Z M 763.375 325.703125 " fill-opacity="1" fill-rule="nonzero"/><g fill="#ffffff" fill-opacity="1"><g transform="translate(763.374056, 324.20277)"><g><path d="M 3.359375 -12.5 L 3.359375 -1.21875 L 9.375 -1.21875 L 9.375 0 L 1.890625 0 L 1.890625 -12.5 Z M 3.359375 -12.5 "/></g></g></g><g fill="#ffffff" fill-opacity="1"><g transform="translate(773.283682, 324.20277)"><g><path d="M 2.34375 -11.25 C 2.050781 -11.25 1.8125 -11.34375 1.625 -11.53125 C 1.4375 -11.71875 1.34375 -11.953125 1.34375 -12.234375 C 1.34375 -12.523438 1.4375 -12.757812 1.625 -12.9375 C 1.8125 -13.125 2.050781 -13.21875 2.34375 -13.21875 C 2.632812 -13.21875 2.875 -13.125 3.0625 -12.9375 C 3.25 -12.757812 3.34375 -12.523438 3.34375 -12.234375 C 3.34375 -11.953125 3.25 -11.71875 3.0625 -11.53125 C 2.875 -11.34375 2.632812 -11.25 2.34375 -11.25 Z M 1.640625 0 L 1.640625 -9.4375 L 3.03125 -9.4375 L 3.03125 0 Z M 1.640625 0 "/></g></g></g><g fill="#ffffff" fill-opacity="1"><g transform="translate(777.960617, 324.20277)"><g><path d="M 1.640625 0 L 1.640625 -9.4375 L 2.96875 -9.4375 L 2.96875 -7.953125 L 3.140625 -7.90625 C 3.460938 -8.457031 3.863281 -8.878906 4.34375 -9.171875 C 4.832031 -9.460938 5.425781 -9.609375 6.125 -9.609375 C 7.257812 -9.609375 8.082031 -9.316406 8.59375 -8.734375 C 9.101562 -8.160156 9.359375 -7.273438 9.359375 -6.078125 L 9.359375 0 L 7.96875 0 L 7.96875 -6.03125 C 7.96875 -6.601562 7.894531 -7.0625 7.75 -7.40625 C 7.601562 -7.75 7.378906 -8 7.078125 -8.15625 C 6.773438 -8.320312 6.375 -8.40625 5.875 -8.40625 C 5.019531 -8.40625 4.332031 -8.125 3.8125 -7.5625 C 3.289062 -7 3.03125 -6.09375 3.03125 -4.84375 L 3.03125 0 Z M 1.640625 0 "/></g></g></g><g fill="#ffffff" fill-opacity="1"><g transform="translate(788.819303, 324.20277)"><g><path d="M 1.640625 0 L 1.640625 -13.21875 L 3.03125 -13.21875 L 3.03125 -5.5 L 3.265625 -5.5 L 6.78125 -9.4375 L 8.234375 -9.4375 L 8.234375 -9.234375 L 4.5 -5 L 8.59375 -0.21875 L 8.59375 0 L 7.03125 0 L 3.265625 -4.359375 L 3.03125 -4.359375 L 3.03125 0 Z M 1.640625 0 "/></g></g></g><path fill="#ffffff" d="M 752.328125 342.195312 C 752.328125 342.589844 752.253906 342.972656 752.101562 343.339844 C 751.949219 343.707031 751.730469 344.03125 751.449219 344.3125 C 751.167969 344.59375 750.84375 344.8125 750.476562 344.964844 C 750.109375 345.117188 749.726562 345.191406 749.332031 345.191406 C 748.933594 345.191406 748.550781 345.117188 748.183594 344.964844 C 747.816406 344.8125 747.492188 344.59375 747.210938 344.3125 C 746.929688 344.03125 746.710938 343.707031 746.558594 343.339844 C 746.40625 342.972656 746.332031 342.589844 746.332031 342.195312 C 746.332031 341.796875 746.40625 341.414062 746.558594 341.046875 C 746.710938 340.679688 746.929688 340.355469 747.210938 340.074219 C 747.492188 339.792969 747.816406 339.574219 748.183594 339.421875 C 748.550781 339.269531 748.933594 339.195312 749.332031 339.195312 C 749.726562 339.195312 750.109375 339.269531 750.476562 339.421875 C 750.84375 339.574219 751.167969 339.792969 751.449219 340.074219 C 751.730469 340.355469 751.949219 340.679688 752.101562 341.046875 C 752.253906 341.414062 752.328125 341.796875 752.328125 342.195312 Z M 752.328125 342.195312 " fill-opacity="1" fill-rule="nonzero"/><path fill="#ffffff" d="M 763.375 349.691406 L 797.597656 349.691406 L 797.597656 351.1875 L 763.375 351.1875 Z M 763.375 349.691406 " fill-opacity="1" fill-rule="nonzero"/><g fill="#ffffff" fill-opacity="1"><g transform="translate(763.374056, 348.190672)"><g><path d="M 3.359375 -12.5 L 3.359375 -1.21875 L 9.375 -1.21875 L 9.375 0 L 1.890625 0 L 1.890625 -12.5 Z M 3.359375 -12.5 "/></g></g></g><g fill="#ffffff" fill-opacity="1"><g transform="translate(773.283682, 348.190672)"><g><path d="M 2.34375 -11.25 C 2.050781 -11.25 1.8125 -11.34375 1.625 -11.53125 C 1.4375 -11.71875 1.34375 -11.953125 1.34375 -12.234375 C 1.34375 -12.523438 1.4375 -12.757812 1.625 -12.9375 C 1.8125 -13.125 2.050781 -13.21875 2.34375 -13.21875 C 2.632812 -13.21875 2.875 -13.125 3.0625 -12.9375 C 3.25 -12.757812 3.34375 -12.523438 3.34375 -12.234375 C 3.34375 -11.953125 3.25 -11.71875 3.0625 -11.53125 C 2.875 -11.34375 2.632812 -11.25 2.34375 -11.25 Z M 1.640625 0 L 1.640625 -9.4375 L 3.03125 -9.4375 L 3.03125 0 Z M 1.640625 0 "/></g></g></g><g fill="#ffffff" fill-opacity="1"><g transform="translate(777.960617, 348.190672)"><g><path d="M 1.640625 0 L 1.640625 -9.4375 L 2.96875 -9.4375 L 2.96875 -7.953125 L 3.140625 -7.90625 C 3.460938 -8.457031 3.863281 -8.878906 4.34375 -9.171875 C 4.832031 -9.460938 5.425781 -9.609375 6.125 -9.609375 C 7.257812 -9.609375 8.082031 -9.316406 8.59375 -8.734375 C 9.101562 -8.160156 9.359375 -7.273438 9.359375 -6.078125 L 9.359375 0 L 7.96875 0 L 7.96875 -6.03125 C 7.96875 -6.601562 7.894531 -7.0625 7.75 -7.40625 C 7.601562 -7.75 7.378906 -8 7.078125 -8.15625 C 6.773438 -8.320312 6.375 -8.40625 5.875 -8.40625 C 5.019531 -8.40625 4.332031 -8.125 3.8125 -7.5625 C 3.289062 -7 3.03125 -6.09375 3.03125 -4.84375 L 3.03125 0 Z M 1.640625 0 "/></g></g></g><g fill="#ffffff" fill-opacity="1"><g transform="translate(788.819303, 348.190672)"><g><path d="M 1.640625 0 L 1.640625 -13.21875 L 3.03125 -13.21875 L 3.03125 -5.5 L 3.265625 -5.5 L 6.78125 -9.4375 L 8.234375 -9.4375 L 8.234375 -9.234375 L 4.5 -5 L 8.59375 -0.21875 L 8.59375 0 L 7.03125 0 L 3.265625 -4.359375 L 3.03125 -4.359375 L 3.03125 0 Z M 1.640625 0 "/></g></g></g><path fill="#ffffff" d="M 752.328125 366.179688 C 752.328125 366.578125 752.253906 366.960938 752.101562 367.328125 C 751.949219 367.695312 751.730469 368.019531 751.449219 368.300781 C 751.167969 368.582031 750.84375 368.800781 750.476562 368.953125 C 750.109375 369.105469 749.726562 369.179688 749.332031 369.179688 C 748.933594 369.179688 748.550781 369.105469 748.183594 368.953125 C 747.816406 368.800781 747.492188 368.582031 747.210938 368.300781 C 746.929688 368.019531 746.710938 367.695312 746.558594 367.328125 C 746.40625 366.960938 746.332031 366.578125 746.332031 366.179688 C 746.332031 365.785156 746.40625 365.402344 746.558594 365.035156 C 746.710938 364.667969 746.929688 364.34375 747.210938 364.0625 C 747.492188 363.78125 747.816406 363.5625 748.183594 363.410156 C 748.550781 363.257812 748.933594 363.183594 749.332031 363.183594 C 749.726562 363.183594 750.109375 363.257812 750.476562 363.410156 C 750.84375 363.5625 751.167969 363.78125 751.449219 364.0625 C 751.730469 364.34375 751.949219 364.667969 752.101562 365.035156 C 752.253906 365.402344 752.328125 365.785156 752.328125 366.179688 Z M 752.328125 366.179688 " fill-opacity="1" fill-rule="nonzero"/><path fill="#ffffff" d="M 763.375 373.679688 L 797.597656 373.679688 L 797.597656 375.175781 L 763.375 375.175781 Z M 763.375 373.679688 " fill-opacity="1" fill-rule="nonzero"/><g fill="#ffffff" fill-opacity="1"><g transform="translate(763.374056, 372.178573)"><g><path d="M 3.359375 -12.5 L 3.359375 -1.21875 L 9.375 -1.21875 L 9.375 0 L 1.890625 0 L 1.890625 -12.5 Z M 3.359375 -12.5 "/></g></g></g><g fill="#ffffff" fill-opacity="1"><g transform="translate(773.283682, 372.178573)"><g><path d="M 2.34375 -11.25 C 2.050781 -11.25 1.8125 -11.34375 1.625 -11.53125 C 1.4375 -11.71875 1.34375 -11.953125 1.34375 -12.234375 C 1.34375 -12.523438 1.4375 -12.757812 1.625 -12.9375 C 1.8125 -13.125 2.050781 -13.21875 2.34375 -13.21875 C 2.632812 -13.21875 2.875 -13.125 3.0625 -12.9375 C 3.25 -12.757812 3.34375 -12.523438 3.34375 -12.234375 C 3.34375 -11.953125 3.25 -11.71875 3.0625 -11.53125 C 2.875 -11.34375 2.632812 -11.25 2.34375 -11.25 Z M 1.640625 0 L 1.640625 -9.4375 L 3.03125 -9.4375 L 3.03125 0 Z M 1.640625 0 "/></g></g></g><g fill="#ffffff" fill-opacity="1"><g transform="translate(777.960617, 372.178573)"><g><path d="M 1.640625 0 L 1.640625 -9.4375 L 2.96875 -9.4375 L 2.96875 -7.953125 L 3.140625 -7.90625 C 3.460938 -8.457031 3.863281 -8.878906 4.34375 -9.171875 C 4.832031 -9.460938 5.425781 -9.609375 6.125 -9.609375 C 7.257812 -9.609375 8.082031 -9.316406 8.59375 -8.734375 C 9.101562 -8.160156 9.359375 -7.273438 9.359375 -6.078125 L 9.359375 0 L 7.96875 0 L 7.96875 -6.03125 C 7.96875 -6.601562 7.894531 -7.0625 7.75 -7.40625 C 7.601562 -7.75 7.378906 -8 7.078125 -8.15625 C 6.773438 -8.320312 6.375 -8.40625 5.875 -8.40625 C 5.019531 -8.40625 4.332031 -8.125 3.8125 -7.5625 C 3.289062 -7 3.03125 -6.09375 3.03125 -4.84375 L 3.03125 0 Z M 1.640625 0 "/></g></g></g><g fill="#ffffff" fill-opacity="1"><g transform="translate(788.819303, 372.178573)"><g><path d="M 1.640625 0 L 1.640625 -13.21875 L 3.03125 -13.21875 L 3.03125 -5.5 L 3.265625 -5.5 L 6.78125 -9.4375 L 8.234375 -9.4375 L 8.234375 -9.234375 L 4.5 -5 L 8.59375 -0.21875 L 8.59375 0 L 7.03125 0 L 3.265625 -4.359375 L 3.03125 -4.359375 L 3.03125 0 Z M 1.640625 0 "/></g></g></g><g fill="#ffffff" fill-opacity="1"><g transform="translate(333.29949, 204.263262)"><g><path d="M 9.703125 -7.796875 L 9.703125 -12.5 L 12.15625 -12.5 L 12.15625 0 L 9.703125 0 L 9.703125 -5.703125 L 4.09375 -5.703125 L 4.09375 0 L 1.625 0 L 1.625 -12.5 L 4.09375 -12.5 L 4.09375 -7.796875 Z M 9.703125 -7.796875 "/></g></g></g><g fill="#ffffff" fill-opacity="1"><g transform="translate(347.090882, 204.263262)"><g><path d="M 4.09375 -5.484375 L 4.09375 -2.0625 L 10.0625 -2.0625 L 10.0625 0 L 1.625 0 L 1.625 -12.5 L 9.921875 -12.5 L 9.921875 -10.4375 L 4.09375 -10.4375 L 4.09375 -7.515625 L 9.1875 -7.515625 L 9.1875 -5.484375 Z M 4.09375 -5.484375 "/></g></g></g><g fill="#ffffff" fill-opacity="1"><g transform="translate(357.838422, 204.263262)"><g><path d="M 12 0 L 9.40625 0 L 8.453125 -2.875 L 3.671875 -2.875 L 2.734375 0 L 0.1875 0 L 4.5 -12.5 L 7.6875 -12.5 Z M 5.9375 -9.890625 L 4.34375 -4.953125 L 7.78125 -4.953125 L 6.15625 -9.890625 Z M 5.9375 -9.890625 "/></g></g></g><g fill="#ffffff" fill-opacity="1"><g transform="translate(370.022386, 204.263262)"><g><path d="M 6.125 -12.5 C 8.15625 -12.5 9.703125 -11.972656 10.765625 -10.921875 C 11.835938 -9.878906 12.375 -8.320312 12.375 -6.25 C 12.375 -4.1875 11.835938 -2.628906 10.765625 -1.578125 C 9.703125 -0.523438 8.15625 0 6.125 0 L 1.625 0 L 1.625 -12.5 Z M 5.984375 -2.078125 C 7.265625 -2.078125 8.222656 -2.40625 8.859375 -3.0625 C 9.503906 -3.71875 9.828125 -4.78125 9.828125 -6.25 C 9.828125 -7.71875 9.503906 -8.78125 8.859375 -9.4375 C 8.222656 -10.09375 7.265625 -10.421875 5.984375 -10.421875 L 4.09375 -10.421875 L 4.09375 -2.078125 Z M 5.984375 -2.078125 "/></g></g></g><g fill="#ffffff" fill-opacity="1"><g transform="translate(383.38627, 204.263262)"><g><path d="M 4.09375 0 L 1.625 0 L 1.625 -12.5 L 4.09375 -12.5 Z M 4.09375 0 "/></g></g></g><g fill="#ffffff" fill-opacity="1"><g transform="translate(389.114868, 204.263262)"><g><path d="M 4.015625 0 L 1.625 0 L 1.625 -12.5 L 4.453125 -12.5 L 9.46875 -4.453125 L 9.703125 -4.484375 L 9.703125 -12.5 L 12.078125 -12.5 L 12.078125 0 L 9.546875 0 L 4.234375 -8.609375 L 4.015625 -8.5625 Z M 4.015625 0 "/></g></g></g><g fill="#ffffff" fill-opacity="1"><g transform="translate(402.820758, 204.263262)"><g><path d="M 6.078125 0.171875 C 5.023438 0.171875 4.117188 -0.0625 3.359375 -0.53125 C 2.597656 -1.007812 2.007812 -1.726562 1.59375 -2.6875 C 1.1875 -3.644531 0.984375 -4.832031 0.984375 -6.25 C 0.984375 -7.675781 1.226562 -8.867188 1.71875 -9.828125 C 2.21875 -10.785156 2.90625 -11.5 3.78125 -11.96875 C 4.664062 -12.445312 5.691406 -12.6875 6.859375 -12.6875 C 8.054688 -12.6875 9.078125 -12.460938 9.921875 -12.015625 C 10.765625 -11.566406 11.359375 -10.90625 11.703125 -10.03125 L 9.890625 -8.9375 L 9.6875 -8.953125 C 9.425781 -9.503906 9.0625 -9.90625 8.59375 -10.15625 C 8.132812 -10.414062 7.554688 -10.546875 6.859375 -10.546875 C 5.785156 -10.546875 4.960938 -10.207031 4.390625 -9.53125 C 3.816406 -8.851562 3.53125 -7.757812 3.53125 -6.25 C 3.53125 -4.738281 3.796875 -3.640625 4.328125 -2.953125 C 4.859375 -2.273438 5.648438 -1.9375 6.703125 -1.9375 C 7.597656 -1.9375 8.257812 -2.132812 8.6875 -2.53125 C 9.113281 -2.9375 9.328125 -3.546875 9.328125 -4.359375 L 9.328125 -4.890625 L 6.375 -4.890625 L 6.375 -6.90625 L 11.78125 -6.90625 L 11.78125 0 L 9.421875 0 L 9.421875 -1.671875 L 9.25 -1.703125 C 8.988281 -1.097656 8.597656 -0.632812 8.078125 -0.3125 C 7.554688 0.0078125 6.890625 0.171875 6.078125 0.171875 Z M 6.078125 0.171875 "/></g></g></g><path fill="#ffffff" d="M 352.039062 222.253906 C 352.039062 222.652344 351.964844 223.035156 351.8125 223.402344 C 351.660156 223.769531 351.441406 224.09375 351.160156 224.375 C 350.878906 224.65625 350.554688 224.871094 350.1875 225.023438 C 349.820312 225.175781 349.4375 225.253906 349.042969 225.253906 C 348.644531 225.253906 348.261719 225.175781 347.894531 225.023438 C 347.527344 224.871094 347.203125 224.65625 346.921875 224.375 C 346.640625 224.09375 346.421875 223.769531 346.269531 223.402344 C 346.121094 223.035156 346.042969 222.652344 346.042969 222.253906 C 346.042969 221.855469 346.121094 221.472656 346.269531 221.105469 C 346.421875 220.738281 346.640625 220.414062 346.921875 220.132812 C 347.203125 219.851562 347.527344 219.636719 347.894531 219.484375 C 348.261719 219.332031 348.644531 219.253906 349.042969 219.253906 C 349.4375 219.253906 349.820312 219.332031 350.1875 219.484375 C 350.554688 219.636719 350.878906 219.851562 351.160156 220.132812 C 351.441406 220.414062 351.660156 220.738281 351.8125 221.105469 C 351.964844 221.472656 352.039062 221.855469 352.039062 222.253906 Z M 352.039062 222.253906 " fill-opacity="1" fill-rule="nonzero"/><path fill="#ffffff" d="M 363.085938 229.75 L 397.308594 229.75 L 397.308594 231.25 L 363.085938 231.25 Z M 363.085938 229.75 " fill-opacity="1" fill-rule="nonzero"/><g fill="#ffffff" fill-opacity="1"><g transform="translate(363.085249, 228.251164)"><g><path d="M 3.359375 -12.5 L 3.359375 -1.21875 L 9.375 -1.21875 L 9.375 0 L 1.890625 0 L 1.890625 -12.5 Z M 3.359375 -12.5 "/></g></g></g><g fill="#ffffff" fill-opacity="1"><g transform="translate(372.994874, 228.251164)"><g><path d="M 2.34375 -11.25 C 2.050781 -11.25 1.8125 -11.34375 1.625 -11.53125 C 1.4375 -11.71875 1.34375 -11.953125 1.34375 -12.234375 C 1.34375 -12.523438 1.4375 -12.757812 1.625 -12.9375 C 1.8125 -13.125 2.050781 -13.21875 2.34375 -13.21875 C 2.632812 -13.21875 2.875 -13.125 3.0625 -12.9375 C 3.25 -12.757812 3.34375 -12.523438 3.34375 -12.234375 C 3.34375 -11.953125 3.25 -11.71875 3.0625 -11.53125 C 2.875 -11.34375 2.632812 -11.25 2.34375 -11.25 Z M 1.640625 0 L 1.640625 -9.4375 L 3.03125 -9.4375 L 3.03125 0 Z M 1.640625 0 "/></g></g></g><g fill="#ffffff" fill-opacity="1"><g transform="translate(377.67181, 228.251164)"><g><path d="M 1.640625 0 L 1.640625 -9.4375 L 2.96875 -9.4375 L 2.96875 -7.953125 L 3.140625 -7.90625 C 3.460938 -8.457031 3.863281 -8.878906 4.34375 -9.171875 C 4.832031 -9.460938 5.425781 -9.609375 6.125 -9.609375 C 7.257812 -9.609375 8.082031 -9.316406 8.59375 -8.734375 C 9.101562 -8.160156 9.359375 -7.273438 9.359375 -6.078125 L 9.359375 0 L 7.96875 0 L 7.96875 -6.03125 C 7.96875 -6.601562 7.894531 -7.0625 7.75 -7.40625 C 7.601562 -7.75 7.378906 -8 7.078125 -8.15625 C 6.773438 -8.320312 6.375 -8.40625 5.875 -8.40625 C 5.019531 -8.40625 4.332031 -8.125 3.8125 -7.5625 C 3.289062 -7 3.03125 -6.09375 3.03125 -4.84375 L 3.03125 0 Z M 1.640625 0 "/></g></g></g><g fill="#ffffff" fill-opacity="1"><g transform="translate(388.530495, 228.251164)"><g><path d="M 1.640625 0 L 1.640625 -13.21875 L 3.03125 -13.21875 L 3.03125 -5.5 L 3.265625 -5.5 L 6.78125 -9.4375 L 8.234375 -9.4375 L 8.234375 -9.234375 L 4.5 -5 L 8.59375 -0.21875 L 8.59375 0 L 7.03125 0 L 3.265625 -4.359375 L 3.03125 -4.359375 L 3.03125 0 Z M 1.640625 0 "/></g></g></g><path fill="#ffffff" d="M 352.039062 246.242188 C 352.039062 246.640625 351.964844 247.023438 351.8125 247.390625 C 351.660156 247.757812 351.441406 248.082031 351.160156 248.363281 C 350.878906 248.644531 350.554688 248.859375 350.1875 249.011719 C 349.820312 249.164062 349.4375 249.242188 349.042969 249.242188 C 348.644531 249.242188 348.261719 249.164062 347.894531 249.011719 C 347.527344 248.859375 347.203125 248.644531 346.921875 248.363281 C 346.640625 248.082031 346.421875 247.757812 346.269531 247.390625 C 346.121094 247.023438 346.042969 246.640625 346.042969 246.242188 C 346.042969 245.84375 346.121094 245.460938 346.269531 245.09375 C 346.421875 244.726562 346.640625 244.402344 346.921875 244.121094 C 347.203125 243.839844 347.527344 243.625 347.894531 243.472656 C 348.261719 243.320312 348.644531 243.242188 349.042969 243.242188 C 349.4375 243.242188 349.820312 243.320312 350.1875 243.472656 C 350.554688 243.625 350.878906 243.839844 351.160156 244.121094 C 351.441406 244.402344 351.660156 244.726562 351.8125 245.09375 C 351.964844 245.460938 352.039062 245.84375 352.039062 246.242188 Z M 352.039062 246.242188 " fill-opacity="1" fill-rule="nonzero"/><path fill="#ffffff" d="M 363.085938 253.738281 L 397.308594 253.738281 L 397.308594 255.238281 L 363.085938 255.238281 Z M 363.085938 253.738281 " fill-opacity="1" fill-rule="nonzero"/><g fill="#ffffff" fill-opacity="1"><g transform="translate(363.085249, 252.239065)"><g><path d="M 3.359375 -12.5 L 3.359375 -1.21875 L 9.375 -1.21875 L 9.375 0 L 1.890625 0 L 1.890625 -12.5 Z M 3.359375 -12.5 "/></g></g></g><g fill="#ffffff" fill-opacity="1"><g transform="translate(372.994874, 252.239065)"><g><path d="M 2.34375 -11.25 C 2.050781 -11.25 1.8125 -11.34375 1.625 -11.53125 C 1.4375 -11.71875 1.34375 -11.953125 1.34375 -12.234375 C 1.34375 -12.523438 1.4375 -12.757812 1.625 -12.9375 C 1.8125 -13.125 2.050781 -13.21875 2.34375 -13.21875 C 2.632812 -13.21875 2.875 -13.125 3.0625 -12.9375 C 3.25 -12.757812 3.34375 -12.523438 3.34375 -12.234375 C 3.34375 -11.953125 3.25 -11.71875 3.0625 -11.53125 C 2.875 -11.34375 2.632812 -11.25 2.34375 -11.25 Z M 1.640625 0 L 1.640625 -9.4375 L 3.03125 -9.4375 L 3.03125 0 Z M 1.640625 0 "/></g></g></g><g fill="#ffffff" fill-opacity="1"><g transform="translate(377.67181, 252.239065)"><g><path d="M 1.640625 0 L 1.640625 -9.4375 L 2.96875 -9.4375 L 2.96875 -7.953125 L 3.140625 -7.90625 C 3.460938 -8.457031 3.863281 -8.878906 4.34375 -9.171875 C 4.832031 -9.460938 5.425781 -9.609375 6.125 -9.609375 C 7.257812 -9.609375 8.082031 -9.316406 8.59375 -8.734375 C 9.101562 -8.160156 9.359375 -7.273438 9.359375 -6.078125 L 9.359375 0 L 7.96875 0 L 7.96875 -6.03125 C 7.96875 -6.601562 7.894531 -7.0625 7.75 -7.40625 C 7.601562 -7.75 7.378906 -8 7.078125 -8.15625 C 6.773438 -8.320312 6.375 -8.40625 5.875 -8.40625 C 5.019531 -8.40625 4.332031 -8.125 3.8125 -7.5625 C 3.289062 -7 3.03125 -6.09375 3.03125 -4.84375 L 3.03125 0 Z M 1.640625 0 "/></g></g></g><g fill="#ffffff" fill-opacity="1"><g transform="translate(388.530495, 252.239065)"><g><path d="M 1.640625 0 L 1.640625 -13.21875 L 3.03125 -13.21875 L 3.03125 -5.5 L 3.265625 -5.5 L 6.78125 -9.4375 L 8.234375 -9.4375 L 8.234375 -9.234375 L 4.5 -5 L 8.59375 -0.21875 L 8.59375 0 L 7.03125 0 L 3.265625 -4.359375 L 3.03125 -4.359375 L 3.03125 0 Z M 1.640625 0 "/></g></g></g><path fill="#ffffff" d="M 352.039062 270.230469 C 352.039062 270.628906 351.964844 271.011719 351.8125 271.378906 C 351.660156 271.746094 351.441406 272.070312 351.160156 272.351562 C 350.878906 272.632812 350.554688 272.847656 350.1875 273 C 349.820312 273.152344 349.4375 273.226562 349.042969 273.226562 C 348.644531 273.226562 348.261719 273.152344 347.894531 273 C 347.527344 272.847656 347.203125 272.632812 346.921875 272.351562 C 346.640625 272.070312 346.421875 271.746094 346.269531 271.378906 C 346.121094 271.011719 346.042969 270.628906 346.042969 270.230469 C 346.042969 269.832031 346.121094 269.449219 346.269531 269.082031 C 346.421875 268.714844 346.640625 268.390625 346.921875 268.109375 C 347.203125 267.828125 347.527344 267.613281 347.894531 267.460938 C 348.261719 267.308594 348.644531 267.230469 349.042969 267.230469 C 349.4375 267.230469 349.820312 267.308594 350.1875 267.460938 C 350.554688 267.613281 350.878906 267.828125 351.160156 268.109375 C 351.441406 268.390625 351.660156 268.714844 351.8125 269.082031 C 351.964844 269.449219 352.039062 269.832031 352.039062 270.230469 Z M 352.039062 270.230469 " fill-opacity="1" fill-rule="nonzero"/><path fill="#ffffff" d="M 363.085938 277.726562 L 397.308594 277.726562 L 397.308594 279.226562 L 363.085938 279.226562 Z M 363.085938 277.726562 " fill-opacity="1" fill-rule="nonzero"/><g fill="#ffffff" fill-opacity="1"><g transform="translate(363.085249, 276.226967)"><g><path d="M 3.359375 -12.5 L 3.359375 -1.21875 L 9.375 -1.21875 L 9.375 0 L 1.890625 0 L 1.890625 -12.5 Z M 3.359375 -12.5 "/></g></g></g><g fill="#ffffff" fill-opacity="1"><g transform="translate(372.994874, 276.226967)"><g><path d="M 2.34375 -11.25 C 2.050781 -11.25 1.8125 -11.34375 1.625 -11.53125 C 1.4375 -11.71875 1.34375 -11.953125 1.34375 -12.234375 C 1.34375 -12.523438 1.4375 -12.757812 1.625 -12.9375 C 1.8125 -13.125 2.050781 -13.21875 2.34375 -13.21875 C 2.632812 -13.21875 2.875 -13.125 3.0625 -12.9375 C 3.25 -12.757812 3.34375 -12.523438 3.34375 -12.234375 C 3.34375 -11.953125 3.25 -11.71875 3.0625 -11.53125 C 2.875 -11.34375 2.632812 -11.25 2.34375 -11.25 Z M 1.640625 0 L 1.640625 -9.4375 L 3.03125 -9.4375 L 3.03125 0 Z M 1.640625 0 "/></g></g></g><g fill="#ffffff" fill-opacity="1"><g transform="translate(377.67181, 276.226967)"><g><path d="M 1.640625 0 L 1.640625 -9.4375 L 2.96875 -9.4375 L 2.96875 -7.953125 L 3.140625 -7.90625 C 3.460938 -8.457031 3.863281 -8.878906 4.34375 -9.171875 C 4.832031 -9.460938 5.425781 -9.609375 6.125 -9.609375 C 7.257812 -9.609375 8.082031 -9.316406 8.59375 -8.734375 C 9.101562 -8.160156 9.359375 -7.273438 9.359375 -6.078125 L 9.359375 0 L 7.96875 0 L 7.96875 -6.03125 C 7.96875 -6.601562 7.894531 -7.0625 7.75 -7.40625 C 7.601562 -7.75 7.378906 -8 7.078125 -8.15625 C 6.773438 -8.320312 6.375 -8.40625 5.875 -8.40625 C 5.019531 -8.40625 4.332031 -8.125 3.8125 -7.5625 C 3.289062 -7 3.03125 -6.09375 3.03125 -4.84375 L 3.03125 0 Z M 1.640625 0 "/></g></g></g><g fill="#ffffff" fill-opacity="1"><g transform="translate(388.530495, 276.226967)"><g><path d="M 1.640625 0 L 1.640625 -13.21875 L 3.03125 -13.21875 L 3.03125 -5.5 L 3.265625 -5.5 L 6.78125 -9.4375 L 8.234375 -9.4375 L 8.234375 -9.234375 L 4.5 -5 L 8.59375 -0.21875 L 8.59375 0 L 7.03125 0 L 3.265625 -4.359375 L 3.03125 -4.359375 L 3.03125 0 Z M 1.640625 0 "/></g></g></g><path fill="#ffffff" d="M 352.039062 294.21875 C 352.039062 294.617188 351.964844 294.996094 351.8125 295.367188 C 351.660156 295.734375 351.441406 296.058594 351.160156 296.339844 C 350.878906 296.621094 350.554688 296.835938 350.1875 296.988281 C 349.820312 297.140625 349.4375 297.214844 349.042969 297.214844 C 348.644531 297.214844 348.261719 297.140625 347.894531 296.988281 C 347.527344 296.835938 347.203125 296.621094 346.921875 296.339844 C 346.640625 296.058594 346.421875 295.734375 346.269531 295.367188 C 346.121094 294.996094 346.042969 294.617188 346.042969 294.21875 C 346.042969 293.820312 346.121094 293.4375 346.269531 293.070312 C 346.421875 292.703125 346.640625 292.378906 346.921875 292.097656 C 347.203125 291.816406 347.527344 291.601562 347.894531 291.449219 C 348.261719 291.296875 348.644531 291.21875 349.042969 291.21875 C 349.4375 291.21875 349.820312 291.296875 350.1875 291.449219 C 350.554688 291.601562 350.878906 291.816406 351.160156 292.097656 C 351.441406 292.378906 351.660156 292.703125 351.8125 293.070312 C 351.964844 293.4375 352.039062 293.820312 352.039062 294.21875 Z M 352.039062 294.21875 " fill-opacity="1" fill-rule="nonzero"/><path fill="#ffffff" d="M 363.085938 301.714844 L 397.308594 301.714844 L 397.308594 303.214844 L 363.085938 303.214844 Z M 363.085938 301.714844 " fill-opacity="1" fill-rule="nonzero"/><g fill="#ffffff" fill-opacity="1"><g transform="translate(363.085249, 300.214869)"><g><path d="M 3.359375 -12.5 L 3.359375 -1.21875 L 9.375 -1.21875 L 9.375 0 L 1.890625 0 L 1.890625 -12.5 Z M 3.359375 -12.5 "/></g></g></g><g fill="#ffffff" fill-opacity="1"><g transform="translate(372.994874, 300.214869)"><g><path d="M 2.34375 -11.25 C 2.050781 -11.25 1.8125 -11.34375 1.625 -11.53125 C 1.4375 -11.71875 1.34375 -11.953125 1.34375 -12.234375 C 1.34375 -12.523438 1.4375 -12.757812 1.625 -12.9375 C 1.8125 -13.125 2.050781 -13.21875 2.34375 -13.21875 C 2.632812 -13.21875 2.875 -13.125 3.0625 -12.9375 C 3.25 -12.757812 3.34375 -12.523438 3.34375 -12.234375 C 3.34375 -11.953125 3.25 -11.71875 3.0625 -11.53125 C 2.875 -11.34375 2.632812 -11.25 2.34375 -11.25 Z M 1.640625 0 L 1.640625 -9.4375 L 3.03125 -9.4375 L 3.03125 0 Z M 1.640625 0 "/></g></g></g><g fill="#ffffff" fill-opacity="1"><g transform="translate(377.67181, 300.214869)"><g><path d="M 1.640625 0 L 1.640625 -9.4375 L 2.96875 -9.4375 L 2.96875 -7.953125 L 3.140625 -7.90625 C 3.460938 -8.457031 3.863281 -8.878906 4.34375 -9.171875 C 4.832031 -9.460938 5.425781 -9.609375 6.125 -9.609375 C 7.257812 -9.609375 8.082031 -9.316406 8.59375 -8.734375 C 9.101562 -8.160156 9.359375 -7.273438 9.359375 -6.078125 L 9.359375 0 L 7.96875 0 L 7.96875 -6.03125 C 7.96875 -6.601562 7.894531 -7.0625 7.75 -7.40625 C 7.601562 -7.75 7.378906 -8 7.078125 -8.15625 C 6.773438 -8.320312 6.375 -8.40625 5.875 -8.40625 C 5.019531 -8.40625 4.332031 -8.125 3.8125 -7.5625 C 3.289062 -7 3.03125 -6.09375 3.03125 -4.84375 L 3.03125 0 Z M 1.640625 0 "/></g></g></g><g fill="#ffffff" fill-opacity="1"><g transform="translate(388.530495, 300.214869)"><g><path d="M 1.640625 0 L 1.640625 -13.21875 L 3.03125 -13.21875 L 3.03125 -5.5 L 3.265625 -5.5 L 6.78125 -9.4375 L 8.234375 -9.4375 L 8.234375 -9.234375 L 4.5 -5 L 8.59375 -0.21875 L 8.59375 0 L 7.03125 0 L 3.265625 -4.359375 L 3.03125 -4.359375 L 3.03125 0 Z M 1.640625 0 "/></g></g></g><path fill="#ffffff" d="M 352.039062 318.207031 C 352.039062 318.601562 351.964844 318.984375 351.8125 319.351562 C 351.660156 319.71875 351.441406 320.042969 351.160156 320.324219 C 350.878906 320.605469 350.554688 320.824219 350.1875 320.976562 C 349.820312 321.128906 349.4375 321.203125 349.042969 321.203125 C 348.644531 321.203125 348.261719 321.128906 347.894531 320.976562 C 347.527344 320.824219 347.203125 320.605469 346.921875 320.324219 C 346.640625 320.042969 346.421875 319.71875 346.269531 319.351562 C 346.121094 318.984375 346.042969 318.601562 346.042969 318.207031 C 346.042969 317.808594 346.121094 317.425781 346.269531 317.058594 C 346.421875 316.691406 346.640625 316.367188 346.921875 316.085938 C 347.203125 315.804688 347.527344 315.585938 347.894531 315.433594 C 348.261719 315.285156 348.644531 315.207031 349.042969 315.207031 C 349.4375 315.207031 349.820312 315.285156 350.1875 315.433594 C 350.554688 315.585938 350.878906 315.804688 351.160156 316.085938 C 351.441406 316.367188 351.660156 316.691406 351.8125 317.058594 C 351.964844 317.425781 352.039062 317.808594 352.039062 318.207031 Z M 352.039062 318.207031 " fill-opacity="1" fill-rule="nonzero"/><path fill="#ffffff" d="M 363.085938 325.703125 L 397.308594 325.703125 L 397.308594 327.203125 L 363.085938 327.203125 Z M 363.085938 325.703125 " fill-opacity="1" fill-rule="nonzero"/><g fill="#ffffff" fill-opacity="1"><g transform="translate(363.085249, 324.20277)"><g><path d="M 3.359375 -12.5 L 3.359375 -1.21875 L 9.375 -1.21875 L 9.375 0 L 1.890625 0 L 1.890625 -12.5 Z M 3.359375 -12.5 "/></g></g></g><g fill="#ffffff" fill-opacity="1"><g transform="translate(372.994874, 324.20277)"><g><path d="M 2.34375 -11.25 C 2.050781 -11.25 1.8125 -11.34375 1.625 -11.53125 C 1.4375 -11.71875 1.34375 -11.953125 1.34375 -12.234375 C 1.34375 -12.523438 1.4375 -12.757812 1.625 -12.9375 C 1.8125 -13.125 2.050781 -13.21875 2.34375 -13.21875 C 2.632812 -13.21875 2.875 -13.125 3.0625 -12.9375 C 3.25 -12.757812 3.34375 -12.523438 3.34375 -12.234375 C 3.34375 -11.953125 3.25 -11.71875 3.0625 -11.53125 C 2.875 -11.34375 2.632812 -11.25 2.34375 -11.25 Z M 1.640625 0 L 1.640625 -9.4375 L 3.03125 -9.4375 L 3.03125 0 Z M 1.640625 0 "/></g></g></g><g fill="#ffffff" fill-opacity="1"><g transform="translate(377.67181, 324.20277)"><g><path d="M 1.640625 0 L 1.640625 -9.4375 L 2.96875 -9.4375 L 2.96875 -7.953125 L 3.140625 -7.90625 C 3.460938 -8.457031 3.863281 -8.878906 4.34375 -9.171875 C 4.832031 -9.460938 5.425781 -9.609375 6.125 -9.609375 C 7.257812 -9.609375 8.082031 -9.316406 8.59375 -8.734375 C 9.101562 -8.160156 9.359375 -7.273438 9.359375 -6.078125 L 9.359375 0 L 7.96875 0 L 7.96875 -6.03125 C 7.96875 -6.601562 7.894531 -7.0625 7.75 -7.40625 C 7.601562 -7.75 7.378906 -8 7.078125 -8.15625 C 6.773438 -8.320312 6.375 -8.40625 5.875 -8.40625 C 5.019531 -8.40625 4.332031 -8.125 3.8125 -7.5625 C 3.289062 -7 3.03125 -6.09375 3.03125 -4.84375 L 3.03125 0 Z M 1.640625 0 "/></g></g></g><g fill="#ffffff" fill-opacity="1"><g transform="translate(388.530495, 324.20277)"><g><path d="M 1.640625 0 L 1.640625 -13.21875 L 3.03125 -13.21875 L 3.03125 -5.5 L 3.265625 -5.5 L 6.78125 -9.4375 L 8.234375 -9.4375 L 8.234375 -9.234375 L 4.5 -5 L 8.59375 -0.21875 L 8.59375 0 L 7.03125 0 L 3.265625 -4.359375 L 3.03125 -4.359375 L 3.03125 0 Z M 1.640625 0 "/></g></g></g><path fill="#ffffff" d="M 352.039062 342.195312 C 352.039062 342.589844 351.964844 342.972656 351.8125 343.339844 C 351.660156 343.707031 351.441406 344.03125 351.160156 344.3125 C 350.878906 344.59375 350.554688 344.8125 350.1875 344.964844 C 349.820312 345.117188 349.4375 345.191406 349.042969 345.191406 C 348.644531 345.191406 348.261719 345.117188 347.894531 344.964844 C 347.527344 344.8125 347.203125 344.59375 346.921875 344.3125 C 346.640625 344.03125 346.421875 343.707031 346.269531 343.339844 C 346.121094 342.972656 346.042969 342.589844 346.042969 342.195312 C 346.042969 341.796875 346.121094 341.414062 346.269531 341.046875 C 346.421875 340.679688 346.640625 340.355469 346.921875 340.074219 C 347.203125 339.792969 347.527344 339.574219 347.894531 339.421875 C 348.261719 339.269531 348.644531 339.195312 349.042969 339.195312 C 349.4375 339.195312 349.820312 339.269531 350.1875 339.421875 C 350.554688 339.574219 350.878906 339.792969 351.160156 340.074219 C 351.441406 340.355469 351.660156 340.679688 351.8125 341.046875 C 351.964844 341.414062 352.039062 341.796875 352.039062 342.195312 Z M 352.039062 342.195312 " fill-opacity="1" fill-rule="nonzero"/><path fill="#ffffff" d="M 363.085938 349.691406 L 397.308594 349.691406 L 397.308594 351.1875 L 363.085938 351.1875 Z M 363.085938 349.691406 " fill-opacity="1" fill-rule="nonzero"/><g fill="#ffffff" fill-opacity="1"><g transform="translate(363.085249, 348.190672)"><g><path d="M 3.359375 -12.5 L 3.359375 -1.21875 L 9.375 -1.21875 L 9.375 0 L 1.890625 0 L 1.890625 -12.5 Z M 3.359375 -12.5 "/></g></g></g><g fill="#ffffff" fill-opacity="1"><g transform="translate(372.994874, 348.190672)"><g><path d="M 2.34375 -11.25 C 2.050781 -11.25 1.8125 -11.34375 1.625 -11.53125 C 1.4375 -11.71875 1.34375 -11.953125 1.34375 -12.234375 C 1.34375 -12.523438 1.4375 -12.757812 1.625 -12.9375 C 1.8125 -13.125 2.050781 -13.21875 2.34375 -13.21875 C 2.632812 -13.21875 2.875 -13.125 3.0625 -12.9375 C 3.25 -12.757812 3.34375 -12.523438 3.34375 -12.234375 C 3.34375 -11.953125 3.25 -11.71875 3.0625 -11.53125 C 2.875 -11.34375 2.632812 -11.25 2.34375 -11.25 Z M 1.640625 0 L 1.640625 -9.4375 L 3.03125 -9.4375 L 3.03125 0 Z M 1.640625 0 "/></g></g></g><g fill="#ffffff" fill-opacity="1"><g transform="translate(377.67181, 348.190672)"><g><path d="M 1.640625 0 L 1.640625 -9.4375 L 2.96875 -9.4375 L 2.96875 -7.953125 L 3.140625 -7.90625 C 3.460938 -8.457031 3.863281 -8.878906 4.34375 -9.171875 C 4.832031 -9.460938 5.425781 -9.609375 6.125 -9.609375 C 7.257812 -9.609375 8.082031 -9.316406 8.59375 -8.734375 C 9.101562 -8.160156 9.359375 -7.273438 9.359375 -6.078125 L 9.359375 0 L 7.96875 0 L 7.96875 -6.03125 C 7.96875 -6.601562 7.894531 -7.0625 7.75 -7.40625 C 7.601562 -7.75 7.378906 -8 7.078125 -8.15625 C 6.773438 -8.320312 6.375 -8.40625 5.875 -8.40625 C 5.019531 -8.40625 4.332031 -8.125 3.8125 -7.5625 C 3.289062 -7 3.03125 -6.09375 3.03125 -4.84375 L 3.03125 0 Z M 1.640625 0 "/></g></g></g><g fill="#ffffff" fill-opacity="1"><g transform="translate(388.530495, 348.190672)"><g><path d="M 1.640625 0 L 1.640625 -13.21875 L 3.03125 -13.21875 L 3.03125 -5.5 L 3.265625 -5.5 L 6.78125 -9.4375 L 8.234375 -9.4375 L 8.234375 -9.234375 L 4.5 -5 L 8.59375 -0.21875 L 8.59375 0 L 7.03125 0 L 3.265625 -4.359375 L 3.03125 -4.359375 L 3.03125 0 Z M 1.640625 0 "/></g></g></g><path fill="#ffffff" d="M 352.039062 366.179688 C 352.039062 366.578125 351.964844 366.960938 351.8125 367.328125 C 351.660156 367.695312 351.441406 368.019531 351.160156 368.300781 C 350.878906 368.582031 350.554688 368.800781 350.1875 368.953125 C 349.820312 369.105469 349.4375 369.179688 349.042969 369.179688 C 348.644531 369.179688 348.261719 369.105469 347.894531 368.953125 C 347.527344 368.800781 347.203125 368.582031 346.921875 368.300781 C 346.640625 368.019531 346.421875 367.695312 346.269531 367.328125 C 346.121094 366.960938 346.042969 366.578125 346.042969 366.179688 C 346.042969 365.785156 346.121094 365.402344 346.269531 365.035156 C 346.421875 364.667969 346.640625 364.34375 346.921875 364.0625 C 347.203125 363.78125 347.527344 363.5625 347.894531 363.410156 C 348.261719 363.257812 348.644531 363.183594 349.042969 363.183594 C 349.4375 363.183594 349.820312 363.257812 350.1875 363.410156 C 350.554688 363.5625 350.878906 363.78125 351.160156 364.0625 C 351.441406 364.34375 351.660156 364.667969 351.8125 365.035156 C 351.964844 365.402344 352.039062 365.785156 352.039062 366.179688 Z M 352.039062 366.179688 " fill-opacity="1" fill-rule="nonzero"/><path fill="#ffffff" d="M 363.085938 373.679688 L 397.308594 373.679688 L 397.308594 375.175781 L 363.085938 375.175781 Z M 363.085938 373.679688 " fill-opacity="1" fill-rule="nonzero"/><g fill="#ffffff" fill-opacity="1"><g transform="translate(363.085249, 372.178573)"><g><path d="M 3.359375 -12.5 L 3.359375 -1.21875 L 9.375 -1.21875 L 9.375 0 L 1.890625 0 L 1.890625 -12.5 Z M 3.359375 -12.5 "/></g></g></g><g fill="#ffffff" fill-opacity="1"><g transform="translate(372.994874, 372.178573)"><g><path d="M 2.34375 -11.25 C 2.050781 -11.25 1.8125 -11.34375 1.625 -11.53125 C 1.4375 -11.71875 1.34375 -11.953125 1.34375 -12.234375 C 1.34375 -12.523438 1.4375 -12.757812 1.625 -12.9375 C 1.8125 -13.125 2.050781 -13.21875 2.34375 -13.21875 C 2.632812 -13.21875 2.875 -13.125 3.0625 -12.9375 C 3.25 -12.757812 3.34375 -12.523438 3.34375 -12.234375 C 3.34375 -11.953125 3.25 -11.71875 3.0625 -11.53125 C 2.875 -11.34375 2.632812 -11.25 2.34375 -11.25 Z M 1.640625 0 L 1.640625 -9.4375 L 3.03125 -9.4375 L 3.03125 0 Z M 1.640625 0 "/></g></g></g><g fill="#ffffff" fill-opacity="1"><g transform="translate(377.67181, 372.178573)"><g><path d="M 1.640625 0 L 1.640625 -9.4375 L 2.96875 -9.4375 L 2.96875 -7.953125 L 3.140625 -7.90625 C 3.460938 -8.457031 3.863281 -8.878906 4.34375 -9.171875 C 4.832031 -9.460938 5.425781 -9.609375 6.125 -9.609375 C 7.257812 -9.609375 8.082031 -9.316406 8.59375 -8.734375 C 9.101562 -8.160156 9.359375 -7.273438 9.359375 -6.078125 L 9.359375 0 L 7.96875 0 L 7.96875 -6.03125 C 7.96875 -6.601562 7.894531 -7.0625 7.75 -7.40625 C 7.601562 -7.75 7.378906 -8 7.078125 -8.15625 C 6.773438 -8.320312 6.375 -8.40625 5.875 -8.40625 C 5.019531 -8.40625 4.332031 -8.125 3.8125 -7.5625 C 3.289062 -7 3.03125 -6.09375 3.03125 -4.84375 L 3.03125 0 Z M 1.640625 0 "/></g></g></g><g fill="#ffffff" fill-opacity="1"><g transform="translate(388.530495, 372.178573)"><g><path d="M 1.640625 0 L 1.640625 -13.21875 L 3.03125 -13.21875 L 3.03125 -5.5 L 3.265625 -5.5 L 6.78125 -9.4375 L 8.234375 -9.4375 L 8.234375 -9.234375 L 4.5 -5 L 8.59375 -0.21875 L 8.59375 0 L 7.03125 0 L 3.265625 -4.359375 L 3.03125 -4.359375 L 3.03125 0 Z M 1.640625 0 "/></g></g></g></svg>